<?xml version="1.0" encoding="utf-8"?>
<!-- Generator: Adobe Illustrator 18.0.0, SVG Export Plug-In . SVG Version: 6.00 Build 0)  -->
<!DOCTYPE svg PUBLIC "-//W3C//DTD SVG 1.1//EN" "http://www.w3.org/Graphics/SVG/1.1/DTD/svg11.dtd">
<svg version="1.1" id="图层_1" xmlns="http://www.w3.org/2000/svg" xmlns:xlink="http://www.w3.org/1999/xlink" x="0px" y="0px"
	 viewBox="0 0 45 40.1" enable-background="new 0 0 45 40.1" xml:space="preserve">
<g id="Symbols">
	<g id="icon-shidu">
		<path fill="#B3DFDB" d="M39.7,0H5.3C2.3,0,0,2.3,0,5.2v12.3c0,2.9,2.3,5.2,5.3,5.2h34.4c2.9,0,5.3-2.3,5.3-5.2V5.2
			C44.9,2.3,42.6,0,39.7,0z M42.8,18c0,1.4-1.1,2.6-2.4,2.6H4.6c-1.3,0-2.4-1.1-2.4-2.6V4.7C2,3.2,3.2,2,4.6,2h35.7
			c1.3,0,2.4,1.1,2.4,2.6V18L42.8,18z M38.3,11.4H5.8c-0.5,0-0.9,0.4-0.9,0.9s0.4,0.9,0.9,0.9h32.4c0.5,0,0.9-0.4,0.9-0.9
			C39.2,11.8,38.7,11.4,38.3,11.4z M38.3,15.2H5.8c-0.5,0-0.9,0.4-0.9,0.9c0,0.5,0.4,0.9,0.9,0.9h32.4c0.5,0,0.9-0.4,0.9-0.9
			C39.2,15.6,38.7,15.2,38.3,15.2z M10.5,27.3c-0.6-1.6-2.1-2.2-2.2-2.2c-0.5-0.2-1,0.1-1.2,0.6s0.1,1,0.6,1.2c0,0,0.8,0.3,1.1,1.1
			c0.3,0.7,0.1,1.7-0.6,2.9c-2.2,3.9-0.2,6.3,1.1,7.1c0.2,0.1,0.3,0.1,0.5,0.1c0.3,0,0.6-0.2,0.8-0.5c0.2-0.4,0.1-1-0.3-1.3
			c-0.2-0.1-2.2-1.4-0.5-4.6C10.8,30.1,11,28.7,10.5,27.3L10.5,27.3z M23.2,27.3c-0.6-1.6-2.1-2.2-2.2-2.2c-0.5-0.2-1,0.1-1.2,0.6
			s0.1,1,0.6,1.2c0,0,0.8,0.3,1.1,1.1c0.3,0.7,0.1,1.7-0.6,2.9c-2.2,3.9-0.2,6.3,1.1,7.1c0.2,0.1,0.3,0.1,0.5,0.1
			c0.3,0,0.6-0.2,0.8-0.5c0.2-0.4,0.1-1-0.3-1.3c-0.2-0.1-2.2-1.4-0.5-4.6C23.4,30.1,23.7,28.7,23.2,27.3L23.2,27.3z M17,28.6
			c-0.6-1.7-2.3-2.4-2.4-2.4c-0.5-0.2-1,0.1-1.2,0.6s0,1,0.5,1.2c0,0,1,0.4,1.3,1.3c0.3,0.8,0.1,1.8-0.6,3.1c-3,5.2,1.2,7.6,1.2,7.7
			c0.2,0.1,0.3,0.1,0.5,0.1c0.3,0,0.6-0.2,0.8-0.5c0.2-0.4,0.1-1-0.3-1.3c-0.2-0.2-2.4-1.6-0.5-5C17.2,31.5,17.6,29.9,17,28.6
			L17,28.6z M36.6,29c0.5-0.3,0.7-0.9,0.4-1.4s-0.9-0.7-1.4-0.4c-0.3,0.2-0.5,0.6-0.5,0.9L33.5,29v-1.8l0,0c0.3-0.2,0.5-0.5,0.5-0.9
			c0-0.3-0.1-0.5-0.3-0.7s-0.5-0.3-0.7-0.3c-0.3,0-0.5,0.1-0.7,0.3s-0.3,0.5-0.3,0.7c0,0.4,0.3,0.8,0.6,1v1.9l-1.8-1
			c0-0.4-0.2-0.7-0.5-0.9c-0.5-0.3-1.1-0.1-1.4,0.4s-0.1,1.1,0.4,1.4c0.3,0.2,0.7,0.2,1,0l1.6,0.9l-1.6,0.9c-0.3-0.2-0.7-0.2-1,0
			c-0.5,0.3-0.7,0.9-0.4,1.4c0.3,0.5,0.9,0.7,1.4,0.4c0.3-0.2,0.5-0.6,0.5-0.9l1.8-1v1.8c-0.4,0.2-0.6,0.5-0.6,1
			c0,0.3,0.1,0.5,0.3,0.7c0.2,0.2,0.4,0.3,0.7,0.3s0.5-0.1,0.7-0.3s0.3-0.5,0.3-0.7c0-0.4-0.2-0.7-0.6-0.9v-1.8l1.6,0.9
			c0,0.4,0.2,0.7,0.5,0.9c0.5,0.3,1.1,0.1,1.4-0.4c0.3-0.5,0.1-1.1-0.4-1.4c-0.3-0.2-0.7-0.2-1,0L33.9,30l1.6-0.9
			C35.9,29.2,36.3,29.2,36.6,29L36.6,29z"/>
	</g>
</g>
</svg>
