<?xml version="1.0" encoding="UTF-8"?>
<svg width="24px" height="24px" viewBox="0 0 24 24" version="1.1" xmlns="http://www.w3.org/2000/svg" xmlns:xlink="http://www.w3.org/1999/xlink">
    <!-- Generator: Sketch 43.1 (39012) - http://www.bohemiancoding.com/sketch -->
    <title>Rectangle 6</title>
    <desc>Created with Sketch.</desc>
    <defs></defs>
    <g id="Page-1" stroke="none" stroke-width="1" fill="none" fill-rule="evenodd">
        <g id="入住-前置" transform="translate(-24.000000, -85.000000)">
            <rect id="Rectangle-31" fill="#F2F2F2" x="0" y="-1" width="375" height="1122"></rect>
            <rect id="Rectangle-34" fill="#FFFFFF" x="0" y="65" width="375" height="64"></rect>
            <g id="icon-shidu" transform="translate(27.000000, 89.000000)" fill="#444444" fill-rule="nonzero">
                <path d="M15.5453472,0.01334025 L2.06776634,0.01334025 C0.932112881,0.01334025 0.00655674576,0.932003226 0.00655674576,2.05889268 L0.00655674576,6.88500382 C0.00655674576,8.01198814 0.932208466,8.93065111 2.06767075,8.93065111 L15.5453472,8.93065111 C16.680905,8.93065111 17.6065567,8.01189327 17.6065567,6.88500382 L17.6065567,2.05889268 C17.6065567,0.932003226 16.680905,0.01334025 15.5453472,0.01334025 Z M16.7432857,7.02010388 C16.7432857,7.57643367 16.30777,8.0214975 15.772818,8.0214975 L1.78881349,8.0214975 C1.25386146,8.0214975 0.818345763,7.57643367 0.818345763,7.02010388 L0.818345763,1.81473386 C0.818345763,1.25840408 1.25386146,0.81334025 1.78881349,0.81334025 L15.772818,0.81334025 C16.3078663,0.81334025 16.7432857,1.25840408 16.7432857,1.81473386 L16.7432857,7.02010388 L16.7432857,7.02010388 Z M14.9817106,4.47194825 L2.2616,4.47194825 C2.05207051,4.47194825 1.89179715,4.64346236 1.89179715,4.83935652 C1.89179715,5.04767787 2.06438454,5.20685966 2.2616,5.20685966 L14.9817106,5.20685966 C15.1912401,5.20685966 15.3515135,5.03544041 15.3515135,4.83935652 C15.3515135,4.64346236 15.1789261,4.47194825 14.9817106,4.47194825 Z M14.9817106,5.96634084 L2.2616,5.96634084 C2.05207051,5.96634084 1.89179715,6.13785495 1.89179715,6.33374911 C1.89179715,6.54197559 2.06438454,6.70125225 2.2616,6.70125225 L14.9817106,6.70125225 C15.1912401,6.70125225 15.3515135,6.529833 15.3515135,6.33374911 C15.3515135,6.12552263 15.1789261,5.96634084 14.9817106,5.96634084 Z M4.13514685,10.7190272 C3.90089383,10.0820155 3.30924746,9.84921923 3.24767729,9.82474431 C3.05046183,9.75131958 2.84093234,9.84921923 2.76695268,10.0452082 C2.69297302,10.2412921 2.7916762,10.4495186 2.9887962,10.5230382 C2.9887962,10.5230382 3.32165695,10.6577451 3.43257871,10.9762035 C3.54350047,11.2579496 3.45720678,11.6375954 3.21073519,12.0786181 C2.34789369,13.5973907 3.13675553,14.5773358 3.66673627,14.8836517 C3.72830644,14.9204589 3.78987661,14.9326015 3.85163769,14.9326015 C3.97477803,14.9326015 4.11042332,14.8714142 4.17208895,14.7489448 C4.27069668,14.5773358 4.22134508,14.3447293 4.03653912,14.2467348 C3.95024542,14.1976901 3.16138359,13.6832426 3.85163769,12.4582638 C4.22134508,11.796872 4.30773424,11.2212373 4.13514685,10.7189324 L4.13514685,10.7190272 Z M9.07775186,10.7190272 C8.84349885,10.0820155 8.25194793,9.84921923 8.19028231,9.82474431 C7.99306685,9.75131958 7.78363281,9.84921923 7.70955769,10.0452082 C7.63567349,10.2412921 7.73418576,10.4495186 7.93140122,10.5230382 C7.93140122,10.5230382 8.26426197,10.6577451 8.37518373,10.9762035 C8.48601003,11.2579496 8.3998118,11.6375954 8.1533402,12.0786181 C7.29049871,13.5973907 8.07936054,14.5773358 8.60934129,14.8836517 C8.67100692,14.9204589 8.73257708,14.9326015 8.79424271,14.9326015 C8.91757397,14.9326015 9.05302834,14.8714142 9.11469397,14.7489448 C9.21330169,14.5773358 9.16404556,14.3447293 8.97914414,14.2467348 C8.89285044,14.1976901 8.10398861,13.6832426 8.79424271,12.4582638 C9.17626414,11.796872 9.26265329,11.2212373 9.07775186,10.7189324 L9.07775186,10.7190272 Z M6.67422427,11.1966675 C6.41543864,10.5108008 5.76203119,10.2534347 5.72508908,10.2534347 C5.52787363,10.18001 5.31843959,10.2780045 5.24445993,10.4738987 C5.17116322,10.6632634 5.26443748,10.8760291 5.45389397,10.9516338 C5.45389397,10.9516338 5.83601085,11.098673 5.95924664,11.4661761 C6.07016841,11.7846346 5.98406563,12.1887552 5.71277505,12.6787278 C4.55420583,14.7122325 6.18118563,15.6553703 6.19349966,15.6676078 C6.25506983,15.7043202 6.31664,15.7166525 6.37830563,15.7166525 C6.50163688,15.7166525 6.63718671,15.6553703 6.69885234,15.5329009 C6.79746007,15.3613868 6.73579444,15.1285906 6.56330251,15.030596 C6.46469478,14.9694088 5.58953925,14.4059166 6.35377302,13.0585632 C6.772832,12.3481267 6.87134427,11.7233524 6.67422427,11.1966675 L6.67422427,11.1966675 Z M14.3778457,11.3558493 C14.5749657,11.2457122 14.6489454,10.988441 14.525805,10.7802145 C14.4146923,10.5842255 14.1559067,10.5108008 13.9463772,10.6331753 C13.8108274,10.7066949 13.7491618,10.8537341 13.7491618,10.988441 L13.1205733,11.3437067 L13.1205733,10.6087004 L13.1328873,10.5963681 C13.2560277,10.5230382 13.3424168,10.3883313 13.3424168,10.2412921 C13.343342,10.1305627 13.2994884,10.0241012 13.2206981,9.94580093 C13.1419079,9.86750066 13.0347802,9.82391979 12.9233578,9.82483918 C12.8119354,9.82391979 12.7048078,9.86750066 12.6260175,9.94580093 C12.5472273,10.0241012 12.5033737,10.1305627 12.5042988,10.2412921 C12.5042988,10.4127114 12.6152206,10.5596557 12.762989,10.6332702 L12.762989,11.4049888 L12.0358883,10.988441 C12.0358883,10.8414018 11.9619086,10.7066949 11.8385774,10.6332702 C11.6414574,10.5230382 11.3826717,10.5842255 11.2594359,10.7802145 C11.1484187,10.9762035 11.2100843,11.2333798 11.4072043,11.3558493 C11.5428496,11.4294637 11.6908089,11.4171314 11.8263588,11.3558493 L12.4795753,11.7233524 L11.8263588,12.0908555 C11.703123,12.0173359 11.5428496,12.0050985 11.4072998,12.0908555 C11.2100843,12.2009926 11.1362001,12.4582638 11.2593405,12.6664903 C11.3702622,12.8624793 11.6292388,12.9360938 11.8385774,12.8135295 C11.9743181,12.7400099 12.0358883,12.5931604 12.0358883,12.4582638 L12.7630845,12.0419057 L12.7630845,12.8011972 C12.6151252,12.8624793 12.5042988,13.0095185 12.5042988,13.1932701 C12.5033733,13.303991 12.5472299,13.410443 12.626023,13.4887283 C12.7048162,13.5670136 12.8119443,13.6105732 12.9233578,13.6096282 C13.0347635,13.6105472 13.1418765,13.5669793 13.2206639,13.4886997 C13.2994513,13.4104201 13.3433162,13.3039832 13.3424168,13.1932701 C13.3424168,13.0339934 13.2561231,12.8993814 13.1205733,12.8380993 L13.1205733,12.1031879 L13.7491618,12.4582638 C13.7491618,12.605303 13.8231414,12.7400099 13.9463772,12.8135295 C14.1434972,12.9236666 14.4024738,12.8624793 14.525805,12.6664903 C14.6365359,12.4705961 14.5749657,12.213325 14.3778457,12.0908555 C14.2422004,12.0173359 14.0943365,12.0296683 13.9586913,12.0908555 L13.3053793,11.7233524 L13.9586913,11.3558493 C14.0818316,11.4294637 14.2422004,11.4416063 14.3777502,11.3558493 L14.3778457,11.3558493 Z"></path>
            </g>
            <rect id="Rectangle-6" x="24" y="85" width="24" height="24"></rect>
        </g>
    </g>
</svg>