<?xml version="1.0" encoding="UTF-8"?>
<svg width="100px" height="100px" viewBox="0 0 100 100" version="1.1" xmlns="http://www.w3.org/2000/svg" xmlns:xlink="http://www.w3.org/1999/xlink">
    <!-- Generator: Sketch 43.1 (39012) - http://www.bohemiancoding.com/sketch -->
    <title>icon-yijianquanguan100*100#BDBDBD</title>
    <desc>Created with Sketch.</desc>
    <defs></defs>
    <g id="Page-1" stroke="none" stroke-width="1" fill="none" fill-rule="evenodd">
        <g id="入住-客控-光照-场景模式" transform="translate(-251.000000, -402.000000)">
            <g id="icon-yijianquanguan100*100#BDBDBD" transform="translate(251.000000, 402.000000)">
                <rect id="Rectangle-44-Copy-2" stroke="#BDBDBD" x="0.5" y="0.5" width="99" height="99" rx="49.5"></rect>
                <text id="一键全关" font-family="MicrosoftYaHei, Microsoft YaHei" font-size="12" font-weight="normal" line-spacing="12" fill="#BDBDBD">
                    <tspan x="26" y="81">一键全关</tspan>
                </text>
                <path d="M49.5029014,26 C43.7113015,26 39,30.71 39,36.5 C39,40.254 41.0325615,43.72 44.2514507,45.584 L44.2514507,54.5 C44.2514507,55.328 44.9236364,56 45.7518652,56 L53.2539376,56 C54.0821663,56 54.754352,55.328 54.754352,54.5 L54.754352,45.584 C57.9732412,43.72 60.0058027,40.254 60.0058027,36.5 C60.0058027,30.71 55.2965018,26 49.5029014,26 Z M45.5833282,54.9166768 L45.5833282,51.5833435 L53.4166613,51.5833435 L53.4166613,54.9166768 L45.5833282,54.9166768 Z M53.4206503,45.020612 L53.4206503,50.5833232 L50.2864511,50.5833232 L50.2864511,39.5059454 C51.6362462,39.155012 52.6371005,37.9392787 52.6371005,36.4833232 C52.6371005,34.755812 51.2308898,33.3499898 49.5029014,33.3499898 C47.7749129,33.3499898 46.3687022,34.755812 46.3687022,36.4833232 C46.3687022,37.9392787 47.3716459,39.155012 48.7193516,39.5059454 L48.7193516,50.5833232 L45.5851524,50.5833232 L45.5851524,45.020612 C42.3506589,43.5333232 40.100304,40.2746565 40.100304,36.4833232 C40.100304,31.2924343 44.3105781,27.0833232 49.5029014,27.0833232 C54.6952246,27.0833232 58.9054988,31.2924343 58.9054988,36.4833232 C58.9054988,40.2746565 56.6551438,43.5333232 53.4206503,45.020612 Z M49.4999898,38.3322845 C48.4419898,38.3322845 47.5833232,37.473855 47.5833232,36.4161473 C47.5833232,35.3584396 48.4419898,34.5000102 49.4999898,34.5000102 C50.5579898,34.5000102 51.4166564,35.3584396 51.4166564,36.4161473 C51.4166564,37.473855 50.5579898,38.3322845 49.4999898,38.3322845 Z" id="Shape" fill="#BDBDBD" fill-rule="nonzero"></path>
            </g>
        </g>
    </g>
</svg>