<?xml version="1.0" encoding="utf-8"?>
<!-- Generator: Adobe Illustrator 18.0.0, SVG Export Plug-In . SVG Version: 6.00 Build 0)  -->
<!DOCTYPE svg PUBLIC "-//W3C//DTD SVG 1.1//EN" "http://www.w3.org/Graphics/SVG/1.1/DTD/svg11.dtd">
<svg version="1.1" id="图层_1" xmlns="http://www.w3.org/2000/svg" xmlns:xlink="http://www.w3.org/1999/xlink" x="0px" y="0px"
	 viewBox="0 0 51.1 151.5" enable-background="new 0 0 51.1 151.5" xml:space="preserve">
<path fill-rule="evenodd" clip-rule="evenodd" fill="#FFFFFF" d="M36.5,11.4C32.1,7,23.9,10.9,19,7.4C18.6-2.5,29.6,0.1,33.3,1
	C39.4,2.5,48,2.4,50.8,4.1c1.8,5.6-5.7,10.7-6.9,16.6c-0.9,4.7-1,9.6-2.9,15c-2.2,1.6-5.8,2.1-8.1-0.5c-0.4-6.8,4.8-12.5,7.5-18.6
	C25,26,15.6,42,10.3,63.8c-1.2,4.8-1.5,10-1.8,15.4c-0.8,11.3-1.1,25,0.6,36c0.8,5.4,1.4,7.9,2.9,13.5c1.3,5.2,4,12.2,3.2,16.1
	c-0.8,3.9-5.2,6-8,6.7c-1.5-1.5-2-4.7-2.8-7c-4.5-14-3.6-26.8-4.4-44.5c-0.2-4.8,0-10.9,0.4-15.8c1.6-19,6.2-33.9,14-48.8
	c1.1-2.1,2.7-3.9,4.1-6.3C22.6,22.6,30,14.8,36.5,11.4z"/>
</svg>
