<?xml version="1.0" encoding="UTF-8"?>
<svg width="24px" height="24px" viewBox="0 0 24 24" version="1.1" xmlns="http://www.w3.org/2000/svg" xmlns:xlink="http://www.w3.org/1999/xlink">
    <!-- Generator: Sketch 43.2 (39069) - http://www.bohemiancoding.com/sketch -->
    <title>图层_1</title>
    <desc>Created with Sketch.</desc>
    <defs></defs>
    <g id="Page-1" stroke="none" stroke-width="1" fill="none" fill-rule="evenodd">
        <g id="酒店地图" transform="translate(-126.000000, -622.000000)" fill="#FDD942">
            <g id="Bottom-Bar/Tab-Bar-Copy" transform="translate(0.000000, 611.000000)">
                <g id="Group" transform="translate(126.000000, 11.000000)">
                    <g id="Group-6">
                        <g id="日历">
                            <g id="图层_1">
                                <path d="M20.0727273,0.9216 C19.6363636,0.9216 19.3090909,1.18341818 19.3090909,1.65469091 C19.3090909,2.12596364 19.5818182,2.38778182 20.0727273,2.38778182 C21.4363636,2.38778182 22.4727273,3.38269091 22.4727273,4.69178182 L22.4727273,6.1056 L1.47272727,6.1056 L1.47272727,4.63941818 C1.47272727,3.33032727 2.50909091,2.33541818 3.87272727,2.33541818 C4.30909091,2.33541818 4.63636364,2.0736 4.63636364,1.60232727 C4.63636364,1.13105455 4.30909091,0.9216 3.87272727,0.9216 C1.8,0.9216 0,2.49250909 0,4.63941818 L0,19.4583273 C0.163636364,21.6052364 1.8,23.1761455 3.87272727,23.1761455 L20.0727273,23.1761455 C22.1454545,23.1761455 23.9454545,21.6052364 23.9454545,19.4583273 L23.9454545,4.63941818 C23.7818182,2.6496 22.1454545,0.9216 20.0727273,0.9216 L20.0727273,0.9216 Z M20.0727273,21.8670545 L3.87272727,21.8670545 C2.50909091,21.8670545 1.47272727,20.8721455 1.47272727,19.5630545 L1.47272727,7.51941818 L22.4181818,7.51941818 L22.4181818,19.6154182 C22.4727273,20.7150545 21.3818182,21.8670545 20.0727273,21.8670545 L20.0727273,21.8670545 Z" id="Shape"></path>
                                <path d="M6.49090909,3.71781818 C6.92727273,3.71781818 7.25454545,3.456 7.25454545,2.98472727 L7.25454545,0.733090909 C7.25454545,0.314181818 6.98181818,0 6.49090909,0 C6.05454545,0 5.72727273,0.261818182 5.72727273,0.733090909 L5.72727273,3.03709091 C5.72727273,3.456 6.05454545,3.71781818 6.49090909,3.71781818 L6.49090909,3.71781818 Z" id="Shape"></path>
                                <path d="M13.6363636,1.36145455 C13.6363636,0.942545455 13.3636364,0.628363636 12.8727273,0.628363636 L10.4727273,0.628363636 C10.0363636,0.785454545 9.70909091,1.04727273 9.70909091,1.36145455 C9.70909091,1.78036364 9.98181818,2.09454545 10.4727273,2.09454545 L12.8727273,2.09454545 C13.3636364,2.04218182 13.6363636,1.78036364 13.6363636,1.36145455 L13.6363636,1.36145455 Z" id="Shape"></path>
                                <path d="M16.5272727,3.71781818 C16.9636364,3.71781818 17.2909091,3.456 17.2909091,2.98472727 L17.2909091,0.733090909 C17.2909091,0.314181818 17.0181818,0 16.5272727,0 C16.0909091,0 15.7636364,0.261818182 15.7636364,0.733090909 L15.7636364,3.03709091 C15.9272727,3.456 16.2,3.71781818 16.5272727,3.71781818 L16.5272727,3.71781818 Z" id="Shape"></path>
                            </g>
                        </g>
                    </g>
                </g>
            </g>
        </g>
    </g>
</svg>