<?xml version="1.0" encoding="utf-8"?>
<!-- Generator: Adobe Illustrator 18.0.0, SVG Export Plug-In . SVG Version: 6.00 Build 0)  -->
<!DOCTYPE svg PUBLIC "-//W3C//DTD SVG 1.1//EN" "http://www.w3.org/Graphics/SVG/1.1/DTD/svg11.dtd">
<svg version="1.1" id="图层_1" xmlns="http://www.w3.org/2000/svg" xmlns:xlink="http://www.w3.org/1999/xlink" x="0px" y="0px"
	 viewBox="0 0 44 44" enable-background="new 0 0 44 44" xml:space="preserve">
<g>
	<path fill-rule="evenodd" clip-rule="evenodd" fill="#333333" d="M36.8,1.5c-0.8,0-1.4,0.5-1.4,1.4s0.5,1.4,1.4,1.4
		c2.5,0,4.4,1.9,4.4,4.4v2.7H2.8V8.6c0-2.5,1.9-4.4,4.4-4.4c0.8,0,1.4-0.5,1.4-1.4S8,1.5,7.2,1.5C3.3,1.5,0,4.5,0,8.6v28.3
		C0.3,41,3.3,44,7.2,44h29.7c3.8,0,7.1-3,7.1-7.1V8.6C43.7,4.8,40.7,1.5,36.8,1.5L36.8,1.5z M36.8,41.5H7.2c-2.5,0-4.4-1.9-4.4-4.4
		V14.1h38.4v23.1C41.2,39.3,39.3,41.5,36.8,41.5L36.8,41.5z"/>
	<g>
		<path fill-rule="evenodd" clip-rule="evenodd" fill="#333333" d="M12.8,7.1c0.8,0,1.4-0.5,1.4-1.4V1.4c0-0.8-0.5-1.4-1.4-1.4
			c-0.8,0-1.4,0.5-1.4,1.4v4.4C11.4,6.6,12,7.1,12.8,7.1L12.8,7.1z"/>
		<path fill-rule="evenodd" clip-rule="evenodd" fill="#333333" d="M31.2,7.1c0.8,0,1.4-0.5,1.4-1.4V1.4C32.6,0.5,32,0,31.2,0
			c-0.8,0-1.4,0.5-1.4,1.4v4.4C29.8,6.6,30.4,7.1,31.2,7.1L31.2,7.1z"/>
		<path fill-rule="evenodd" clip-rule="evenodd" fill="#333333" d="M25.6,2.6c0-0.8-0.5-1.4-1.4-1.4h-4.4c-0.8,0-1.4,0.5-1.4,1.4
			s0.5,1.4,1.4,1.4h4.4C25,3.9,25.6,3.4,25.6,2.6L25.6,2.6z"/>
	</g>
</g>
</svg>
