<?xml version="1.0" encoding="UTF-8"?>
<svg width="48px" height="48px" viewBox="0 0 48 48" version="1.1" xmlns="http://www.w3.org/2000/svg" xmlns:xlink="http://www.w3.org/1999/xlink">
    <!-- Generator: Sketch 43.2 (39069) - http://www.bohemiancoding.com/sketch -->
    <title>退出分房</title>
    <desc>Created with Sketch.</desc>
    <defs></defs>
    <g id="Page-1" stroke="none" stroke-width="1" fill="none" fill-rule="evenodd">
        <g id="入住-控制" transform="translate(-259.000000, -667.000000)">
            <g id="退出分房" transform="translate(259.000000, 667.000000)">
                <rect id="Rectangle" x="0" y="-4.54747351e-13" width="48" height="48"></rect>
                <path d="M30.9674858,45.447095 L11.8838834,45.447095 C7.53763999,45.447095 4,41.9506819 4,37.6550887 L4,9.79200631 C4,5.49641309 7.53763999,2 11.8838834,2 L30.9674858,2 C35.3109215,2 38.8485615,5.49641309 38.8485615,9.79200631 C38.8485615,10.4829641 38.2842237,11.0407253 37.5879263,11.0407253 C36.8916289,11.0407253 36.3188682,10.4829641 36.3188682,9.79200631 C36.3188682,6.87277887 33.9183268,4.50021285 30.9674858,4.50021285 L11.8838834,4.50021285 C8.93023478,4.50021285 6.52969336,6.87277887 6.52969336,9.79200631 L6.52969336,37.6578636 C6.52969336,40.5770911 8.93023478,42.9496571 11.8838834,42.9496571 L30.9674858,42.9496571 C33.9183268,42.9496571 36.3188682,40.5770911 36.3188682,37.6578636 C36.3188682,36.9696807 36.8888213,36.4091447 37.5851187,36.4091447 C38.2814161,36.4091447 38.8457539,36.9696807 38.8457539,37.6578636 C38.8485615,41.9506819 35.3109215,45.447095 30.9674858,45.447095 Z" id="Shape" fill="#444444" fill-rule="nonzero"></path>
                <path d="M36.9562049,29.7541663 C37.3464684,30.131557 38.112957,30.2647536 38.5088358,29.8623886 L43.9219865,24.498447 C44.135368,24.2931021 44.2027516,23.9712101 44.1690598,23.654868 C44.1634445,23.452298 44.1044838,23.2608277 43.9837548,23.1082065 C43.9388324,23.0416082 43.8967176,22.9805597 43.8405646,22.930611 C43.8068728,22.8945369 43.7591428,22.8640126 43.7198356,22.8362633 L38.5144511,17.6776665 C38.112957,17.2864013 37.3183919,17.3751991 36.9337437,17.7553646 C36.5547108,18.1327552 36.4508278,18.9319354 36.8523218,19.3232006 L40.1372732,22.5781947 L22.741069,22.5726449 C22.1823465,22.5726449 21.4635879,23.0776823 21.4635879,23.7408908 C21.4635879,24.4401734 22.1823465,24.8952621 22.741069,24.8952621 L40.1906186,24.9063618 L36.8467065,28.2224044 C36.4536354,28.6164446 36.5799797,29.3740008 36.9562049,29.7541663 L36.9562049,29.7541663 Z" id="Shape" fill="#444444" fill-rule="nonzero"></path>
            </g>
        </g>
    </g>
</svg>