<?xml version="1.0" encoding="UTF-8"?>
<svg width="41px" height="44px" viewBox="0 0 41 44" version="1.1" xmlns="http://www.w3.org/2000/svg" xmlns:xlink="http://www.w3.org/1999/xlink">
    <!-- Generator: Sketch 43.1 (39012) - http://www.bohemiancoding.com/sketch -->
    <title>退出分房</title>
    <desc>Created with Sketch.</desc>
    <defs></defs>
    <g id="Page-1" stroke="none" stroke-width="1" fill="none" fill-rule="evenodd">
        <g id="入住-控制" transform="translate(-263.000000, -533.000000)" fill-rule="nonzero" fill="#169488">
            <g id="退出分房" transform="translate(263.000000, 533.000000)">
                <path d="M27.0067929,43.9996491 L7.92319051,43.9996491 C3.5769471,43.9996491 0.039307111,40.4621017 0.039307111,36.1159721 L0.039307111,7.92508873 C0.039307111,3.57895912 3.5769471,0.0414117647 7.92319051,0.0414117647 L27.0067929,0.0414117647 C31.3502287,0.0414117647 34.8878686,3.57895912 34.8878686,7.92508873 C34.8878686,8.62417547 34.3235308,9.1884985 33.6272334,9.1884985 C32.930936,9.1884985 32.3581753,8.62417547 32.3581753,7.92508873 C32.3581753,4.97151745 29.9576339,2.57103888 27.0067929,2.57103888 L7.92319051,2.57103888 C4.96954189,2.57103888 2.56900047,4.97151745 2.56900047,7.92508873 L2.56900047,36.1187797 C2.56900047,39.0723509 4.96954189,41.4728295 7.92319051,41.4728295 L27.0067929,41.4728295 C29.9576339,41.4728295 32.3581753,39.0723509 32.3581753,36.1187797 C32.3581753,35.4225005 32.9281284,34.8553699 33.6244258,34.8553699 C34.3207232,34.8553699 34.885061,35.4225005 34.885061,36.1187797 C34.8878686,40.4621017 31.3502287,43.9996491 27.0067929,43.9996491 Z" id="Shape"></path>
                <path d="M32.9562049,28.0806859 C33.3464684,28.4625165 34.112957,28.5972802 34.5088358,28.1901815 L39.9219865,22.7631346 C40.135368,22.5553739 40.2027516,22.2296949 40.1690598,21.9096311 C40.1634445,21.704678 40.1044838,21.5109551 39.9837548,21.3565384 C39.9388324,21.2891565 39.8967176,21.2273898 39.8405646,21.1768534 C39.8068728,21.1403549 39.7591428,21.1094716 39.7198356,21.0813958 L34.5144511,15.8621097 C34.112957,15.4662413 33.3183919,15.5560837 32.9337437,15.9407218 C32.5547108,16.3225523 32.4508278,17.1311346 32.8523218,17.527003 L36.1372732,20.8202911 L18.741069,20.814676 C18.1823465,20.814676 17.4635879,21.325655 17.4635879,21.996666 C17.4635879,22.7041755 18.1823465,23.1646181 18.741069,23.1646181 L36.1906186,23.1758485 L32.8467065,26.5309033 C32.4536354,26.9295793 32.5799797,27.6960479 32.9562049,28.0806859 L32.9562049,28.0806859 Z" id="Shape"></path>
            </g>
        </g>
    </g>
</svg>