<?xml version="1.0" encoding="utf-8"?>
<!-- Generator: Adobe Illustrator 18.0.0, SVG Export Plug-In . SVG Version: 6.00 Build 0)  -->
<!DOCTYPE svg PUBLIC "-//W3C//DTD SVG 1.1//EN" "http://www.w3.org/Graphics/SVG/1.1/DTD/svg11.dtd">
<svg version="1.1" id="图层_1" xmlns="http://www.w3.org/2000/svg" xmlns:xlink="http://www.w3.org/1999/xlink" x="0px" y="0px"
	 viewBox="0 0 44 44" enable-background="new 0 0 44 44" xml:space="preserve">
<g>
	<path fill-rule="evenodd" clip-rule="evenodd" fill="#333333" d="M36,0H8C3.6,0,0,3.6,0,8v28c0,4.4,3.6,8,8,8h28c4.4,0,8-3.6,8-8V8
		C44,3.6,40.4,0,36,0z M41.1,33.1c0,4.4-3.6,8-8,8H10.9c-4.4,0-8-3.6-8-8V10.9c0-4.4,3.6-8,8-8h22.2c4.4,0,8,3.6,8,8V33.1z"/>
	<path fill-rule="evenodd" clip-rule="evenodd" fill="#333333" d="M31.9,26.3L31.9,26.3l-9.3-2.9V7.9h0c0,0,0,0,0,0v0h0
		c0-1-0.8-1.8-1.9-1.8c-1,0-1.9,0.8-1.9,1.8l0,0v0c0,0,0,0,0,0h0v18.2h0l12,3.8l0,0c0,0,0,0,0,0l0.1,0l0,0c1,0.2,2-0.4,2.2-1.4
		C33.5,27.6,32.9,26.6,31.9,26.3z"/>
</g>
</svg>
