<?xml version="1.0" encoding="UTF-8"?>
<svg width="12px" height="12px" viewBox="0 0 12 12" version="1.1" xmlns="http://www.w3.org/2000/svg" xmlns:xlink="http://www.w3.org/1999/xlink">
    <!-- Generator: Sketch 43.2 (39069) - http://www.bohemiancoding.com/sketch -->
    <title>Cancel</title>
    <desc>Created with Sketch.</desc>
    <defs></defs>
    <g id="Page-1" stroke="none" stroke-width="1" fill="none" fill-rule="evenodd">
        <g id="选择时间-钟点房" transform="translate(-351.000000, -566.000000)" fill="#FFFFFF">
            <g id="Group-7" transform="translate(0.000000, 556.000000)">
                <path d="M357.966537,16 L362.798887,11.1676497 C363.061154,10.905383 363.066125,10.4676787 362.799223,10.2007768 C362.53046,9.93201418 362.099438,9.93402526 361.83235,10.2011125 L357,15.0334628 L352.16765,10.2011125 C351.905383,9.93884581 351.467679,9.93387497 351.200777,10.2007768 C350.932014,10.4695395 350.934025,10.9005625 351.201113,11.1676497 L356.033463,16 L351.201113,20.8323503 C350.938846,21.094617 350.933875,21.5323213 351.200777,21.7992232 C351.46954,22.0679858 351.900562,22.0659747 352.16765,21.7988875 L357,16.9665372 L361.83235,21.7988875 C362.094617,22.0611542 362.532321,22.066125 362.799223,21.7992232 C363.067986,21.5304605 363.065975,21.0994375 362.798887,20.8323503 L357.966537,16 L357.966537,16 Z" id="Cancel"></path>
            </g>
        </g>
    </g>
</svg>