<?xml version="1.0" standalone="no"?><!DOCTYPE svg PUBLIC "-//W3C//DTD SVG 1.1//EN" "http://www.w3.org/Graphics/SVG/1.1/DTD/svg11.dtd"><svg width="64" height="64" viewBox="0 0 64 64" version="1.1" xmlns="http://www.w3.org/2000/svg" xmlns:xlink="http://www.w3.org/1999/xlink"><defs><style type="text/css"><![CDATA[
@font-face { font-family: ifont; src: url("http://at.alicdn.com/t/font_1442373896_4754455.eot?#iefix") format("embedded-opentype"), url("http://at.alicdn.com/t/font_1442373896_4754455.woff") format("woff"), url("http://at.alicdn.com/t/font_1442373896_4754455.ttf") format("truetype"), url("http://at.alicdn.com/t/font_1442373896_4754455.svg#ifont") format("svg"); }

]]></style></defs><g class="transform-group"><g transform="scale(0.0625, 0.0625)"><path d="M865.28 918.528c-14.848 0-29.184-5.632-39.936-16.384l-312.32-312.32-312.32 312.32c-10.752 10.752-24.576 16.384-39.936 16.384-14.848 0-29.184-5.632-39.424-16.384-10.752-10.752-16.384-24.576-16.384-39.936 0-14.848 5.632-29.184 16.384-39.936l312.32-312.32-312.32-312.32c-10.752-10.752-16.384-24.576-16.384-39.936 0-14.848 5.632-29.184 16.384-39.936 10.752-10.752 24.576-16.384 39.424-16.384 14.848 0 29.184 5.632 39.936 16.384l312.32 312.32 312.32-312.32c10.752-10.752 24.576-16.384 39.936-16.384 14.848 0 29.184 5.632 39.936 16.384 22.016 22.016 22.016 57.344 0 79.36l-312.32 312.32 312.32 312.32c22.016 22.016 22.016 57.344 0 79.36C894.464 912.896 880.64 918.528 865.28 918.528z" fill="#272636"></path></g></g></svg>