<?xml version="1.0" encoding="UTF-8"?>
<svg width="48px" height="48px" viewBox="0 0 48 48" version="1.1" xmlns="http://www.w3.org/2000/svg" xmlns:xlink="http://www.w3.org/1999/xlink">
    <!-- Generator: Sketch 43.1 (39012) - http://www.bohemiancoding.com/sketch -->
    <title>icon-guanbichuanglian48*48#444444</title>
    <desc>Created with Sketch.</desc>
    <defs></defs>
    <g id="Page-1" stroke="none" stroke-width="1" fill="none" fill-rule="evenodd">
        <g id="入住-光照" transform="translate(-204.000000, -217.000000)">
            <g id="icon-guanbichuanglian48*48#444444" transform="translate(204.000000, 217.000000)">
                <ellipse id="Oval-7-Copy-11" fill="#F2F2F2" cx="24" cy="24" rx="24" ry="24"></ellipse>
                <path d="M16.2931034,31.8628188 L16.2908514,31.9031778 C16.2494457,32.6452145 15.6421473,33.2241379 14.8965517,33.2241379 C14.1512166,33.2241379 13.5433708,32.6482581 13.5022354,31.9034614 L13.5,31.8629864 L13.5,14.5 L16.2931034,14.5 L16.2931034,31.8628188 Z" id="Combined-Shape" stroke="#444444"></path>
                <path d="M22.362069,31.8628188 L22.3598169,31.9031778 C22.3184112,32.6452145 21.7111128,33.2241379 20.9655172,33.2241379 C20.2201821,33.2241379 19.6123363,32.6482581 19.571201,31.9034614 L19.5689655,31.8629864 L19.5689655,14.5 L22.362069,14.5 L22.362069,31.8628188 Z" id="Combined-Shape-Copy-3" stroke="#444444"></path>
                <path d="M28.4310345,31.8628188 L28.4287824,31.9031778 C28.3873767,32.6452145 27.7800783,33.2241379 27.0344828,33.2241379 C26.2891476,33.2241379 25.6813018,32.6482581 25.6401665,31.9034614 L25.637931,31.8629864 L25.637931,14.5 L28.4310345,14.5 L28.4310345,31.8628188 Z" id="Combined-Shape-Copy-5" stroke="#444444"></path>
                <path d="M19.3275862,31.8628188 L19.3253342,31.9031778 C19.2839284,32.6452145 18.67663,33.2241379 17.9310345,33.2241379 C17.1856993,33.2241379 16.5778535,32.6482581 16.5367182,31.9034614 L16.5344828,31.8629864 L16.5344828,14.5 L19.3275862,14.5 L19.3275862,31.8628188 Z" id="Combined-Shape-Copy" stroke="#444444"></path>
                <path d="M25.3965517,31.8628188 L25.3942997,31.9031778 C25.352894,32.6452145 24.7455955,33.2241379 24,33.2241379 C23.2546648,33.2241379 22.646819,32.6482581 22.6056837,31.9034614 L22.6034483,31.8629864 L22.6034483,14.5 L25.3965517,14.5 L25.3965517,31.8628188 Z" id="Combined-Shape-Copy-4" stroke="#444444"></path>
                <path d="M31.4655172,31.8628188 L31.4632652,31.9031778 C31.4218595,32.6452145 30.8145611,33.2241379 30.0689655,33.2241379 C29.3236303,33.2241379 28.7157846,32.6482581 28.6746492,31.9034614 L28.6724138,31.8629864 L28.6724138,14.5 L31.4655172,14.5 L31.4655172,31.8628188 Z" id="Combined-Shape-Copy-6" stroke="#444444"></path>
                <path d="M34.5,31.8628188 L34.497748,31.9031778 C34.4563422,32.6452145 33.8490438,33.2241379 33.1034483,33.2241379 C32.3581131,33.2241379 31.7502673,32.6482581 31.709132,31.9034614 L31.7068966,31.8629864 L31.7068966,14.5 L34.5,14.5 L34.5,31.8628188 Z" id="Combined-Shape-Copy-2" stroke="#444444"></path>
            </g>
        </g>
    </g>
</svg>