<?xml version="1.0" encoding="UTF-8"?>
<svg width="24px" height="24px" viewBox="0 0 24 24" version="1.1" xmlns="http://www.w3.org/2000/svg" xmlns:xlink="http://www.w3.org/1999/xlink">
    <!-- Generator: Sketch 43.2 (39069) - http://www.bohemiancoding.com/sketch -->
    <title>编辑-3</title>
    <desc>Created with Sketch.</desc>
    <defs></defs>
    <g id="Page-1" stroke="none" stroke-width="1" fill="none" fill-rule="evenodd">
        <g id="房间详情" transform="translate(-332.000000, -579.000000)">
            <g id="编辑-3" transform="translate(332.000000, 579.000000)">
                <rect id="Rectangle-83" fill="#FFFFFF" x="0" y="0" width="24" height="24"></rect>
                <path d="M21.3515193,9.43457293 C21.0636511,9.43457293 20.8302573,9.66747224 20.8286087,9.95479873 L20.8286087,9.95640023 L20.8286087,9.95802527 L20.8286087,9.95908509 L20.8286087,19.2333951 C20.8286087,19.8112982 20.3601487,20.2791929 19.782858,20.2791929 L9.7821301,20.2791928 L9.78104674,20.2791928 L4.09393717,20.2791928 C3.5166229,20.2791928 3.04816299,19.8112982 3.04816299,19.2333951 L3.04816299,4.0962353 C3.04816299,3.51835581 3.51662292,3.05046113 4.09393717,3.05046113 L14.1986914,3.05046113 C14.4871012,3.04994299 14.7210368,2.81598387 14.7210368,2.52757404 C14.7210368,2.23862251 14.4871012,2.00468695 14.1986914,2.00468695 L3.98936918,2.00468695 C2.89182914,2.00468695 2.00238881,2.89415082 2.00238881,3.99166732 L2.00238881,9.11008242 L2.00238881,9.11170746 L2.00238881,19.3380102 C2.00238881,20.4355738 2.89185268,21.3249906 3.98936918,21.3249906 L19.887426,21.3249906 C20.9849896,21.3249906 21.87443,20.4355502 21.87443,19.3380102 L21.8744299,9.95479873 C21.8727578,9.66747224 21.6393639,9.43457293 21.3515193,9.43457293 Z M11.630605,16.1348852 L21.5790018,6.18728911 C22.1708708,5.59593825 22.1164436,4.57764849 21.4571707,3.91945887 L20.517566,2.97879436 C19.8588582,2.3195214 18.8410866,2.264529 18.2492412,2.85587986 L8.30079724,12.8053836 L11.630605,16.1348852 Z M18.9904022,3.59871303 C19.2152234,3.37445705 19.6011594,3.39492318 19.8513218,3.64452041 L20.7914211,4.58464325 C21.0410183,4.8358655 21.0620261,5.22128336 20.837252,5.44499765 L19.7332353,6.54899077 L17.9009638,4.68815144 L18.9904022,3.59871303 Z M18.9521548,7.33009487 L11.5556646,14.7276684 L9.70827307,12.8808186 L17.1198832,5.46925554 L18.9521548,7.33009487 Z M8.29594566,12.8242247 L7.27334601,16.5715037 C7.22859843,16.7353975 7.27551273,16.9089474 7.39407024,17.0297188 C7.51429988,17.1482998 7.68841503,17.1946489 7.85174364,17.1504665 L11.5993052,16.1284086 L10.8322142,15.3599751 L8.39891217,16.0249004 L9.06249503,13.5902088 L8.29594566,12.8242247 Z" id="Shape" fill="#FDD942" fill-rule="nonzero"></path>
            </g>
        </g>
    </g>
</svg>