<?xml version="1.0" encoding="utf-8"?>
<!-- Generator: Adobe Illustrator 18.0.0, SVG Export Plug-In . SVG Version: 6.00 Build 0)  -->
<!DOCTYPE svg PUBLIC "-//W3C//DTD SVG 1.1//EN" "http://www.w3.org/Graphics/SVG/1.1/DTD/svg11.dtd">
<svg version="1.1" id="图层_1" xmlns="http://www.w3.org/2000/svg" xmlns:xlink="http://www.w3.org/1999/xlink" x="0px" y="0px"
	 viewBox="0 0 60 60" enable-background="new 0 0 60 60" xml:space="preserve">
<circle fill-rule="evenodd" clip-rule="evenodd" fill="#E3E3E3" cx="30" cy="30" r="30"/>
<g>
	<g>
		<path fill="#E93B39" d="M19.3,28.6c-2.4,0-4.3-1.9-4.3-4.3s1.9-4.3,4.3-4.3s4.3,1.9,4.3,4.3S21.7,28.6,19.3,28.6z M19.3,22.2
			c-1.2,0-2.1,0.9-2.1,2.1s0.9,2.1,2.1,2.1s2.1-0.9,2.1-2.1S20.5,22.2,19.3,22.2z"/>
	</g>
	<g>
		<path fill="#E93B39" d="M30,40c-2.4,0-4.3-1.9-4.3-4.3s1.9-4.3,4.3-4.3c2.4,0,4.3,1.9,4.3,4.3S32.4,40,30,40z M30,33.6
			c-1.2,0-2.1,0.9-2.1,2.1c0,1.2,0.9,2.1,2.1,2.1s2.1-0.9,2.1-2.1C32.1,34.5,31.2,33.6,30,33.6z"/>
	</g>
	<g>
		<path fill="#E93B39" d="M40.7,28.6c-2.4,0-4.3-1.9-4.3-4.3s1.9-4.3,4.3-4.3c2.4,0,4.3,1.9,4.3,4.3S43.1,28.6,40.7,28.6z
			 M40.7,22.2c-1.2,0-2.1,0.9-2.1,2.1s0.9,2.1,2.1,2.1c1.2,0,2.1-0.9,2.1-2.1S41.9,22.2,40.7,22.2z"/>
	</g>
	<g>
		<path fill="#E93B39" d="M19.3,22.3c-0.8,0-1.5-0.6-1.5-1.5v-4.5c0-0.8,0.6-1.5,1.5-1.5c0.8,0,1.5,0.6,1.5,1.5v4.5
			C20.8,21.6,20.1,22.3,19.3,22.3z"/>
	</g>
	<g>
		<path fill="#E93B39" d="M19.3,45.2c-0.8,0-1.5-0.6-1.5-1.5V28.2c0-0.8,0.6-1.5,1.5-1.5c0.8,0,1.5,0.6,1.5,1.5v15.5
			C20.8,44.5,20.1,45.2,19.3,45.2z"/>
	</g>
	<g>
		<path fill="#E93B39" d="M30,45.2c-0.8,0-1.5-0.6-1.5-1.5v-4.2c0-0.8,0.6-1.5,1.5-1.5s1.5,0.6,1.5,1.5v4.2
			C31.5,44.5,30.8,45.2,30,45.2z"/>
	</g>
	<g>
		<path fill="#E93B39" d="M30,33.4c-0.8,0-1.5-0.6-1.5-1.5V16.3c0-0.8,0.6-1.5,1.5-1.5s1.5,0.6,1.5,1.5v15.6
			C31.5,32.7,30.8,33.4,30,33.4z"/>
	</g>
	<g>
		<path fill="#E93B39" d="M40.7,22.3c-0.8,0-1.5-0.6-1.5-1.5v-4.5c0-0.8,0.6-1.5,1.5-1.5s1.5,0.6,1.5,1.5v4.5
			C42.1,21.6,41.5,22.3,40.7,22.3z"/>
	</g>
	<g>
		<path fill="#E93B39" d="M40.7,45.2c-0.8,0-1.5-0.6-1.5-1.5V27.9c0-0.8,0.6-1.5,1.5-1.5s1.5,0.6,1.5,1.5v15.8
			C42.1,44.5,41.5,45.2,40.7,45.2z"/>
	</g>
</g>
</svg>
