<?xml version="1.0" encoding="utf-8"?>
<!-- Generator: Adobe Illustrator 18.0.0, SVG Export Plug-In . SVG Version: 6.00 Build 0)  -->
<!DOCTYPE svg PUBLIC "-//W3C//DTD SVG 1.1//EN" "http://www.w3.org/Graphics/SVG/1.1/DTD/svg11.dtd">
<svg version="1.1" id="图层_1" xmlns="http://www.w3.org/2000/svg" xmlns:xlink="http://www.w3.org/1999/xlink" x="0px" y="0px"
	 viewBox="0 0 44 44" enable-background="new 0 0 44 44" xml:space="preserve">
<path fill-rule="evenodd" clip-rule="evenodd" fill="#333333" d="M39.5,39.9H23.3V22.4h16.2V39.9L39.5,39.9L39.5,39.9L39.5,39.9
	 M4.5,22.4h16.2v17.4H4.5V22.4L4.5,22.4L4.5,22.4L4.5,22.4 M2.4,13.7h18.4v7H2.4V13.7 M41.7,20.7H23.2v-7h18.4V20.7L41.7,20.7
	 M11.2,4.5c3.6,0,7.1,4.8,9.2,7.8h-5.2c-3.4,0-6.9-2.2-6.9-5.4C8.2,3.7,11.2,4.5,11.2,4.5 M32.8,4.5c1.9,0,2.9,1,2.9,2.5
	c0,3.1-3.3,5.3-6.8,5.3h-5.2C30.6,3.8,32.8,4.5,32.8,4.5 M43.6,14.3c0-1.4-0.8-2.4-2.4-2.4h-4.8c1.1-1.1,1.7-3,1.7-4.8
	c0-2.3-1.5-4.7-5.3-4.7c-4.9,0-8.8,5.5-10.8,8.3c-2-2.8-5.8-8.3-10.8-8.3c-3.7,0-5.6,2.4-5.6,4.7c0,1.8,0.7,3.7,2,4.8H2.9
	c-1.4,0-2.4,0.9-2.4,2.3v8.4h2.4v16.6c0,1.4,0.8,2.4,2.4,2.4h33.5c1.4,0,2.4-1,2.4-2.4V22.6h2.4L43.6,14.3 M43.6,14.3L43.6,14.3z"/>
</svg>
