<?xml version="1.0" encoding="UTF-8"?>
<svg width="20px" height="20px" viewBox="0 0 20 20" version="1.1" xmlns="http://www.w3.org/2000/svg" xmlns:xlink="http://www.w3.org/1999/xlink">
    <!-- Generator: Sketch 43.1 (39012) - http://www.bohemiancoding.com/sketch -->
    <title>icon-zhuye24*24#444444</title>
    <desc>Created with Sketch.</desc>
    <defs></defs>
    <g id="Page-1" stroke="none" stroke-width="1" fill="none" fill-rule="evenodd">
        <g id="入住-客控-遥控器" transform="translate(-50.000000, -501.000000)">
            <g id="icon-zhuye24*24#444444" transform="translate(48.000000, 499.000000)">
                <rect id="Rectangle-53" x="0" y="0" width="24" height="24"></rect>
                <g id="主页" transform="translate(2.000000, 2.000000)" fill-rule="nonzero" fill="#000000">
                    <path d="M17.3890988,10.8806311 C17.1489566,10.8806311 16.9545347,11.0750531 16.9545347,11.3151953 L16.9545347,18.2526854 C16.9545347,18.7325259 16.5652469,19.1213698 16.0862942,19.1213698 L3.92426893,19.1213698 C3.44487234,19.1213698 3.05558455,18.7325259 3.05558455,18.2526854 L3.05558455,11.3147514 C3.05558455,11.0746092 2.86116259,10.8801873 2.62146431,10.8801873 C2.38087825,10.8801873 2.18645629,11.0746092 2.18645629,11.3147514 L2.18645629,18.2549048 C2.18823182,19.206152 2.95349085,19.9754059 3.90296243,19.9873909 L16.0894014,19.9891664 C17.0468629,19.986947 17.8218874,19.2119225 17.8232191,18.2553487 L17.823219,11.3147514 C17.8236629,11.0750531 17.6287971,10.8806311 17.3890988,10.8806311 Z" id="Shape"></path>
                    <path d="M19.8881755,9.18587541 L11.2248576,0.514123709 C10.551483,-0.15037324 9.47106506,-0.152148774 8.7950271,0.507465424 L0.126382592,9.17877324 C-0.022763011,9.34966925 -0.0205435892,9.60667908 0.142362473,9.76958514 C0.305268534,9.93204732 0.562278385,9.93426676 0.732730508,9.78512114 L9.3920534,1.13556375 C9.72896267,0.798654477 10.2731666,0.797322812 10.6131831,1.12979324 L19.2844909,9.79000391 C19.4558308,9.93293511 19.707514,9.92938403 19.8677567,9.76914128 C20.0279995,9.60889852 20.0315506,9.35632754 19.8881755,9.18587541 Z" id="Shape"></path>
                </g>
            </g>
        </g>
    </g>
</svg>