<?xml version="1.0" encoding="UTF-8"?>
<svg width="24px" height="24px" viewBox="0 0 24 24" version="1.1" xmlns="http://www.w3.org/2000/svg" xmlns:xlink="http://www.w3.org/1999/xlink">
    <!-- Generator: Sketch 43.1 (39012) - http://www.bohemiancoding.com/sketch -->
    <title>Rectangle 6 Copy</title>
    <desc>Created with Sketch.</desc>
    <defs></defs>
    <g id="Page-1" stroke="none" stroke-width="1" fill="none" fill-rule="evenodd">
        <g id="入住-前置" transform="translate(-137.000000, -85.000000)">
            <rect id="Rectangle-31" fill="#F2F2F2" x="0" y="-1" width="375" height="1122"></rect>
            <rect id="Rectangle-34" fill="#FFFFFF" x="0" y="65" width="375" height="64"></rect>
            <rect id="Rectangle-6-Copy" x="137" y="85" width="24" height="24"></rect>
            <g id="icon-kongtiao" transform="translate(143.000000, 88.000000)" fill-rule="nonzero" fill="#444444">
                <path d="M5.66262497,17.9969091 C2.54449668,17.9969091 0.00769517728,15.4179998 0.00769517728,12.2498583 C0.00769517728,8.47984016 5.12568939,0.813921164 5.34368694,0.489379843 L5.66262497,0.0133859061 L5.981563,0.489379843 C6.19956055,0.813921164 11.3175548,8.47955917 11.3175548,12.2498583 C11.3175548,15.4179998 8.78018776,17.9969091 5.66262497,17.9969091 Z M5.66262497,1.42226054 C4.53079077,3.18068445 0.780441332,9.2382272 0.780441332,12.2498583 C0.780441332,14.9844351 2.97059564,17.2095803 5.66262497,17.2095803 C8.35437155,17.2095803 10.5439604,14.9844351 10.5439604,12.2498583 C10.5439604,9.2382272 6.79417642,3.18040346 5.66262497,1.42226054 Z" id="Shape"></path>
                <path d="M9.08074728,13.2198294 C9.08074728,13.7950122 8.62241522,14.2592046 8.05777048,14.2592046 C7.49312573,14.2592046 7.03479367,13.7950122 7.03479367,13.2198294 C7.03479367,12.6454896 7.49312573,12.1801732 8.05777048,12.1801732 C8.62241522,12.1801732 9.08074728,12.6454896 9.08074728,13.2198294 Z" id="Shape"></path>
            </g>
        </g>
    </g>
</svg>