<?xml version="1.0" encoding="UTF-8"?>
<svg width="28px" height="44px" viewBox="0 0 28 44" version="1.1" xmlns="http://www.w3.org/2000/svg" xmlns:xlink="http://www.w3.org/1999/xlink">
    <!-- Generator: Sketch 42 (36781) - http://www.bohemiancoding.com/sketch -->
    <title>icon-kongtiao</title>
    <desc>Created with Sketch.</desc>
    <defs></defs>
    <g id="Symbols" stroke="none" stroke-width="1" fill="none" fill-rule="evenodd">
        <g id="icon-kongtiao" fill-rule="nonzero" fill="#B3DFDB">
            <g id="Shape">
                <path d="M13.8419721,43.9924445 C6.21988078,43.9924445 0.0188104334,37.6884439 0.0188104334,29.9440981 C0.0188104334,20.7284982 12.529463,1.98958507 13.0623458,1.19626184 L13.8419721,0.0327211037 L14.6215985,1.19626184 C15.1544813,1.98958507 27.6651339,20.7278113 27.6651339,29.9440981 C27.6651339,37.6884439 21.4626812,43.9924445 13.8419721,43.9924445 Z M13.8419721,3.47663688 C11.0752663,7.77500644 1.90774548,22.5823332 1.90774548,29.9440981 C1.90774548,36.628619 7.26145601,42.067863 13.8419721,42.067863 C20.4217971,42.067863 25.7741253,36.628619 25.7741253,29.9440981 C25.7741254,22.5823332 16.6079868,7.77431957 13.8419721,3.47663688 Z"></path>
                <path d="M22.1973822,32.3151386 C22.1973822,33.7211409 21.077015,34.8558335 19.6967723,34.8558335 C18.3165296,34.8558335 17.1961623,33.7211409 17.1961623,32.3151386 C17.1961623,30.9111969 18.3165296,29.7737568 19.6967723,29.7737568 C21.077015,29.7737568 22.1973822,30.9111969 22.1973822,32.3151386 Z"></path>
            </g>
        </g>
    </g>
</svg>