<?xml version="1.0" encoding="UTF-8"?>
<svg width="60px" height="60px" viewBox="0 0 60 60" version="1.1" xmlns="http://www.w3.org/2000/svg" xmlns:xlink="http://www.w3.org/1999/xlink">
    <!-- Generator: Sketch 42 (36781) - http://www.bohemiancoding.com/sketch -->
    <title>icon-lock</title>
    <desc>Created with Sketch.</desc>
    <defs></defs>
    <g id="Symbols" stroke="none" stroke-width="1" fill="none" fill-rule="evenodd" opacity="0.447146739">
        <g id="icon-lock" fill="#FCC02F">
            <g id="Combined-Shape">
                <path d="M30,60 C13.4314575,60 0,46.5685425 0,30 C0,13.4314575 13.4314575,0 30,0 C46.5685425,0 60,13.4314575 60,30 C60,46.5685425 46.5685425,60 30,60 Z M39.3390047,27.4307336 L24.6650912,27.4307336 L24.6650912,20.8371377 C24.6650912,17.9563914 26.9874638,15.6127415 29.8420855,15.6127415 C32.6967072,15.6127415 35.0191193,17.9563914 35.0191193,20.8371377 L35.0191193,23.5664586 C35.0191193,24.0062812 35.3725573,24.3628059 35.808572,24.3628059 C36.2445868,24.3628059 36.5980248,24.0062812 36.5980248,23.5664586 L36.5980248,20.8371377 C36.5980248,17.0781797 33.5673157,14.020047 29.8420855,14.020047 C26.1168554,14.020047 23.0861857,17.0781797 23.0861857,20.8371377 L23.0861857,27.4307336 L20.3451663,27.4307336 C19.0600951,27.4307336 18.0146228,28.4851371 18.0146228,29.7811923 L18.0146228,41.6247869 C18.0146228,42.9203642 19.0600951,43.9744094 20.3451663,43.9744094 L39.3390047,43.9744094 C40.6241154,43.9744094 41.6695877,42.9203642 41.6695877,41.6247869 L41.6695877,29.7811923 C41.6695877,28.4851371 40.6240759,27.4307336 39.3390047,27.4307336 Z M40.0906822,41.6247869 C40.0906822,42.0421525 39.7534674,42.3817149 39.3390047,42.3817149 L20.3451663,42.3817149 C19.9307036,42.3817149 19.5935283,42.0421923 19.5935283,41.6247869 L19.5935283,29.7811923 C19.5935283,29.3633489 19.9307036,29.0234281 20.3451663,29.0234281 L39.3390048,29.0234281 C39.7534675,29.0234281 40.0906822,29.3633489 40.0906822,29.7811923 L40.0906822,41.6247869 Z M29.8420855,32.3991042 C29.1331964,32.3991042 28.5591459,32.9782477 28.5591459,33.6928499 L28.5591459,37.7121737 C28.5591459,38.4268953 29.1331964,39.0063972 29.8420855,39.0063972 C30.5509746,39.0063972 31.1250252,38.4268953 31.1250252,37.7121737 L31.1250252,33.6928499 C31.1250252,32.9782079 30.5509746,32.3991042 29.8420855,32.3991042 Z"></path>
            </g>
        </g>
    </g>
</svg>