<?xml version="1.0" encoding="UTF-8"?>
<svg width="60px" height="60px" viewBox="0 0 60 60" version="1.1" xmlns="http://www.w3.org/2000/svg" xmlns:xlink="http://www.w3.org/1999/xlink">
    <!-- Generator: Sketch 42 (36781) - http://www.bohemiancoding.com/sketch -->
    <title>icon-key</title>
    <desc>Created with Sketch.</desc>
    <defs>
        <path d="M30,60 C13.4314575,60 0,46.5685425 0,30 C0,13.4314575 13.4314575,0 30,0 C46.5685425,0 60,13.4314575 60,30 C60,46.5685425 46.5685425,60 30,60 Z M22.2405258,38.3709316 L22.2404883,38.3709316 C26.6243756,38.3709316 30.1949296,34.9362388 30.4210704,30.6191389 L37.3508357,30.6191389 L37.3508357,34.9265729 C37.3508732,35.4037988 37.7366761,35.7874378 38.2139343,35.7874378 C38.69123,35.7874378 39.0780094,35.4026749 39.0780094,34.9265729 L39.0780094,30.6191389 L41.6680563,30.6191389 L41.6680563,34.9266104 C41.6680563,35.4038363 42.0548357,35.7874753 42.5321315,35.7874753 C43.0093897,35.7874753 43.3951174,35.4027124 43.3951174,34.9266104 L43.3951174,30.6191764 L45.1221784,30.6191764 C45.5994742,30.6191764 45.9862535,30.2344884 45.9862535,29.7583115 C45.9862535,29.2811606 45.5994742,28.8964351 45.1221784,28.8964351 L30.3317183,28.8964351 C29.7090329,24.9920094 26.3281502,22.0054324 22.2404883,22.0054324 C17.7100469,22.0054324 14.0372207,25.6680607 14.0372207,30.1882195 C14.0372582,34.7073293 17.7100845,38.3709316 22.2405258,38.3709316 Z M22.2404883,23.7281737 C25.8152488,23.7281737 28.7156432,26.6191407 28.7166948,30.1882195 C28.7166948,33.7572608 25.8152488,36.6493142 22.2404883,36.6493142 C18.6624225,36.6493142 15.764169,33.7561743 15.764169,30.1882195 C15.764169,26.6191407 18.6635493,23.7281737 22.2404883,23.7281737 Z" id="path-1"></path>
        <mask id="mask-2" maskContentUnits="userSpaceOnUse" maskUnits="objectBoundingBox" x="0" y="0" width="60" height="60" fill="white">
            <use xlink:href="#path-1"></use>
        </mask>
    </defs>
    <g id="Symbols" stroke="none" stroke-width="1" fill="none" fill-rule="evenodd">
        <g id="icon-key" stroke-width="4" stroke="#FCC02F" fill="#FCC02F">
            <g id="Combined-Shape">
                <use mask="url(#mask-2)" xlink:href="#path-1"></use>
            </g>
        </g>
    </g>
</svg>