<?xml version="1.0" encoding="UTF-8"?>
<svg width="48px" height="48px" viewBox="0 0 48 48" version="1.1" xmlns="http://www.w3.org/2000/svg" xmlns:xlink="http://www.w3.org/1999/xlink">
    <!-- Generator: Sketch 43.1 (39012) - http://www.bohemiancoding.com/sketch -->
    <title>icon-taipendeng48*48#444444</title>
    <desc>Created with Sketch.</desc>
    <defs></defs>
    <g id="Page-1" stroke="none" stroke-width="1" fill="none" fill-rule="evenodd">
        <g id="入住-光照" transform="translate(-120.000000, -399.000000)">
            <g id="icon-taipendeng48*48#444444" transform="translate(120.000000, 399.000000)">
                <ellipse id="Oval-7-Copy" fill="#B3DFDB" cx="24" cy="24" rx="24" ry="24"></ellipse>
                <path d="M22.7029018,20.2411126 L25.2882487,20.2411126 L25.2882487,15.2676509 L22.7029018,15.2676509 L22.7029018,20.2411126 Z M23.9956,16.3099505 C24.3342216,16.3099505 24.641082,16.4475248 24.8632126,16.6695068 C25.0850955,16.8914887 25.2224964,17.1983739 25.2224964,17.5371194 C25.2224964,17.8758649 25.0850955,18.1827252 24.8632126,18.404732 C24.641082,18.6267387 24.3342216,18.7641644 23.9956,18.7641644 C23.6567306,18.7641644 23.3498455,18.6267387 23.1279874,18.404732 C22.9061293,18.18275 22.7684311,17.8758649 22.7684311,17.5371194 C22.7684311,17.1983739 22.9061541,16.8914887 23.1279874,16.6695068 C23.3498207,16.4475248 23.6567059,16.3099505 23.9956,16.3099505 L23.9956,16.3099505 Z M24.3851338,17.1475608 C24.2819306,17.0440641 24.1417342,16.9859669 23.9955752,16.9861284 C23.8494101,16.9858994 23.7091966,17.0440074 23.6060414,17.1475608 C23.5064716,17.2471306 23.4444604,17.3849775 23.4444604,17.5371194 C23.4444604,17.6892365 23.5064716,17.8270833 23.6060414,17.9266779 C23.7092402,18.0301663 23.8494253,18.0882625 23.9955752,18.0881104 C24.1417228,18.0882143 24.281898,18.030126 24.3851338,17.9266779 C24.4885758,17.8234481 24.5466256,17.6832584 24.5464424,17.5371194 C24.5466311,17.3909793 24.4885805,17.2507875 24.3851338,17.1475608 L24.3851338,17.1475608 Z M14.3034108,22.3527905 C14.2911721,23.1028964 14.3275662,32.5688671 24.1417464,32.6259482 C34.3239311,32.6849369 33.7081788,22.4819167 33.7066924,22.4526577 C33.7052846,22.4246113 33.7057812,22.3965017 33.7081788,22.3685225 L33.7066924,22.3683739 C33.7070144,22.3657725 33.8071541,21.403223 32.9476924,21.4509887 C32.2876428,21.4876554 29.1215009,21.5016284 25.6195865,21.5054189 C25.5920755,21.5076277 25.5644878,21.5087434 25.5368883,21.5087635 L22.4542869,21.5087635 C22.4317472,21.5087273 22.4092148,21.5079506 22.3867261,21.5064347 C18.4358928,21.5051216 14.8973365,21.4955338 14.8755099,21.4955338 C14.8332937,21.4955338 14.7919446,21.4913221 14.7523545,21.483295 L14.7517847,21.4856239 C14.7500257,21.4853266 14.1712374,21.3610068 14.2993478,22.1951486 C14.3073543,22.2473135 14.3087195,22.3002825 14.3034108,22.3527905 L14.3034108,22.3527905 Z M21.4352757,20.2433176 L21.4352757,15.0190113 C21.4352757,14.738214 21.5496856,14.4830338 21.7339851,14.2987342 C21.9182847,14.1145833 22.1733162,14 22.4542869,14 L25.5369131,14 C25.8175865,14 26.0729401,14.1145833 26.2572149,14.2987342 C26.4412419,14.4830338 26.5559491,14.738214 26.5559491,15.0190113 L26.5559491,20.2412613 C29.6394424,20.2358851 32.281573,20.2213176 32.8784221,20.188268 C35.0739378,20.066277 34.9921315,22.1700766 34.9720392,22.4472568 C35.0064018,23.2871959 35.2294243,33.9529842 24.1368162,33.8886441 C13.1082757,33.8246014 13.0273117,23.2493649 13.0404176,22.3383716 C12.7015234,19.9836036 14.5951338,20.1777883 14.9445077,20.2328131 C15.4045257,20.2339775 18.1866833,20.2409887 21.4352757,20.2433176 L21.4352757,20.2433176 Z" id="Shape" fill="#169488" fill-rule="nonzero"></path>
            </g>
        </g>
    </g>
</svg>