<?xml version="1.0" encoding="UTF-8"?>
<svg width="20px" height="22px" viewBox="0 0 20 22" version="1.1" xmlns="http://www.w3.org/2000/svg" xmlns:xlink="http://www.w3.org/1999/xlink">
    <!-- Generator: Sketch 43.2 (39069) - http://www.bohemiancoding.com/sketch -->
    <title>icon-zhilengmoshi48*48#444444 copy 2</title>
    <desc>Created with Sketch.</desc>
    <defs></defs>
    <g id="Page-1" stroke="none" stroke-width="1" fill="none" fill-rule="evenodd">
        <g id="入住-前置" transform="translate(-97.000000, -349.000000)">
            <g id="icon-zhilengmoshi48*48#444444-copy-2" transform="translate(95.000000, 348.000000)">
                <rect id="Rectangle-3" x="0" y="0" width="24" height="24"></rect>
                <path d="M20.8711687,16.7767969 L16.8964805,14.4769006 L19.9295391,13.6623216 C20.2038822,13.5876384 20.3662746,13.3046354 20.2927057,13.0294274 C20.2191368,12.7542193 19.9373232,12.5904892 19.6624713,12.6632693 L15.6324972,13.7455083 L12.5964162,11.988763 L16.0436769,9.99405675 L20.0736511,11.0762958 C20.1172755,11.0880891 20.1622593,11.0940754 20.207443,11.0941003 C20.4664985,11.0941726 20.6854514,10.9017297 20.7191927,10.6443114 C20.7529341,10.386893 20.5910036,10.1443038 20.3407189,10.0773173 L17.3075865,9.26273835 L20.871095,7.20072919 C21.1121706,7.05531937 21.1925979,6.74317097 21.0519108,6.4989605 C20.9112236,6.25475003 20.6012775,6.16849025 20.3550932,6.30503219 L16.7916584,8.36696747 L17.6043612,5.32718284 C17.6769803,5.05172149 17.5136124,4.76928296 17.2390133,4.69555089 C16.9644142,4.62181881 16.6820374,4.78457134 16.6075195,5.0595228 L15.5277488,9.0982859 L12.0804881,11.0929922 L12.0804881,7.10372735 L15.0306179,4.14705549 C15.2321191,3.94508708 15.2321026,3.61764813 15.0305811,3.41570013 C14.8290595,3.21375213 14.5023451,3.21376867 14.3008439,3.41573708 L12.0804881,5.64101663 L12.0804881,1.51714607 C12.0804881,1.23153418 11.8494663,1 11.5644863,1 C11.2795064,1 11.0484845,1.23153418 11.0484845,1.51714607 L11.0484845,5.64101663 L8.82820244,3.41573708 C8.62670128,3.21376867 8.29998684,3.21375213 8.09846531,3.41570013 C7.89694379,3.61764813 7.89692728,3.94508708 8.09842844,4.14705549 L11.0485582,7.10372735 L11.0485582,11.0930661 L7.60137127,9.09843363 L6.52145319,5.0595228 C6.44768409,4.78364213 6.16473179,4.61993093 5.88946154,4.69386361 C5.61419129,4.76779629 5.45084232,5.05137604 5.52461141,5.32725672 L6.33738796,8.36704135 L2.77387945,6.30510607 C2.52730284,6.16460247 2.2138005,6.24990505 2.07197529,6.49609104 C1.93015008,6.74227702 2.01318253,7.05703349 2.25787764,7.20080307 L5.82145987,9.26281223 L2.78825381,10.0773173 C2.51391116,10.1520009 2.35151922,10.4350036 2.42508805,10.7102113 C2.49865689,10.985419 2.78046994,11.1491491 3.05532159,11.0763696 L7.08536945,9.99413063 L10.5325564,11.988763 L7.49647547,13.7455821 L3.46664875,12.6633432 C3.19288387,12.5934191 2.91391316,12.7571361 2.84079671,13.0306312 C2.76768026,13.3041264 2.92760671,13.5856995 3.19958095,13.6623216 L6.2326396,14.4769006 L2.25795135,16.7767969 C2.05568196,16.8939167 1.95713326,17.1326017 2.01768672,17.3587181 C2.07824018,17.5848344 2.28279382,17.7419889 2.51639455,17.7418654 C2.60682398,17.7418945 2.6956537,17.7179621 2.77387945,17.6724939 L6.74864141,15.3725976 L5.93586486,18.4124561 C5.86324584,18.6879174 6.02661365,18.9703559 6.30121277,19.044088 C6.57581188,19.1178201 6.85818867,18.9550676 6.93270663,18.6801161 L8.01247728,14.6412053 L11.0484845,12.88446 L11.0484845,16.3978766 L8.09835472,19.3545484 C7.89685356,19.5565169 7.89687007,19.8839558 8.09839159,20.0859038 C8.29991311,20.2878518 8.62662755,20.2878353 8.82812872,20.0858669 L11.0484108,17.8605873 L11.0484108,22.46038 C11.0484108,22.7459919 11.2794327,22.9775261 11.5644126,22.9775261 C11.8493925,22.9775261 12.0804144,22.7459919 12.0804144,22.46038 L12.0804144,17.8605134 L14.3007702,20.085793 C14.4311186,20.2164436 14.6211126,20.2674756 14.7991832,20.2196656 C14.9772538,20.1718555 15.116348,20.032467 15.1640702,19.8540063 C15.2117924,19.6755457 15.1608926,19.4851252 15.0305442,19.3544746 L12.0804144,16.3978027 L12.0804144,12.88446 L15.1164217,14.6412053 L16.1961923,18.6801161 C16.2700124,18.9559419 16.5528886,19.1196352 16.8281471,19.0458123 C17.1034162,18.9718985 17.266781,18.6883365 17.1930341,18.4124561 L16.3803312,15.3725976 L20.3550932,17.6724939 C20.4735987,17.7411086 20.6144532,17.7597144 20.7466505,17.7242155 C20.8788478,17.6887165 20.9915513,17.6020229 21.0599517,17.4832184 C21.1284207,17.3644591 21.1469965,17.223299 21.1115902,17.0908096 C21.076184,16.9583202 20.9896978,16.8453613 20.8711687,16.7767969 L20.8711687,16.7767969 Z" id="Shape" fill="#444444" fill-rule="nonzero"></path>
            </g>
        </g>
    </g>
</svg>