<?xml version="1.0" encoding="UTF-8"?>
<svg width="48px" height="48px" viewBox="0 0 48 48" version="1.1" xmlns="http://www.w3.org/2000/svg" xmlns:xlink="http://www.w3.org/1999/xlink">
    <!-- Generator: Sketch 43.1 (39012) - http://www.bohemiancoding.com/sketch -->
    <title>icon-wendujian</title>
    <desc>Created with Sketch.</desc>
    <defs></defs>
    <g id="Page-1" stroke="none" stroke-width="1" fill="none" fill-rule="evenodd">
        <g id="控制-温度" transform="translate(-284.000000, -415.000000)">
            <g id="icon-wendujian" transform="translate(284.000000, 415.000000)">
                <g id="温度计-copy" transform="translate(23.000000, 10.000000)"></g>
                <rect id="Rectangle-42-Copy-6" fill="#F2F2F2" x="0" y="0" width="48" height="48" rx="24"></rect>
                <path d="M23.0390303,27.1499679 L23.0390303,21.0000027 C23.0390303,20.4500129 22.5870788,20.0000133 22.0347395,20.0000133 C21.4824295,20.0000133 21.0304781,20.4500129 21.0304781,21.0000027 L21.0304781,27.1499679 C19.8755466,27.5499871 19.0219258,28.6499959 19.0219258,29.9999947 C19.0219258,31.6499346 20.377692,32.9999334 22.0347101,32.9999334 C23.6917282,32.9999334 25.0475238,31.6499346 25.0475237,29.9999947 C25.0475237,28.7000349 24.1939618,27.6000261 23.0390303,27.1499679 Z M25.0475237,26.000008 L25.0475237,15.9999973 C25.0475237,14.3499988 23.6917576,13 22.0347101,13 C20.3776626,13 19.0219258,14.3499988 19.0219258,15.9999973 L19.0219258,26.000008 C17.8168004,26.8999779 17.0133736,28.3499961 17.0133736,30.000024 C17.0133736,32.7500313 19.2729838,35 22.0347395,35 C24.7964952,35 27.0561054,32.7500313 27.0561054,30.000024 C27.0561054,28.3499961 26.2526786,26.8999779 25.0475237,26.000008 Z M22.0347395,34.0000106 C19.8253526,34.0000106 18.0176644,32.1999829 18.0176644,30.000024 C18.0176644,28.499996 18.8210618,27.2500166 20.0261872,26.550027 L20.0261872,15.9999973 C20.0261872,14.9000178 20.9300313,14.0000186 22.0347395,14.0000186 C23.1394476,14.0000186 24.0432917,14.9000178 24.0432918,15.9999973 L24.0432918,26.550027 C25.2484466,27.2500167 26.0518146,28.5500057 26.0518146,30.000024 C26.0517851,32.1999536 24.2441264,34.0000106 22.0347395,34.0000106 L22.0347395,34.0000106 Z" id="Shape" fill="#444444" fill-rule="nonzero"></path>
                <path d="M26,16 L32,16" id="Line-Copy" stroke="#444444" stroke-linecap="round"></path>
            </g>
        </g>
    </g>
</svg>