<?xml version="1.0" encoding="UTF-8"?>
<svg width="24px" height="24px" viewBox="0 0 24 24" version="1.1" xmlns="http://www.w3.org/2000/svg" xmlns:xlink="http://www.w3.org/1999/xlink">
    <!-- Generator: Sketch 43.2 (39069) - http://www.bohemiancoding.com/sketch -->
    <title>Oval 13 Copy</title>
    <desc>Created with Sketch.</desc>
    <defs></defs>
    <g id="Page-1" stroke="none" stroke-width="1" fill="none" fill-rule="evenodd">
        <g id="更多" transform="translate(-24.000000, -227.000000)">
            <rect id="Rectangle-16" fill="#F2F2F2" x="0" y="64" width="375" height="603"></rect>
            <rect id="Rectangle-Copy" fill="#FEFEFE" x="0" y="209" width="375" height="60"></rect>
            <circle id="Oval-13-Copy" fill="#FD6A4D" cx="36" cy="239" r="12"></circle>
            <g id="公益机构" transform="translate(28.000000, 233.000000)" stroke="#FFFFFF" fill="#FFFFFF" fill-rule="nonzero">
                <path d="M9.15084716,1.6310393 C9.84691703,1.11177293 10.8026201,0.598585153 11.8561747,0.604296943 C13.5214498,0.604296943 15.418917,1.3940786 15.418917,4.63765939 C15.418917,6.32904803 14.0816769,8.20730131 12.5429345,9.80948472 C12.1184279,10.1768908 11.8945502,10.9685939 12.9546026,10.1278777 C14.5858166,8.4330655 15.9890131,6.44003493 15.9890131,4.59739738 C15.9890131,1.15634934 13.7084367,0.0180436681 12.146917,0.00969432314 C10.7935197,0.00244541485 9.58983406,0.656157205 8.83081223,1.19320524 C8.44971179,1.45818341 8.08662009,1.72917031 7.91617467,1.90354585 C7.45278603,2.37764192 8.26473362,2.31465502 8.26473362,2.31465502 C8.26473362,2.31465502 8.84354585,1.89317031 9.15084716,1.6310393 L9.15084716,1.6310393 Z" id="Shape" stroke-width="0.3"></path>
                <path d="M12.8065677,9.85446288 L10.5756507,7.62358079 L10.5756157,7.62359825 L8.43507424,5.48368559 L8.42756332,5.49119651 C8.41788267,5.47734754 8.40704312,5.46434593 8.39516157,5.45233188 C8.27886463,5.33603493 8.09018341,5.33603493 7.97385153,5.45240175 C7.85755459,5.56873362 7.85755459,5.75724017 7.97385153,5.87364192 C7.9920662,5.8917179 8.01254509,5.90735889 8.03477729,5.92017467 L10.2736419,8.15853275 L10.2736943,8.15848035 L12.2366463,10.1215197 C11.9772227,10.3806288 11.7143406,10.6298865 11.4531179,10.8675109 L11.2401747,10.6545153 L8.9831441,8.39746725 L8.98214847,8.39846288 C8.9738857,8.38732106 8.96485655,8.37676857 8.95512664,8.3668821 C8.83882969,8.25058515 8.65014847,8.25058515 8.53381659,8.3668821 C8.41753712,8.48330131 8.41753712,8.67179039 8.53381659,8.78817467 C8.54369152,8.79789831 8.55423236,8.80692164 8.56536245,8.81517904 L8.56469869,8.81584279 L10.8217118,11.0729607 L11.0100262,11.2612926 C10.7763595,11.4642527 10.5393786,11.6633654 10.299179,11.8585502 L10.0859913,11.645345 L7.82894323,9.38829694 L7.8280524,9.38920524 C7.81936429,9.37726868 7.80980082,9.36599453 7.79944105,9.35547598 C7.68317904,9.23917904 7.49446288,9.23917904 7.37816594,9.35547598 C7.26183406,9.4718952 7.26183406,9.66041921 7.37816594,9.77680349 C7.38867258,9.78714523 7.39992883,9.79669669 7.41184279,9.80537991 L7.41049782,9.80670742 L9.66752838,12.0638079 L9.66754585,12.0637904 L9.83325764,12.2295022 C9.58109467,12.4262487 9.32584905,12.619012 9.06761572,12.8077205 L8.77081223,12.510917 L7.03268122,10.772821 L6.64352838,10.3836681 L6.63601747,10.3911965 C6.62632738,10.3773335 6.61548234,10.3643148 6.60359825,10.3522795 C6.48728384,10.236 6.29862009,10.236 6.18232314,10.3522795 C6.06600873,10.4686812 6.06600873,10.6572402 6.18232314,10.7736245 C6.20051535,10.7916719 6.22095734,10.8072999 6.2431441,10.8201223 L7.10347598,11.6804716 L8.57949345,13.156559 C8.21947598,13.408 8.00206114,13.5464279 8.00206114,13.5464279 C8.00206114,13.5464279 0.606497817,8.62263755 0.606497817,4.63767686 C0.606497817,1.40482096 2.49837555,0.614008734 4.13884716,0.614008734 C5.72431441,0.603213974 7.09781659,1.77130131 7.69055022,2.36204367 L7.68831441,2.36440175 C7.68831441,2.36440175 10.194131,5.02260262 11.2269345,6.118131 C11.2601992,6.15354054 11.2951509,6.18732645 11.3316681,6.21937118 C11.3456466,6.2459298 11.3635609,6.2702219 11.3848035,6.29142358 C11.401538,6.30803697 11.4201834,6.32260739 11.4403493,6.33482969 C11.4473886,6.34373799 11.4547773,6.35245415 11.4630044,6.36068122 C11.579476,6.4771179 11.7680175,6.4771179 11.884262,6.36068122 C12.0005939,6.24441921 12.0005939,6.05579039 11.884262,5.93938865 C11.8676775,5.92288729 11.849176,5.90843205 11.8291528,5.89633188 C11.8219724,5.88715603 11.814262,5.8784075 11.8060611,5.870131 C11.7839008,5.84798794 11.7583735,5.82949397 11.7304279,5.81533624 C11.6494323,5.72684716 11.5379039,5.63952838 11.391214,5.56258515 C10.3870218,4.49720524 8.47234934,2.46625328 8.09731004,2.06843668 C8.06826201,1.98578166 8.01699563,1.90372052 7.93350218,1.82840175 C7.60302183,1.51959825 5.87834061,0.00616593886 3.82419214,0.0201222707 C2.26815721,0.0306724891 0.0146550218,1.16772052 0.0146550218,4.59737991 C0.0146550218,8.99573799 7.99048035,14.2552838 7.99048035,14.2552838 C7.99048035,14.2552838 10.6117904,12.5315633 12.8534498,10.2323843 C12.9747074,10.1274236 12.9212751,9.94744105 12.8065677,9.85446288 L12.8065677,9.85446288 Z" id="Shape" stroke-width="0.3"></path>
                <path d="M7.68831441,2.29158079 L7.92062882,1.81418341 C7.92062882,1.81418341 10.27469,4.30529258 11.3911965,5.48969432 C12.1670393,6.2670393 11.9014148,6.76064629 11.2269345,6.04525764 C10.0473674,4.79405753 8.86782738,3.54283191 7.68831441,2.29158079 L7.68831441,2.29158079 Z" id="Shape" stroke-width="0.2"></path>
            </g>
        </g>
    </g>
</svg>