<?xml version="1.0" encoding="UTF-8"?>
<svg width="20px" height="20px" viewBox="0 0 20 20" version="1.1" xmlns="http://www.w3.org/2000/svg" xmlns:xlink="http://www.w3.org/1999/xlink">
    <!-- Generator: Sketch 43.2 (39069) - http://www.bohemiancoding.com/sketch -->
    <title>Group 31 Copy 2</title>
    <desc>Created with Sketch.</desc>
    <defs></defs>
    <g id="Page-1" stroke="none" stroke-width="1" fill="none" fill-rule="evenodd">
        <g id="Group-31-Copy-2">
            <g id="Page-1">
                <path d="M9.75976882,0.052532833 C4.40560288,0.052532833 0.0497335436,4.42001782 0.0497335436,9.78846154 C0.0497335436,15.1569053 4.40560288,19.5243902 9.75976882,19.5243902 C15.1139348,19.5243902 19.4698041,15.1569053 19.4698041,9.78846154 C19.4698041,4.42001782 15.1139348,0.052532833 9.75976882,0.052532833" id="Fill-1" fill="#000000"></path>
                <path d="M5.95448473,9.78846154 C5.95448473,10.3697228 5.48446653,10.8409944 4.90475118,10.8409944 C4.32503583,10.8409944 3.85501764,10.3697228 3.85501764,9.78846154 C3.85501764,9.20720028 4.32503583,8.73592871 4.90475118,8.73592871 C5.48446653,8.73592871 5.95448473,9.20720028 5.95448473,9.78846154" id="Fill-3" fill="#FFFFFF"></path>
                <path d="M10.8095024,9.78846154 C10.8095024,10.3697228 10.3394842,10.8409944 9.75976882,10.8409944 C9.18005347,10.8409944 8.71003528,10.3697228 8.71003528,9.78846154 C8.71003528,9.20720028 9.18005347,8.73592871 9.75976882,8.73592871 C10.3394842,8.73592871 10.8095024,9.20720028 10.8095024,9.78846154" id="Fill-5" fill="#FFFFFF"></path>
                <path d="M15.66452,9.78846154 C15.66452,10.3697228 15.1945018,10.8409944 14.6147865,10.8409944 C14.0350711,10.8409944 13.5650529,10.3697228 13.5650529,9.78846154 C13.5650529,9.20720028 14.0350711,8.73592871 14.6147865,8.73592871 C15.1945018,8.73592871 15.66452,9.20720028 15.66452,9.78846154" id="Fill-7" fill="#FFFFFF"></path>
            </g>
        </g>
    </g>
</svg>