<?xml version="1.0" encoding="UTF-8"?>
<svg width="48px" height="48px" viewBox="0 0 48 48" version="1.1" xmlns="http://www.w3.org/2000/svg" xmlns:xlink="http://www.w3.org/1999/xlink">
    <!-- Generator: Sketch 43.1 (39012) - http://www.bohemiancoding.com/sketch -->
    <title>icon-tongfengmoshi48*48#169488</title>
    <desc>Created with Sketch.</desc>
    <defs></defs>
    <g id="Page-1" stroke="none" stroke-width="1" fill="none" fill-rule="evenodd">
        <g id="控制-温度" transform="translate(-44.000000, -337.000000)">
            <g id="icon-tongfengmoshi48*48#169488" transform="translate(44.000000, 337.000000)">
                <rect id="Rectangle-42" fill="#B3DFDB" x="0" y="0" width="48" height="48" rx="24"></rect>
                <g id="icon-tongfengmoshi#169488" transform="translate(13.000000, 13.000000)" fill-rule="nonzero" fill="#009688">
                    <path d="M11.5902092,11.5737518 C11.6308442,10.8275469 11.3944228,10.1773882 10.8957215,9.64913421 C10.123658,8.83643579 8.74576478,8.36728716 7.11667388,8.36728716 C5.77572151,8.36728716 4.44215729,8.69236653 3.46322512,9.25756132 C3.3080736,9.34621933 3.15292209,9.4459596 2.97191198,9.57894661 L1.50905483,11.008557 C0.393441553,12.4455556 -0.156976906,14.1596104 0.0720562639,15.4783983 C0.2198196,16.3132612 0.670497819,16.9929726 1.3797619,17.4399567 C1.95973305,17.805671 2.49906925,17.982987 3.03101731,17.982987 C4.27961759,17.982987 5.21052669,16.9818903 6.19684704,15.9253824 C6.89133476,15.1791775 7.60798702,14.4108081 8.49456709,13.8973305 C9.41439394,13.3653824 10.0534704,13.0550794 10.47829,12.8482107 C11.3242352,12.4418615 11.5495743,12.331039 11.5902092,11.5737518 L11.5902092,11.5737518 Z M10.2086219,11.4407648 C10.1162698,11.4887879 9.99805916,11.5478932 9.86876623,11.6106927 C9.42917027,11.8249495 8.76423521,12.1500289 7.80377345,12.7041414 C6.73618327,13.3210534 5.91240259,14.2076335 5.1846681,14.9907792 C4.37566378,15.8588889 3.68117603,16.6050938 3.03471141,16.6050938 C2.77243148,16.6050938 2.47690477,16.4979654 2.12596682,16.2763203 C1.87476914,16.1174748 1.69375904,15.9216883 1.57554833,15.6741847 C1.45733766,15.4303752 1.40192641,15.1348485 1.40931456,14.7949928 C1.42409089,14.0672583 1.71592352,13.213925 2.23678932,12.3938384 C2.76134919,11.5626696 3.44475468,10.8792641 4.16140691,10.4655267 C4.9371645,10.0185426 6.01953101,9.75995671 7.12406206,9.75995671 C8.35419194,9.75995671 9.39222946,10.0776479 9.89462482,10.6095959 C10.1088817,10.8386291 10.212316,11.1046032 10.2086219,11.4407648 L10.2086219,11.4407648 Z M18.2691126,15.1717893 C17.275404,14.9427561 16.2521429,14.7063348 15.3655628,14.1965512 C14.4457359,13.6646032 13.8546825,13.2693362 13.4668037,13.0033622 C12.9607143,12.6598124 12.7058225,12.4898845 12.4029076,12.4898845 C12.2108153,12.4898845 12.0298052,12.5637662 11.800772,12.6782828 C10.8846392,13.1437374 10.385938,13.9749062 10.3563853,15.0757431 C10.3046681,17.0890187 11.9079005,19.7450649 13.8620707,20.8754545 C14.0024459,20.9567244 14.1502092,21.0343001 14.3386075,21.11557 L16.1967316,21.6659885 C16.610469,21.732482 17.0315945,21.7657287 17.4453319,21.7657287 C19.4844661,21.7657287 21.8967028,20.9345599 21.9890548,18.5851227 C22.0887951,16.0509813 20.2343651,15.6224675 18.2691126,15.1717893 L18.2691126,15.1717893 Z M20.6037735,18.5297114 C20.5816089,19.0875181 20.319329,19.5012554 19.7836869,19.8300289 C19.2037157,20.1846609 18.3725469,20.3804473 17.4453319,20.3804473 C16.3851299,20.3804473 15.332316,20.1218615 14.5565584,19.6748774 C13.828824,19.2537518 13.1010895,18.5038528 12.5580592,17.6172727 C12.022417,16.7417749 11.7268903,15.8293362 11.7453608,15.1163781 C11.7601371,14.5548774 11.9633117,14.1817749 12.3807431,13.9453535 C12.4730952,14.0044589 12.5876118,14.0820346 12.7021284,14.1596104 C13.1084776,14.4329726 13.7216955,14.84671 14.6784632,15.3971284 C15.7423593,16.0140404 16.920772,16.2837085 17.9661977,16.523824 C18.819531,16.7196104 19.6248413,16.9043146 20.1013781,17.2293939 C20.3784343,17.4214863 20.6370202,17.7133189 20.6037735,18.5297114 L20.6037735,18.5297114 Z M12.4324603,8.28601733 C12.4324603,9.34991344 12.3844372,10.0591775 12.3511905,10.524632 C12.284697,11.4629293 12.2662265,11.7178211 12.901609,12.1278643 C13.3412049,12.4160029 13.8140476,12.5600721 14.3053608,12.5600722 C16.7065152,12.5600722 18.9672944,9.00266956 18.9672944,6.24318903 C18.9672944,5.90702741 18.9340476,5.54870131 18.860166,5.14604619 L18.1841486,3.13277057 C17.4342496,1.62189036 16.0083333,0.00757576111 14.2536436,0.00757576111 C13.7955772,0.00757576111 13.3485931,0.122092361 12.9200794,0.347431456 C10.6740765,1.52584416 11.2318831,3.34702741 11.8229365,5.27533912 C12.1258514,6.25796539 12.4324603,7.26275614 12.4324603,8.28601733 L12.4324603,8.28601733 Z M13.1528066,4.87637807 C12.8942208,4.03782106 12.6541054,3.24728717 12.6947403,2.67470417 C12.7205989,2.33115441 12.8425036,1.96544009 13.5702381,1.58494948 C14.1317388,1.28942278 14.6969336,1.35961039 15.3175397,1.77334777 C15.7128066,2.0356277 16.1006854,2.43089467 16.4442352,2.91481963 C16.7914791,3.40613277 17.0796176,3.97132756 17.2790981,4.55499278 C17.4785786,5.13865801 17.5857071,5.72601731 17.5857071,6.25057721 C17.5857071,7.29969698 17.142417,8.59262626 16.4257648,9.6269697 C15.7608297,10.5874315 14.9518254,11.1821789 14.3090548,11.1821789 C14.1058802,11.1821789 13.9100938,11.1230736 13.7106133,11.0048629 C13.7143074,10.8940404 13.7253896,10.7573593 13.7364719,10.61329 C13.7697186,10.125671 13.8214358,9.39054835 13.8214358,8.28601733 C13.8214358,7.05588745 13.4668037,5.89963926 13.1528066,4.87637807 L13.1528066,4.87637807 Z" id="Shape"></path>
                </g>
            </g>
        </g>
    </g>
</svg>