<?xml version="1.0" encoding="UTF-8"?>
<svg width="48px" height="48px" viewBox="0 0 48 48" version="1.1" xmlns="http://www.w3.org/2000/svg" xmlns:xlink="http://www.w3.org/1999/xlink">
    <!-- Generator: Sketch 43.1 (39012) - http://www.bohemiancoding.com/sketch -->
    <title>icon-matongdeng48*48#444444</title>
    <desc>Created with Sketch.</desc>
    <defs></defs>
    <g id="Page-1" stroke="none" stroke-width="1" fill="none" fill-rule="evenodd">
        <g id="入住-光照" transform="translate(-204.000000, -517.000000)">
            <g id="icon-matongdeng48*48#444444" transform="translate(204.000000, 517.000000)">
                <ellipse id="Oval-7-Copy-6" fill="#F2F2F2" cx="24" cy="24" rx="24" ry="24"></ellipse>
                <path d="M27.5668077,23.7416498 C27.5668077,24.0467941 27.3183558,24.294109 27.0119423,24.294109 L14.5548654,24.294109 C14.248399,24.294109 14,24.0467676 14,23.7416498 L14,23.8191258 C14,23.514008 14.248399,23.2666667 14.5548654,23.2666667 L27.0119688,23.2666667 C27.3184087,23.2666667 27.5668341,23.5140345 27.5668341,23.8191258 L27.5668341,23.7416498 L27.5668077,23.7416498 L27.5668077,23.7416498 Z" id="Shape" fill="#444444" fill-rule="nonzero"></path>
                <path d="M30.7202909,34.9578774 L16.2010577,34.9578774 C15.5252716,34.9578774 14.9717548,34.4224736 14.9393101,33.7521082 L14,26.8854111 L14,26.8341394 C14,26.1349784 14.5667115,25.5661514 15.2632813,25.5661514 C15.2632813,25.5661514 24.3438341,25.5648558 27.4996971,25.5648558 C28.0545096,25.5648558 28.2222332,25.5650144 28.2222332,24.9372212 C28.2222332,22.1778341 28.2203293,14.3182813 28.2203293,14.3182813 C28.2203293,13.5688005 28.7870409,13 29.4836106,13 L31.6262043,13 C32.3227212,13 32.8894327,13.5688005 32.8894327,14.2679615 L32.8885865,14.3531322 L31.9834399,33.7614159 C31.9720433,34.4005793 31.4098005,34.9578774 30.7202909,34.9578774 L30.7202909,34.9578774 Z M16.3014856,33.9931827 L30.5704423,33.9931827 C30.8144255,33.9931827 31.0300889,33.2921178 31.0395024,33.090601 C31.1367837,31.0117332 31.6960649,19.1128269 31.8941178,14.8656106 C31.8977139,14.7884519 31.9444639,14.0058125 31.6606851,14.0058125 L29.4829231,14.0058125 C29.2369832,14.0058125 29.1892813,14.7880553 29.1892813,14.8650817 C29.1895192,17.7033197 29.1911322,25.321613 29.1911322,25.321613 C29.2031899,25.7346683 29.1390144,26.070512 28.9554784,26.2533077 C28.6815361,26.5260601 28.6815361,26.5260601 28.2608654,26.5560457 L15.457976,26.5560457 C15.3456755,26.5560457 15.0291875,26.6344207 15.0761755,27.0475024 C15.2146538,28.2657524 15.6764952,32.5759543 15.8304687,33.6442236 C15.8622524,33.8646466 16.1613149,33.9931827 16.3014856,33.9931827 Z" id="Shape" fill="#444444" fill-rule="nonzero"></path>
            </g>
        </g>
    </g>
</svg>