<?xml version="1.0" encoding="UTF-8"?>
<svg width="14px" height="12px" viewBox="0 0 14 12" version="1.1" xmlns="http://www.w3.org/2000/svg" xmlns:xlink="http://www.w3.org/1999/xlink">
    <!-- Generator: Sketch 43 (38999) - http://www.bohemiancoding.com/sketch -->
    <title>icon-di-gao</title>
    <desc>Created with Sketch.</desc>
    <defs></defs>
    <g id="Page-1" stroke="none" stroke-width="1" fill="none" fill-rule="evenodd">
        <g id="酒店列表-排序-筛选展开" transform="translate(-151.000000, -583.000000)" fill="#444444">
            <g id="Group-3" transform="translate(151.000000, 582.000000)">
                <g id="icon-gao-di" transform="translate(0.000000, 1.000000)">
                    <g id="排序-2">
                        <path d="M0.299267484,0.599776201 L13.4673199,0.599776201 C13.6325149,0.599776201 13.7665874,0.465429235 13.7665874,0.299895982 C13.7665874,0.134362728 13.6325149,4.37907008e-16 13.4673199,4.37907008e-16 L0.299267484,0 C0.134088205,0 0,0.134362728 0,0.299895982 C0,0.465444997 0.134088189,0.599776201 0.299267484,0.599776201 Z" id="Shape" fill-rule="nonzero"></path>
                        <path d="M6.87130412,5.14705882 L0.299267484,5.14705882 C0.134088205,5.14705882 0,5.28140579 0,5.44695481 C0,5.61250382 0.13407246,5.74683502 0.299267484,5.74683502 L6.87131985,5.74683502 C7.03651487,5.74683502 7.17060306,5.61250382 7.17060306,5.44695481 C7.17058733,5.28140579 7.03649914,5.14705882 6.87130412,5.14705882 Z" id="Shape" fill-rule="nonzero"></path>
                        <path d="M5.31928282,10.5 L0.299267484,10.5 C0.134088205,10.5 0,10.634347 0,10.7998802 C0,10.9654292 0.13407246,11.0997762 0.299267484,11.0997762 L5.31931429,11.0997762 C5.48450932,11.0997762 5.61859751,10.9654292 5.61859751,10.7998802 C5.61856603,10.6343627 5.4847768,10.5 5.31928282,10.5 Z" id="Shape" fill-rule="nonzero"></path>
                        <path d="M11.3920225,1.95730013 C11.3351743,1.89101746 11.2525532,1.85294118 11.1651646,1.85294118 C11.0780906,1.85294118 10.9951863,1.89101744 10.9383066,1.95730013 L8.5136106,4.77893333 C8.40586172,4.90429335 8.41994397,5.09380755 8.54504785,5.20179281 C8.60129819,5.25065342 8.67104859,5.27435058 8.74015389,5.27435058 C8.82426977,5.27435058 8.90803948,5.23897039 8.96699612,5.16999163 L10.8655981,2.96043256 L10.8655981,10.6429475 C10.8655981,10.8084965 10.9996706,10.9428435 11.1648656,10.9428435 C11.3300606,10.9428435 11.4641488,10.8084965 11.4641488,10.6429475 L11.4641488,2.96101593 L13.3618382,5.17029121 C13.4696028,5.29565124 13.6583994,5.31004611 13.783818,5.20180859 C13.9088904,5.09380757 13.9232401,4.90430912 13.8152237,4.7789491 L11.3920225,1.95730013 Z" id="Shape" fill-rule="nonzero"></path>
                    </g>
                </g>
            </g>
        </g>
    </g>
</svg>