<?xml version="1.0" encoding="UTF-8"?>
<svg width="24px" height="24px" viewBox="0 0 24 24" version="1.1" xmlns="http://www.w3.org/2000/svg" xmlns:xlink="http://www.w3.org/1999/xlink">
    <!-- Generator: Sketch 43.2 (39069) - http://www.bohemiancoding.com/sketch -->
    <title>Group</title>
    <desc>Created with Sketch.</desc>
    <defs></defs>
    <g id="Page-1" stroke="none" stroke-width="1" fill="none" fill-rule="evenodd">
        <g id="更多-设置" transform="translate(-24.000000, -155.000000)">
            <g id="Group" transform="translate(24.000000, 155.000000)">
                <circle id="Oval-16-Copy" fill="#FD6A4D" cx="12" cy="12" r="12"></circle>
                <g id="联系人信息" transform="translate(5.000000, 4.000000)" fill-rule="nonzero" fill="#FFFFFF">
                    <path d="M14.5194687,9.37387581 L11.7124155,9.37387581 C11.4540273,9.37387581 11.2445792,9.16435645 11.2445792,8.90596827 C11.2445792,8.64765137 11.4540273,8.43820331 11.7124155,8.43820331 L14.5194687,8.43820331 C14.7778212,8.43820331 14.9872693,8.64765137 14.9872693,8.90596827 C14.9872693,9.16435645 14.7778212,9.37387581 14.5194687,9.37387581 Z M14.5194687,6.56678697 L10.776743,6.56678697 C10.5183548,6.56678697 10.3089067,6.35741021 10.3089067,6.09898635 C10.3089067,5.84059816 10.5183548,5.63115009 10.776743,5.63115009 L14.5194687,5.63115009 C14.7778212,5.63115009 14.9872693,5.84059816 14.9872693,6.09898635 C14.9872693,6.35741019 14.7778212,6.56678697 14.5194687,6.56678697 Z M14.5194687,3.75980508 L10.776743,3.75980508 C10.5183548,3.75980508 10.3089067,3.55032137 10.3089067,3.29200445 C10.3089067,3.03358062 10.5183548,2.82413256 10.776743,2.82413256 L14.5194687,2.82413256 C14.7778212,2.82413256 14.9872693,3.03358062 14.9872693,3.29200445 C14.9872693,3.55032135 14.7778212,3.75980508 14.5194687,3.75980508 Z M10.3089067,10.3095127 L10.3089067,12.180822 C10.3089067,13.7311512 9.05214703,14.9878752 7.50188917,14.9878752 L2.8235266,14.9878752 C1.27326872,14.9878752 0.0165090602,13.7311512 0.0165090602,12.180822 L0.0165090602,10.3095127 C0.0165090602,9.08059148 0.811313853,8.04750209 1.91091618,7.66728041 C1.31201449,6.85910887 0.952181579,5.82402338 0.952181579,4.69547758 C0.952181579,2.11170258 2.83732109,0.0171506391 5.16270789,0.0171506391 C7.4880947,0.0171506391 9.37323421,2.11170258 9.37323421,4.69547758 C9.37323421,5.82405902 9.0134013,6.85914451 8.41453524,7.66728041 C9.51413758,8.04750209 10.3089067,9.08059148 10.3089067,10.3095127 Z M8.43752603,4.69547758 C8.43752603,2.62840767 6.97131829,0.952823158 5.16267224,0.952823158 C3.35402618,0.952823158 1.88781844,2.62844333 1.88781844,4.69547758 C1.88781844,6.76254748 3.35402618,8.43820327 5.16267224,8.43820327 C6.97135395,8.43820329 8.43752603,6.76251184 8.43752603,4.69547758 Z M9.37323419,10.5434843 C9.37323419,9.54885547 8.61838707,8.72029519 7.60682707,8.50011808 C6.91728098,9.04804791 6.07503314,9.37387581 5.16270788,9.37387581 C4.25034697,9.37387581 3.40813477,9.04804791 2.71858868,8.50011808 C1.70699303,8.72029519 0.95218156,9.54885549 0.95218156,10.5434843 L0.95218156,11.9469574 C0.95218156,13.1096508 1.98042327,14.0522384 3.24883876,14.0522384 L7.07661263,14.0522384 C8.34502812,14.0522384 9.37323419,13.1096864 9.37323419,11.9469574 L9.37323419,10.5434843 Z M11.7124155,11.2452565 L14.5194687,11.2452565 C14.7778212,11.2452565 14.9872693,11.4546332 14.9872693,11.7130571 C14.9872693,11.9714096 14.7778212,12.180822 14.5194687,12.180822 L11.7124155,12.180822 C11.4540273,12.180822 11.2445792,11.9714096 11.2445792,11.7130571 C11.2445792,11.4546333 11.4540273,11.2452565 11.7124155,11.2452565 Z" id="Shape"></path>
                </g>
            </g>
        </g>
    </g>
</svg>