<?xml version="1.0" encoding="UTF-8"?>
<svg width="24px" height="24px" viewBox="0 0 24 24" version="1.1" xmlns="http://www.w3.org/2000/svg" xmlns:xlink="http://www.w3.org/1999/xlink">
    <!-- Generator: Sketch 43.2 (39069) - http://www.bohemiancoding.com/sketch -->
    <title>Group 7</title>
    <desc>Created with Sketch.</desc>
    <defs></defs>
    <g id="Page-1" stroke="none" stroke-width="1" fill="none" fill-rule="evenodd">
        <g id="更多" transform="translate(-24.000000, -481.000000)">
            <g id="Group-7" transform="translate(24.000000, 481.000000)">
                <circle id="Oval-13-Copy-5" fill="#5C97F3" cx="12" cy="12" r="12"></circle>
                <g id="反馈" transform="translate(4.000000, 5.000000)" fill-rule="nonzero" fill="#FFFFFF">
                    <path d="M7.99089875,0.0152666212 C3.58471871,0.0152666212 0.00528460523,3.08737937 0.00528460523,6.85471026 C0.00528460523,9.10947191 1.2923777,11.1951264 3.45319094,12.4822195 L3.45319094,15.6576755 C3.45319094,15.7892033 3.51895481,15.9019414 3.63169291,15.9489155 C3.76322066,16.0052846 3.93232779,15.9583104 3.99809167,15.9113362 L6.83533341,13.6096003 C7.25810121,13.6659694 7.63389483,13.6847591 8.00029359,13.6847591 C12.4064736,13.6847591 15.9859077,10.6126463 15.9859077,6.84531542 C15.9859077,3.07798451 12.3970788,0.0152666212 7.99089875,0.0152666212 L7.99089875,0.0152666212 Z M7.99089875,13.0365151 C7.61510515,13.0365151 7.21112701,13.0083306 6.76956953,12.9425667 C6.67562113,12.9331719 6.58167272,12.9519615 6.51590884,13.0177254 L4.11082976,14.9624573 L4.11082976,12.2943227 C4.11082976,12.1721898 4.04506588,12.0688466 3.94172263,12.0030827 C1.89364747,10.8569122 0.672318253,8.93096994 0.672318253,6.8641051 C0.672318253,3.46317295 3.96051231,0.691695108 8.00029359,0.691695108 C12.0400749,0.691695108 15.3282689,3.46317297 15.3282689,6.8641051 C15.3282689,10.2650372 12.03068,13.0365151 7.99089875,13.0365151 L7.99089875,13.0365151 Z" id="Shape"></path>
                    <path d="M7.30507542,6.8641051 C7.30507542,7.24929354 7.61510515,7.55932327 8.00029359,7.55932329 C8.38548203,7.55932329 8.69551175,7.24929356 8.69551175,6.8641051 C8.69551175,6.47891664 8.38548203,6.16888694 8.00029359,6.16888694 C7.60571031,6.16888694 7.30507542,6.47891666 7.30507542,6.8641051 L7.30507542,6.8641051 Z M3.62229807,6.8641051 C3.62229807,7.24929354 3.93232779,7.55932327 4.31751623,7.55932329 C4.70270467,7.5593233 5.0127344,7.24929356 5.01273442,6.8641051 C5.01273443,6.47891664 4.70270469,6.16888694 4.31751623,6.16888694 C3.93232777,6.16888694 3.62229807,6.47891666 3.62229807,6.8641051 Z M11.8052039,6.16888694 C11.4200154,6.16888694 11.1099857,6.47891666 11.1099857,6.8641051 C11.1099857,7.24929354 11.4200154,7.55932327 11.8052039,7.55932329 C12.1903923,7.55932329 12.500422,7.24929356 12.500422,6.8641051 C12.4910272,6.47891666 12.1809975,6.16888694 11.8052039,6.16888694 Z" id="Shape"></path>
                </g>
            </g>
        </g>
    </g>
</svg>