<?xml version="1.0" encoding="UTF-8"?>
<svg width="29px" height="15px" viewBox="0 0 29 15" version="1.1" xmlns="http://www.w3.org/2000/svg" xmlns:xlink="http://www.w3.org/1999/xlink">
    <!-- Generator: Sketch 43.2 (39069) - http://www.bohemiancoding.com/sketch -->
    <title>icon-xiangshang48*48#999999</title>
    <desc>Created with Sketch.</desc>
    <defs></defs>
    <g id="Page-1" stroke="none" stroke-width="1" fill="none" fill-rule="evenodd">
        <g id="icon-xiangshang48*48#999999" transform="translate(-10.000000, -17.000000)">
            <g id="Group-3" transform="translate(24.500000, 24.500000) scale(1, -1) rotate(-90.000000) translate(-24.500000, -24.500000) translate(17.000000, 10.000000)" fill-rule="nonzero" fill="#999999">
                <path d="M2.14504908,14.8140043 C1.65425065,15.3125399 0.858857984,15.3125399 0.368098822,14.8140043 L0.368098822,14.8140043 C-0.122699607,14.3154687 -0.122699607,13.507537 0.368098822,13.0090413 L12.8071433,0.373901709 C13.2979418,-0.124633903 14.0933344,-0.124633903 14.5840936,0.373901709 L14.5840936,0.373901709 C15.074892,0.872437322 15.074892,1.68036895 14.5840936,2.17886467 L2.14504908,14.8140043 L2.14504908,14.8140043 Z" id="Shape"></path>
                <path d="M14.5840936,26.0090413 C15.074892,26.5075769 15.074892,27.3155085 14.5840936,27.8140043 L14.5840936,27.8140043 C14.0932952,28.3125399 13.2979025,28.3125399 12.8071433,27.8140043 L0.368098822,15.1788647 C-0.122699607,14.6803291 -0.122699607,13.8723974 0.368098822,13.3739017 L0.368098822,13.3739017 C0.858897251,12.8753661 1.65428992,12.8753661 2.14504908,13.3739017 L14.5840936,26.0090413 L14.5840936,26.0090413 Z" id="Shape"></path>
            </g>
            <rect id="Rectangle-97" opacity="0.387794384" x="0" y="0" width="48" height="48"></rect>
        </g>
    </g>
</svg>