<?xml version="1.0" encoding="UTF-8"?>
<svg width="14px" height="12px" viewBox="0 0 14 12" version="1.1" xmlns="http://www.w3.org/2000/svg" xmlns:xlink="http://www.w3.org/1999/xlink">
    <!-- Generator: Sketch 43.2 (39069) - http://www.bohemiancoding.com/sketch -->
    <title>icon-laba24*24#ffffff</title>
    <desc>Created with Sketch.</desc>
    <defs></defs>
    <g id="Page-1" stroke="none" stroke-width="1" fill="none" fill-rule="evenodd">
        <g id="icon-laba24*24#ffffff" transform="translate(-5.000000, -6.000000)">
            <rect id="Rectangle-94" x="0" y="0" width="24" height="24"></rect>
            <g id="喇叭" transform="translate(5.000000, 6.000000)" fill-rule="nonzero" fill="#FFFFFF">
                <path d="M12.5158269,10.2671777 L10.2995013,8.40640817 C10.0936417,8.23296252 9.80868455,8.29552869 9.66592327,8.54687436 L9.58519595,8.68848809 C9.44130376,8.94044911 9.49419063,9.2850952 9.70121444,9.45849095 L11.9158603,11.3182626 C12.1227677,11.4922571 12.4071926,11.4291588 12.5504861,11.1783453 L12.63128,11.0367315 C12.7745568,10.7853692 12.7228175,10.4401244 12.5158269,10.2671777 Z" id="Shape"></path>
                <path d="M7.17729678,0.375071629 C6.33954027,1.04021347 3.29022842,2.92292143 3.27595894,2.93032226 C3.12466944,3.00878827 2.94909938,3.24539827 2.24890595,3.24539827 L0.665609503,3.24539827 C0.260675712,3.24539827 0.00818249652,3.43424431 0.00818249652,3.86128082 L0.00818249652,7.65631272 C0.00818249652,8.08226821 0.239637383,8.29384895 0.665609503,8.29384895 L2.25461041,8.29384895 C2.90804212,8.29520914 3.13321609,8.50737111 3.27541012,8.60777741 C3.33247375,8.64807129 6.31005194,10.5738717 7.17614923,11.2090463 C7.436642,11.4012518 8.28459478,12.0057919 8.28459478,10.8205773 L8.28459478,5.76763619 L8.28459478,0.702654218 C8.28461142,-0.484772381 7.43155289,0.173203452 7.17729678,0.375071629 Z" id="Shape"></path>
                <path d="M13.4320004,5.12384668 L10.7351361,5.12384668 C10.429124,5.12384668 10.1823519,5.37176635 10.1823519,5.67716306 L10.1823519,5.84947779 C10.1823519,6.15608858 10.429124,6.40402487 10.7351361,6.40402487 L13.4320004,6.40402487 C13.7379792,6.40402487 13.9847846,6.15610521 13.9847846,5.84947779 L13.9847846,5.67777841 C13.9847846,5.3723817 13.7379959,5.12384668 13.4320004,5.12384668 Z" id="Shape"></path>
                <path d="M9.58582794,2.84899623 L9.66707081,2.99060997 C9.80988199,3.24144007 10.093625,3.30400624 10.3006322,3.13054396 L12.5163591,1.27083879 C12.7233497,1.09744304 12.7751056,0.752131712 12.6324275,0.50136813 L12.5516503,0.35862348 C12.4077581,0.107178023 12.1244475,0.043547471 11.9169913,0.21754194 L9.70174664,2.07839465 C9.49537143,2.25187356 9.44186922,2.59598745 9.58582794,2.84899623 Z" id="Shape"></path>
            </g>
        </g>
    </g>
</svg>