<?xml version="1.0" encoding="utf-8"?>
<!-- Generator: Adobe Illustrator 18.0.0, SVG Export Plug-In . SVG Version: 6.00 Build 0)  -->
<!DOCTYPE svg PUBLIC "-//W3C//DTD SVG 1.1//EN" "http://www.w3.org/Graphics/SVG/1.1/DTD/svg11.dtd">
<svg version="1.1" id="图层_1" xmlns="http://www.w3.org/2000/svg" xmlns:xlink="http://www.w3.org/1999/xlink" x="0px" y="0px"
	 viewBox="0 333.7 735 655" enable-background="new 0 333.7 735 655" xml:space="preserve">
<g id="Symbols">
	<g id="icon-shidu">
		<path fill="#B3DFDB" d="M648.3,333.7H86.7C38.3,333.7,0,372,0,418.7v201.7c0,46.7,38.3,85,86.7,85h561.7c46.7,0,86.7-38.3,86.7-85
			V418.7C733.3,372,695,333.7,648.3,333.7z M698.3,627c0,23.3-18.3,41.7-40,41.7H75c-21.7,0-40-18.3-40-41.7V410.3
			c-1.7-25,16.7-43.3,40-43.3h583.3c21.7,0,40,18.3,40,41.7V627L698.3,627z M625,520.3H95c-8.3,0-15,6.7-15,15c0,8.3,6.7,15,15,15
			h530c8.3,0,15-6.7,15-15C640,527,631.7,520.3,625,520.3z M625,582H95c-8.3,0-15,6.7-15,15s6.7,15,15,15h530c8.3,0,15-6.7,15-15
			S631.7,582,625,582z M171.7,780.3c-10-26.7-35-36.7-36.7-36.7c-8.3-3.3-16.7,1.7-20,10c-3.3,8.3,1.7,16.7,10,20
			c0,0,13.3,5,18.3,18.3c5,11.7,1.7,28.3-10,46.7C96.7,902,130,942,151.7,955.3c3.3,1.7,5,1.7,8.3,1.7c5,0,10-3.3,13.3-8.3
			c3.3-6.7,1.7-16.7-5-21.7c-3.3-1.7-36.7-23.3-8.3-75C176.7,825.3,180,802,171.7,780.3L171.7,780.3z M378.3,780.3
			c-10-26.7-35-36.7-36.7-36.7c-8.3-3.3-16.7,1.7-20,10c-3.3,8.3,1.7,16.7,10,20c0,0,13.3,5,18.3,18.3c5,11.7,1.7,28.3-10,46.7
			c-36.7,63.3-3.3,103.3,18.3,116.7c3.3,1.7,5,1.7,8.3,1.7c5,0,10-3.3,13.3-8.3c3.3-6.7,1.7-16.7-5-21.7c-3.3-1.7-36.7-23.3-8.3-75
			C381.7,825.3,386.7,802,378.3,780.3L378.3,780.3z M278.3,800.3c-10-28.3-38.3-40-40-40c-8.3-3.3-16.7,1.7-20,10
			c-3.3,8.3,0,16.7,8.3,20c0,0,16.7,6.7,21.7,21.7c5,13.3,1.7,30-10,50c-48.3,85,20,123.3,20,125c3.3,1.7,5,1.7,8.3,1.7
			c5,0,10-3.3,13.3-8.3c3.3-6.7,1.7-16.7-5-21.7c-3.3-3.3-40-26.7-8.3-81.7C281.7,848.7,286.7,822,278.3,800.3L278.3,800.3z
			 M598.3,807c8.3-5,11.7-15,6.7-23.3c-5-8.3-15-11.7-23.3-6.7c-5,3.3-8.3,10-8.3,15l-26.7,15v-30l0,0c5-3.3,8.3-8.3,8.3-15
			c0-5-1.7-8.3-5-11.7c-3.3-3.3-8.3-5-11.7-5c-5,0-8.3,1.7-11.7,5s-5,8.3-5,11.7c0,6.7,5,13.3,10,16.7v31.7l-30-16.7
			c0-6.7-3.3-11.7-8.3-15c-8.3-5-18.3-1.7-23.3,6.7c-5,8.3-1.7,18.3,6.7,23.3c5,3.3,11.7,3.3,16.7,0l26.7,15l-26.7,15
			c-5-3.3-11.7-3.3-16.7,0c-8.3,5-11.7,15-6.7,23.3c5,8.3,15,11.7,23.3,6.7c5-3.3,8.3-10,8.3-15l30-16.7v30c-6.7,3.3-10,8.3-10,16.7
			c0,5,1.7,8.3,5,11.7c3.3,3.3,6.7,5,11.7,5s8.3-1.7,11.7-5c3.3-3.3,5-8.3,5-11.7c0-6.7-3.3-11.7-10-15v-30l26.7,15
			c0,6.7,3.3,11.7,8.3,15c8.3,5,18.3,1.7,23.3-6.7c5-8.3,1.7-18.3-6.7-23.3c-5-3.3-11.7-3.3-16.7,0l-26.7-15l26.7-15
			C586.7,810.3,593.3,810.3,598.3,807L598.3,807z"/>
	</g>
</g>
</svg>
