<?xml version="1.0" encoding="UTF-8"?>
<svg width="48px" height="48px" viewBox="0 0 48 48" version="1.1" xmlns="http://www.w3.org/2000/svg" xmlns:xlink="http://www.w3.org/1999/xlink">
    <!-- Generator: Sketch 43.1 (39012) - http://www.bohemiancoding.com/sketch -->
    <title>icon-fengliangzhong48*48#169488 copy</title>
    <desc>Created with Sketch.</desc>
    <defs></defs>
    <g id="Page-1" stroke="none" stroke-width="1" fill="none" fill-rule="evenodd">
        <g id="icon-fengliangzhong48*48#169488-copy">
            <rect id="Rectangle-42-Copy-4" fill="#F2F2F2" x="0" y="0" width="48" height="48" rx="24"></rect>
            <path d="M17.1074134,34.4924846 L14.683773,34.4924846 C14.0410746,34.4924846 13.5,33.9538374 13.5,33.3161939 L13.5,25.1897163 C13.5,24.5523114 14.0410962,24.0137116 14.683773,24.0137116 L17.1074134,24.0137116 C17.7503224,24.0137116 18.2914476,24.5522828 18.2914476,25.1897163 L18.2914476,33.3161939 C18.2914476,33.9538661 17.7503441,34.4924846 17.1074134,34.4924846 Z M25.0421512,34.4924846 L22.6438523,34.4924846 C21.9784002,34.4924846 21.4344766,33.9566028 21.4344766,33.3161939 L21.4344766,19.9076359 C21.4344766,19.244588 21.9754708,18.7061466 22.6438523,18.7061466 L25.0421512,18.7061466 C25.6877313,18.7061466 26.2259503,19.247414 26.2259503,19.9076359 L26.2259503,33.3161939 C26.2259685,33.9538357 25.6848806,34.4924846 25.0421512,34.4924846 Z" id="Shape" stroke="#444444" fill-rule="nonzero"></path>
            <path d="M33.2828419,34.4924846 L30.8845692,34.4924846 C30.2191011,34.4924846 29.6751934,33.9566129 29.6751934,33.3161939 L29.6751934,14.7014894 C29.6751934,14.0385897 30.2162737,13.5 30.8845692,13.5 L33.2828419,13.5 C33.951152,13.5 34.4922699,14.0386043 34.4922699,14.7014894 L34.4922699,33.3161939 C34.4922699,33.9565983 33.9483244,34.4924846 33.2828419,34.4924846 Z" id="Path" stroke="#ACACAC" opacity="0.396512681"></path>
        </g>
    </g>
</svg>