<?xml version="1.0" encoding="UTF-8"?>
<svg width="24px" height="24px" viewBox="0 0 24 24" version="1.1" xmlns="http://www.w3.org/2000/svg" xmlns:xlink="http://www.w3.org/1999/xlink">
    <!-- Generator: Sketch 43.2 (39069) - http://www.bohemiancoding.com/sketch -->
    <title>Group 8</title>
    <desc>Created with Sketch.</desc>
    <defs></defs>
    <g id="Page-1" stroke="none" stroke-width="1" fill="none" fill-rule="evenodd">
        <g id="更多" transform="translate(-24.000000, -155.000000)">
            <g id="Group-8" transform="translate(24.000000, 155.000000)">
                <circle id="Oval-13-Copy-6" fill="#FF4A60" cx="12" cy="12" r="12"></circle>
                <g id="钱包" transform="translate(3.000000, 3.000000)" stroke="#FFFFFF">
                    <circle id="Path" cx="9" cy="9" r="8.5"></circle>
                    <g id="Group-4" transform="translate(4.000000, 4.000000)" stroke-width="0.3" fill="#FFFFFF">
                        <path d="M9.31960338,6.03532275 L0.408004624,6.03532275 C0.204457448,6.03532275 0.0391923132,5.88776459 0.0391923132,5.70600347 C0.0391923132,5.52424234 0.204457448,5.37670676 0.408004624,5.37670676 L9.31960338,5.37670676 C9.52315056,5.37670676 9.68844098,5.52424234 9.68844098,5.70600347 C9.68844098,5.88776459 9.52317584,6.03532275 9.31960338,6.03532275" id="Fill-1"></path>
                        <path d="M9.31960338,8.15726141 L0.408004624,8.15726141 C0.204457448,8.15726141 0.0391923132,8.00970326 0.0391923132,7.82794213 C0.0391923132,7.64620358 0.204457448,7.49862285 0.408004624,7.49862285 L9.31960338,7.49862285 C9.52315056,7.49862285 9.68844098,7.64620358 9.68844098,7.82794213 C9.68844098,8.00970326 9.52317584,8.15726141 9.31960338,8.15726141" id="Fill-2"></path>
                        <path d="M4.86381664,11.0746731 C4.66024418,11.0746731 4.49497905,10.9271149 4.49497905,10.7453538 L4.49497905,5.97098053 C4.49497905,5.7892194 4.66024418,5.64166125 4.86381664,5.64166125 C5.06736382,5.64166125 5.23262896,5.7892194 5.23262896,5.97098053 L5.23262896,10.7453312 C5.23265424,10.9271149 5.06738911,11.0746731 4.86381664,11.0746731" id="Fill-3"></path>
                        <path d="M4.86381664,6.30029981 C4.74712469,6.30029981 4.63162115,6.25054183 4.56074628,6.15813737 L0.663058084,1.11876445 C0.546998266,0.969174433 0.588719116,0.764159803 0.756866782,0.660783304 C0.923826037,0.557135891 1.15369528,0.594905902 1.2692241,0.744518494 L5.16686173,5.78384626 C5.28294683,5.93345886 5.24120069,6.13842833 5.07312888,6.24184999 C5.00905577,6.28142609 4.93643621,6.30029981 4.86381664,6.30029981" id="Fill-4"></path>
                        <path d="M4.86381664,6.30029981 C4.7911718,6.30029981 4.71857752,6.28142609 4.65452969,6.24187256 C4.48640731,6.13845091 4.44466118,5.93348143 4.56074628,5.78386884 L8.45840919,0.744541071 C8.57393801,0.594928479 8.80380725,0.557406805 8.97074122,0.660805881 C9.13888889,0.76418238 9.18060974,0.969197009 9.06454992,1.11878702 L5.16686173,6.1581148 C5.09598685,6.25051925 4.98048331,6.30029981 4.86381664,6.30029981" id="Fill-5"></path>
                    </g>
                </g>
            </g>
        </g>
    </g>
</svg>