<?xml version="1.0" encoding="UTF-8"?>
<svg width="24px" height="24px" viewBox="0 0 24 24" version="1.1" xmlns="http://www.w3.org/2000/svg" xmlns:xlink="http://www.w3.org/1999/xlink">
    <!-- Generator: Sketch 43.2 (39069) - http://www.bohemiancoding.com/sketch -->
    <title>Shape</title>
    <desc>Created with Sketch.</desc>
    <defs></defs>
    <g id="Page-1" stroke="none" stroke-width="1" fill="none" fill-rule="evenodd">
        <g id="酒店地图-copy" transform="translate(-28.000000, -623.000000)" fill-rule="nonzero" fill="#3D3D3D">
            <g id="地图定位" transform="translate(28.000000, 623.000000)">
                <path d="M22.1746511,12.5995316 C21.8760843,17.7507073 17.7507073,21.8760843 12.5995316,22.1746511 L12.5995316,23.3911007 C12.5995316,23.7222129 12.3311122,23.9906323 12,23.9906323 C11.6688878,23.9906323 11.4004684,23.7222129 11.4004684,23.3911007 L11.4004684,22.1746511 C6.24929275,21.8760843 2.12391569,17.7507073 1.82534895,12.5995316 L0.608899307,12.5995316 C0.277787143,12.5995316 0.00936770023,12.3311122 0.00936770023,12 C0.00936770023,11.6688878 0.277787143,11.4004684 0.608899307,11.4004684 L1.82534895,11.4004684 C2.12391569,6.24929275 6.24929275,2.12391569 11.4004684,1.82534895 L11.4004684,0.608899307 C11.4004684,0.277787143 11.6688878,0.00936770023 12,0.00936770023 C12.3311122,0.00936770023 12.5995316,0.277787143 12.5995316,0.608899307 L12.5995316,1.82534895 C17.7507073,2.12391569 21.8760843,6.24929275 22.1746511,11.4004684 L23.377911,11.4004684 C23.7090232,11.4004684 23.9774426,11.6688878 23.9774426,12 C23.9774426,12.3311122 23.7090232,12.5995316 23.377911,12.5995316 L22.1740515,12.5995316 L22.1746511,12.5995316 Z M20.9731897,12.5995316 L17.3819953,12.5995316 C17.0508831,12.5995316 16.7824637,12.3311122 16.7824637,12 C16.7824637,11.6688878 17.0508831,11.4004684 17.3819953,11.4004684 L20.9731897,11.4004684 C20.6776206,6.91117565 17.0882248,3.32237938 12.5995316,3.0268103 L12.5995316,6.60421546 C12.5995316,6.93532762 12.3311122,7.20374706 12,7.20374706 C11.6688878,7.20374706 11.4004684,6.93532762 11.4004684,6.60421546 L11.4004684,3.0268103 C6.91117565,3.32237938 3.32237938,6.91177518 3.0268103,11.4004684 L6.60421546,11.4004684 C6.93532762,11.4004684 7.20374706,11.6688878 7.20374706,12 C7.20374706,12.3311122 6.93532762,12.5995316 6.60421546,12.5995316 L3.0268103,12.5995316 C3.32237938,17.0888243 6.91177518,20.6776206 11.4004684,20.9731897 L11.4004684,17.3957845 C11.4004684,17.0646724 11.6688878,16.7962529 12,16.7962529 C12.3311122,16.7962529 12.5995316,17.0646724 12.5995316,17.3957845 L12.5995316,20.9731897 C17.0888243,20.6776206 20.6776206,17.0882248 20.9731897,12.5995316 L20.9731897,12.5995316 Z M12,13.1990632 C11.3377757,13.1990632 10.8009368,12.6622243 10.8009368,12 C10.8009368,11.3377757 11.3377757,10.8009368 12,10.8009368 C12.6622243,10.8009368 13.1990632,11.3377757 13.1990632,12 C13.1990632,12.6622243 12.6622243,13.1990632 12,13.1990632 L12,13.1990632 Z" id="Shape"></path>
            </g>
        </g>
    </g>
</svg>