<?xml version="1.0" encoding="utf-8"?>
<!-- Generator: Adobe Illustrator 18.0.0, SVG Export Plug-In . SVG Version: 6.00 Build 0)  -->
<!DOCTYPE svg PUBLIC "-//W3C//DTD SVG 1.1//EN" "http://www.w3.org/Graphics/SVG/1.1/DTD/svg11.dtd">
<svg version="1.1" id="图层_1" xmlns="http://www.w3.org/2000/svg" xmlns:xlink="http://www.w3.org/1999/xlink" x="0px" y="0px"
	 viewBox="0 0 24 24" enable-background="new 0 0 24 24" xml:space="preserve">
<title>icon-paixu</title>
<desc>Created with Sketch.</desc>
<g id="Symbols">
	<g id="icon-paixu">
		<path fill="#444444" d="M7.6,23C7.3,23,7,22.7,7,22.4V2L1,7.1C0.8,7.3,0.4,7.3,0.2,7C-0.1,6.7,0,6.3,0.2,6.1l7-6
			C7.4,0,7.6,0,7.9,0.1c0.2,0.1,0.4,0.3,0.4,0.6v21.8C8.2,22.7,7.9,23,7.6,23L7.6,23z M16.8,23l7-6c0.3-0.2,0.3-0.6,0.1-0.9
			c-0.2-0.3-0.6-0.3-0.9-0.1l-6,5.1V0.8c0-0.3-0.3-0.6-0.6-0.6c-0.3,0-0.6,0.3-0.6,0.6v21.8c0,0.2,0.1,0.5,0.4,0.6
			C16.4,23.2,16.6,23.2,16.8,23L16.8,23z"/>
	</g>
</g>
</svg>
