<?xml version="1.0" encoding="UTF-8"?>
<svg width="25px" height="25px" viewBox="0 0 25 25" version="1.1" xmlns="http://www.w3.org/2000/svg" xmlns:xlink="http://www.w3.org/1999/xlink">
    <!-- Generator: Sketch 42 (36781) - http://www.bohemiancoding.com/sketch -->
    <title>icon-ruzhu</title>
    <desc>Created with Sketch.</desc>
    <defs>
        <rect id="path-1" x="0" y="0" width="375" height="56"></rect>
        <filter x="-50%" y="-50%" width="200%" height="200%" filterUnits="objectBoundingBox" id="filter-2">
            <feOffset dx="0" dy="0.5" in="SourceAlpha" result="shadowOffsetInner1"></feOffset>
            <feComposite in="shadowOffsetInner1" in2="SourceAlpha" operator="arithmetic" k2="-1" k3="1" result="shadowInnerInner1"></feComposite>
            <feColorMatrix values="0 0 0 0 0.698039216   0 0 0 0 0.698039216   0 0 0 0 0.698039216  0 0 0 1 0" type="matrix" in="shadowInnerInner1"></feColorMatrix>
        </filter>
    </defs>
    <g id="Page-1" stroke="none" stroke-width="1" fill="none" fill-rule="evenodd">
        <g id="入住-前置" transform="translate(-127.000000, -1014.000000)">
            <rect id="Rectangle-31" fill="#FFFFFF" x="0" y="0" width="375" height="1060"></rect>
            <g id="Bottom-Bar/Tab-Bar-Copy" transform="translate(0.000000, 1004.000000)">
                <g id="Bar">
                    <use fill="#FFFFFF" fill-rule="evenodd" xlink:href="#path-1"></use>
                    <use fill="black" fill-opacity="1" filter="url(#filter-2)" xlink:href="#path-1"></use>
                </g>
                <g id="Group-2" transform="translate(125.000000, 11.900000)"></g>
                <g id="入住" transform="translate(127.000000, 10.000000)" fill="#444444">
                    <g>
                        <path d="M24.4949876,2.87445886 C24.1608839,2.5415687 23.6694786,2.34765609 23.1500187,2.34372294 L16.4851805,2.34372294 L16.4851805,2.10909091 C16.4293125,1.28138527 16.2979194,0.780952389 15.868564,0.438095221 C15.4392085,0.0943722859 14.8422492,0.0155843902 13.8893905,0.0155844156 L11.6132892,0.0155844156 C11.4829307,0.0155844156 11.332915,0 11.2025564,0 L10.8301035,0 C9.54203712,0 8.66366896,0.203463195 8.66366896,2.07792208 L8.66366896,2.34372294 L1.84881494,2.34372294 C1.32634625,2.34372294 0.8587109,2.54632034 0.523503264,2.87445886 C0.205883692,3.17142855 -3.03102969e-08,3.59307358 0,4.03030301 L0,21.1861472 C0,21.638961 0.205883692,22.0450216 0.523503264,22.3567099 C0.8587109,22.6709957 1.32531164,22.8727273 1.84881494,22.8727273 L3.03031841,22.8727273 C2.98331847,23.0154474 2.95931056,23.1627821 2.95893159,23.3108225 C2.95893159,24.2337662 3.85488782,25 4.95672773,25 C6.07005903,24.9980909 6.9715439,24.2425188 6.97211191,23.3108225 C6.97173295,23.1627821 6.94772503,23.0154474 6.9007251,22.8727273 L17.1555957,22.8727273 C17.1077503,23.0153216 17.0833849,23.1627135 17.0831744,23.3108225 C17.0831744,24.2337662 17.9801652,25 19.0820051,25 C19.7086525,24.9981622 20.298815,24.7531113 20.6796172,24.3366296 C21.0604195,23.9201479 21.1887573,23.3793782 21.027037,22.8727273 L23.1520879,22.8727273 C23.6745566,22.8727273 24.1618492,22.6718615 24.4970568,22.3567099 C24.8270877,22.0296605 25.0055529,21.614187 24.9998683,21.1861472 L24.9998683,4.03030301 C24.9998683,3.59307358 24.8126072,3.17142855 24.4949876,2.87445886 L24.4949876,2.87445886 Z M19.0809705,21.6398268 L19.0251025,21.6415584 L19.0251025,3.46753247 L19.6779298,3.46753247 L19.6779298,21.7134199 C19.4844426,21.6641119 19.2832291,21.6393063 19.0809705,21.6398268 L19.0809705,21.6398268 Z M10.0065687,2.07792208 C10.0065687,1.2025974 10.3241883,1.10909091 10.8280343,1.10909091 C10.9211475,1.10909091 11.0515061,1.12467532 11.1642766,1.12467532 L13.8893905,1.12467532 C14.4873844,1.12467532 14.8236266,1.15584416 14.9539851,1.25021644 C15.065721,1.34372294 15.1226235,1.62510821 15.1412462,2.15670995 L15.1412462,2.34372294 L10.0065687,2.34372294 L10.0065687,2.07792208 L10.0065687,2.07792208 Z M4.95672773,21.6398268 C4.81912708,21.6398268 4.68566478,21.6519481 4.55530622,21.6735931 L4.55530622,3.46753247 L5.52678761,3.46753247 L5.52678761,21.7064935 C5.34139592,21.6621985 5.14952741,21.6397601 4.95672773,21.6398268 Z M1.51257272,21.6242424 C1.39647711,21.4993812 1.33675777,21.34424 1.34393432,21.1861472 L1.34393432,4.03030301 C1.34393432,3.85887444 1.40083684,3.70216449 1.51257272,3.608658 C1.59510132,3.52325094 1.71766401,3.47180967 1.84881494,3.46753247 L3.2113719,3.46753247 L3.2113719,21.7627705 L1.84881494,21.7627705 C1.73604448,21.7627705 1.60568595,21.7021645 1.51257272,21.6242424 L1.51257272,21.6242424 Z M5.62817759,23.3099567 C5.62817759,23.6225108 5.32918066,23.8727273 4.95672773,23.8727273 C4.58764857,23.8680819 4.28979426,23.6188217 4.28424327,23.3099567 C4.28674933,23.1382899 4.38275362,22.9769694 4.54496032,22.8718615 L5.37470267,22.8718615 C5.53443336,22.9780201 5.62772402,23.1392597 5.62817759,23.3099567 L5.62817759,23.3099567 Z M6.87072193,21.7627705 L6.87072193,3.46753247 L8.66263438,3.46753247 L8.66263438,3.48311688 L10.0065687,3.48311688 L10.0065687,3.46753247 L15.1412462,3.46753247 L15.1412462,3.48311688 L16.4851805,3.48311688 L16.4851805,3.46753247 L17.6987563,3.46753247 L17.6987563,21.7627705 L6.87072193,21.7627705 Z M19.7524204,23.3099567 C19.7524204,23.6225108 19.4523888,23.8727273 19.0809705,23.8727273 C18.7151822,23.8675084 18.4230728,23.6160935 18.4271087,23.3099567 C18.4280678,23.1403209 18.5190412,22.9798108 18.6754106,22.8718615 L19.49998,22.8718615 C19.6594444,22.9781113 19.7523693,23.1393769 19.7524204,23.3099567 L19.7524204,23.3099567 Z M23.6724874,21.1861472 C23.6739588,21.3461188 23.6076079,21.501346 23.4852264,21.6242424 C23.3921131,21.7021645 23.2814118,21.7627705 23.1500187,21.7627705 L21.0022068,21.7627705 L21.0022068,3.46753247 L23.1500187,3.46753247 C23.2814118,3.46753247 23.3921131,3.51515151 23.4852264,3.608658 C23.6099699,3.7238992 23.6770127,3.87485562 23.6724874,4.03030301 L23.6724874,21.1861472 Z" fill-rule="nonzero"></path>
                    </g>
                </g>
            </g>
        </g>
    </g>
</svg>