<?xml version="1.0" encoding="UTF-8"?>
<svg width="12px" height="12px" viewBox="0 0 12 12" version="1.1" xmlns="http://www.w3.org/2000/svg" xmlns:xlink="http://www.w3.org/1999/xlink">
    <!-- Generator: Sketch 43.2 (39069) - http://www.bohemiancoding.com/sketch -->
    <title>Cancel</title>
    <desc>Created with Sketch.</desc>
    <defs></defs>
    <g id="Page-1" stroke="none" stroke-width="1" fill="none" fill-rule="evenodd">
        <g id="入住-前置-默认状态" transform="translate(-351.000000, -928.000000)" fill="#FFFFFF">
            <g id="icon-chacha2" transform="translate(351.000000, 928.000000)">
                <path d="M6.96653719,6 L11.7988875,1.16764973 C12.0611542,0.905383007 12.066125,0.46767872 11.7992232,0.200776844 C11.5304605,-0.0679858222 11.0994375,-0.065974736 10.8323503,0.201112539 L6,5.03346281 L1.16764973,0.201112539 C0.905383007,-0.0611541854 0.46767872,-0.0661250314 0.200776844,0.200776844 C-0.0679858222,0.469539511 -0.065974736,0.900562457 0.201112539,1.16764973 L5.03346281,6 L0.201112539,10.8323503 C-0.0611541854,11.094617 -0.0661250314,11.5323213 0.200776844,11.7992232 C0.469539511,12.0679858 0.900562457,12.0659747 1.16764973,11.7988875 L6,6.96653719 L10.8323503,11.7988875 C11.094617,12.0611542 11.5323213,12.066125 11.7992232,11.7992232 C12.0679858,11.5304605 12.0659747,11.0994375 11.7988875,10.8323503 L6.96653719,6 L6.96653719,6 Z" id="Cancel"></path>
            </g>
        </g>
    </g>
</svg>