<?xml version="1.0" encoding="UTF-8"?>
<svg width="48px" height="48px" viewBox="0 0 48 48" version="1.1" xmlns="http://www.w3.org/2000/svg" xmlns:xlink="http://www.w3.org/1999/xlink">
    <!-- Generator: Sketch 43.1 (39012) - http://www.bohemiancoding.com/sketch -->
    <title>icon-zhoulanagdeng24*24#444444</title>
    <desc>Created with Sketch.</desc>
    <defs></defs>
    <g id="Page-1" stroke="none" stroke-width="1" fill="none" fill-rule="evenodd">
        <g id="入住-光照" transform="translate(-36.000000, -399.000000)">
            <g id="icon-zhoulanagdeng24*24#444444" transform="translate(36.000000, 399.000000)">
                <ellipse id="Oval-7" fill="#F2F2F2" cx="24" cy="24" rx="24" ry="24"></ellipse>
                <path d="M18.7317938,33.8314502 L13.4675189,33.8314502 C13.2197883,33.8314502 13.003024,33.6146859 13.003024,33.3669553 C13.003024,33.1192247 13.2197883,32.9024605 13.4675189,32.9024605 L18.7317938,32.9024605 C18.9795244,32.9024605 19.1962887,33.1192247 19.1962887,33.3669553 C19.1962887,33.6146859 18.9795244,33.8314502 18.7317938,33.8314502 Z" id="Shape" fill="#444444" fill-rule="nonzero"></path>
                <path d="M34.5246186,33.8314502 L28.0216907,33.8314502 C27.7739601,33.8314502 27.5571959,33.6146859 27.5571959,33.3669553 C27.5571959,33.1192247 27.7739601,32.9024605 28.0216907,32.9024605 L34.5246186,32.9024605 C34.7723491,32.9024605 34.9891134,33.1192247 34.9891134,33.3669553 C34.9891134,33.6146859 34.7723491,33.8314502 34.5246186,33.8314502 Z" id="Shape" fill="#444444" fill-rule="nonzero"></path>
                <path d="M18.5769622,33.7695175 C18.4840632,33.7695175 18.3911643,33.7385512 18.2982653,33.6766186 C18.1744,33.5837196 18.1124673,33.4598543 18.1124673,33.3050227 L18.1124673,14.4774983 C18.1124673,14.2297677 18.3292316,14.0130034 18.5769622,14.0130034 L25.3895532,14.0130034 C25.6372838,14.0130034 25.8540481,14.2297677 25.8540481,14.4774983 L25.8540481,31.323178 C25.8540481,31.5399422 25.7301828,31.7257402 25.5134186,31.7567065 L18.7008275,33.7385512 C18.6698612,33.7695175 18.6079285,33.7695175 18.5769622,33.7695175 Z M19.041457,14.9419931 L19.041457,32.6856962 L24.9250584,30.9825485 L24.9250584,14.9419931 L19.041457,14.9419931 Z" id="Shape" fill="#444444" fill-rule="nonzero"></path>
                <path d="M27.8668591,33.6766186 C27.6191285,33.6766186 27.4023643,33.4598543 27.4023643,33.2121237 L27.4023643,14.9419931 L19.041457,14.9419931 L19.041457,33.2121237 C19.041457,33.4598543 18.8246928,33.6766186 18.5769622,33.6766186 C18.3292316,33.6766186 18.1124673,33.4598543 18.1124673,33.2121237 L18.1124673,14.4774983 C18.1124673,14.2297677 18.3292316,14.0130034 18.5769622,14.0130034 L27.8668591,14.0130034 C28.1145897,14.0130034 28.3313539,14.2297677 28.3313539,14.4774983 L28.3313539,33.2121237 C28.3313539,33.4598543 28.1145897,33.6766186 27.8668591,33.6766186 Z" id="Shape" fill="#444444" fill-rule="nonzero"></path>
                <path d="M24.1509003,25.3157113 C23.9031697,25.3157113 23.6864055,25.0989471 23.6864055,24.8512165 L23.6864055,23.9222268 C23.6864055,23.6744962 23.9031697,23.457732 24.1509003,23.457732 C24.3986309,23.457732 24.6153952,23.6744962 24.6153952,23.9222268 L24.6153952,24.8512165 C24.6153952,25.0989471 24.3986309,25.3157113 24.1509003,25.3157113 Z" id="Shape" fill="#444444" fill-rule="nonzero"></path>
            </g>
        </g>
    </g>
</svg>