<?xml version="1.0" encoding="UTF-8"?>
<svg width="40px" height="40px" viewBox="0 0 40 40" version="1.1" xmlns="http://www.w3.org/2000/svg" xmlns:xlink="http://www.w3.org/1999/xlink">
    <!-- Generator: Sketch 42 (36781) - http://www.bohemiancoding.com/sketch -->
    <title>icon-yingshi</title>
    <desc>Created with Sketch.</desc>
    <defs></defs>
    <g id="Page-1" stroke="none" stroke-width="1" fill="none" fill-rule="evenodd">
        <g id="入住-控制" transform="translate(-40.000000, -535.000000)" fill="#444444">
            <g id="icon-yingshi" transform="translate(40.000000, 535.000000)">
                <g id="Group">
                    <path d="M20.021168,14.5008786 C22.2279043,14.5008786 24.021168,12.7076149 24.021168,10.5008786 C24.021168,8.2941422 22.2279043,6.50087855 20.021168,6.50087855 C17.8144316,6.50087855 16.021168,8.2941422 16.021168,10.5008786 C16.021168,12.7076149 17.8144316,14.5008786 20.021168,14.5008786 L20.021168,14.5008786 Z M20.021168,8.11419121 C21.3388734,8.11419121 22.4131473,9.18846512 22.4131473,10.5061705 C22.4131473,11.823876 21.3388734,12.8981499 20.021168,12.8981499 C18.7034625,12.8981499 17.6291886,11.823876 17.6291886,10.5061705 C17.6291886,9.18317313 18.7034625,8.11419121 20.021168,8.11419121 L20.021168,8.11419121 Z" id="Shape" fill-rule="nonzero"></path>
                    <path d="M24.021168,29.5785013 C24.021168,27.3717649 22.2279043,25.5785013 20.021168,25.5785013 C17.8144316,25.5785013 16.021168,27.3717649 16.021168,29.5785013 C16.021168,31.7852376 17.8144316,33.5785013 20.021168,33.5785013 C22.2279043,33.5785013 24.021168,31.7852376 24.021168,29.5785013 L24.021168,29.5785013 Z M17.6291886,29.5785013 C17.6291886,28.2607959 18.7034625,27.186522 20.021168,27.186522 C21.3388734,27.186522 22.4131473,28.2607959 22.4131473,29.5785013 C22.4131473,30.8962067 21.3388734,31.9704806 20.021168,31.9704806 C18.7034625,31.9704806 17.6291886,30.8962067 17.6291886,29.5785013 L17.6291886,29.5785013 Z" id="Shape" fill-rule="nonzero"></path>
                    <path d="M33.5414522,19.9470801 C33.5414522,17.7403462 31.7481906,15.9470846 29.5414567,15.9470846 C27.3347229,15.9470846 25.5414612,17.7403462 25.5414612,19.9470801 C25.5368155,22.153814 27.3347229,23.9470756 29.5414567,23.9470756 C31.7481906,23.9470756 33.5414522,22.153814 33.5414522,19.9470801 Z M29.5414574,17.5551008 C30.8591628,17.5551008 31.9334367,18.6293747 31.9334367,19.9470801 C31.9334367,21.2647855 30.8591628,22.3390594 29.5414574,22.3390594 C28.2237519,22.3390594 27.149478,21.2647855 27.149478,19.9470801 C27.149478,18.6293747 28.2184599,17.5551008 29.5414574,17.5551008 L29.5414574,17.5551008 Z" id="Shape" fill-rule="nonzero"></path>
                    <path d="M6.41755039,20.0913075 C6.41755039,22.2980438 8.21081403,24.0913075 10.4175504,24.0913075 C12.6242867,24.0913075 14.4175504,22.2980438 14.4175504,20.0913075 C14.4175504,17.8845711 12.619641,16.0913075 10.4175504,16.0913075 C8.21081403,16.0913075 6.41755039,17.8845711 6.41755039,20.0913075 Z M10.4175504,22.1865456 C9.26075596,22.1865456 8.31766653,21.2434562 8.31766653,20.0866617 C8.31766653,18.9298673 9.26075596,17.9867779 10.4175504,17.9867779 C11.5743448,17.9867779 12.5174342,18.9298673 12.5174342,20.0866617 C12.5127885,21.2481019 11.5743448,22.1865456 10.4175504,22.1865456 L10.4175504,22.1865456 Z" id="Shape" fill-rule="nonzero"></path>
                    <path d="M28.8165605,37.9939803 C30.6846329,37.0414222 32.6425633,35.6431214 34.1401964,34.1454884 C35.9765168,32.309168 37.415938,30.1764961 38.421416,27.7951008 C39.463938,25.3343256 39.993137,22.7147907 39.993137,20.021168 C39.993137,17.3275452 39.463938,14.7080103 38.421416,12.2472351 C37.415938,9.87113178 35.9765168,7.73316796 34.1401964,5.89684755 C32.303876,4.06052713 30.1712041,2.62110594 27.7898088,1.61562791 C25.3290336,0.573105943 22.7094987,0.0439069767 20.015876,0.0439069767 C17.3222532,0.0439069767 14.7027183,0.573105943 12.2419432,1.61562791 C9.86583979,2.62110594 7.72787597,4.06052713 5.89155556,5.89684755 C4.05523514,7.73316796 2.61581395,9.86583979 1.61033592,12.2472351 C0.578397933,14.7080103 0.0491989664,17.3275452 0.0491989664,20.021168 C0.0491989664,22.7147907 0.578397933,25.3343256 1.6209199,27.7951008 C2.62639793,30.1712041 4.06581912,32.309168 5.90213953,34.1454884 C7.73845995,35.9818088 9.87113178,37.42123 12.2525271,38.426708 C14.7133023,39.46923 17.3328372,39.9984289 20.0264599,39.9984289 L20.3333953,39.9984289 L38.5378398,39.9984289 C39.1358346,39.9984289 39.6226977,39.5861495 39.6226977,38.9881546 C39.6174057,38.3848678 39.1358346,37.9939803 38.5378398,37.9939803 L28.8165605,37.9939803 Z M3.24857726,27.1035981 C2.30174415,24.858251 1.82021189,22.4776421 1.82021189,20.015876 C1.82021189,17.5541099 2.30174415,15.1735009 3.24857726,12.9281538 C4.16294752,10.7585534 5.47769292,8.81619291 7.14952967,7.13894569 C8.82136642,5.46710894 10.7691374,4.15236354 12.9387378,3.23799328 C15.1840849,2.29116017 17.5646939,1.80962791 20.0264599,1.80962791 C22.4828156,1.80962791 24.868835,2.29116017 27.1141821,3.23799328 C29.2837825,4.15236354 31.2315535,5.46710894 32.9033902,7.13894569 C34.575227,8.81078244 35.8899724,10.7585534 36.8043426,12.9281538 C37.7511757,15.1735009 38.232708,17.5541099 38.232708,20.015876 C38.232708,22.4776421 37.7511757,24.858251 36.8043426,27.1035981 C35.8899724,29.2731985 34.575227,31.2209695 32.9033902,32.8928062 C31.2315535,34.564643 29.2837825,35.8793884 27.1141821,36.7937587 C24.868835,37.7405918 22.488226,38.222124 20.0264599,38.222124 C17.5701043,38.222124 15.1840849,37.7405918 12.9387378,36.7937587 C10.7691374,35.8793884 8.82136642,34.564643 7.14952967,32.8928062 C5.47769292,31.2209695 4.16294752,29.2731985 3.24857726,27.1035981 Z" id="Shape" fill-rule="nonzero"></path>
                </g>
            </g>
        </g>
    </g>
</svg>