<?xml version="1.0" encoding="UTF-8"?>
<svg width="19px" height="20px" viewBox="0 0 19 20" version="1.1" xmlns="http://www.w3.org/2000/svg" xmlns:xlink="http://www.w3.org/1999/xlink">
    <!-- Generator: Sketch 42 (36781) - http://www.bohemiancoding.com/sketch -->
    <title>icon-sousuo</title>
    <desc>Created with Sketch.</desc>
    <defs></defs>
    <g id="Page-1" stroke="none" stroke-width="1" fill="none" fill-rule="evenodd">
        <g id="首页" transform="translate(-154.000000, -232.000000)" stroke-width="0.4" stroke="#FFFFFF" fill-rule="nonzero" fill="#FFFFFF">
            <g id="Group-20" transform="translate(154.000000, 229.000000)">
                <g id="搜索" transform="translate(0.000000, 3.000000)">
                    <g id="Shape" transform="translate(1.000000, 1.000000)">
                        <path d="M17.060805,17.7161438 C16.868895,17.9055008 16.5790266,17.9198768 16.3597601,17.7818211 C16.3057378,17.7442621 16.2803156,17.7368137 16.2600516,17.7161438 C16.2402711,17.696787 16.2314516,17.6712497 16.2154936,17.6505345 L14.0398854,15.5466643 C10.598999,18.0829242 5.70197749,17.8217774 2.57251311,14.744999 C-0.85750437,11.3719825 -0.85750437,5.90270521 2.57251311,2.5297114 C6.00329051,-0.843237135 11.5656877,-0.843237135 14.9970638,2.5297114 C18.427749,5.90270523 18.427749,11.3719825 14.9970638,14.744999 C14.9570192,14.7842333 14.9131751,14.8167663 14.8731305,14.856159 L16.9375856,16.8500691 C16.9794494,16.8726181 17.0246521,16.8938765 17.060805,16.9301224 C17.2819828,17.147575 17.2819828,17.4987139 17.060805,17.7161438 Z M3.22273669,3.14389888 C0.142136378,6.17263621 0.142136378,11.0827174 3.22273669,14.1113415 C6.3032449,17.1393997 11.2974189,17.1393997 14.3786179,14.1113415 C17.4585505,11.0820382 17.4585505,6.17197963 14.3786179,3.14389888 C11.2974189,0.115274768 6.3032449,0.115274768 3.22273669,3.14389888 Z"></path>
                    </g>
                </g>
            </g>
        </g>
    </g>
</svg>