<?xml version="1.0" encoding="UTF-8"?>
<svg width="16px" height="40px" viewBox="0 0 16 40" version="1.1" xmlns="http://www.w3.org/2000/svg" xmlns:xlink="http://www.w3.org/1999/xlink">
    <!-- Generator: Sketch 42 (36781) - http://www.bohemiancoding.com/sketch -->
    <title>icon-wendu</title>
    <desc>Created with Sketch.</desc>
    <defs></defs>
    <g id="Page-1" stroke="none" stroke-width="1" fill="none" fill-rule="evenodd">
        <g id="入住-控制" transform="translate(-260.000000, -535.000000)" fill="#444444">
            <g id="icon-wendu" transform="translate(260.000000, 535.000000)">
                <g id="温度">
                    <path d="M12.5332781,25.65625 L12.5332781,4.625625 C12.5332781,2.074375 10.4602233,0 7.91242305,0 C5.36462283,0 3.29278529,2.074375 3.29278529,4.625625 L3.29278529,25.65625 C1.22338233,27.146875 0,29.51375 0,32.078125 C0,36.445625 3.55085201,40 7.91242305,40 C12.2739941,40 15.8248461,36.445 15.8248461,32.078125 C15.8248461,29.51375 14.6026811,27.146875 12.5332781,25.65625 Z M7.91242305,38.260625 C4.50764655,38.260625 1.73708118,35.488125 1.73708118,32.078125 C1.73708118,29.94875 2.81682261,27.99625 4.62572425,26.8525 L5.03047512,26.59625 L5.03047512,4.625625 C5.03047512,3.034375 6.32385196,1.73875 7.9130317,1.73875 C9.50342873,1.73875 10.7968056,3.034375 10.7968056,4.625625 L10.7968056,26.595625 L11.2009478,26.851875 C13.0080235,27.995625 14.0871563,29.950625 14.0871563,32.0775 C14.0871563,35.488125 11.3184169,38.260625 7.91242305,38.260625 Z" id="Shape" fill-rule="nonzero"></path>
                    <path d="M8.78157229,29.158125 C10.0439081,29.53625 10.9684443,30.693125 10.9690529,32.078125 C10.9690529,33.76875 9.6020297,35.14 7.9130317,35.14 C6.22342505,35.14 4.85518451,33.76875 4.85518451,32.078125 C4.85518451,30.693125 5.78093801,29.535625 7.04388246,29.158125 L7.04388246,11.7625 C7.04388246,11.7625 7.12868072,11.01294 7.9130317,11.01294 C8.69738268,11.01294 8.78157229,11.7625 8.78157229,11.7625 L8.78157229,29.158125 Z M8,33.3333333 C8.73637967,33.3333333 9.33333333,32.7363797 9.33333333,32 C9.33333333,31.2636203 8.73637967,30.6666667 8,30.6666667 C7.26362033,30.6666667 6.66666667,31.2636203 6.66666667,32 C6.66666667,32.7363797 7.26362033,33.3333333 8,33.3333333 Z" id="Combined-Shape" fill-rule="nonzero"></path>
                </g>
            </g>
        </g>
    </g>
</svg>