<?xml version="1.0" encoding="UTF-8"?>
<svg width="23px" height="23px" viewBox="0 0 23 23" version="1.1" xmlns="http://www.w3.org/2000/svg" xmlns:xlink="http://www.w3.org/1999/xlink">
    <!-- Generator: Sketch 43.1 (39012) - http://www.bohemiancoding.com/sketch -->
    <title>Rectangle</title>
    <desc>Created with Sketch.</desc>
    <defs></defs>
    <g id="Page-1" stroke="none" stroke-width="1" fill="none" fill-rule="evenodd">
        <g id="控制-温度" transform="translate(-24.000000, -89.000000)">
            <g id="icon-back14*14#444444" transform="translate(29.000000, 94.000000)" fill="#444444">
                <g id="icon-back">
                    <path d="M3.03047379,7.91477719 L13.112583,7.91477719 C13.6023194,7.91477719 14,7.50440985 14,6.99905008 C14,6.4936903 13.6023194,6.08332296 13.112583,6.08332296 L3.03047379,6.08332296 L7.41048421,1.56358268 C7.75661366,1.20641111 7.75663207,0.625057377 7.41048421,0.267885804 C7.06435476,-0.0892857688 6.50097385,-0.0893047672 6.1548444,0.267885804 L0.443708496,6.16121676 L0.167541382,6.47849151 C0.0644389931,6.62667971 -1.77635684e-15,6.80336565 -1.77635684e-15,6.99905008 C-1.77635684e-15,7.1947345 0.0644389931,7.37142044 0.167541382,7.51960864 L0.443708496,7.83688339 L6.1548444,13.7321142 C6.50097385,14.0892858 7.06435476,14.0893048 7.41048421,13.7321142 C7.75661366,13.3730428 7.75663207,12.7935889 7.41048421,12.4345365 L3.03047379,7.91477719 Z" fill-rule="nonzero"></path>
                </g>
            </g>
            <rect id="Rectangle" x="24" y="89" width="23" height="23"></rect>
        </g>
    </g>
</svg>