<?xml version="1.0" encoding="UTF-8"?>
<svg width="24px" height="24px" viewBox="0 0 24 24" version="1.1" xmlns="http://www.w3.org/2000/svg" xmlns:xlink="http://www.w3.org/1999/xlink">
    <!-- Generator: Sketch 43.2 (39069) - http://www.bohemiancoding.com/sketch -->
    <title>Group 10</title>
    <desc>Created with Sketch.</desc>
    <defs></defs>
    <g id="Page-1" stroke="none" stroke-width="1" fill="none" fill-rule="evenodd">
        <g id="更多" transform="translate(-24.000000, -421.000000)">
            <g id="Group-10" transform="translate(24.000000, 421.000000)">
                <circle id="Oval-13-Copy-4" fill="#38D4B1" cx="12" cy="12" r="12"></circle>
                <g id="邀请" transform="translate(4.000000, 3.000000)" fill-rule="nonzero" fill="#FFFFFF">
                    <path d="M12.0219234,9.51457588 C12.0727603,9.54798298 12.1319489,9.56541277 12.1929532,9.56541277 C12.3004369,9.56541277 12.3995688,9.51203404 12.4580312,9.42198014 C12.5037844,9.35080851 12.5193986,9.26620141 12.5019688,9.18413617 C12.484539,9.10134468 12.4358808,9.03089929 12.3654355,8.98478298 C11.9765333,8.73205106 11.5574922,8.51054752 11.1206581,8.32608226 C11.1903773,8.26653049 11.2615489,8.2048 11.3287262,8.13907517 C11.7666496,7.71022977 12.1123404,7.20876027 12.3570837,6.64991772 C12.6188936,6.05076878 12.7514326,5.41240283 12.7514326,4.75261275 C12.7514326,2.13814466 10.6242723,0.0109843745 8.00980424,0.0109843745 C5.39533615,0.0109843745 3.26817586,2.13778153 3.26817586,4.75261275 C3.26817586,6.12484538 3.8636936,7.42518012 4.90439714,8.32971346 C1.93007658,9.58901559 0.0113474894,12.4522213 0.0113474894,15.6734638 C0.0113474894,15.8473986 0.152964511,15.9886525 0.326899268,15.9886525 C0.500834026,15.9886525 0.642451047,15.8470354 0.642451047,15.6734638 C0.642451047,12.5876652 2.59712906,9.82976453 5.50790352,8.77417304 C6.2631943,9.24550354 7.12778437,9.49424112 8.00944111,9.49424112 C8.89872337,9.49424112 9.76585529,9.24477729 10.5193305,8.77380992 C11.0542071,8.96481135 11.5593078,9.21427518 12.0219234,9.51457588 Z M3.92832907,4.75297588 C3.92832907,2.50271772 5.75918298,0.67186383 8.00944112,0.67186383 C10.2596993,0.67186383 12.0905532,2.50271774 12.0905532,4.75297588 C12.0905532,5.32053333 11.9765333,5.86957163 11.7510354,6.38556596 C11.5407886,6.86633758 11.2430298,7.29772482 10.8657475,7.66738157 C10.0988369,8.41940426 9.08427799,8.83408795 8.00907799,8.83408795 C5.75918298,8.83408795 3.92832907,7.00323404 3.92832907,4.75297588 Z" id="Shape"></path>
                    <path d="M15.9610553,13.4330099 C15.9425362,13.3883461 15.9160284,13.3484028 15.8822582,13.3146326 L13.8280851,11.2611858 C13.686105,11.1192057 13.4566128,11.1188425 13.3142695,11.2611858 C13.1722894,11.4031659 13.1722894,11.6326581 13.3142695,11.7746383 L14.7485957,13.2086014 L10.541844,13.2086014 C10.3414014,13.2086014 10.1787234,13.3709163 10.1787234,13.571722 C10.1787234,13.7725276 10.3414014,13.9348425 10.541844,13.9348425 L14.7485957,13.9348425 L13.3142695,15.3688057 C13.1722894,15.5107858 13.1722894,15.740278 13.3142695,15.8822581 C13.4562496,16.0246014 13.686105,16.0242383 13.8280851,15.8822581 L15.8822582,13.8288113 C15.9160284,13.7950411 15.9425362,13.7550978 15.9610553,13.710434 C15.9977305,13.6214695 15.9977305,13.5216114 15.9610553,13.4330099 Z" id="Shape"></path>
                </g>
            </g>
        </g>
    </g>
</svg>