<?xml version="1.0" encoding="UTF-8"?>
<svg width="24px" height="24px" viewBox="0 0 24 24" version="1.1" xmlns="http://www.w3.org/2000/svg" xmlns:xlink="http://www.w3.org/1999/xlink">
    <!-- Generator: Sketch 43.2 (39069) - http://www.bohemiancoding.com/sketch -->
    <title>Group 6</title>
    <desc>Created with Sketch.</desc>
    <defs></defs>
    <g id="Page-1" stroke="none" stroke-width="1" fill="none" fill-rule="evenodd">
        <g id="更多" transform="translate(-24.000000, -553.000000)">
            <g id="Group-6" transform="translate(24.000000, 553.000000)">
                <circle id="Oval-13-Copy-7" fill="#7B80EA" cx="12" cy="12" r="12"></circle>
                <g id="设置-2-copy" transform="translate(4.000000, 4.000000)" fill-rule="nonzero" fill="#FFFFFF">
                    <path d="M6.59814714,0.562301644 C6.64563059,0.299675171 6.94737763,0.000722453988 7.26030198,0.000722453988 C7.57322633,0.000722453988 8.34992844,0.00353688344 8.67680432,0.000722453988 C9.0037003,-0.00209197546 9.34115039,0.230339691 9.39764001,0.562301644 C9.45412963,0.894263598 9.61835159,1.86425671 9.66583503,2.13806049 C9.71331848,2.41184416 9.85024047,2.51523424 9.85024047,2.51523424 C9.85024047,2.51523424 10.2833008,2.702434 10.4872665,2.78346947 C10.6912322,2.86446473 10.8812062,2.73315149 10.8812062,2.73315149 C10.8812062,2.73315149 12.026679,1.9173288 12.2474308,1.76090684 C12.4681423,1.60444466 12.8891408,1.60231374 13.060439,1.76926971 C13.2317372,1.93626589 13.8846447,2.57114087 14.1416624,2.83374724 C14.3987002,3.09637371 14.3956445,3.52963502 14.2338752,3.75573422 C14.0720857,3.98181332 13.4320241,4.87607817 13.3118882,5.04647177 C13.1917522,5.21686537 13.1720914,5.39413422 13.2280785,5.53264436 C13.2840454,5.67115449 13.4292298,6.02995404 13.4543787,6.09422355 C13.4795277,6.15849306 13.6154244,6.29038928 13.7477428,6.3121609 C13.8800612,6.33393253 15.0303788,6.52322301 15.3865851,6.58188376 C15.7428114,6.64058472 15.9917678,6.95756988 15.9913858,7.37386421 C15.9910642,7.70492152 15.9924714,8.24973475 15.989657,8.63108994 C15.9868626,9.01244513 15.7945768,9.32269577 15.3939629,9.39181012 C14.9933087,9.46088426 13.9614585,9.63829383 13.7980206,9.67041853 C13.6345625,9.70254323 13.5142256,9.78339777 13.4515643,9.91627905 C13.3889432,10.0491402 13.2783563,10.2822956 13.2280785,10.3968228 C13.1777806,10.5113499 13.1621203,10.7275383 13.2615903,10.8661892 C13.3610804,11.0048602 14.0606671,11.9781502 14.2087262,12.2044705 C14.3567853,12.4307707 14.461261,12.8536187 14.1249165,13.1850981 C13.7885721,13.5166178 13.4753261,13.8263056 13.1861636,14.1070851 C12.8970011,14.3878848 12.5072428,14.4106012 12.1971329,14.1909149 C11.887023,13.9712286 11.1494213,13.4491519 10.9817818,13.3276088 C10.8141625,13.2060656 10.6921368,13.1157224 10.4537346,13.2186501 C10.2153524,13.3215376 10.0891252,13.373685 9.94243314,13.4449504 C9.79576116,13.5161957 9.71639425,13.5916626 9.68260099,13.7969953 C9.64882784,14.0023079 9.48006259,15.0346809 9.41161164,15.3922943 C9.3431607,15.7499078 9.08475587,15.9878477 8.54551119,15.9901797 C8.0062665,15.9925317 7.78557503,15.9957884 7.37207503,15.9901797 C6.95857504,15.984591 6.66957334,15.7617485 6.59816724,15.3476052 C6.52674105,14.9334217 6.3816371,14.0833434 6.33274644,13.8500674 C6.28383568,13.6167713 6.22451153,13.4885338 6.0198422,13.4030556 C5.81517287,13.3175773 5.71391372,13.2745367 5.60075355,13.2298275 C5.48759338,13.1850981 5.27393798,13.1403487 5.06991195,13.285714 C4.86586582,13.4310793 4.16469093,13.9311029 3.81825476,14.1741691 C3.4718186,14.4172151 3.05851964,14.3612281 2.80126068,14.1071253 C2.54402183,13.8529622 2.08603375,13.4030556 1.86809639,13.1739409 C1.65017914,12.9448464 1.5496236,12.5366335 1.7731094,12.2240107 C1.9965952,11.9113678 2.43246991,11.3020639 2.65038716,10.9947282 C2.86832452,10.6873724 2.82642972,10.6287117 2.74539426,10.3912341 C2.6643789,10.1537365 2.63782274,10.1313819 2.56657747,9.96096817 C2.4953322,9.79055446 2.38934883,9.70204066 2.15866613,9.66482988 C1.92800353,9.627599 1.21434464,9.51393626 0.73378081,9.42455802 C0.253237085,9.33515968 0.00178791656,9.08927906 0.00178791656,8.62548119 L0.00178791656,7.39338428 C0.00178791656,7.00503323 0.224248461,6.66090892 0.585922748,6.59643838 C0.947576933,6.53194774 1.73010894,6.40421285 2.06088481,6.34287839 C2.40732097,6.27860888 2.50031776,6.23102492 2.59172641,6.01879684 C2.68311495,5.80654865 2.76216022,5.63044578 2.80964366,5.49072946 C2.85712711,5.35105335 2.82202715,5.22299681 2.65038716,4.97942804 C2.47874717,4.73591959 2.11395691,4.21671766 1.86252784,3.8702815 C1.61105857,3.52384534 1.56636945,3.08797063 1.85133043,2.8085983 C2.13633162,2.52922597 2.61128669,2.065408 2.82359519,1.84749075 C3.03594389,1.62955339 3.41358001,1.53631537 3.76234813,1.78042692 C4.11117656,2.02453846 4.67874646,2.42302147 4.96372755,2.61578978 C5.24870863,2.8085983 5.34492191,2.83945651 5.5420727,2.75830043 C5.73922348,2.67712424 6.11203487,2.52359711 6.11203487,2.52359711 C6.11203487,2.52359711 6.28206661,2.46296626 6.32997222,2.1715723 C6.37781752,1.88015823 6.5506637,0.824928118 6.59814714,0.562301644 Z M6.83283035,2.23023305 C6.76735466,2.63496811 6.60653012,2.87982347 6.27963414,3.00972949 C5.95273816,3.13963551 6.08043284,3.08990053 5.75158687,3.22764674 C5.42276099,3.36539296 5.07686761,3.32404095 4.78768499,3.11868812 C4.49852246,2.91333528 3.65405291,2.30278502 3.53043915,2.21346709 C3.40684549,2.12416927 3.26640546,2.14222182 3.17003135,2.23023305 C3.07363714,2.31826438 2.37797049,3.02231401 2.24804437,3.15222003 C2.11813835,3.28214616 2.12231978,3.37433883 2.23127841,3.52939379 C2.34025714,3.68444875 2.87753172,4.43041327 3.10296752,4.74472473 C3.32840332,5.05905629 3.3879486,5.40687957 3.25384104,5.72539257 C3.11973348,6.04388547 3.17712773,5.91424079 3.03592379,6.26182282 C2.89471984,6.60940486 2.54977131,6.7689227 2.18100064,6.83178499 C1.81218976,6.89464728 0.840105934,7.05919089 0.747732339,7.07485118 C0.65533864,7.09051147 0.504646047,7.14750367 0.504646047,7.33468333 L0.504646047,8.63384406 C0.504646047,8.76795163 0.582887185,8.87695046 0.73934936,8.91046227 C0.895791431,8.94397409 1.97052152,9.12248933 2.24804437,9.17029442 C2.52556721,9.21807941 2.8459498,9.3379138 3.00239187,9.69834169 C3.15883394,10.0587495 3.08620156,9.89199454 3.24545806,10.2599209 C3.40471456,10.6278673 3.29993737,10.9723535 3.05268975,11.309884 C2.80542202,11.6473542 2.35324372,12.2987941 2.24804437,12.4475568 C2.14284502,12.5962793 2.13070276,12.7325379 2.24804437,12.8498996 C2.36538597,12.9672211 3.08901599,13.6908511 3.16164837,13.7634835 C3.23428076,13.8361159 3.39074293,13.8557164 3.52205617,13.7718464 C3.6533694,13.6880166 4.57662288,13.0136592 4.80445094,12.8498996 C5.03227901,12.6860998 5.37161879,12.5984504 5.81024762,12.7744327 C6.24889655,12.950435 6.13187659,12.9051026 6.34667787,12.99237 C6.56149925,13.0796374 6.77833093,13.4072772 6.83281025,13.7886324 C6.88728956,14.1699876 7.0297801,15.0710071 7.08425942,15.2470296 C7.13873873,15.423052 7.209984,15.4817329 7.3692405,15.4817329 L8.6432523,15.4817329 C8.8025289,15.4817329 8.88633859,15.4104876 8.91146743,15.2637955 C8.93663647,15.1171235 9.07745845,14.2857411 9.14617074,13.8808251 C9.21488302,13.4759292 9.34734213,13.1153204 9.80832558,12.9336892 C10.269309,12.7520781 9.93248212,12.8835521 10.2441601,12.7576868 C10.555838,12.6318215 10.8672144,12.6347566 11.2002017,12.8757722 C11.6876809,13.2286213 12.3287678,13.6524542 12.4653279,13.7467175 C12.601888,13.8409808 12.7083941,13.8682607 12.8341388,13.7467175 C12.9598634,13.6251945 13.6555099,12.9253263 13.7644886,12.8163476 C13.8734674,12.7073889 13.8594957,12.5816845 13.7896376,12.4726856 C13.7197794,12.3637069 12.9420118,11.2874691 12.8005868,11.0897353 C12.6591818,10.8920015 12.6497333,10.5239546 12.750309,10.259941 C12.8508846,9.9959274 12.8801145,9.9159775 12.9583154,9.73070763 C13.0659472,9.47572032 13.3607989,9.23719743 13.7184124,9.17992379 C14.0760259,9.12267025 15.2360332,8.91367876 15.317913,8.89934528 C15.3997526,8.88499169 15.4953024,8.78897944 15.491121,8.67583937 C15.4869396,8.56269931 15.491121,7.45628678 15.491121,7.33476374 C15.491121,7.2132407 15.4282587,7.09587899 15.2731836,7.07213727 C15.1181287,7.04841565 13.9478889,6.85422001 13.6080265,6.79833349 C13.2681841,6.74246706 13.0492416,6.41836541 12.948666,6.17250489 C12.8480903,5.92666448 12.8940861,6.04115145 12.7698492,5.74225904 C12.6456323,5.44336664 12.6636849,5.08848719 12.8760135,4.78117159 C13.0883622,4.47381579 13.739983,3.55508551 13.8091979,3.45684182 C13.8783926,3.35859813 13.8692256,3.27384359 13.7868231,3.18862669 C13.7044207,3.10342989 12.9738149,2.37559833 12.853679,2.2554624 C12.733543,2.13532647 12.603637,2.12973782 12.5072227,2.19959598 C12.4108486,2.26945413 11.1447775,3.14562623 11.0264911,3.22776736 C10.9081845,3.30988839 10.5123953,3.35767338 10.3168126,3.27247658 C10.1212499,3.18727978 9.89766361,3.09717784 9.70218138,3.01543876 C9.50663884,2.93369969 9.23838351,2.60750732 9.20067015,2.37282411 C9.1629568,2.1381409 8.92734885,0.795436918 8.90730609,0.679723661 C8.88726333,0.564030508 8.76342844,0.498132653 8.6852074,0.499519764 C8.60694616,0.500886773 7.43632444,0.499519764 7.31478129,0.499519764 C7.19325825,0.499519764 7.10104548,0.635034542 7.08429962,0.704872599 C7.06751356,0.77461014 6.89830604,1.8255382 6.83283035,2.23023305 Z M11.3157541,7.99022426 C11.3157541,9.8235838 9.82953431,11.3098438 7.99615466,11.3098438 C6.16281521,11.3098438 4.67659544,9.8235838 4.67659544,7.99022426 C4.67659544,6.15690491 6.16281521,4.67064493 7.99615466,4.67064493 C9.82953431,4.67064493 11.3157541,6.15690491 11.3157541,7.99022426 Z M7.99615466,4.15100074 C5.87582382,4.15100074 4.15693114,5.86987332 4.15693114,7.99022426 C4.15693114,10.1105953 5.87582382,11.829488 7.99615466,11.829488 C10.1165458,11.829488 11.8354184,10.1105752 11.8354184,7.99022426 C11.8354385,5.86987332 10.1165458,4.15100074 7.99615466,4.15100074 Z" id="Shape"></path>
                </g>
            </g>
        </g>
    </g>
</svg>