<?xml version="1.0" encoding="UTF-8"?>
<svg width="27px" height="27px" viewBox="0 0 27 27" version="1.1" xmlns="http://www.w3.org/2000/svg" xmlns:xlink="http://www.w3.org/1999/xlink">
    <!-- Generator: Sketch 42 (36781) - http://www.bohemiancoding.com/sketch -->
    <title>icon-dingdan</title>
    <desc>Created with Sketch.</desc>
    <defs>
        <rect id="path-1" x="0" y="0" width="375" height="56"></rect>
        <filter x="-50%" y="-50%" width="200%" height="200%" filterUnits="objectBoundingBox" id="filter-2">
            <feOffset dx="0" dy="0.5" in="SourceAlpha" result="shadowOffsetInner1"></feOffset>
            <feComposite in="shadowOffsetInner1" in2="SourceAlpha" operator="arithmetic" k2="-1" k3="1" result="shadowInnerInner1"></feComposite>
            <feColorMatrix values="0 0 0 0 0.698039216   0 0 0 0 0.698039216   0 0 0 0 0.698039216  0 0 0 1 0" type="matrix" in="shadowInnerInner1"></feColorMatrix>
        </filter>
    </defs>
    <g id="Page-1" stroke="none" stroke-width="1" fill="none" fill-rule="evenodd">
        <g id="入住-前置" transform="translate(-225.000000, -1013.000000)">
            <rect id="Rectangle-31" fill="#FFFFFF" x="0" y="0" width="375" height="1060"></rect>
            <g id="Bottom-Bar/Tab-Bar-Copy" transform="translate(0.000000, 1004.000000)">
                <g id="Bar">
                    <use fill="#FFFFFF" fill-rule="evenodd" xlink:href="#path-1"></use>
                    <use fill="black" fill-opacity="1" filter="url(#filter-2)" xlink:href="#path-1"></use>
                </g>
                <g id="Group-3" transform="translate(225.000000, 11.900000)"></g>
                <g id="订单" transform="translate(226.000000, 10.000000)" fill="#444444">
                    <g id="Shape">
                        <path d="M20.5343448,11.1520321 L4.49223953,11.1520321 C4.25496778,11.1520321 4.06259398,10.9604813 4.06259398,10.7242246 C4.06259398,10.4879679 4.25496778,10.2964171 4.49223953,10.2964171 L20.5343179,10.2964171 C20.7715897,10.2964171 20.9639635,10.4879679 20.9639635,10.7242246 C20.9639635,10.9604813 20.7716165,11.1520321 20.5343448,11.1520321 Z" fill-rule="nonzero"></path>
                        <path d="M16.2120569,7.11197861 L4.49223953,7.11197861 C4.25496778,7.11197861 4.06259398,6.92042781 4.06259398,6.68417112 C4.06259398,6.44791444 4.25496778,6.25636364 4.49223953,6.25636364 L16.2120569,6.25636364 C16.4493287,6.25636364 16.6417025,6.44791444 16.6417025,6.68417112 C16.6417025,6.92042781 16.4493555,7.11197861 16.2120569,7.11197861 Z" fill-rule="nonzero"></path>
                        <path d="M20.5343448,15.1920588 L4.49223953,15.1920588 C4.25496778,15.1920588 4.06259398,15.000508 4.06259398,14.7642513 C4.06259398,14.5279947 4.25496778,14.3364439 4.49223953,14.3364439 L20.5343179,14.3364439 C20.7715897,14.3364439 20.9639635,14.5279947 20.9639635,14.7642513 C20.9639635,15.000508 20.7716165,15.1920588 20.5343448,15.1920588 Z" fill-rule="nonzero"></path>
                        <path d="M20.5343448,19.2321123 L4.49223953,19.2321123 C4.25496778,19.2321123 4.06259398,19.0405615 4.06259398,18.8043048 C4.06259398,18.5680481 4.25496778,18.3764973 4.49223953,18.3764973 L20.5343179,18.3764973 C20.7715897,18.3764973 20.9639635,18.5680481 20.9639635,18.8043048 C20.9639635,19.0405615 20.7716165,19.2321123 20.5343448,19.2321123 Z" fill-rule="nonzero"></path>
                        <path d="M3.02247583,24.9930214 C1.36278195,24.9930214 0.0125402793,23.6044118 0.0125402793,21.8975401 L0.0125402793,3.09852941 C0.0125402793,1.39176471 1.36280881,0.00323529412 3.02247583,0.00323529412 L18.7886681,0.00323529412 C19.0259398,0.00323529412 19.2183136,0.194786096 19.2183136,0.431042781 C19.2183136,0.667299465 19.0259398,0.858850267 18.7886681,0.858850267 L3.02247583,0.858850267 C1.83660043,0.858850267 0.871831364,1.86358289 0.871831364,3.09852941 L0.871831364,21.8975668 C0.871831364,23.1326471 1.83662728,24.1374332 3.02247583,24.1374332 L22.0030881,24.1374332 C22.5603652,24.1374332 23.0893126,23.9141979 23.4925081,23.5088235 C23.9156015,23.0834492 24.1454082,22.5177005 24.1395274,21.9158289 L24.1395005,6.6086631 C24.1395005,6.37240642 24.3318743,6.18085561 24.5691461,6.18085561 C24.8064178,6.18085561 24.9987916,6.37240642 24.9987916,6.6086631 L24.9987916,21.9096791 C25.0063641,22.7408556 24.6882653,23.5224599 24.1030881,24.1108556 C23.5372718,24.6797326 22.7914876,24.9929947 22.0030881,24.9929947 L3.02247583,24.9930214 Z" stroke="#444444" stroke-width="0.3" fill-rule="nonzero"></path>
                        <path d="M20.9810419,6.81705882 C20.9741944,6.81705882 20.9673201,6.8168984 20.9604726,6.81657754 C19.6074382,6.75205882 18.963131,5.98390374 18.6609023,5.35082888 C18.3468851,4.6931016 18.3432868,4.05104278 18.3432868,4.02403743 L18.3589957,0.429197861 C18.3597476,0.255160428 18.4663265,0.0989304813 18.6285177,0.0340641711 C18.7906552,-0.0307219251 18.9762084,0.0086631016 19.0976369,0.133823529 L24.8782223,6.09203209 C24.9980397,6.21553476 25.0320892,6.39834225 24.9647422,6.55639037 C24.8973684,6.71438503 24.7416488,6.81703209 24.5692266,6.81703209 L20.9810419,6.81705882 Z M23.5568475,5.96144385 L19.213695,1.48486631 L19.2025779,4.02318182 C19.2029807,4.04663102 19.2139366,4.53112299 19.4482277,5.00663102 C19.7460526,5.61117647 20.2510473,5.92355615 20.9917025,5.96144385 L23.5568475,5.96144385 Z" stroke="#444444" stroke-width="0.3" fill-rule="nonzero"></path>
                    </g>
                </g>
            </g>
        </g>
    </g>
</svg>