<?xml version="1.0" encoding="UTF-8"?>
<svg width="48px" height="48px" viewBox="0 0 48 48" version="1.1" xmlns="http://www.w3.org/2000/svg" xmlns:xlink="http://www.w3.org/1999/xlink">
    <!-- Generator: Sketch 43.1 (39012) - http://www.bohemiancoding.com/sketch -->
    <title>icon-zhilengmoshi48*48#444444</title>
    <desc>Created with Sketch.</desc>
    <defs></defs>
    <g id="Page-1" stroke="none" stroke-width="1" fill="none" fill-rule="evenodd">
        <g id="控制-温度" transform="translate(-200.000000, -337.000000)">
            <g id="icon-zhilengmoshi48*48#444444" transform="translate(200.000000, 337.000000)">
                <rect fill="#F2F2F2" x="0" y="0" width="48" height="48" rx="24"></rect>
                <path d="M32.8851156,28.7823151 L28.9104274,26.4824188 L31.943486,25.6678398 C32.2178291,25.5931566 32.3802215,25.3101536 32.3066526,25.0349456 C32.2330837,24.7597375 31.9512701,24.5960074 31.6764182,24.6687875 L27.6464441,25.7510264 L24.6103631,23.9942812 L28.0576238,21.9995749 L32.087598,23.0818139 C32.1312224,23.0936073 32.1762062,23.0995936 32.2213899,23.0996185 C32.4804454,23.0996907 32.6993983,22.9072479 32.7331396,22.6498295 C32.766881,22.3924112 32.6049505,22.149822 32.3546658,22.0828355 L29.3215334,21.2682565 L32.8850419,19.2062474 C33.1261175,19.0608376 33.2065448,18.7486892 33.0658577,18.5044787 C32.9251705,18.2602682 32.6152244,18.1740084 32.3690401,18.3105504 L28.8056053,20.3724857 L29.6183081,17.332701 C29.6909271,17.0572397 29.5275593,16.7748011 29.2529602,16.7010691 C28.9783611,16.627337 28.6959843,16.7900895 28.6214664,17.065041 L27.5416957,21.1038041 L24.094435,23.0985104 L24.094435,19.1092455 L27.0445648,16.1525737 C27.246066,15.9506053 27.2460495,15.6231663 27.0445279,15.4212183 C26.8430064,15.2192703 26.516292,15.2192869 26.3147908,15.4212553 L24.094435,17.6465348 L24.094435,13.5226643 C24.094435,13.2370524 23.8634132,13.0055182 23.5784332,13.0055182 C23.2934533,13.0055182 23.0624314,13.2370524 23.0624314,13.5226643 L23.0624314,17.6465348 L20.8421493,15.4212553 C20.6406482,15.2192869 20.3139337,15.2192703 20.1124122,15.4212183 C19.9108907,15.6231663 19.9108742,15.9506053 20.1123753,16.1525737 L23.0625051,19.1092455 L23.0625051,23.0985842 L19.6153182,21.1039518 L18.5354001,17.065041 C18.461631,16.7891603 18.1786787,16.6254491 17.9034084,16.6993818 C17.6281382,16.7733145 17.4647892,17.0568942 17.5385583,17.3327749 L18.3513349,20.3725595 L14.7878263,18.3106243 C14.5412497,18.1701207 14.2277474,18.2554232 14.0859222,18.5016092 C13.944097,18.7477952 14.0271294,19.0625517 14.2718245,19.2063213 L17.8354068,21.2683304 L14.8022007,22.0828355 C14.5278581,22.157519 14.3654661,22.4405217 14.4390349,22.7157295 C14.5126038,22.9909372 14.7944168,23.1546673 15.0692685,23.0818878 L19.0993163,21.9996488 L22.5465033,23.9942812 L19.5104224,25.7511003 L15.4805956,24.6688614 C15.2068308,24.5989373 14.9278601,24.7626543 14.8547436,25.0361494 C14.7816272,25.3096446 14.9415536,25.5912177 15.2135278,25.6678398 L18.2465865,26.4824188 L14.2718982,28.7823151 C14.0696289,28.8994349 13.9710802,29.1381199 14.0316336,29.3642362 C14.0921871,29.5903526 14.2967407,29.7475071 14.5303414,29.7473836 C14.6207709,29.7474127 14.7096006,29.7234803 14.7878263,29.6780121 L18.7625883,27.3781158 L17.9498118,30.4179742 C17.8771927,30.6934356 18.0405605,30.9758741 18.3151597,31.0496062 C18.5897588,31.1233383 18.8721356,30.9605857 18.9466535,30.6856343 L20.0264242,26.6467234 L23.0624314,24.8899782 L23.0624314,28.4033948 L20.1123016,31.3600666 C19.9108005,31.562035 19.910817,31.889474 20.1123385,32.091422 C20.31386,32.29337 20.6405744,32.2933535 20.8420756,32.0913851 L23.0623577,29.8661055 L23.0623577,34.4658982 C23.0623577,34.7515101 23.2933796,34.9830443 23.5783595,34.9830443 C23.8633394,34.9830443 24.0943613,34.7515101 24.0943613,34.4658982 L24.0943613,29.8660316 L26.3147171,32.0913112 C26.4450655,32.2219618 26.6350595,32.2729938 26.8131301,32.2251837 C26.9912007,32.1773737 27.1302949,32.0379852 27.1780171,31.8595245 C27.2257393,31.6810639 27.1748395,31.4906434 27.0444911,31.3599928 L24.0943613,28.4033209 L24.0943613,24.8899782 L27.1303685,26.6467234 L28.2101392,30.6856343 C28.2839593,30.9614601 28.5668355,31.1251534 28.842094,31.0513304 C29.1173631,30.9774167 29.2807279,30.6938547 29.206981,30.4179742 L28.3942781,27.3781158 L32.3690401,29.6780121 C32.4875456,29.7466268 32.6284001,29.7652325 32.7605974,29.7297336 C32.8927947,29.6942347 33.0054982,29.6075411 33.0738986,29.4887366 C33.1423676,29.3699773 33.1609434,29.2288172 33.1255371,29.0963278 C33.0901309,28.9638384 33.0036447,28.8508795 32.8851156,28.7823151 L32.8851156,28.7823151 Z" id="Shape" fill="#444444" fill-rule="nonzero"></path>
            </g>
        </g>
    </g>
</svg>