<?xml version="1.0" encoding="UTF-8"?>
<svg width="48px" height="48px" viewBox="0 0 48 48" version="1.1" xmlns="http://www.w3.org/2000/svg" xmlns:xlink="http://www.w3.org/1999/xlink">
    <!-- Generator: Sketch 43.1 (39012) - http://www.bohemiancoding.com/sketch -->
    <title>icon-chuangtoudeng48*48#169488</title>
    <desc>Created with Sketch.</desc>
    <defs></defs>
    <g id="Page-1" stroke="none" stroke-width="1" fill="none" fill-rule="evenodd">
        <g id="入住-光照" transform="translate(-120.000000, -635.000000)">
            <g id="icon-chuangtoudeng48*48#169488" transform="translate(120.000000, 635.000000)">
                <ellipse id="Oval-7-Copy-9" fill="#F2F2F2" cx="24" cy="24" rx="24" ry="24"></ellipse>
                <path d="M34.4698369,14.0233028 L13.5268693,14.0233028 C13.239886,14.0233028 13.0072268,14.255962 13.0072268,14.5438302 L13.0072268,30.0100514 C13.0072268,30.2970346 13.0189274,31.022838 14.0063218,31.0091464 L16.0047575,31.0091464 L16.0047575,32.6473229 C16.0047575,32.7243598 16.0687665,32.7868447 16.1466883,32.7868447 L17.8610168,32.7868447 C17.9391598,32.7868447 18.0031687,32.7243844 18.0031687,32.6473229 L18.0031687,31.0091464 L29.993095,31.0091464 L29.993095,32.6473229 C29.993095,32.7243598 30.0573251,32.7868447 30.1356894,32.7868447 L31.849133,32.7868447 C31.927276,32.7868447 31.9915061,32.7243844 31.9915061,32.6473229 L31.9915061,31.0091464 L33.9899419,31.0091464 C34.7137788,30.9155419 34.9888156,30.2967888 34.9888156,30.0100514 L34.9888156,14.5438302 C34.9888156,14.255962 34.7568201,14.0233028 34.4698369,14.0233028 Z M33.9899419,30.0100514 L14.0063218,30.0100514 L14.0063218,23.015895 L33.9897207,23.015895 L33.9897207,30.0100514 L33.9899419,30.0100514 Z M33.9899419,22.0165788 L14.0063218,22.0165788 L14.0063218,15.0223978 L33.9897207,15.0223978 L33.9897207,22.0165542 L33.9899419,22.0165542 L33.9899419,22.0165788 Z M24.9973497,18.0199285 L22.998914,18.0199285 L22.998914,19.0190235 L24.9973497,19.0190235 L24.9973497,18.0199285 Z M24.9973497,26.0132045 L22.998914,26.0132045 L22.998914,27.0122994 L24.9973497,27.0122994 L24.9973497,26.0132045 Z" id="Shape" fill="#444444" fill-rule="nonzero"></path>
            </g>
        </g>
    </g>
</svg>