<?xml version="1.0" encoding="UTF-8"?>
<svg width="24px" height="20px" viewBox="0 0 24 20" version="1.1" xmlns="http://www.w3.org/2000/svg" xmlns:xlink="http://www.w3.org/1999/xlink">
    <!-- Generator: Sketch 42 (36781) - http://www.bohemiancoding.com/sketch -->
    <title>icon-liebiao</title>
    <desc>Created with Sketch.</desc>
    <defs></defs>
    <g id="Symbols" stroke="none" stroke-width="1" fill="none" fill-rule="evenodd">
        <g id="icon-liebiao" fill="#444444">
            <path d="M1.06684861,1.59986354 L22.96058,1.59986354 C23.3044606,1.59986354 23.5337143,1.25598294 23.5337143,0.854788913 C23.5337143,0.453594883 23.2471471,0.109714286 22.96058,0.109714286 L1.06684861,0.109714286 C0.722968017,0.109714286 0.493714286,0.453594883 0.493714286,0.854788913 C0.493714286,1.25598294 0.722968017,1.59986354 1.06684861,1.59986354 L1.06684861,1.59986354 Z M22.96058,8.99329638 L1.06684861,8.99329638 C0.722968017,8.99329638 0.493714286,9.33717697 0.493714286,9.738371 C0.493714286,10.139565 0.78028145,10.4834456 1.06684861,10.4834456 L22.96058,10.4834456 C23.3044606,10.4834456 23.5337143,10.139565 23.5337143,9.738371 C23.5337143,9.33717697 23.2471471,8.99329638 22.96058,8.99329638 L22.96058,8.99329638 Z M22.96058,17.8768785 L1.06684861,17.8768785 C0.722968017,17.8768785 0.493714286,18.2207591 0.493714286,18.6219531 C0.493714286,19.0231471 0.78028145,19.3670277 1.06684861,19.3670277 L22.96058,19.3670277 C23.3044606,19.3670277 23.5337143,19.0231471 23.5337143,18.6219531 C23.5337143,18.1634456 23.2471471,17.8768785 22.96058,17.8768785 L22.96058,17.8768785 Z"></path>
        </g>
    </g>
</svg>