<?xml version="1.0" encoding="UTF-8"?>
<svg width="52px" height="58px" viewBox="0 0 52 58" version="1.1" xmlns="http://www.w3.org/2000/svg" xmlns:xlink="http://www.w3.org/1999/xlink">
    <!-- Generator: Sketch 43.2 (39069) - http://www.bohemiancoding.com/sketch -->
    <title>Group 7 Copy</title>
    <desc>Created with Sketch.</desc>
    <defs>
        <filter x="-7.3%" y="-4.5%" width="114.6%" height="112.7%" filterUnits="objectBoundingBox" id="filter-1">
            <feOffset dx="0" dy="1" in="SourceAlpha" result="shadowOffsetOuter1"></feOffset>
            <feGaussianBlur stdDeviation="1" in="shadowOffsetOuter1" result="shadowBlurOuter1"></feGaussianBlur>
            <feColorMatrix values="0 0 0 0 0   0 0 0 0 0   0 0 0 0 0  0 0 0 0.243206522 0" type="matrix" in="shadowBlurOuter1" result="shadowMatrixOuter1"></feColorMatrix>
            <feMerge>
                <feMergeNode in="shadowMatrixOuter1"></feMergeNode>
                <feMergeNode in="SourceGraphic"></feMergeNode>
            </feMerge>
        </filter>
        <circle id="path-2" cx="24" cy="24" r="24"></circle>
        <polygon id="path-3" points="2.62441853e-16 11.0450206 2.62441853e-16 0.118107534 9.82556866 0.118107534 9.82556866 11.0450206 0 11.0450206"></polygon>
        <polygon id="path-5" points="10.3140469 11.0932517 10.3140469 0.170536566 0.163564787 0.170536566 0.163564787 11.0932517"></polygon>
        <polygon id="path-7" points="8.85203371 9.10356013 0.187590238 9.10356013 0.187590238 0.149593188 8.85203371 0.149593188 8.85203371 9.10356013"></polygon>
    </defs>
    <g id="Page-1" stroke="none" stroke-width="1" fill="none" fill-rule="evenodd">
        <g id="酒店地图" transform="translate(-138.000000, -470.000000)">
            <g id="Group-7-Copy" transform="translate(140.000000, 471.000000)">
                <g id="Group-2-Copy-5" filter="url(#filter-1)">
                    <rect id="Rectangle" fill="#FFFFFF" transform="translate(24.000000, 47.000000) rotate(-315.000000) translate(-24.000000, -47.000000) " x="19" y="42" width="10" height="10"></rect>
                    <g id="Oval-15">
                        <use fill="#FDD942" fill-rule="evenodd" xlink:href="#path-2"></use>
                        <circle stroke="#FFFFFF" stroke-width="4" cx="24" cy="24" r="22"></circle>
                    </g>
                </g>
                <g id="Page-1-Copy-4" transform="translate(8.000000, 18.000000)">
                    <g id="Group-3" transform="translate(0.000000, 0.120640)">
                        <mask id="mask-4" fill="white">
                            <use xlink:href="#path-3"></use>
                        </mask>
                        <g id="Clip-2"></g>
                        <path d="M4.22496147,0.117980894 L-0.000263376958,0.117980894 L-0.000263376958,1.72187871 L3.80685055,1.72187871 L3.80685055,1.75353876 L4.16965231,1.75353876 C6.6203749,1.78963121 7.86351414,3.09085901 7.90104536,5.65848856 C7.93725969,8.29640341 6.67502562,9.59826441 4.11500159,9.56343836 L1.86576237,9.56343836 L1.86576237,4.84735824 L-0.000263376958,6.64691512 L-0.000263376958,11.040696 L4.11500159,11.040696 C8.02812474,11.1458073 9.93102326,9.33485284 9.82106338,5.60593288 C9.7841906,1.98275747 7.9188233,0.153440143 4.22496147,0.117980894" id="Fill-1" fill="#444444" mask="url(#mask-4)"></path>
                    </g>
                    <g id="Group-6" transform="translate(21.275385, 0.120640)">
                        <mask id="mask-6" fill="white">
                            <use xlink:href="#path-5"></use>
                        </mask>
                        <g id="Clip-5"></g>
                        <polygon id="Fill-4" fill="#444444" mask="url(#mask-6)" points="5.15653346 4.76124292 10.094193 0.170536566 7.46108184 0.170536566 0.163564787 7.2098307 0.163564787 11.0932517 2.08358281 11.0932517 2.08358281 7.66320253 3.89429939 5.92190012 7.79030304 11.0932517 10.3141127 11.0932517"></polygon>
                    </g>
                    <path d="M13.3726393,6.27357118 L13.3726393,6.27357118 C13.349906,6.24741999 13.3612727,6.26049559 13.3726393,6.27357118" id="Fill-7" fill="#FEFEFE"></path>
                    <g id="Group-11" transform="translate(11.193521, 2.217469)">
                        <mask id="mask-8" fill="white">
                            <use xlink:href="#path-7"></use>
                        </mask>
                        <g id="Clip-10"></g>
                        <path d="M7.34354218,7.07237836 C7.1993433,6.96220141 7.09926005,6.8792521 7.04197556,6.82353042 C7.28691613,6.38662181 7.47457222,5.89462473 7.60823602,5.34943878 L6.17480693,5.34943878 C6.12081465,5.56029467 6.0516782,5.76291895 5.96410536,5.95287921 C5.50253725,5.56789308 5.07915879,5.19620417 4.688044,4.83781247 L3.49626327,5.40072805 C4.21199015,6.08078579 4.80590519,6.62533855 5.27405773,7.03122031 C4.69857908,7.58400467 3.9953626,7.86008025 3.16177453,7.86008025 C2.21361749,7.80499178 1.69674021,7.36238436 1.61048425,6.53352442 C1.63879728,5.92565158 2.09839007,5.38679763 2.98992107,4.91696258 L4.19684598,4.37810864 C5.37479942,3.85318511 5.94961963,3.09271086 5.92130661,2.09795228 C5.83439221,0.882206601 5.04426134,0.232542503 3.5495971,0.149593188 C2.19913175,0.232542503 1.45245808,0.923364658 1.30825919,2.22205965 C1.30825919,2.62604181 1.46299316,3.05915121 1.76916887,3.52138785 L2.91749241,2.9787347 C2.74695582,2.70835793 2.66991806,2.4696412 2.68835445,2.26321771 C2.68835445,1.60025639 2.97477689,1.26845914 3.5495971,1.26845914 C4.1817018,1.2412315 4.48326842,1.54516792 4.4549554,2.1802684 C4.54121135,2.70582512 4.16787451,3.14843254 3.33428644,3.50745743 C3.3244098,3.49732622 3.32967734,3.50239183 3.33428644,3.50745743 L2.17081873,4.04631138 C2.1780616,4.05454299 2.17411094,4.05074378 2.17081873,4.04631138 C0.848666402,4.65418422 0.187590238,5.52483542 0.187590238,6.65763179 C0.273846192,8.15008625 1.23648897,8.93778814 3.07617702,9.02073746 C4.31141495,9.02073746 5.37479942,8.63321852 6.26567198,7.86008025 C6.63900882,8.19187751 7.18551601,8.60599088 7.90387666,9.10368677 L8.85203371,8.1089282 C8.53598136,7.91580193 8.03293137,7.56944105 7.34354218,7.07237836" id="Fill-9" fill="#444444" mask="url(#mask-8)"></path>
                    </g>
                </g>
            </g>
        </g>
    </g>
</svg>