<?xml version="1.0" encoding="UTF-8"?>
<svg width="18px" height="24px" viewBox="0 0 18 24" version="1.1" xmlns="http://www.w3.org/2000/svg" xmlns:xlink="http://www.w3.org/1999/xlink">
    <!-- Generator: Sketch 43.2 (39069) - http://www.bohemiancoding.com/sketch -->
    <title>Group 33 Copy 4</title>
    <desc>Created with Sketch.</desc>
    <defs></defs>
    <g id="Page-1" stroke="none" stroke-width="1" fill="none" fill-rule="evenodd">
        <g id="Group-33-Copy-4" transform="translate(-3.000000, 0.000000)" fill="#999999">
            <g id="Page-1" transform="translate(3.000000, 0.000000)">
                <path d="M16.2194998,19.632028 C16.2194998,20.9937467 15.0963903,22.1016648 13.7160002,22.1016648 L2.8625431,22.1016648 C1.8905564,22.1016648 1.09944374,21.3215864 1.09944374,20.3624135 L1.09944374,9.73947361 C1.09944374,8.78030071 1.8905564,8.00022234 2.8625431,8.00022234 L14.4564005,8.00022234 C15.4283872,8.00022234 16.2194998,8.78030071 16.2194998,9.73947361 L16.2194998,19.632028 Z M4.948173,2.45429532 C4.948173,1.69889664 5.57125874,1.08490592 6.33667713,1.08490592 L10.9826045,1.08490592 C11.7476848,1.08490592 12.3707706,1.69889664 12.3707706,2.45429532 L12.3707706,6.91531642 L4.948173,6.91531642 L4.948173,2.45429532 Z M14.4564005,6.91531642 L13.4702143,6.91531642 L13.4702143,2.45429532 C13.4702143,1.10091437 12.3542045,0 10.9826045,0 L6.33667713,0 C4.96473903,0 3.84872926,1.10091437 3.84872926,2.45429532 L3.84872926,6.91531642 L2.8625431,6.91531642 C1.28403669,6.91531642 0,8.18198494 0,9.73947361 L0,20.3624135 C0,21.9195687 1.28403669,23.1865707 2.8625431,23.1865707 L3.84872926,23.1865707 C3.84872926,23.6358078 4.21791516,24 4.67365015,24 C5.12870896,24 5.49823295,23.6358078 5.49823295,23.1865707 L11.8210487,23.1865707 C11.8210487,23.6358078 12.1902346,24 12.6459696,24 C13.1010284,24 13.4702143,23.6358078 13.4702143,23.1865707 L13.7160002,23.1865707 C15.70291,23.1865707 17.3192817,21.5920625 17.3192817,19.632028 L17.3192817,9.73947361 C17.3192817,8.18198494 16.0349069,6.91531642 14.4564005,6.91531642 L14.4564005,6.91531642 Z" id="Fill-1"></path>
                <path d="M4.88401053,12.0162517 C4.58846865,12.0162517 4.34854657,12.2529286 4.34854657,12.5441482 L4.34854657,19.6720495 C4.34854657,19.9635938 4.58846865,20.199946 4.88401053,20.199946 C5.1792233,20.199946 5.41914538,19.9635938 5.41914538,19.6720495 L5.41914538,12.5441482 C5.41914538,12.2529286 5.1792233,12.0162517 4.88401053,12.0162517" id="Fill-4"></path>
                <path d="M11.9756662,12.0162517 C11.6801244,12.0162517 11.4402023,12.2529286 11.4402023,12.5441482 L11.4402023,19.6720495 C11.4402023,19.9635938 11.6801244,20.199946 11.9756662,20.199946 C12.270879,20.199946 12.5108011,19.9635938 12.5108011,19.6720495 L12.5108011,12.5441482 C12.5108011,12.2529286 12.270879,12.0162517 11.9756662,12.0162517" id="Fill-6"></path>
            </g>
        </g>
    </g>
</svg>