<?xml version="1.0" encoding="UTF-8"?>
<svg width="48px" height="48px" viewBox="0 0 48 48" version="1.1" xmlns="http://www.w3.org/2000/svg" xmlns:xlink="http://www.w3.org/1999/xlink">
    <!-- Generator: Sketch 43.1 (39012) - http://www.bohemiancoding.com/sketch -->
    <title>icon-tongfengmoshi48*48#169488 copy</title>
    <desc>Created with Sketch.</desc>
    <defs></defs>
    <g id="Page-1" stroke="none" stroke-width="1" fill="none" fill-rule="evenodd">
        <g id="icon-tongfengmoshi48*48#169488-copy">
            <rect id="Rectangle-42" fill="#F2F2F2" x="0" y="0" width="48" height="48" rx="24"></rect>
            <path d="M24.5902092,24.5737518 C24.6308442,23.8275469 24.3944228,23.1773882 23.8957215,22.6491342 C23.123658,21.8364358 21.7457648,21.3672872 20.1166739,21.3672872 C18.7757215,21.3672872 17.4421573,21.6923665 16.4632251,22.2575613 C16.3080736,22.3462193 16.1529221,22.4459596 15.971912,22.5789466 L14.5090548,24.008557 C13.3934416,25.4455556 12.8430231,27.1596104 13.0720563,28.4783983 C13.2198196,29.3132612 13.6704978,29.9929726 14.3797619,30.4399567 C14.9597331,30.805671 15.4990693,30.982987 16.0310173,30.982987 C17.2796176,30.982987 18.2105267,29.9818903 19.196847,28.9253824 C19.8913348,28.1791775 20.607987,27.4108081 21.4945671,26.8973305 C22.4143939,26.3653824 23.0534704,26.0550794 23.47829,25.8482107 C24.3242352,25.4418615 24.5495743,25.331039 24.5902092,24.5737518 L24.5902092,24.5737518 Z M23.2086219,24.4407648 C23.1162698,24.4887879 22.9980592,24.5478932 22.8687662,24.6106927 C22.4291703,24.8249495 21.7642352,25.1500289 20.8037735,25.7041414 C19.7361833,26.3210534 18.9124026,27.2076335 18.1846681,27.9907792 C17.3756638,28.8588889 16.681176,29.6050938 16.0347114,29.6050938 C15.7724315,29.6050938 15.4769048,29.4979654 15.1259668,29.2763203 C14.8747691,29.1174748 14.693759,28.9216883 14.5755483,28.6741847 C14.4573377,28.4303752 14.4019264,28.1348485 14.4093146,27.7949928 C14.4240909,27.0672583 14.7159235,26.213925 15.2367893,25.3938384 C15.7613492,24.5626696 16.4447547,23.8792641 17.1614069,23.4655267 C17.9371645,23.0185426 19.019531,22.7599567 20.1240621,22.7599567 C21.3541919,22.7599567 22.3922295,23.0776479 22.8946248,23.6095959 C23.1088817,23.8386291 23.212316,24.1046032 23.2086219,24.4407648 L23.2086219,24.4407648 Z M31.2691126,28.1717893 C30.275404,27.9427561 29.2521429,27.7063348 28.3655628,27.1965512 C27.4457359,26.6646032 26.8546825,26.2693362 26.4668037,26.0033622 C25.9607143,25.6598124 25.7058225,25.4898845 25.4029076,25.4898845 C25.2108153,25.4898845 25.0298052,25.5637662 24.800772,25.6782828 C23.8846392,26.1437374 23.385938,26.9749062 23.3563853,28.0757431 C23.3046681,30.0890187 24.9079005,32.7450649 26.8620707,33.8754545 C27.0024459,33.9567244 27.1502092,34.0343001 27.3386075,34.11557 L29.1967316,34.6659885 C29.610469,34.732482 30.0315945,34.7657287 30.4453319,34.7657287 C32.4844661,34.7657287 34.8967028,33.9345599 34.9890548,31.5851227 C35.0887951,29.0509813 33.2343651,28.6224675 31.2691126,28.1717893 L31.2691126,28.1717893 Z M33.6037735,31.5297114 C33.5816089,32.0875181 33.319329,32.5012554 32.7836869,32.8300289 C32.2037157,33.1846609 31.3725469,33.3804473 30.4453319,33.3804473 C29.3851299,33.3804473 28.332316,33.1218615 27.5565584,32.6748774 C26.828824,32.2537518 26.1010895,31.5038528 25.5580592,30.6172727 C25.022417,29.7417749 24.7268903,28.8293362 24.7453608,28.1163781 C24.7601371,27.5548774 24.9633117,27.1817749 25.3807431,26.9453535 C25.4730952,27.0044589 25.5876118,27.0820346 25.7021284,27.1596104 C26.1084776,27.4329726 26.7216955,27.84671 27.6784632,28.3971284 C28.7423593,29.0140404 29.920772,29.2837085 30.9661977,29.523824 C31.819531,29.7196104 32.6248413,29.9043146 33.1013781,30.2293939 C33.3784343,30.4214863 33.6370202,30.7133189 33.6037735,31.5297114 L33.6037735,31.5297114 Z M25.4324603,21.2860173 C25.4324603,22.3499134 25.3844372,23.0591775 25.3511905,23.524632 C25.284697,24.4629293 25.2662265,24.7178211 25.901609,25.1278643 C26.3412049,25.4160029 26.8140476,25.5600721 27.3053608,25.5600722 C29.7065152,25.5600722 31.9672944,22.0026696 31.9672944,19.243189 C31.9672944,18.9070274 31.9340476,18.5487013 31.860166,18.1460462 L31.1841486,16.1327706 C30.4342496,14.6218904 29.0083333,13.0075758 27.2536436,13.0075758 C26.7955772,13.0075758 26.3485931,13.1220924 25.9200794,13.3474315 C23.6740765,14.5258442 24.2318831,16.3470274 24.8229365,18.2753391 C25.1258514,19.2579654 25.4324603,20.2627561 25.4324603,21.2860173 L25.4324603,21.2860173 Z M26.1528066,17.8763781 C25.8942208,17.0378211 25.6541054,16.2472872 25.6947403,15.6747042 C25.7205989,15.3311544 25.8425036,14.9654401 26.5702381,14.5849495 C27.1317388,14.2894228 27.6969336,14.3596104 28.3175397,14.7733478 C28.7128066,15.0356277 29.1006854,15.4308947 29.4442352,15.9148196 C29.7914791,16.4061328 30.0796176,16.9713276 30.2790981,17.5549928 C30.4785786,18.138658 30.5857071,18.7260173 30.5857071,19.2505772 C30.5857071,20.299697 30.142417,21.5926263 29.4257648,22.6269697 C28.7608297,23.5874315 27.9518254,24.1821789 27.3090548,24.1821789 C27.1058802,24.1821789 26.9100938,24.1230736 26.7106133,24.0048629 C26.7143074,23.8940404 26.7253896,23.7573593 26.7364719,23.61329 C26.7697186,23.125671 26.8214358,22.3905484 26.8214358,21.2860173 C26.8214358,20.0558875 26.4668037,18.8996393 26.1528066,17.8763781 L26.1528066,17.8763781 Z" id="Shape" fill="#444444" fill-rule="nonzero"></path>
        </g>
    </g>
</svg>