<?xml version="1.0" encoding="UTF-8"?>
<svg width="20px" height="21px" viewBox="0 0 20 21" version="1.1" xmlns="http://www.w3.org/2000/svg" xmlns:xlink="http://www.w3.org/1999/xlink">
    <!-- Generator: Sketch 43.2 (39069) - http://www.bohemiancoding.com/sketch -->
    <title>Group 42 Copy 2</title>
    <desc>Created with Sketch.</desc>
    <defs></defs>
    <g id="Page-1" stroke="none" stroke-width="1" fill="none" fill-rule="evenodd">
        <g id="Group-42-Copy-2" transform="translate(-2.000000, -2.000000)" fill="#000000">
            <g id="Group-34" transform="translate(2.000000, 2.000000)">
                <path d="M3.00281812,0 L17.0023846,0 L17.0023846,18.057339 L20,18.057339 L20,20.0635811 L0,20.0635811 L0,18.057339 L3.00281812,18.057339 L3.00281812,0 Z M11.8737848,15.6896874 L13.8733512,15.6896874 L13.8733512,3.6513648 L11.8737848,3.6513648 L11.8737848,15.6896874 Z M5.87364028,5.65760693 L7.8737848,5.65760693 L7.8737848,3.6513648 L5.87364028,3.6513648 L5.87364028,5.65760693 Z M5.87364028,10.6762568 L7.8737848,10.6762568 L7.8737848,8.67001471 L5.87364028,8.67001471 L5.87364028,10.6762568 Z M5.87364028,15.6896874 L7.8737848,15.6896874 L7.8737848,13.6831554 L5.87364028,13.6831554 L5.87364028,15.6896874 Z" id="Combined-Shape"></path>
            </g>
        </g>
    </g>
</svg>