<?xml version="1.0" encoding="UTF-8"?>
<svg width="48px" height="48px" viewBox="0 0 48 48" version="1.1" xmlns="http://www.w3.org/2000/svg" xmlns:xlink="http://www.w3.org/1999/xlink">
    <!-- Generator: Sketch 43.1 (39012) - http://www.bohemiancoding.com/sketch -->
    <title>icon-yuedudeng48*48#169488</title>
    <desc>Created with Sketch.</desc>
    <defs></defs>
    <g id="Page-1" stroke="none" stroke-width="1" fill="none" fill-rule="evenodd">
        <g id="入住-光照" transform="translate(-36.000000, -635.000000)">
            <g id="icon-yuedudeng48*48#169488" transform="translate(36.000000, 635.000000)">
                <ellipse id="Oval-7-Copy-8" fill="#F2F2F2" cx="24" cy="24" rx="24" ry="24"></ellipse>
                <path d="M31.9057917,14.5232342 L23.5370833,14.5232342 L18.5385,12.1931794 C18.2635,12.0654613 17.973375,12 17.6754583,12 C16.5511667,12 15.6354167,12.9150844 15.6354167,14.0398279 L15.6354167,14.5603136 C14.14675,14.7832481 13,16.0650072 13,17.6131889 L13,30.7736495 C13,32.478389 14.3882917,33.8640621 16.0942083,33.8640621 L24,33.8640621 L31.9057917,33.8640621 C33.612625,33.8640621 35,32.478389 35,30.7736495 L35,17.6131889 C35,15.9089072 33.612625,14.5227764 31.9057917,14.5232342 Z M16.5534583,14.0398279 C16.5534583,13.3463047 17.1364583,12.9169155 17.6754583,12.9169155 C17.8381667,12.9169155 17.9976667,12.9530794 18.1502917,13.0240339 L23.5412083,15.5367393 L23.5412083,32.1597803 L17.2010833,29.2053258 C16.8078333,29.0203863 16.5534583,28.623041 16.5534583,28.1881585 L16.5534583,14.0398279 Z M13.9180417,30.7736495 L13.9180417,17.6127312 C13.9180417,16.571302 14.6555,15.7010792 15.6354167,15.4900467 L15.6354167,28.1886163 C15.6354167,28.9773558 16.0969583,29.7024652 16.8124167,30.0357226 L23.0604167,32.9466888 L16.0942083,32.9466888 C14.8938333,32.9466888 13.9180417,31.9716364 13.9180417,30.7736495 Z M34.0819583,30.7736495 C34.0819583,31.9720942 33.1057083,32.9471466 31.9057917,32.9471466 L24.4505417,32.9471466 C24.45375,32.924258 24.45925,32.9018273 24.45925,32.8789387 L24.45925,15.4396919 L31.9057917,15.4396919 C33.1057083,15.4396919 34.0819583,16.4147442 34.0819583,17.6131889 L34.0819583,30.7736495 Z" id="Shape" fill="#444444" fill-rule="nonzero"></path>
            </g>
        </g>
    </g>
</svg>