<?xml version="1.0" encoding="UTF-8"?>
<svg width="24px" height="24px" viewBox="0 0 24 24" version="1.1" xmlns="http://www.w3.org/2000/svg" xmlns:xlink="http://www.w3.org/1999/xlink">
    <!-- Generator: Sketch 43.2 (39069) - http://www.bohemiancoding.com/sketch -->
    <title>icon-qianbao24*24</title>
    <desc>Created with Sketch.</desc>
    <defs></defs>
    <g id="Page-1" stroke="none" stroke-width="1" fill="none" fill-rule="evenodd">
        <g id="更多" transform="translate(-24.000000, -299.000000)">
            <g id="icon-qianbao24*24" transform="translate(24.000000, 299.000000)">
                <circle id="Oval-13-Copy-2" fill="#FFC94A" cx="12" cy="12" r="12"></circle>
                <g id="钱包" transform="translate(3.000000, 3.000000)" fill="#FFFFFF">
                    <g id="Group-4" transform="translate(5.000000, 6.000000)" stroke="#FFFFFF" stroke-width="0.3">
                        <path d="M7.39962494,4.79195551 L0.323949536,4.79195551 C0.162336139,4.79195551 0.0311181074,4.67479655 0.0311181074,4.53048095 C0.0311181074,4.38616535 0.162336139,4.26902432 0.323949536,4.26902432 L7.39962494,4.26902432 C7.56123834,4.26902432 7.69247644,4.38616535 7.69247644,4.53048095 C7.69247644,4.67479655 7.56125841,4.79195551 7.39962494,4.79195551" id="Fill-1"></path>
                        <path d="M7.39962494,6.4767429 L0.323949536,6.4767429 C0.162336139,6.4767429 0.0311181074,6.35958394 0.0311181074,6.21526834 C0.0311181074,6.07097066 0.162336139,5.95379378 0.323949536,5.95379378 L7.39962494,5.95379378 C7.56123834,5.95379378 7.69247644,6.07097066 7.69247644,6.21526834 C7.69247644,6.35958394 7.56125841,6.4767429 7.39962494,6.4767429" id="Fill-2"></path>
                        <path d="M3.86179728,8.7931239 C3.7001638,8.7931239 3.56894577,8.67596494 3.56894577,8.53164934 L3.56894577,4.74086875 C3.56894577,4.59655315 3.7001638,4.47939419 3.86179728,4.47939419 C4.02341067,4.47939419 4.1546287,4.59655315 4.1546287,4.74086875 L4.1546287,8.53163142 C4.15464878,8.67596494 4.02343075,8.7931239 3.86179728,8.7931239" id="Fill-3"></path>
                        <path d="M3.86179728,5.00234331 C3.76914562,5.00234331 3.67743755,4.96283622 3.62116396,4.88946847 L0.526458148,0.888282149 C0.434308398,0.769509926 0.467434125,0.606731393 0.600940844,0.524652007 C0.733503981,0.442357519 0.9160167,0.47234634 1.00774485,0.591136489 L4.10241051,4.59228696 C4.19458034,4.71107711 4.16143454,4.87381979 4.02798805,4.95593503 C3.97711496,4.98735786 3.91945612,5.00234331 3.86179728,5.00234331" id="Fill-4"></path>
                        <path d="M3.86179728,5.00234331 C3.80411836,5.00234331 3.74647959,4.98735786 3.69562658,4.95595295 C3.56213994,4.87383772 3.52899414,4.71109503 3.62116396,4.59230488 L6.7158497,0.591154414 C6.80757785,0.472364266 6.99009057,0.442572621 7.12263363,0.524669932 C7.25614035,0.606749318 7.28926608,0.769527851 7.19711633,0.888300074 L4.10241051,4.88945054 C4.04613693,4.96281829 3.95442885,5.00234331 3.86179728,5.00234331" id="Fill-5"></path>
                    </g>
                    <path d="M12.4223478,4.176 C12.8566957,3.63208696 13.1094783,3.033 13.1094783,2.46756522 C13.1094783,1.54565217 12.5248696,0 8.60869565,0 C6.92804348,0 4.10752174,0.320478261 4.10752174,2.46756522 C4.10752174,3.033 4.36030435,3.63169565 4.79504348,4.176 C1.92482609,5.98891304 0,9.46447826 0,11.5415217 C0,15.4651304 3.37891304,18 8.60869565,18 C13.838087,18 17.2173913,15.4651304 17.2173913,11.5415217 C17.2173913,9.46447826 15.2921739,5.98852174 12.4223478,4.176 Z M8.60869565,17.2173913 C3.85434783,17.2173913 0.782608696,14.9896957 0.782608696,11.5415217 C0.782608696,9.69417391 2.60217391,6.48665217 5.21295652,4.83769565 L5.95213043,4.37086957 L5.40626087,3.68765217 C5.07326087,3.27052174 4.88973913,2.83734783 4.88973913,2.46756522 C4.89013043,0.946956522 7.49073913,0.782608696 8.60869565,0.782608696 C9.99743478,0.782608696 12.3268696,1.00134783 12.3268696,2.46717391 C12.3268696,2.83734783 12.1437391,3.27052174 11.8107391,3.68726087 L11.2652609,4.37047826 L12.0044348,4.83730435 C14.6152174,6.48665217 16.4347826,9.69417391 16.4347826,11.5415217 C16.4347826,14.9896957 13.3626522,17.2173913 8.60869565,17.2173913 Z" id="Shape" fill-rule="nonzero"></path>
                </g>
            </g>
        </g>
    </g>
</svg>