<?xml version="1.0" encoding="UTF-8"?>
<svg width="22px" height="22px" viewBox="0 0 22 22" version="1.1" xmlns="http://www.w3.org/2000/svg" xmlns:xlink="http://www.w3.org/1999/xlink">
    <!-- Generator: Sketch 43.2 (39069) - http://www.bohemiancoding.com/sketch -->
    <title>Group 31 Copy 4</title>
    <desc>Created with Sketch.</desc>
    <defs></defs>
    <g id="Page-1" stroke="none" stroke-width="1" fill="none" fill-rule="evenodd">
        <g id="Group-31-Copy-4" transform="translate(-1.000000, -1.000000)" fill="#999999">
            <g id="Page-1" transform="translate(1.000000, 1.000000)">
                <path d="M10.7597688,1.05253283 C5.40560288,1.05253283 1.04973354,5.42001782 1.04973354,10.7884615 C1.04973354,16.1569053 5.40560288,20.5243902 10.7597688,20.5243902 C16.1139348,20.5243902 20.4698041,16.1569053 20.4698041,10.7884615 C20.4698041,5.42001782 16.1139348,1.05253283 10.7597688,1.05253283 M10.7597688,21.5769231 C4.82693727,21.5769231 0,16.737114 0,10.7884615 C0,4.8398091 4.82693727,0 10.7597688,0 C16.6926004,0 21.5195376,4.8398091 21.5195376,10.7884615 C21.5195376,16.737114 16.6926004,21.5769231 10.7597688,21.5769231" id="Fill-1"></path>
                <path d="M6.95448473,10.7884615 C6.95448473,11.3697228 6.48446653,11.8409944 5.90475118,11.8409944 C5.32503583,11.8409944 4.85501764,11.3697228 4.85501764,10.7884615 C4.85501764,10.2072003 5.32503583,9.73592871 5.90475118,9.73592871 C6.48446653,9.73592871 6.95448473,10.2072003 6.95448473,10.7884615" id="Fill-3"></path>
                <path d="M11.8095024,10.7884615 C11.8095024,11.3697228 11.3394842,11.8409944 10.7597688,11.8409944 C10.1800535,11.8409944 9.71003528,11.3697228 9.71003528,10.7884615 C9.71003528,10.2072003 10.1800535,9.73592871 10.7597688,9.73592871 C11.3394842,9.73592871 11.8095024,10.2072003 11.8095024,10.7884615" id="Fill-5"></path>
                <path d="M16.66452,10.7884615 C16.66452,11.3697228 16.1945018,11.8409944 15.6147865,11.8409944 C15.0350711,11.8409944 14.5650529,11.3697228 14.5650529,10.7884615 C14.5650529,10.2072003 15.0350711,9.73592871 15.6147865,9.73592871 C16.1945018,9.73592871 16.66452,10.2072003 16.66452,10.7884615" id="Fill-7"></path>
            </g>
        </g>
    </g>
</svg>