<?xml version="1.0" encoding="UTF-8"?>
<svg width="16px" height="23px" viewBox="0 0 16 23" version="1.1" xmlns="http://www.w3.org/2000/svg" xmlns:xlink="http://www.w3.org/1999/xlink">
    <!-- Generator: Sketch 43.2 (39069) - http://www.bohemiancoding.com/sketch -->
    <title>icon-wendujia copy 2</title>
    <desc>Created with Sketch.</desc>
    <defs></defs>
    <g id="Page-1" stroke="none" stroke-width="1" fill="none" fill-rule="evenodd">
        <g id="入住-前置" transform="translate(-101.000000, -433.000000)">
            <g id="icon-wendujia-copy-2" transform="translate(96.000000, 433.000000)">
                <rect id="Rectangle-2" x="0" y="0" width="24" height="24"></rect>
                <path d="M11.0390303,15.1499679 L11.0390303,9.00000267 C11.0390303,8.45001293 10.5870788,8.00001333 10.0347395,8.0000133 C9.48242954,8.0000133 9.03047809,8.4500129 9.03047809,9.00000267 L9.03047809,15.1499679 C7.87554657,15.5499871 7.02192584,16.6499959 7.02192584,17.9999947 C7.02192584,19.6499346 8.37769199,20.9999334 10.0347101,20.9999334 C11.6917282,20.9999334 13.0475238,19.6499346 13.0475237,17.9999947 C13.0475237,16.7000349 12.1939618,15.6000261 11.0390303,15.1499679 Z M13.0475237,14.000008 L13.0475237,3.99999734 C13.0475237,2.3499988 11.6917576,1 10.0347101,1 C8.37766259,1 7.02192584,2.3499988 7.02192584,3.99999734 L7.02192584,14.000008 C5.81680036,14.8999779 5.01337357,16.3499961 5.01337357,18.000024 C5.01337357,20.7500313 7.27298382,23 10.0347395,23 C12.7964952,23 15.0561054,20.7500313 15.0561054,18.000024 C15.0561054,16.3499961 14.2526786,14.8999779 13.0475237,14.000008 Z M10.0347395,22.0000106 C7.82535261,22.0000106 6.01766441,20.1999829 6.01766441,18.000024 C6.01766441,16.499996 6.82106177,15.2500166 8.02618725,14.550027 L8.02618725,3.99999734 C8.02618725,2.90001784 8.93003135,2.00001864 10.0347395,2.00001864 C11.1394476,2.00001864 12.0432917,2.90001784 12.0432918,3.99999734 L12.0432918,14.550027 C13.2484466,15.2500167 14.0518146,16.5500057 14.0518146,18.000024 C14.0517851,20.1999536 12.2441264,22.0000106 10.0347395,22.0000106 L10.0347395,22.0000106 Z" id="Shape" fill="#444444" fill-rule="nonzero"></path>
                <path d="M14,4 L20,4" id="Line-Copy" stroke="#444444" stroke-linecap="round"></path>
                <path d="M17,7 L17,1" id="Line-Copy-2" stroke="#444444" stroke-linecap="round"></path>
            </g>
        </g>
    </g>
</svg>