<?xml version="1.0" encoding="UTF-8"?>
<svg width="16px" height="22px" viewBox="0 0 16 22" version="1.1" xmlns="http://www.w3.org/2000/svg" xmlns:xlink="http://www.w3.org/1999/xlink">
    <!-- Generator: Sketch 43.2 (39069) - http://www.bohemiancoding.com/sketch -->
    <title>icon-wendujian copy 2</title>
    <desc>Created with Sketch.</desc>
    <defs></defs>
    <g id="Page-1" stroke="none" stroke-width="1" fill="none" fill-rule="evenodd">
        <g id="入住-前置" transform="translate(-181.000000, -434.000000)">
            <g id="icon-wendujian-copy-2" transform="translate(177.000000, 434.000000)">
                <rect id="Rectangle-51" x="0" y="0" width="23" height="23"></rect>
                <path d="M10.0390303,14.1499679 L10.0390303,8.00000267 C10.0390303,7.45001293 9.58707885,7.00001333 9.03473949,7.0000133 C8.48242954,7.0000133 8.03047809,7.4500129 8.03047809,8.00000267 L8.03047809,14.1499679 C6.87554657,14.5499871 6.02192584,15.6499959 6.02192584,16.9999947 C6.02192584,18.6499346 7.37769199,19.9999334 9.03471009,19.9999334 C10.6917282,19.9999334 12.0475238,18.6499346 12.0475237,16.9999947 C12.0475237,15.7000349 11.1939618,14.6000261 10.0390303,14.1499679 Z M12.0475237,13.000008 L12.0475237,2.99999734 C12.0475237,1.3499988 10.6917576,0 9.03471009,0 C7.37766259,0 6.02192584,1.3499988 6.02192584,2.99999734 L6.02192584,13.000008 C4.81680036,13.8999779 4.01337357,15.3499961 4.01337357,17.000024 C4.01337357,19.7500313 6.27298382,22 9.03473949,22 C11.7964952,22 14.0561054,19.7500313 14.0561054,17.000024 C14.0561054,15.3499961 13.2526786,13.8999779 12.0475237,13.000008 Z M9.03473949,21.0000106 C6.82535261,21.0000106 5.01766441,19.1999829 5.01766441,17.000024 C5.01766441,15.499996 5.82106177,14.2500166 7.02618725,13.550027 L7.02618725,2.99999734 C7.02618725,1.90001784 7.93003135,1.00001864 9.03473949,1.00001864 C10.1394476,1.00001864 11.0432917,1.90001784 11.0432918,2.99999734 L11.0432918,13.550027 C12.2484466,14.2500167 13.0518146,15.5500057 13.0518146,17.000024 C13.0517851,19.1999536 11.2441264,21.0000106 9.03473949,21.0000106 L9.03473949,21.0000106 Z" id="Shape" fill="#444444" fill-rule="nonzero"></path>
                <path d="M13,3 L19,3" id="Line-Copy" stroke="#444444" stroke-linecap="round"></path>
            </g>
        </g>
    </g>
</svg>