<?xml version="1.0" encoding="UTF-8"?>
<svg width="24px" height="24px" viewBox="0 0 24 24" version="1.1" xmlns="http://www.w3.org/2000/svg" xmlns:xlink="http://www.w3.org/1999/xlink">
    <!-- Generator: Sketch 43.2 (39069) - http://www.bohemiancoding.com/sketch -->
    <title>Oval 13</title>
    <desc>Created with Sketch.</desc>
    <defs></defs>
    <g id="Page-1" stroke="none" stroke-width="1" fill="none" fill-rule="evenodd">
        <g id="更多" transform="translate(-24.000000, -83.000000)">
            <rect id="Rectangle-16" fill="#F2F2F2" x="0" y="64" width="375" height="603"></rect>
            <rect id="Rectangle" fill="#FEFEFE" x="0" y="65" width="375" height="60"></rect>
            <circle id="Oval-13" fill="#FF4A60" cx="36" cy="95" r="12"></circle>
            <g id="会员" transform="translate(30.000000, 88.000000)" fill-rule="nonzero" fill="#FEFEFE">
                <path d="M7.5288295,13.9969631 L4.73976226,13.9969631 C2.09452148,13.9969631 0.00437310195,13.9969631 0.00437310195,12.6247809 L0.00437310195,12.3503445 C0.00437310195,9.77896052 2.12872885,7.68686855 4.73976226,7.68686855 L7.5288295,7.68686855 C10.1398629,7.68686855 12.2646074,9.77934924 12.2646074,12.3503445 L12.2646074,12.6247809 C12.2642187,13.9969631 10.0695046,13.9969631 7.5288295,13.9969631 L7.5288295,13.9969631 L7.5288295,13.9969631 Z M4.71449544,8.46081041 C2.51822646,8.46081041 0.731279826,10.2147158 0.731279826,12.3717241 L0.731279826,12.6512139 C0.731279826,13.2101935 3.03328069,13.2101935 4.71449544,13.2101935 L7.55448503,13.2101935 C8.94610325,13.2101935 11.5377007,13.2101935 11.5377007,12.6512139 L11.5377007,12.3717241 C11.5377007,10.2147158 9.75075401,8.46081041 7.55448503,8.46081041 L4.71449544,8.46081041 L4.71449544,8.46081041 L4.71449544,8.46081041 Z M5.9949397,7.41126594 C3.92189501,7.41126594 2.23679306,5.7494872 2.23679306,3.70715141 C2.23679306,1.66481562 3.92189501,0.00303687636 5.9949397,0.00303687636 C8.0683731,0.00303687636 9.75386377,1.6644269 9.75386377,3.70676269 C9.75386377,5.74909848 8.06759566,7.41126594 5.9949397,7.41126594 L5.9949397,7.41126594 L5.9949397,7.41126594 Z M3.01073492,3.69587852 C3.01073492,5.31062213 4.3494872,6.62488503 5.9949397,6.62488503 C7.64078091,6.62488503 8.97953319,5.31139957 8.97953319,3.69587852 C8.97953319,2.08035748 7.64078091,0.767260738 5.9949397,0.767260738 C4.34909848,0.767260738 3.01073492,2.0807462 3.01073492,3.69587852 L3.01073492,3.69587852 L3.01073492,3.69587852 Z" id="Shape"></path>
            </g>
        </g>
    </g>
</svg>