<?xml version="1.0" encoding="UTF-8"?>
<svg width="64px" height="64px" viewBox="0 0 64 64" version="1.1" xmlns="http://www.w3.org/2000/svg" xmlns:xlink="http://www.w3.org/1999/xlink">
    <!-- Generator: Sketch 43.2 (39069) - http://www.bohemiancoding.com/sketch -->
    <title>icon-key</title>
    <desc>Created with Sketch.</desc>
    <defs></defs>
    <g id="Page-1" stroke="none" stroke-width="1" fill="none" fill-rule="evenodd">
        <g id="入住-前置-快开门" transform="translate(-49.000000, -498.000000)">
            <g id="icon-key" transform="translate(49.000000, 498.000000)">
                <circle id="Oval-8-Copy-2" fill="#444444" cx="32" cy="32" r="32"></circle>
                <g transform="translate(16.000000, 23.000000)" id="Combined-Shape">
                    <path d="M8.24052582,16.3709316 C3.71008451,16.3709316 0.037258216,12.7073293 0.0372206573,8.18821947 C0.0372206573,3.66806067 3.71004695,0.00543238784 8.24048826,0.00543238784 C12.3281502,0.00543238784 15.7090329,2.99200937 16.3317183,6.8964351 L31.1221784,6.8964351 C31.5994742,6.8964351 31.9862535,7.28116056 31.9862535,7.75831153 C31.9862535,8.23448843 31.5994742,8.61917641 31.1221784,8.61917641 L29.3951174,8.61917641 L29.3951174,12.9266104 C29.3951174,13.4027124 29.0093897,13.7874753 28.5321315,13.7874753 C28.0548357,13.7874753 27.6680563,13.4038363 27.6680563,12.9266104 L27.6680563,8.61913895 L25.0780094,8.61913895 L25.0780094,12.9265729 C25.0780094,13.4026749 24.69123,13.7874378 24.2139343,13.7874378 C23.7366761,13.7874378 23.3508732,13.4037988 23.3508357,12.9265729 L23.3508357,8.61913895 L16.4210704,8.61913895 C16.1949296,12.9362388 12.6243756,16.3709316 8.24048826,16.3709316 L8.24052582,16.3709316 Z" fill="#FFFFFF"></path>
                    <path d="M8.24048826,1.7281737 C4.6635493,1.7281737 1.76416901,4.61914065 1.76416901,8.18821947 C1.76416901,11.7561743 4.66242254,14.6493142 8.24048826,14.6493142 C11.8152488,14.6493142 14.7166948,11.7572608 14.7166948,8.18821947 C14.7156432,4.61914065 11.8152488,1.7281737 8.24048826,1.7281737 Z" fill="#444444"></path>
                </g>
            </g>
        </g>
    </g>
</svg>