<?xml version="1.0" encoding="UTF-8"?>
<svg width="20px" height="22px" viewBox="0 0 20 22" version="1.1" xmlns="http://www.w3.org/2000/svg" xmlns:xlink="http://www.w3.org/1999/xlink">
    <!-- Generator: Sketch 43.2 (39069) - http://www.bohemiancoding.com/sketch -->
    <title>Group 32 Copy 4</title>
    <desc>Created with Sketch.</desc>
    <defs></defs>
    <g id="Page-1" stroke="none" stroke-width="1" fill="none" fill-rule="evenodd">
        <g id="Group-32-Copy-4" transform="translate(-2.000000, -1.000000)" fill="#999999">
            <g id="Page-1" transform="translate(2.000000, 1.000000)">
                <path d="M3.28262564,5.13670466 L13.0804063,5.13670466 C13.3763699,5.13670466 13.6163048,4.90032683 13.6163048,4.60875087 C13.6163048,4.31717491 13.3763699,4.08079708 13.0804063,4.08079708 L3.28262564,4.08079708 C2.986662,4.08079708 2.74672712,4.31717491 2.74672712,4.60875087 C2.74672712,4.90032683 2.986662,5.13670466 3.28262564,5.13670466" id="Fill-1"></path>
                <path d="M3.28262564,8.28695883 L13.0804063,8.28695883 C13.3763699,8.28695883 13.6163048,8.050581 13.6163048,7.75900504 C13.6163048,7.46742908 13.3763699,7.23105125 13.0804063,7.23105125 L3.28262564,7.23105125 C2.986662,7.23105125 2.74672712,7.46742908 2.74672712,7.75900504 C2.74672712,8.050581 2.986662,8.28695883 3.28262564,8.28695883" id="Fill-3"></path>
                <path d="M13.6164696,10.9089345 C13.6164696,10.6173586 13.3762051,10.3809807 13.0802415,10.3809807 L3.28279043,10.3809807 C2.98649721,10.3809807 2.74689191,10.6173586 2.74689191,10.9089345 C2.74689191,11.2005105 2.98649721,11.4368883 3.28279043,11.4368883 L13.0802415,11.4368883 C13.3762051,11.4368883 13.6164696,11.2005105 13.6164696,10.9089345" id="Fill-5"></path>
                <path d="M14.3509406,5.13670466 L15.2938715,5.13670466 C15.5898352,5.13670466 15.82977,4.90032683 15.82977,4.60875087 C15.82977,4.31717491 15.5898352,4.08079708 15.2938715,4.08079708 L14.3509406,4.08079708 C14.054977,4.08079708 13.8150421,4.31717491 13.8150421,4.60875087 C13.8150421,4.90032683 14.054977,5.13670466 14.3509406,5.13670466" id="Fill-7"></path>
                <path d="M14.3509406,8.28695883 L15.2938715,8.28695883 C15.5898352,8.28695883 15.82977,8.050581 15.82977,7.75900504 C15.82977,7.46742908 15.5898352,7.23105125 15.2938715,7.23105125 L14.3509406,7.23105125 C14.054977,7.23105125 13.8150421,7.46742908 13.8150421,7.75900504 C13.8150421,8.050581 14.054977,8.28695883 14.3509406,8.28695883" id="Fill-9"></path>
                <path d="M14.3509406,11.4370182 L15.2938715,11.4370182 C15.5898352,11.4370182 15.82977,11.2003157 15.82977,10.9090644 C15.82977,10.6174884 15.5898352,10.3811106 15.2938715,10.3811106 L14.3509406,10.3811106 C14.054977,10.3811106 13.8150421,10.6174884 13.8150421,10.9090644 C13.8150421,11.2003157 14.054977,11.4370182 14.3509406,11.4370182" id="Fill-11"></path>
                <path d="M16.2775716,14.8637825 L14.0337849,14.8637825 C12.8057665,14.8637825 11.8064773,15.8482572 11.8064773,17.0583948 L11.8064773,19.5114643 C11.8064773,19.8030402 12.0464122,20.039418 12.3423758,20.039418 C12.6383394,20.039418 12.8786039,19.8030402 12.8786039,19.5114643 L12.8786039,17.0583948 C12.8786039,16.4307597 13.3967051,15.9200147 14.0337849,15.9200147 L16.2775716,15.9200147 C16.5735352,15.9200147 16.8137997,15.6833122 16.8137997,15.3917363 C16.8137997,15.100485 16.5735352,14.8637825 16.2775716,14.8637825" id="Fill-13"></path>
                <g id="Group-17" transform="translate(0.000000, 0.223358)">
                    <path d="M17.955402,17.221002 L14.4259202,20.6984836 L4.25109908,20.6984836 C2.49805834,20.6984836 1.07196184,19.2935291 1.07196184,17.5664773 L1.07196184,1.15737472 L14.7762647,1.15737472 C16.5296351,1.15737472 17.955402,2.56232924 17.955402,4.28938104 L17.955402,17.221002 Z M14.7762647,0.101142439 L0.000164790444,0.101142439 L0.000164790444,17.5664773 C0.000164790444,19.8757069 1.90711981,21.7543912 4.25109908,21.7543912 L14.8698657,21.7543912 L19.0275286,17.6586906 L19.0275286,4.28938104 C19.0275286,1.98015141 17.1205736,0.101142439 14.7762647,0.101142439 L14.7762647,0.101142439 Z" id="Fill-15"></path>
                </g>
            </g>
        </g>
    </g>
</svg>