<?xml version="1.0" encoding="UTF-8"?>
<svg width="24px" height="24px" viewBox="0 0 24 24" version="1.1" xmlns="http://www.w3.org/2000/svg" xmlns:xlink="http://www.w3.org/1999/xlink">
    <!-- Generator: Sketch 43.2 (39069) - http://www.bohemiancoding.com/sketch -->
    <title>Group 9</title>
    <desc>Created with Sketch.</desc>
    <defs></defs>
    <g id="Page-1" stroke="none" stroke-width="1" fill="none" fill-rule="evenodd">
        <g id="更多" transform="translate(-24.000000, -360.000000)">
            <g id="Group-9" transform="translate(24.000000, 360.000000)">
                <circle id="Oval-13-Copy-3" fill="#9ED65B" cx="12" cy="12" r="12"></circle>
                <g id="奖励规则-01" transform="translate(4.000000, 4.000000)" fill="#FFFFFF">
                    <path d="M7.960199,17 C7.48258706,17 7.04477611,16.8414918 6.3283582,16.4848485 L1.63184078,13.8298368 C0.358208946,13.1165501 0,12.5221445 0,11.1351981 L0,5.86480187 C0,4.43822845 0.358208963,3.84382285 1.63184078,3.13053614 L6.3681592,0.515151524 C7.04477611,0.118881133 7.52238805,0 8,0 C8.47761195,0 8.91542289,0.15850816 9.6318408,0.515151524 L14.3681592,3.13053614 C15.641791,3.84382285 16,4.43822845 16,5.86480187 L16,11.1351981 C16,12.5617716 15.641791,13.1561772 14.3681592,13.8694639 L9.6318408,16.4848485 C8.87562189,16.8414919 8.43781095,17 7.960199,17 Z M7.960199,0.752913756 C7.64179104,0.752913756 7.28358209,0.871794872 6.72636815,1.18881119 L1.99004975,3.80419581 C0.955223873,4.35897436 0.796019891,4.67599068 0.796019891,5.82517483 L0.796019891,11.0955711 C0.796019891,12.2447552 0.995024873,12.5617716 1.99004975,13.1165501 L6.72636815,15.7319347 C7.28358207,16.0489511 7.64179104,16.1678322 7.960199,16.1678322 C8.27860696,16.1678322 8.63681591,16.0489511 9.19402985,15.7319347 L13.9303483,13.1561772 C14.9651741,12.6013986 15.1243781,12.2447552 15.1243781,11.1351981 L15.1243781,5.86480187 C15.1243781,4.71561772 14.9253731,4.3986014 13.9303483,3.84382285 L9.19402985,1.18881119 C8.63681593,0.871794872 8.27860696,0.752913756 7.960199,0.752913756 L7.960199,0.752913756 Z" id="Shape" fill-rule="nonzero"></path>
                    <g id="Group-4" transform="translate(4.000000, 4.000000)" stroke="#FFFFFF" stroke-width="0.3">
                        <path d="M7.02964369,4.55235773 L0.307752059,4.55235773 C0.154219332,4.55235773 0.029562202,4.44105672 0.029562202,4.3039569 C0.029562202,4.16685708 0.154219332,4.0555731 0.307752059,4.0555731 L7.02964369,4.0555731 C7.18317642,4.0555731 7.30785262,4.16685708 7.30785262,4.3039569 C7.30785262,4.44105672 7.18319549,4.55235773 7.02964369,4.55235773" id="Fill-1"></path>
                        <path d="M7.02964369,6.15290575 L0.307752059,6.15290575 C0.154219332,6.15290575 0.029562202,6.04160474 0.029562202,5.90450492 C0.029562202,5.76742213 0.154219332,5.65610409 0.307752059,5.65610409 L7.02964369,5.65610409 C7.18317642,5.65610409 7.30785262,5.76742213 7.30785262,5.90450492 C7.30785262,6.04160474 7.18319549,6.15290575 7.02964369,6.15290575" id="Fill-2"></path>
                        <path d="M3.66870741,8.35346771 C3.51515561,8.35346771 3.39049848,8.2421667 3.39049848,8.10506688 L3.39049848,4.50382531 C3.39049848,4.36672549 3.51515561,4.25542448 3.66870741,4.25542448 C3.82224014,4.25542448 3.94689727,4.36672549 3.94689727,4.50382531 L3.94689727,8.10504985 C3.94691634,8.2421667 3.82225921,8.35346771 3.66870741,8.35346771" id="Fill-3"></path>
                        <path d="M3.66870741,4.75222614 C3.58068834,4.75222614 3.49356567,4.71469441 3.44010577,4.64499505 L0.500135241,0.843868041 C0.412592978,0.731034429 0.444062419,0.576394823 0.570893801,0.498419407 C0.696828782,0.420239643 0.870215865,0.448729023 0.957357607,0.561579664 L3.89728999,4.36267261 C3.98485132,4.47552325 3.95336281,4.6301288 3.82658864,4.70813827 C3.77825921,4.73798997 3.72348331,4.75222614 3.66870741,4.75222614" id="Fill-4"></path>
                        <path d="M3.66870741,4.75222614 C3.61391244,4.75222614 3.55915561,4.73798997 3.51084525,4.7081553 C3.38403294,4.63014583 3.35254443,4.47554028 3.44010577,4.36268964 L6.38005722,0.561596693 C6.46719896,0.448746052 6.64058604,0.42044399 6.76650195,0.498436436 C6.89333333,0.576411852 6.92480277,0.731051458 6.83726051,0.84388507 L3.89728999,4.64497802 C3.84383008,4.71467738 3.75670741,4.75222614 3.66870741,4.75222614" id="Fill-5"></path>
                    </g>
                </g>
            </g>
        </g>
    </g>
</svg>