<?xml version="1.0" encoding="UTF-8"?>
<svg width="48px" height="48px" viewBox="0 0 48 48" version="1.1" xmlns="http://www.w3.org/2000/svg" xmlns:xlink="http://www.w3.org/1999/xlink">
    <!-- Generator: Sketch 43.1 (39012) - http://www.bohemiancoding.com/sketch -->
    <title>icon-zhiremoshi48*48#444444 copy</title>
    <desc>Created with Sketch.</desc>
    <defs></defs>
    <g id="Page-1" stroke="none" stroke-width="1" fill="none" fill-rule="evenodd">
        <g id="icon-zhiremoshi48*48#444444-copy">
            <rect id="Rectangle-42-Copy" fill="#B3DFDB" x="0" y="0" width="48" height="48" rx="24"></rect>
            <path d="M24.0032064,29.8061296 C22.4550909,29.8061296 20.9995978,29.2040847 19.9057726,28.1080542 C18.8119474,27.014229 18.2076972,25.5587358 18.2076972,24.0106204 C18.2076972,22.4625049 18.8097421,21.0070117 19.9057726,19.9131865 C20.9995978,18.8193613 22.4550909,18.2151111 24.0032064,18.2151111 C25.5513219,18.2151111 27.0068151,18.817156 28.1006403,19.9131865 C29.1944654,21.0070117 29.7987156,22.4625049 29.7987156,24.0106204 C29.7987156,25.5587358 29.1966707,27.014229 28.1006403,28.1080542 C27.0068151,29.2040847 25.5513219,29.8061296 24.0032064,29.8061296 L24.0032064,29.8061296 Z M24.0032064,19.3993533 C21.4605039,19.3993533 19.3897341,21.4679179 19.3897341,24.0128257 C19.3897341,26.5555281 21.4582986,28.626298 24.0032064,28.626298 C26.5481142,28.626298 28.6166787,26.5555281 28.6166787,24.0106204 C28.6166787,21.4679179 26.5459089,19.3993533 24.0032064,19.3993533 L24.0032064,19.3993533 Z M24.0032064,17.0330742 C23.6768231,17.0330742 23.412188,16.7684391 23.412188,16.4420558 L23.412188,13.6038441 C23.412188,13.2774608 23.6768231,13.0128257 24.0032064,13.0128257 C24.3295897,13.0128257 24.5942249,13.2774608 24.5942249,13.6038441 L24.5942249,16.4420558 C24.5942249,16.7684391 24.3295897,17.0330742 24.0032064,17.0330742 L24.0032064,17.0330742 Z M24.0032064,35.0106204 C23.6768231,35.0106204 23.412188,34.7459852 23.412188,34.4196019 L23.412188,31.5813902 C23.412188,31.2550069 23.6768231,30.9903718 24.0032064,30.9903718 C24.3295897,30.9903718 24.5942249,31.2550069 24.5942249,31.5813902 L24.5942249,34.4196019 C24.5942249,34.7459852 24.3295897,35.0106204 24.0032064,35.0106204 Z M34.412188,24.6038441 L31.5739763,24.6038441 C31.2475929,24.6038441 30.9829578,24.339209 30.9829578,24.0128257 C30.9829578,23.6864423 31.2475929,23.4218072 31.5739763,23.4218072 L34.412188,23.4218072 C34.7385713,23.4218072 35.0032064,23.6864423 35.0032064,24.0128257 C35.0032064,24.339209 34.7385713,24.6038441 34.412188,24.6038441 L34.412188,24.6038441 Z M16.4346419,24.6038441 L13.5942249,24.6038441 C13.2678415,24.6038441 13.0032064,24.339209 13.0032064,24.0128257 C13.0032064,23.6864423 13.2678415,23.4218072 13.5942249,23.4218072 L16.4324366,23.4218072 C16.7588199,23.4218072 17.023455,23.6864423 17.023455,24.0128257 C17.0256603,24.339209 16.7610252,24.6038441 16.4346419,24.6038441 L16.4346419,24.6038441 Z M29.3752994,19.2295458 C29.2231342,19.2295458 29.0731743,19.1722082 28.9562938,19.0553277 C28.7247381,18.8237719 28.7247381,18.4488722 28.9562938,18.2195217 L30.9631102,16.2127054 C31.1946659,15.9811496 31.5695657,15.9811496 31.7989161,16.2127054 C32.0304718,16.4442611 32.0304718,16.8191609 31.7989161,17.0485113 L29.7920998,19.0553277 C29.6796298,19.1722082 29.5274646,19.2295458 29.3752994,19.2295458 Z M16.6639923,31.9430582 C16.5118271,31.9430582 16.3618672,31.8857206 16.2449867,31.7688401 C16.1338193,31.6581822 16.071323,31.5077917 16.071323,31.3509371 C16.071323,31.1940825 16.1338193,31.043692 16.2449867,30.9330342 L18.251803,28.9262178 C18.4833588,28.6946621 18.8560532,28.6946621 19.087609,28.9262178 C19.3191647,29.1577735 19.3191647,29.5326733 19.087609,29.7620237 L17.0807926,31.7688401 C16.9661174,31.8835153 16.8161575,31.9430582 16.6639923,31.9430582 L16.6639923,31.9430582 Z M31.3843211,31.9430582 C31.2321559,31.9430582 31.082196,31.8857206 30.9653155,31.7688401 L28.9584991,29.7620237 C28.7269434,29.530468 28.7269434,29.1555682 28.9584991,28.9262178 C29.1900548,28.6946621 29.5649546,28.6946621 29.794305,28.9262178 L31.8011214,30.9330342 C32.0326771,31.1645899 32.0326771,31.5394896 31.8011214,31.7688401 C31.6864462,31.8835153 31.534281,31.9430582 31.3843211,31.9430582 Z M18.6708087,19.2295458 C18.5186435,19.2295458 18.3686836,19.1722082 18.251803,19.0553277 L16.2449867,17.0485113 C16.013431,16.8169556 16.013431,16.4420558 16.2449867,16.2127054 C16.4765424,15.9811496 16.8514422,15.9811496 17.0807926,16.2127054 L19.087609,18.2195217 C19.3191647,18.4510775 19.3191647,18.8259772 19.087609,19.0553277 C18.9751391,19.1722082 18.8229739,19.2295458 18.6708087,19.2295458 Z" id="Shape" fill="#169488" fill-rule="nonzero"></path>
        </g>
    </g>
</svg>