<?xml version="1.0" encoding="UTF-8"?>
<svg width="52px" height="58px" viewBox="0 0 52 58" version="1.1" xmlns="http://www.w3.org/2000/svg" xmlns:xlink="http://www.w3.org/1999/xlink">
    <!-- Generator: Sketch 43.2 (39069) - http://www.bohemiancoding.com/sketch -->
    <title>Group 2 Copy 7</title>
    <desc>Created with Sketch.</desc>
    <defs>
        <filter x="-7.3%" y="-4.5%" width="114.6%" height="112.7%" filterUnits="objectBoundingBox" id="filter-1">
            <feOffset dx="0" dy="1" in="SourceAlpha" result="shadowOffsetOuter1"></feOffset>
            <feGaussianBlur stdDeviation="1" in="shadowOffsetOuter1" result="shadowBlurOuter1"></feGaussianBlur>
            <feColorMatrix values="0 0 0 0 0   0 0 0 0 0   0 0 0 0 0  0 0 0 0.243206522 0" type="matrix" in="shadowBlurOuter1" result="shadowMatrixOuter1"></feColorMatrix>
            <feMerge>
                <feMergeNode in="shadowMatrixOuter1"></feMergeNode>
                <feMergeNode in="SourceGraphic"></feMergeNode>
            </feMerge>
        </filter>
        <circle id="path-2" cx="24" cy="24" r="24"></circle>
    </defs>
    <g id="Page-1" stroke="none" stroke-width="1" fill="none" fill-rule="evenodd">
        <g id="酒店地图-copy" transform="translate(-252.000000, -369.000000)">
            <g id="Group-2-Copy-7" filter="url(#filter-1)" transform="translate(254.000000, 370.000000)">
                <rect id="Rectangle" fill="#FFFFFF" transform="translate(24.000000, 47.000000) rotate(-315.000000) translate(-24.000000, -47.000000) " x="19" y="42" width="10" height="10"></rect>
                <g id="Oval-15">
                    <use fill="#FDD942" fill-rule="evenodd" xlink:href="#path-2"></use>
                    <circle stroke="#FFFFFF" stroke-width="4" cx="24" cy="24" r="22"></circle>
                </g>
                <g id="楼房-e" transform="translate(12.500000, 11.503898)" fill-rule="nonzero" fill="#7D6918">
                    <path d="M17.2459959,9.61784228 L18.682509,9.61784228 L18.682509,11.0543554 L17.2459959,11.0543554 L17.2459959,9.61784228 Z M17.2459959,13.9273818 L18.682509,13.9273818 L18.682509,15.3638693 L17.2459959,15.3638693 L17.2459959,13.9273818 Z M17.2459959,18.2368956 L18.682509,18.2368956 L18.682509,19.6734087 L17.2459959,19.6734087 L17.2459959,18.2368956 Z M8.62694255,9.61784228 L10.0634557,9.61784228 L10.0634557,11.0543554 L8.62694255,11.0543554 L8.62694255,9.61784228 Z M8.62694255,13.9273818 L10.0634557,13.9273818 L10.0634557,15.3638693 L8.62694255,15.3638693 L8.62694255,13.9273818 Z M4.31742872,9.61784228 L5.75394188,9.61784228 L5.75394188,11.0543554 L4.31742872,11.0543554 L4.31742872,9.61784228 L4.31742872,9.61784228 Z M8.62694255,5.3083028 L10.0634557,5.3083028 L10.0634557,6.74481596 L8.62694255,6.74481596 L8.62694255,5.3083028 Z M4.31742872,5.3083028 L5.75394188,5.3083028 L5.75394188,6.74481596 L4.31742872,6.74481596 L4.31742872,5.3083028 L4.31742872,5.3083028 Z M4.31742872,13.9273818 L5.75394188,13.9273818 L5.75394188,15.3638693 L4.31742872,15.3638693 L4.31742872,13.9273818 L4.31742872,13.9273818 Z M21.5555353,5.3083028 L14.3729439,5.3083028 L14.3729439,2.43530213 C14.3729439,1.6412999 13.7304586,0.998788976 12.9364307,0.998788976 L1.44435111,0.998788976 C0.650348876,0.998788976 0.00783795648,1.6412999 0.00783795648,2.43530213 L0.00783795648,22.5464351 C0.00783795648,23.3404629 0.650348876,23.9829482 1.44435111,23.9829482 L21.5555097,23.9829482 C22.3495119,23.9829482 22.9920228,23.3404629 22.9920228,22.5464351 L22.9920228,6.74484161 C22.9920228,5.95083937 22.3495119,5.3083028 21.5555097,5.3083028 L21.5555353,5.3083028 Z M7.90867315,22.5464351 L6.47215999,22.5464351 L6.47215999,19.6734344 L7.90867315,19.6734344 L7.90867315,22.5464351 Z M12.9364564,22.5464351 L9.34518631,22.5464351 L9.34518631,18.955165 C9.34518631,18.5581639 9.02396932,18.2369212 8.62694255,18.2369212 L5.75394188,18.2369212 C5.35691512,18.2369212 5.03567248,18.5581639 5.03567248,18.955165 L5.03567248,22.5464351 L2.16267181,22.5464351 C1.76567069,22.5464351 1.44440241,22.2251924 1.44440241,21.8281913 L1.44440241,3.15354589 C1.44440241,2.75654477 1.76567069,2.43530213 2.16267181,2.43530213 L12.2182639,2.43530213 C12.6152394,2.43530213 12.936482,2.75654477 12.936482,3.15354589 L12.936482,22.5464351 L12.9364564,22.5464351 Z M21.5555353,21.8281913 C21.5555353,22.2251924 21.2342927,22.5464351 20.8372659,22.5464351 L14.3729439,22.5464351 L14.3729439,6.74484161 L20.8372403,6.74484161 C21.234267,6.74484161 21.5555097,7.06608425 21.5555097,7.46311101 L21.5555097,21.8281913 L21.5555353,21.8281913 Z" id="Shape"></path>
                </g>
            </g>
        </g>
    </g>
</svg>