<?xml version="1.0" encoding="UTF-8"?>
<svg width="48px" height="48px" viewBox="0 0 48 48" version="1.1" xmlns="http://www.w3.org/2000/svg" xmlns:xlink="http://www.w3.org/1999/xlink">
    <!-- Generator: Sketch 43.1 (39012) - http://www.bohemiancoding.com/sketch -->
    <title>icon-lingyu48*48#444444</title>
    <desc>Created with Sketch.</desc>
    <defs></defs>
    <g id="Page-1" stroke="none" stroke-width="1" fill="none" fill-rule="evenodd">
        <g id="入住-光照" transform="translate(-120.000000, -517.000000)">
            <g id="icon-lingyu48*48#169488" transform="translate(120.000000, 517.000000)">
                <ellipse id="Oval-7-Copy-5" fill="#B3DFDB" cx="24" cy="24" rx="24" ry="24"></ellipse>
                <path d="M32.91,23.5957813 C32.6955,23.5957813 32.492,23.4582813 32.4205,23.2437813 C32.415,23.2327813 32.041,22.1162813 31.062,21.0217813 C29.7695,19.5807813 28.0755,18.8492813 26.024,18.8492813 C23.9725,18.8492813 22.2785,19.5807813 20.986,21.0217813 C20.0015,22.1162813 19.6275,23.2327813 19.6275,23.2437813 C19.5395,23.5132813 19.248,23.6562813 18.9785,23.5737813 C18.709,23.4857813 18.5605,23.1997813 18.6485,22.9302813 C18.665,22.8752813 19.0775,21.6267813 20.1885,20.3727813 C21.217,19.2122813 23.0705,17.8262813 26.024,17.8262813 C28.9775,17.8262813 30.8255,19.2122813 31.8595,20.3727813 C32.9705,21.6267813 33.383,22.8752813 33.3995,22.9302813 C33.4875,23.1997813 33.339,23.4857813 33.0695,23.5737813 C33.02,23.5847813 32.965,23.5957813 32.91,23.5957813 Z" id="Shape" fill="#169488" fill-rule="nonzero"></path>
                <path d="M34.4885,24.1457812 L17.411,24.1457812 C17.125,24.1457812 16.8995,23.8762812 16.8995,23.5957812 C16.8995,23.3152812 17.1305,23.0457812 17.411,23.0457812 L34.483,23.0457812 C34.769,23.0457812 34.9945,23.3152812 34.9945,23.5957812 C34.9945,23.8762812 34.769,24.1457812 34.4885,24.1457812 Z" id="Shape" fill="#169488" fill-rule="nonzero"></path>
                <path d="M20.3975,27.4842812 C20.1115,27.4842812 19.93,27.2532812 19.93,26.9727812 L19.93,25.7847812 C19.93,25.5042812 20.1115,25.2732812 20.3975,25.2732812 C20.6835,25.2732812 20.865,25.5042812 20.865,25.7847812 L20.865,26.9727812 C20.865,27.2532812 20.6835,27.4842812 20.3975,27.4842812 Z" id="Shape" fill="#169488" fill-rule="nonzero"></path>
                <path d="M24.0825,27.4842812 C23.7965,27.4842812 23.56,27.2532812 23.56,26.9727812 L23.56,25.7847812 C23.56,25.5042812 23.7965,25.2732812 24.0825,25.2732812 C24.3685,25.2732812 24.605,25.5042812 24.605,25.7847812 L24.605,26.9727812 C24.605,27.2532812 24.3685,27.4842812 24.0825,27.4842812 Z" id="Shape" fill="#169488" fill-rule="nonzero"></path>
                <path d="M27.905,27.4842812 C27.619,27.4842812 27.41,27.2532812 27.41,26.9727812 L27.41,25.7847812 C27.41,25.5042812 27.619,25.2732812 27.905,25.2732812 C28.191,25.2732812 28.4,25.5042812 28.4,25.7847812 L28.4,26.9727812 C28.4,27.2532812 28.191,27.4842812 27.905,27.4842812 Z" id="Shape" fill="#169488" fill-rule="nonzero"></path>
                <path d="M31.59,27.4842812 C31.304,27.4842812 31.04,27.2532812 31.04,26.9727812 L31.04,25.7847812 C31.04,25.5042812 31.304,25.2732812 31.59,25.2732812 C31.876,25.2732812 32.14,25.5042812 32.14,25.7847812 L32.14,26.9727812 C32.14,27.2532812 31.876,27.4842812 31.59,27.4842812 Z" id="Shape" fill="#169488" fill-rule="nonzero"></path>
                <path d="M20.3975,30.6577813 C20.1115,30.6577813 19.93,30.4267813 19.93,30.1462813 L19.93,29.0132813 C19.93,28.7327813 20.1115,28.5017813 20.3975,28.5017813 C20.6835,28.5017813 20.865,28.7327813 20.865,29.0132813 L20.865,30.1462813 C20.865,30.4322813 20.6835,30.6577813 20.3975,30.6577813 Z" id="Shape" fill="#169488" fill-rule="nonzero"></path>
                <path d="M24.0825,30.6577813 C23.7965,30.6577813 23.56,30.4267813 23.56,30.1462813 L23.56,29.0132813 C23.56,28.7327813 23.7965,28.5017813 24.0825,28.5017813 C24.3685,28.5017813 24.605,28.7327813 24.605,29.0132813 L24.605,30.1462813 C24.605,30.4322813 24.3685,30.6577813 24.0825,30.6577813 Z" id="Shape" fill="#169488" fill-rule="nonzero"></path>
                <path d="M27.905,30.6577813 C27.619,30.6577813 27.41,30.4267813 27.41,30.1462813 L27.41,29.0132813 C27.41,28.7327813 27.619,28.5017813 27.905,28.5017813 C28.191,28.5017813 28.4,28.7327813 28.4,29.0132813 L28.4,30.1462813 C28.4,30.4322813 28.191,30.6577813 27.905,30.6577813 Z" id="Shape" fill="#169488" fill-rule="nonzero"></path>
                <path d="M31.59,30.6577813 C31.304,30.6577813 31.04,30.4267813 31.04,30.1462813 L31.04,29.0132813 C31.04,28.7327813 31.304,28.5017813 31.59,28.5017813 C31.876,28.5017813 32.14,28.7327813 32.14,29.0132813 L32.14,30.1462813 C32.14,30.4322813 31.876,30.6577813 31.59,30.6577813 Z" id="Shape" fill="#169488" fill-rule="nonzero"></path>
                <path d="M20.3975,33.8312812 C20.1115,33.8312812 19.93,33.6002812 19.93,33.3197812 L19.93,32.1317812 C19.93,31.8512812 20.1115,31.6202812 20.3975,31.6202812 C20.6835,31.6202812 20.865,31.8512812 20.865,32.1317812 L20.865,33.3197812 C20.865,33.6057812 20.6835,33.8312812 20.3975,33.8312812 Z" id="Shape" fill="#169488" fill-rule="nonzero"></path>
                <path d="M24.0825,33.8312812 C23.7965,33.8312812 23.56,33.6002812 23.56,33.3197812 L23.56,32.1317812 C23.56,31.8512812 23.7965,31.6202812 24.0825,31.6202812 C24.3685,31.6202812 24.605,31.8512812 24.605,32.1317812 L24.605,33.3197812 C24.605,33.6057812 24.3685,33.8312812 24.0825,33.8312812 Z" id="Shape" fill="#169488" fill-rule="nonzero"></path>
                <path d="M27.905,33.8312812 C27.619,33.8312812 27.41,33.6002812 27.41,33.3197812 L27.41,32.1317812 C27.41,31.8512812 27.619,31.6202812 27.905,31.6202812 C28.191,31.6202812 28.4,31.8512812 28.4,32.1317812 L28.4,33.3197812 C28.4,33.6057812 28.191,33.8312812 27.905,33.8312812 Z" id="Shape" fill="#169488" fill-rule="nonzero"></path>
                <path d="M31.59,33.8312812 C31.304,33.8312812 31.04,33.6002812 31.04,33.3197812 L31.04,32.1317812 C31.04,31.8512812 31.304,31.6202812 31.59,31.6202812 C31.876,31.6202812 32.14,31.8512812 32.14,32.1317812 L32.14,33.3197812 C32.14,33.6057812 31.876,33.8312812 31.59,33.8312812 Z" id="Shape" fill="#169488" fill-rule="nonzero"></path>
                <path d="M13.5115,33.8367813 C13.2255,33.8367813 13,33.6057813 13,33.3252813 L13,16.3357813 C13,15.0542813 14.0725,14.0092813 15.398,14.0092813 L24.055,14.0092813 C25.375,14.0092813 26.453,15.0542813 26.453,16.3357813 L26.453,18.1782813 C26.453,18.4587813 26.222,18.6897813 25.9415,18.6897813 C25.6555,18.6897813 25.43,18.4587813 25.43,18.1782813 L25.43,16.3357813 C25.43,15.6152813 24.814,15.0322813 24.0605,15.0322813 L15.398,15.0322813 C14.639,15.0322813 14.0285,15.6207813 14.0285,16.3357813 L14.0285,33.3252813 C14.0285,33.6112813 13.7975,33.8367813 13.5115,33.8367813 Z" id="Shape" fill="#169488" fill-rule="nonzero"></path>
            </g>
        </g>
    </g>
</svg>