<?xml version="1.0" encoding="UTF-8"?>
<svg width="48px" height="48px" viewBox="0 0 48 48" version="1.1" xmlns="http://www.w3.org/2000/svg" xmlns:xlink="http://www.w3.org/1999/xlink">
    <!-- Generator: Sketch 43.1 (39012) - http://www.bohemiancoding.com/sketch -->
    <title>icon-toupindeng48*48#444444</title>
    <desc>Created with Sketch.</desc>
    <defs></defs>
    <g id="Page-1" stroke="none" stroke-width="1" fill="none" fill-rule="evenodd">
        <g id="入住-光照" transform="translate(-204.000000, -635.000000)">
            <g id="icon-toupindeng48*48#444444" transform="translate(204.000000, 635.000000)">
                <ellipse id="Oval-7-Copy-10" fill="#B3DFDB" cx="24" cy="24" rx="24" ry="24"></ellipse>
                <path d="M24.0116424,19.9754832 C25.2253474,19.9754832 26.2116424,18.9891882 26.2116424,17.7754832 C26.2116424,16.5617782 25.2253474,15.5754832 24.0116424,15.5754832 C22.7979374,15.5754832 21.8116424,16.5617782 21.8116424,17.7754832 C21.8116424,18.9891882 22.7979374,19.9754832 24.0116424,19.9754832 L24.0116424,19.9754832 Z M24.0116424,16.4628052 C24.7363804,16.4628052 25.327231,17.0536558 25.327231,17.7783938 C25.327231,18.5031318 24.7363804,19.0939824 24.0116424,19.0939824 C23.2869044,19.0939824 22.6960537,18.5031318 22.6960537,17.7783938 C22.6960537,17.0507452 23.2869044,16.4628052 24.0116424,16.4628052 L24.0116424,16.4628052 Z" id="Shape" fill="#169488" fill-rule="nonzero"></path>
                <path d="M26.2116424,28.2681757 C26.2116424,27.0544707 25.2253474,26.0681757 24.0116424,26.0681757 C22.7979374,26.0681757 21.8116424,27.0544707 21.8116424,28.2681757 C21.8116424,29.4818807 22.7979374,30.4681757 24.0116424,30.4681757 C25.2253474,30.4681757 26.2116424,29.4818807 26.2116424,28.2681757 L26.2116424,28.2681757 Z M22.6960537,28.2681757 C22.6960537,27.5434377 23.2869044,26.9525871 24.0116424,26.9525871 C24.7363804,26.9525871 25.327231,27.5434377 25.327231,28.2681757 C25.327231,28.9929137 24.7363804,29.5837643 24.0116424,29.5837643 C23.2869044,29.5837643 22.6960537,28.9929137 22.6960537,28.2681757 L22.6960537,28.2681757 Z" id="Shape" fill="#169488" fill-rule="nonzero"></path>
                <path d="M31.4477987,22.9708941 C31.4477987,21.7571904 30.4615048,20.7708965 29.2478012,20.7708965 C28.0340976,20.7708965 27.0478037,21.7571904 27.0478037,22.9708941 C27.0452485,24.1845977 28.0340976,25.1708916 29.2478012,25.1708916 C30.4615048,25.1708916 31.4477987,24.1845977 31.4477987,22.9708941 Z M29.2478016,21.6553054 C29.9725395,21.6553054 30.5633902,22.2461561 30.5633902,22.9708941 C30.5633902,23.695632 29.9725395,24.2864827 29.2478016,24.2864827 C28.5230636,24.2864827 27.9322129,23.695632 27.9322129,22.9708941 C27.9322129,22.2461561 28.520153,21.6553054 29.2478016,21.6553054 L29.2478016,21.6553054 Z" id="Shape" fill="#169488" fill-rule="nonzero"></path>
                <path d="M16.5296527,23.0502191 C16.5296527,24.2639241 17.5159477,25.2502191 18.7296527,25.2502191 C19.9433577,25.2502191 20.9296527,24.2639241 20.9296527,23.0502191 C20.9296527,21.8365141 19.9408025,20.8502191 18.7296527,20.8502191 C17.5159477,20.8502191 16.5296527,21.8365141 16.5296527,23.0502191 Z M18.7296527,24.2026001 C18.0934158,24.2026001 17.5747166,23.6839009 17.5747166,23.047664 C17.5747166,22.411427 18.0934158,21.8927278 18.7296527,21.8927278 C19.3658896,21.8927278 19.8845888,22.411427 19.8845888,23.047664 C19.8820337,23.6864561 19.3658896,24.2026001 18.7296527,24.2026001 L18.7296527,24.2026001 Z" id="Shape" fill="#169488" fill-rule="nonzero"></path>
                <path d="M28.8491083,32.8966892 C29.8765481,32.3727822 30.9534098,31.6037168 31.777108,30.7800186 C32.7870842,29.7700424 33.5787659,28.5970729 34.1317788,27.2873054 C34.7051659,25.9338791 34.9962253,24.4931349 34.9962253,23.0116424 C34.9962253,21.5301499 34.7051659,20.0894057 34.1317788,18.7359793 C33.5787659,17.4291225 32.7870842,16.2532424 31.777108,15.2432661 C30.7671318,14.2332899 29.5941623,13.4416083 28.2843948,12.8885953 C26.9309685,12.3152083 25.4902243,12.0241488 24.0087318,12.0241488 C22.5272393,12.0241488 21.0864951,12.3152083 19.7330687,12.8885953 C18.4262119,13.4416083 17.2503318,14.2332899 16.2403556,15.2432661 C15.2303793,16.2532424 14.4386977,17.4262119 13.8856848,18.7359793 C13.3181189,20.0894057 13.0270594,21.5301499 13.0270594,23.0116424 C13.0270594,24.4931349 13.3181189,25.9338791 13.8915059,27.2873054 C14.4445189,28.5941623 15.2362005,29.7700424 16.2461767,30.7800186 C17.256153,31.7899948 18.4291225,32.5816765 19.7388899,33.1346894 C21.0923163,33.7080765 22.5330605,33.9991359 24.014553,33.9991359 L24.1833674,33.9991359 L34.1958119,33.9991359 C34.524709,33.9991359 34.7924837,33.7723822 34.7924837,33.443485 C34.7895731,33.1116773 34.524709,32.8966892 34.1958119,32.8966892 L28.8491083,32.8966892 Z M14.7867175,26.906979 C14.2659593,25.6720381 14.0011165,24.3627031 14.0011165,23.0087318 C14.0011165,21.6547604 14.2659593,20.3454255 14.7867175,19.1104846 C15.2896211,17.9172044 16.0127311,16.8489061 16.9322413,15.9264201 C17.8517515,15.0069099 18.9230256,14.2837999 20.1163058,13.7808963 C21.3512467,13.2601381 22.6605816,12.9952953 24.014553,12.9952953 C25.3655486,12.9952953 26.6778592,13.2601381 27.9128001,13.7808963 C29.1060804,14.2837999 30.1773544,15.0069099 31.0968646,15.9264201 C32.0163748,16.8459303 32.7394848,17.9172044 33.2423884,19.1104846 C33.7631467,20.3454255 34.0279894,21.6547604 34.0279894,23.0087318 C34.0279894,24.3627031 33.7631467,25.6720381 33.2423884,26.906979 C32.7394848,28.1002592 32.0163748,29.1715332 31.0968646,30.0910434 C30.1773544,31.0105536 29.1060804,31.7336636 27.9128001,32.2365673 C26.6778592,32.7573255 25.3685243,33.0221682 24.014553,33.0221682 C22.6635574,33.0221682 21.3512467,32.7573255 20.1163058,32.2365673 C18.9230256,31.7336636 17.8517515,31.0105536 16.9322413,30.0910434 C16.0127311,29.1715332 15.2896211,28.1002592 14.7867175,26.906979 Z" id="Shape" fill="#169488" fill-rule="nonzero"></path>
            </g>
        </g>
    </g>
</svg>