<?xml version="1.0" encoding="UTF-8"?>
<svg width="22px" height="22px" viewBox="0 0 22 22" version="1.1" xmlns="http://www.w3.org/2000/svg" xmlns:xlink="http://www.w3.org/1999/xlink">
    <!-- Generator: Sketch 43.2 (39069) - http://www.bohemiancoding.com/sketch -->
    <title>V1.7_ditu#ffffff 44-44</title>
    <desc>Created with Sketch.</desc>
    <defs></defs>
    <g id="Page-1" stroke="none" stroke-width="1" fill="none" fill-rule="evenodd">
        <g id="酒店列表-排序" transform="translate(-322.000000, -621.000000)">
            <g id="V1.7_ditu#ffffff-44-44" transform="translate(321.000000, 620.000000)">
                <rect id="Rectangle-62" x="0" y="0" width="24" height="24"></rect>
                <path d="M22.25,5.15 L15.75,1.5 L15.7,1.5 L15.65,1.5 C15.6,1.45 15.5,1.45 15.45,1.45 L15.45,1.45 L15.45,1.45 C15.4,1.45 15.3,1.45 15.25,1.5 L15.2,1.5 C15.2,1.5 15.2,1.5 15.15,1.5 L8.9,4.95 L2.3,1.5 C2.1,1.4 1.9,1.4 1.7,1.5 C1.5,1.6 1.4,1.8 1.4,2 L1.4,19 C1.4,19.25 1.55,19.45 1.75,19.55 L8.55,22.45 C8.65,22.5 8.75,22.5 8.8,22.5 L8.85,22.5 C8.95,22.5 9.05,22.45 9.15,22.4 L15.25,20.25 L21.75,22.5 C21.8,22.5 21.9,22.55 21.95,22.55 C22.05,22.55 22.2,22.5 22.3,22.45 C22.45,22.35 22.55,22.15 22.55,21.95 L22.55,5.7 C22.55,5.45 22.45,5.25 22.25,5.15 Z M9.55,5.95 L14.85,3.05 L14.85,19.15 L9.55,21 L9.55,5.95 Z M2.65,3.05 L8.3,6 L8.3,21 L2.65,18.6 L2.65,3.05 Z M21.35,21.05 L16.05,19.2 L16.05,3.1 L21.35,6.05 L21.35,21.05 Z" id="Shape" fill="#444444"></path>
            </g>
        </g>
    </g>
</svg>