<?xml version="1.0" encoding="UTF-8"?>
<svg width="24px" height="24px" viewBox="0 0 24 24" version="1.1" xmlns="http://www.w3.org/2000/svg" xmlns:xlink="http://www.w3.org/1999/xlink">
    <!-- Generator: Sketch 43.2 (39069) - http://www.bohemiancoding.com/sketch -->
    <title>icon-fapiaoguanli24*24</title>
    <desc>Created with Sketch.</desc>
    <defs></defs>
    <g id="Page-1" stroke="none" stroke-width="1" fill="none" fill-rule="evenodd">
        <g id="更多-设置" transform="translate(-24.000000, -83.000000)">
            <g id="icon-fapiaoguanli24*24" transform="translate(24.000000, 83.000000)">
                <circle id="Oval-16" fill="#FF4A60" cx="12" cy="12" r="12"></circle>
                <g id="发票" transform="translate(4.500000, 5.000000)" fill-rule="nonzero" fill="#FFFFFF">
                    <path d="M13.7439759,0.00180722892 L1.26325301,0.00180722892 C0.572891566,0.00180722892 0.0126506024,0.518806878 0.0126506024,1.15497933 L0.0126506024,12.6691749 C0.0126506024,13.0144255 0.184337349,13.3386456 0.484337349,13.5594658 C0.507831325,13.5962692 0.547590361,13.6383302 0.589156627,13.6751336 L1.87048193,14.7985125 C2.02048193,14.929953 2.21746988,15.0018072 2.42891566,15.0018072 C2.64036145,15.0018072 2.83915663,14.9282005 2.99096386,14.7967599 L4.09518072,13.8293572 L5.18493976,14.7879972 C5.33493976,14.9194378 5.53373494,14.991292 5.74337349,14.991292 C5.95301205,14.991292 6.15361446,14.9194378 6.30542169,14.7862447 L7.39879518,13.8276046 L8.61686747,14.7862447 C8.76506024,14.9106751 8.95843373,14.9790242 9.1626506,14.9790242 C9.37228916,14.9790242 9.57289157,14.9054175 9.7246988,14.7739769 L10.8144578,13.8188419 L10.9156627,13.8188419 L12.0072289,14.7757294 C12.1572289,14.90717 12.3560241,14.9790242 12.5656627,14.9790242 C12.7771084,14.9790242 12.9759036,14.9054175 13.1259036,14.7739769 L14.4180723,13.6418353 C14.4343373,13.6260624 14.4524096,13.6102895 14.4668675,13.5945167 C14.7993976,13.3824592 14.9963855,13.0424662 14.9963855,12.6656698 L14.9963855,1.15147425 C14.9945783,0.518806878 14.4343373,0.00180722892 13.7439759,0.00180722892 L13.7439759,0.00180722892 Z M13.9084337,12.9197883 L13.7819277,13.0301984 L13.7801205,13.0301984 L12.5638554,14.0957434 L11.4162651,13.0897848 L11.1144578,12.9758696 L10.6283133,12.9723645 L10.3246988,13.0810221 L9.15903614,14.0992485 L7.84879518,13.0740119 L7.56506024,12.9758696 L7.22168675,12.9741171 L6.91807229,13.0827746 L5.74337349,14.1080112 L4.58313253,13.0915373 L4.2813253,12.9776222 L3.91987952,12.9741171 L3.61626506,13.0827746 L2.43072289,14.1185265 L1.2253012,13.0634967 L1.22349398,13.0670018 L1.09518072,12.9250459 C0.990361446,12.8584494 0.934337349,12.7708223 0.934337349,12.6744325 L0.977710843,1.41260288 C0.977710843,1.24611147 1.27951807,0.942921845 1.46024096,0.942921845 L13.5451807,0.942921845 C13.7259036,0.942921845 14.0277108,1.24435893 14.0277108,1.41260288 L14.0710843,12.6744325 C14.0728916,12.7690698 14.0114458,12.8619544 13.9084337,12.9197883 Z M3.3939759,4.22017386 L8.22831325,4.22017386 C8.49578313,4.22017386 8.71084337,4.00986892 8.71084337,3.75224536 C8.71084337,3.49286927 8.4939759,3.28431687 8.22831325,3.28431687 L3.3939759,3.28431687 C3.12650602,3.28431687 2.91144578,3.49462181 2.91144578,3.75224536 C2.91144578,4.01162146 3.12831325,4.22017386 3.3939759,4.22017386 Z M11.613253,6.09539293 L3.3939759,6.09539293 C3.12650602,6.09539293 2.91144578,6.30569787 2.91144578,6.56507397 C2.91144578,6.82445006 3.12831325,7.03300246 3.3939759,7.03300246 L11.6114458,7.03300246 C11.8789157,7.03300246 12.0939759,6.82269752 12.0939759,6.56507397 C12.0939759,6.30745041 11.8807229,6.09539293 11.613253,6.09539293 Z M11.613253,8.90822153 L3.3939759,8.90822153 C3.12650602,8.90822153 2.91144578,9.11852647 2.91144578,9.37790257 C2.91144578,9.63727866 3.12831325,9.84583106 3.3939759,9.84583106 L11.6114458,9.84583106 C11.8789157,9.84583106 12.0939759,9.63552612 12.0939759,9.37790257 C12.0939759,9.12027901 11.8807229,8.90822153 11.613253,8.90822153 Z" id="Shape"></path>
                </g>
            </g>
        </g>
    </g>
</svg>