<?xml version="1.0" encoding="UTF-8"?>
<svg width="18px" height="24px" viewBox="0 0 18 24" version="1.1" xmlns="http://www.w3.org/2000/svg" xmlns:xlink="http://www.w3.org/1999/xlink">
    <!-- Generator: Sketch 43.2 (39069) - http://www.bohemiancoding.com/sketch -->
    <title>Group 33 Copy 2</title>
    <desc>Created with Sketch.</desc>
    <defs></defs>
    <g id="Page-1" stroke="none" stroke-width="1" fill="none" fill-rule="evenodd">
        <g id="Group-33-Copy-2" transform="translate(-3.000000, 0.000000)">
            <g id="Page-1">
                <rect id="Rectangle-78" x="0" y="0" width="24" height="24"></rect>
                <path d="M7.948173,2.45429532 C7.948173,1.69889664 8.57125874,1.08490592 9.33667713,1.08490592 L13.9826045,1.08490592 C14.7476848,1.08490592 15.3707706,1.69889664 15.3707706,2.45429532 L15.3707706,6.91531642 L7.948173,6.91531642 L7.948173,2.45429532 Z M17.4564005,6.91531642 L16.4702143,6.91531642 L16.4702143,2.45429532 C16.4702143,1.10091437 15.3542045,0 13.9826045,0 L9.33667713,0 C7.96473903,0 6.84872926,1.10091437 6.84872926,2.45429532 L6.84872926,6.91531642 L5.8625431,6.91531642 C4.28403669,6.91531642 3,8.18198494 3,9.73947361 L3,20.3624135 C3,21.9195687 4.28403669,23.1865707 5.8625431,23.1865707 L6.84872926,23.1865707 C6.84872926,23.6358078 7.21791516,24 7.67365015,24 C8.12870896,24 8.49823295,23.6358078 8.49823295,23.1865707 L14.8210487,23.1865707 C14.8210487,23.6358078 15.1902346,24 15.6459696,24 C16.1010284,24 16.4702143,23.6358078 16.4702143,23.1865707 L16.7160002,23.1865707 C18.70291,23.1865707 20.3192817,21.5920625 20.3192817,19.632028 L20.3192817,9.73947361 C20.3192817,8.18198494 19.0349069,6.91531642 17.4564005,6.91531642 L17.4564005,6.91531642 Z" id="Fill-1" fill="#000000"></path>
                <path d="M7.88401053,12.0162517 C7.58846865,12.0162517 7.34854657,12.2529286 7.34854657,12.5441482 L7.34854657,19.6720495 C7.34854657,19.9635938 7.58846865,20.199946 7.88401053,20.199946 C8.1792233,20.199946 8.41914538,19.9635938 8.41914538,19.6720495 L8.41914538,12.5441482 C8.41914538,12.2529286 8.1792233,12.0162517 7.88401053,12.0162517" id="Fill-4" fill="#FFFFFF"></path>
                <path d="M14.9756662,12.0162517 C14.6801244,12.0162517 14.4402023,12.2529286 14.4402023,12.5441482 L14.4402023,19.6720495 C14.4402023,19.9635938 14.6801244,20.199946 14.9756662,20.199946 C15.270879,20.199946 15.5108011,19.9635938 15.5108011,19.6720495 L15.5108011,12.5441482 C15.5108011,12.2529286 15.270879,12.0162517 14.9756662,12.0162517" id="Fill-6" fill="#FFFFFF"></path>
            </g>
        </g>
    </g>
</svg>