<?xml version="1.0" encoding="UTF-8"?>
<svg width="45px" height="28px" viewBox="0 0 45 28" version="1.1" xmlns="http://www.w3.org/2000/svg" xmlns:xlink="http://www.w3.org/1999/xlink">
    <!-- Generator: Sketch 42 (36781) - http://www.bohemiancoding.com/sketch -->
    <title>Group 7</title>
    <desc>Created with Sketch.</desc>
    <defs></defs>
    <g id="Page-1" stroke="none" stroke-width="1" fill="none" fill-rule="evenodd">
        <g id="入住-前置-快开门" transform="translate(-165.000000, -544.000000)" fill="#FCC02F">
            <g id="Group-7" transform="translate(165.000000, 544.000000)">
                <g id="icon1icon">
                    <g id="箭头" transform="translate(7.500000, 14.000000) scale(-1, 1) translate(-7.500000, -14.000000) ">
                        <path d="M2.16899215,14.8383248 C1.67819372,15.3368604 0.882801047,15.3368604 0.392041885,14.8383248 L0.392041885,14.8383248 C-0.0987565445,14.3397892 -0.0987565445,13.5318575 0.392041885,13.0333618 L12.8310864,0.398222222 C13.3218848,-0.10031339 14.1172775,-0.10031339 14.6080366,0.398222222 L14.6080366,0.398222222 C15.0988351,0.896757835 15.0988351,1.70468946 14.6080366,2.20318519 L2.16899215,14.8383248 L2.16899215,14.8383248 Z" id="Shape" fill-rule="nonzero"></path>
                        <path d="M14.6080366,25.7968148 C15.0988351,26.2953504 15.0988351,27.1032821 14.6080366,27.6017778 L14.6080366,27.6017778 C14.1172382,28.1003134 13.3218455,28.1003134 12.8310864,27.6017778 L0.392041885,14.9666382 C-0.0987565445,14.4681026 -0.0987565445,13.6601709 0.392041885,13.1616752 L0.392041885,13.1616752 C0.882840314,12.6631396 1.67823298,12.6631396 2.16899215,13.1616752 L14.6080366,25.7968148 L14.6080366,25.7968148 Z" id="Shape" fill-rule="nonzero"></path>
                    </g>
                </g>
                <g id="icon-jiantou2" transform="translate(15.000000, 0.000000)" opacity="0.6">
                    <g id="箭头-copy" transform="translate(7.500000, 14.000000) scale(-1, 1) translate(-7.500000, -14.000000) ">
                        <path d="M2.16899215,14.8383248 C1.67819372,15.3368604 0.882801047,15.3368604 0.392041885,14.8383248 L0.392041885,14.8383248 C-0.0987565445,14.3397892 -0.0987565445,13.5318575 0.392041885,13.0333618 L12.8310864,0.398222222 C13.3218848,-0.10031339 14.1172775,-0.10031339 14.6080366,0.398222222 L14.6080366,0.398222222 C15.0988351,0.896757835 15.0988351,1.70468946 14.6080366,2.20318519 L2.16899215,14.8383248 L2.16899215,14.8383248 Z" id="Shape" fill-rule="nonzero"></path>
                        <path d="M14.6080366,25.7968148 C15.0988351,26.2953504 15.0988351,27.1032821 14.6080366,27.6017778 L14.6080366,27.6017778 C14.1172382,28.1003134 13.3218455,28.1003134 12.8310864,27.6017778 L0.392041885,14.9666382 C-0.0987565445,14.4681026 -0.0987565445,13.6601709 0.392041885,13.1616752 L0.392041885,13.1616752 C0.882840314,12.6631396 1.67823298,12.6631396 2.16899215,13.1616752 L14.6080366,25.7968148 L14.6080366,25.7968148 Z" id="Shape" fill-rule="nonzero"></path>
                    </g>
                </g>
                <g id="icon-jiantou3" transform="translate(30.000000, 0.000000)" opacity="0.4">
                    <g id="箭头-copy-2" transform="translate(7.500000, 14.000000) scale(-1, 1) translate(-7.500000, -14.000000) ">
                        <path d="M2.16899215,14.8383248 C1.67819372,15.3368604 0.882801047,15.3368604 0.392041885,14.8383248 L0.392041885,14.8383248 C-0.0987565445,14.3397892 -0.0987565445,13.5318575 0.392041885,13.0333618 L12.8310864,0.398222222 C13.3218848,-0.10031339 14.1172775,-0.10031339 14.6080366,0.398222222 L14.6080366,0.398222222 C15.0988351,0.896757835 15.0988351,1.70468946 14.6080366,2.20318519 L2.16899215,14.8383248 L2.16899215,14.8383248 Z" id="Shape" fill-rule="nonzero"></path>
                        <path d="M14.6080366,25.7968148 C15.0988351,26.2953504 15.0988351,27.1032821 14.6080366,27.6017778 L14.6080366,27.6017778 C14.1172382,28.1003134 13.3218455,28.1003134 12.8310864,27.6017778 L0.392041885,14.9666382 C-0.0987565445,14.4681026 -0.0987565445,13.6601709 0.392041885,13.1616752 L0.392041885,13.1616752 C0.882840314,12.6631396 1.67823298,12.6631396 2.16899215,13.1616752 L14.6080366,25.7968148 L14.6080366,25.7968148 Z" id="Shape" fill-rule="nonzero"></path>
                    </g>
                </g>
            </g>
        </g>
    </g>
</svg>