<?xml version="1.0" encoding="UTF-8"?>
<svg width="64px" height="64px" viewBox="0 0 64 64" version="1.1" xmlns="http://www.w3.org/2000/svg" xmlns:xlink="http://www.w3.org/1999/xlink">
    <!-- Generator: Sketch 43.2 (39069) - http://www.bohemiancoding.com/sketch -->
    <title>icon-lock</title>
    <desc>Created with Sketch.</desc>
    <defs>
        <path d="M11.8420855,18.3991042 C11.1331964,18.3991042 10.5591459,18.9782477 10.5591459,19.6928499 L10.5591459,23.7121737 C10.5591459,24.4268953 11.1331964,25.0063972 11.8420855,25.0063972 C12.5509746,25.0063972 13.1250252,24.4268953 13.1250252,23.7121737 L13.1250252,19.6928499 C13.1250252,18.9782079 12.5509746,18.3991042 11.8420855,18.3991042 Z" id="path-1"></path>
    </defs>
    <g id="Page-1" stroke="none" stroke-width="1" fill="none" fill-rule="evenodd" opacity="0.45069067">
        <g id="入住-前置-快开门" transform="translate(-263.000000, -498.000000)">
            <g id="icon-lock" transform="translate(263.000000, 498.000000)">
                <circle id="Oval-8-Copy" fill="#444444" cx="32" cy="32" r="32"></circle>
                <g transform="translate(20.000000, 17.000000)" id="Combined-Shape">
                    <path d="M21.3390047,13.4307336 C22.6240759,13.4307336 23.6695877,14.4851371 23.6695877,15.7811923 L23.6695877,27.6247869 C23.6695877,28.9203642 22.6241154,29.9744094 21.3390047,29.9744094 L2.34516628,29.9744094 C1.06009508,29.9744094 0.0146228013,28.9203642 0.0146228013,27.6247869 L0.0146228013,15.7811923 C0.0146228013,14.4851371 1.06009508,13.4307336 2.34516628,13.4307336 L5.08618571,13.4307336 L5.08618571,6.83713774 C5.08618571,3.07817969 8.11685537,0.0200470428 11.8420855,0.0200470428 C15.5673157,0.0200470428 18.5980248,3.07817969 18.5980248,6.83713774 L18.5980248,9.56645864 C18.5980248,10.0062812 18.2445868,10.3628059 17.808572,10.3628059 C17.3725573,10.3628059 17.0191193,10.0062812 17.0191193,9.56645864 L17.0191193,6.83713774 C17.0191193,3.95639144 14.6967072,1.61274152 11.8420855,1.61274152 C8.98746384,1.61274152 6.66509122,3.95639144 6.66509122,6.83713774 L6.66509122,13.4307336 L21.3390047,13.4307336 Z M22.0906822,27.6247869 L22.0906822,15.7811923 C22.0906822,15.3633489 21.7534675,15.0234281 21.3390048,15.0234281 L2.34516632,15.0234281 C1.93070363,15.0234281 1.59352834,15.3633489 1.59352834,15.7811923 L1.5935283,27.6247869 C1.5935283,28.0421923 1.93070359,28.3817149 2.34516628,28.3817149 L21.3390047,28.3817149 C21.7534674,28.3817149 22.0906822,28.0421525 22.0906822,27.6247869 Z" fill="#FFFFFF"></path>
                    <g>
                        <use fill="#FFFFFF" fill-rule="evenodd" xlink:href="#path-1"></use>
                        <path stroke="#FFFFFF" stroke-width="2" d="M11.8420855,19.3991042 C11.9967026,19.3991042 12.1250252,19.5285226 12.1250252,19.6928499 L12.1250252,23.7121737 C12.1250252,23.8767479 11.9965338,24.0063972 11.8420855,24.0063972 C11.6876372,24.0063972 11.5591459,23.8767479 11.5591459,23.7121737 L11.5591459,19.6928499 C11.5591459,19.528544 11.6874869,19.3991042 11.8420855,19.3991042 Z"></path>
                    </g>
                </g>
            </g>
        </g>
    </g>
</svg>