<?xml version="1.0" encoding="UTF-8"?>
<svg width="48px" height="48px" viewBox="0 0 48 48" version="1.1" xmlns="http://www.w3.org/2000/svg" xmlns:xlink="http://www.w3.org/1999/xlink">
    <!-- Generator: Sketch 43.1 (39012) - http://www.bohemiancoding.com/sketch -->
    <title>icon-fengliangxiao48*48#444444</title>
    <desc>Created with Sketch.</desc>
    <defs></defs>
    <g id="Page-1" stroke="none" stroke-width="1" fill="none" fill-rule="evenodd">
        <g id="控制-温度" transform="translate(-44.000000, -415.000000)">
            <g id="icon-fengliangxiao48*48#444444" transform="translate(44.000000, 415.000000)">
                <rect id="Rectangle-42-Copy-3" fill="#F2F2F2" x="0" y="0" width="48" height="48" rx="24"></rect>
                <g id="Group-2" transform="translate(13.000000, 13.000000)" stroke="#444444" fill-rule="nonzero">
                    <path d="M4.120217,21.4784064 L1.72024975,21.4784064 C1.06090601,21.4784064 0.524620702,20.9445953 0.524620702,20.2906003 L0.524620702,12.1891312 C0.524620702,11.5351362 1.060906,11.0013251 1.72024975,11.0013251 L4.120217,11.0013251 C4.77956074,11.0013251 5.31584605,11.5351362 5.31584605,12.1891312 L5.31584605,20.2906003 C5.31584605,20.9445953 4.77956076,21.4784064 4.120217,21.4784064 Z" id="Shape"></path>
                    <path d="M12.0505697,21.4784064 L9.65060244,21.4784064 C8.9912587,21.4784064 8.4549734,20.9445953 8.4549734,20.2906003 L8.4549734,6.89201673 C8.4549734,6.23802175 8.9912587,5.70421066 9.65060244,5.70421066 L12.0505697,5.70421066 C12.7099134,5.70421066 13.2461987,6.23802175 13.2461987,6.89201673 L13.2461987,20.2906003 C13.2461987,20.9445851 12.7098975,21.4784064 12.0505697,21.4784064 Z" id="Shape" opacity="0.398777174"></path>
                    <path d="M20.2939355,21.4784064 L17.8939683,21.4784064 C17.2346245,21.4784064 16.6983392,20.9445953 16.6983392,20.2906003 L16.6983392,1.69876728 C16.6983392,1.04477229 17.2346245,0.510961202 17.8939683,0.510961202 L20.2939355,0.510961202 C20.9532793,0.510961202 21.4895646,1.04477229 21.4895646,1.69876728 L21.4895646,20.2906003 C21.4895646,20.9445851 20.9532634,21.4784064 20.2939355,21.4784064 Z" id="Shape" opacity="0.398777174"></path>
                </g>
            </g>
        </g>
    </g>
</svg>