<?xml version="1.0" encoding="UTF-8"?>
<svg width="22px" height="22px" viewBox="0 0 22 22" version="1.1" xmlns="http://www.w3.org/2000/svg" xmlns:xlink="http://www.w3.org/1999/xlink">
    <!-- Generator: Sketch 43.2 (39069) - http://www.bohemiancoding.com/sketch -->
    <title>icon-zhiremoshi48*48#444444 copy 2</title>
    <desc>Created with Sketch.</desc>
    <defs></defs>
    <g id="Page-1" stroke="none" stroke-width="1" fill="none" fill-rule="evenodd">
        <g id="入住-前置" transform="translate(-178.000000, -351.000000)">
            <g id="icon-zhiremoshi48*48#444444-copy-2" transform="translate(176.000000, 349.000000)">
                <rect id="Rectangle-4" x="0" y="0" width="25" height="25"></rect>
                <path d="M13,18.7933039 C11.4518845,18.7933039 9.99639134,18.191259 8.90256616,17.0952285 C7.80874098,16.0014034 7.20449078,14.5459102 7.20449078,12.9977947 C7.20449078,11.4496792 7.80653569,9.99418605 8.90256616,8.90036087 C9.99639134,7.80653569 11.4518845,7.20228549 13,7.20228549 C14.5481155,7.20228549 16.0036087,7.80433039 17.0974338,8.90036087 C18.191259,9.99418605 18.7955092,11.4496792 18.7955092,12.9977947 C18.7955092,14.5459102 18.1934643,16.0014034 17.0974338,17.0952285 C16.0036087,18.191259 14.5481155,18.7933039 13,18.7933039 L13,18.7933039 Z M13,8.38652767 C10.4572975,8.38652767 8.38652767,10.4550922 8.38652767,13 C8.38652767,15.5427025 10.4550922,17.6134723 13,17.6134723 C15.5449078,17.6134723 17.6134723,15.5427025 17.6134723,12.9977947 C17.6134723,10.4550922 15.5427025,8.38652767 13,8.38652767 L13,8.38652767 Z M13,6.0202486 C12.6736167,6.0202486 12.4089816,5.75561347 12.4089816,5.42923015 L12.4089816,2.59101844 C12.4089816,2.26463512 12.6736167,2 13,2 C13.3263833,2 13.5910184,2.26463512 13.5910184,2.59101844 L13.5910184,5.42923015 C13.5910184,5.75561347 13.3263833,6.0202486 13,6.0202486 L13,6.0202486 Z M13,23.9977947 C12.6736167,23.9977947 12.4089816,23.7331596 12.4089816,23.4067763 L12.4089816,20.5685646 C12.4089816,20.2421812 12.6736167,19.9775461 13,19.9775461 C13.3263833,19.9775461 13.5910184,20.2421812 13.5910184,20.5685646 L13.5910184,23.4067763 C13.5910184,23.7331596 13.3263833,23.9977947 13,23.9977947 Z M23.4089816,13.5910184 L20.5707698,13.5910184 C20.2443865,13.5910184 19.9797514,13.3263833 19.9797514,13 C19.9797514,12.6736167 20.2443865,12.4089816 20.5707698,12.4089816 L23.4089816,12.4089816 C23.7353649,12.4089816 24,12.6736167 24,13 C24,13.3263833 23.7353649,13.5910184 23.4089816,13.5910184 L23.4089816,13.5910184 Z M5.43143545,13.5910184 L2.59101844,13.5910184 C2.26463512,13.5910184 2,13.3263833 2,13 C2,12.6736167 2.26463512,12.4089816 2.59101844,12.4089816 L5.42923015,12.4089816 C5.75561347,12.4089816 6.0202486,12.6736167 6.0202486,13 C6.02245389,13.3263833 5.75781877,13.5910184 5.43143545,13.5910184 L5.43143545,13.5910184 Z M18.372093,8.21672013 C18.2199278,8.21672013 18.0699679,8.15938252 17.9530874,8.042502 C17.7215317,7.81094627 17.7215317,7.43604651 17.9530874,7.20669607 L19.9599038,5.19987971 C20.1914595,4.96832398 20.5663593,4.96832398 20.7957097,5.19987971 C21.0272654,5.43143545 21.0272654,5.8063352 20.7957097,6.03568565 L18.7888933,8.042502 C18.6764234,8.15938252 18.5242582,8.21672013 18.372093,8.21672013 Z M5.66078589,20.9302326 C5.50862069,20.9302326 5.35866079,20.8728949 5.24178027,20.7560144 C5.13061284,20.6453565 5.06811661,20.4949661 5.06811661,20.3381115 C5.06811661,20.1812569 5.13061284,20.0308664 5.24178027,19.9202085 L7.24859663,17.9133921 C7.48015237,17.6818364 7.85284683,17.6818364 8.08440257,17.9133921 C8.3159583,18.1449479 8.3159583,18.5198476 8.08440257,18.7491981 L6.07758621,20.7560144 C5.96291099,20.8706897 5.81295108,20.9302326 5.66078589,20.9302326 L5.66078589,20.9302326 Z M20.3811147,20.9302326 C20.2289495,20.9302326 20.0789896,20.8728949 19.9621091,20.7560144 L17.9552927,18.7491981 C17.723737,18.5176423 17.723737,18.1427426 17.9552927,17.9133921 C18.1868484,17.6818364 18.5617482,17.6818364 18.7910986,17.9133921 L20.797915,19.9202085 C21.0294707,20.1517642 21.0294707,20.526664 20.797915,20.7560144 C20.6832398,20.8706897 20.5310746,20.9302326 20.3811147,20.9302326 Z M7.66760225,8.21672013 C7.51543705,8.21672013 7.36547715,8.15938252 7.24859663,8.042502 L5.24178027,6.03568565 C5.01022454,5.80412991 5.01022454,5.42923015 5.24178027,5.19987971 C5.47333601,4.96832398 5.84823577,4.96832398 6.07758621,5.19987971 L8.08440257,7.20669607 C8.3159583,7.4382518 8.3159583,7.81315156 8.08440257,8.042502 C7.97193264,8.15938252 7.81976744,8.21672013 7.66760225,8.21672013 Z" id="Shape" fill="#444444" fill-rule="nonzero"></path>
            </g>
        </g>
    </g>
</svg>