<?xml version="1.0" encoding="UTF-8"?>
<svg width="30px" height="30px" viewBox="0 0 30 30" version="1.1" xmlns="http://www.w3.org/2000/svg" xmlns:xlink="http://www.w3.org/1999/xlink">
    <!-- Generator: Sketch 43.2 (39069) - http://www.bohemiancoding.com/sketch -->
    <title>Page 1 Copy 2</title>
    <desc>Created with Sketch.</desc>
    <defs></defs>
    <g id="Page-1" stroke="none" stroke-width="1" fill="none" fill-rule="evenodd">
        <g id="Page-1-Copy-2" fill="#FFFFFF">
            <g id="Group-5">
                <path d="M28.2996,29.5 C28.0661,29.5 27.8326,29.411 27.6541,29.2325 L18.5251,20.1035 C18.1686,19.747 18.1686,19.1695 18.5251,18.813 C18.8821,18.456 19.4596,18.456 19.8161,18.813 L28.9451,27.9415 C29.3016,28.2985 29.3016,28.876 28.9451,29.2325 C28.7666,29.411 28.5331,29.5 28.2996,29.5" id="Fill-1"></path>
                <path d="M0.91285,29.5 C0.67935,29.5 0.44585,29.411 0.26735,29.2325 C-0.08915,28.876 -0.08915,28.2985 0.26735,27.9415 L13.31535,14.894 L0.26735,1.846 C-0.08915,1.4895 -0.08915,0.9115 0.26735,0.555 C0.62435,0.1985 1.20185,0.1985 1.55835,0.555 L14.60635,13.603 L27.65435,0.555 C28.01085,0.1985 28.58835,0.1985 28.94485,0.555 C29.30135,0.9115 29.30135,1.4895 28.94485,1.846 L1.55835,29.2325 C1.37985,29.411 1.14635,29.5 0.91285,29.5" id="Fill-3"></path>
            </g>
        </g>
    </g>
</svg>