<?xml version="1.0" encoding="UTF-8"?>
<svg width="50px" height="50px" viewBox="0 0 50 50" version="1.1" xmlns="http://www.w3.org/2000/svg" xmlns:xlink="http://www.w3.org/1999/xlink">
    <!-- Generator: Sketch 43.1 (39012) - http://www.bohemiancoding.com/sketch -->
    <title>icon-kaiguan48*48#169488</title>
    <desc>Created with Sketch.</desc>
    <defs></defs>
    <g id="Page-1" stroke="none" stroke-width="1" fill="none" fill-rule="evenodd">
        <g id="控制-温度" transform="translate(-163.000000, -550.000000)">
            <g id="icon-kaiguan48*48#169488" transform="translate(164.000000, 551.000000)">
                <circle id="Oval-10" stroke="#009688" fill="#169488" cx="24" cy="24" r="24"></circle>
                <path d="M31.855363,14.8093324 L31.8335028,14.8315088 L31.4406018,14.4653313 C31.3446258,14.3758234 31.1849658,14.2692456 30.9694028,14.2692456 C30.5953955,14.2692456 30.2866042,14.5850885 30.2809872,14.9749743 C30.2765616,15.230732 30.383796,15.3779178 30.4173524,15.4176505 C33.0640477,17.4765263 34.5813778,20.555296 34.5813778,23.8707838 C34.5813778,29.7716901 29.8328399,34.5723863 23.9961769,34.5723863 C18.1595139,34.5723862 13.4110489,29.7716901 13.4110489,23.8707838 C13.4110489,20.5543963 14.9270659,17.4767209 17.5721078,15.4199362 C17.6880231,15.2917899 17.7514883,15.126148 17.7514883,14.9499529 C17.7514883,14.5662192 17.4426484,14.253975 17.0630727,14.253975 C16.7879594,14.253975 16.6010409,14.4143646 16.5700134,14.4427416 L16.5564207,14.4585471 L16.5213081,14.4871916 C13.6569342,16.8202081 12.0141326,20.2403528 12.0141326,23.8707838 C12.0141326,30.5503917 17.389323,35.9846461 23.9962012,35.9846461 C30.603128,35.9846461 35.9781968,30.5503917 35.9781968,23.8707838 C35.9781968,20.4088153 34.4818273,17.1339113 31.855363,14.8093324 L31.855363,14.8093324 Z M23.9962012,24.7366103 C24.3812966,24.7366103 24.694635,24.4199162 24.694635,24.0305168 L24.694635,12.7267483 C24.694635,12.3373975 24.3812966,12.0206549 23.9962012,12.0206549 C23.6111058,12.0206549 23.2977674,12.3373975 23.2977674,12.7267483 L23.2977674,24.0279393 C23.2977674,24.4187734 23.6110814,24.7366103 23.9962012,24.7366103 Z" id="Shape" fill="#FFFFFF" fill-rule="nonzero"></path>
            </g>
        </g>
    </g>
</svg>