<?xml version="1.0" encoding="utf-8"?>
<!-- Generator: Adobe Illustrator 18.0.0, SVG Export Plug-In . SVG Version: 6.00 Build 0)  -->
<!DOCTYPE svg PUBLIC "-//W3C//DTD SVG 1.1//EN" "http://www.w3.org/Graphics/SVG/1.1/DTD/svg11.dtd">
<svg version="1.1" id="图层_1" xmlns="http://www.w3.org/2000/svg" xmlns:xlink="http://www.w3.org/1999/xlink" x="0px" y="0px"
	 viewBox="0 77.7 739.3 1178.6" enable-background="new 0 77.7 739.3 1178.6" xml:space="preserve">
<g id="Symbols">
	<g id="icon-kongtiao">
		<g id="Shape">
			<path fill="#B3DFDB" d="M369.6,1256.3C166.1,1256.3,0,1087.5,0,878.6c0-246.4,334.8-750,348.2-768.8l21.4-32.1l21.4,32.1
				c13.4,21.4,348.2,522.3,348.2,768.8C742,1087.5,575.9,1256.3,369.6,1256.3z M369.6,171.5C297.3,286.6,50.9,683.1,50.9,878.6
				c0,179.5,144.6,324.1,318.8,324.1c176.8,0,318.7-144.6,318.7-324.1C691.1,683.1,444.6,286.6,369.6,171.5z"/>
			<path fill="#B3DFDB" d="M594.6,942.9c0,37.5-29.5,67-67,67s-67-29.5-67-67c0-37.5,29.5-67,67-67S594.6,905.4,594.6,942.9z"/>
		</g>
	</g>
</g>
</svg>
