<?xml version="1.0" encoding="UTF-8"?>
<svg width="48px" height="48px" viewBox="0 0 48 48" version="1.1" xmlns="http://www.w3.org/2000/svg" xmlns:xlink="http://www.w3.org/1999/xlink">
    <!-- Generator: Sketch 43.1 (39012) - http://www.bohemiancoding.com/sketch -->
    <title>icon-yugangdeng48*48#444444</title>
    <desc>Created with Sketch.</desc>
    <defs></defs>
    <g id="Page-1" stroke="none" stroke-width="1" fill="none" fill-rule="evenodd">
        <g id="入住-光照" transform="translate(-36.000000, -517.000000)">
            <g id="icon-yugangdeng48*48#444444" transform="translate(36.000000, 517.000000)">
                <ellipse id="Oval-7-Copy-4" fill="#B3DFDB" cx="24" cy="24" rx="24" ry="24"></ellipse>
                <path d="M22.2206452,18.0279807 C22.1690085,17.8096641 22.1158532,17.5554676 22.0465614,17.3058272 C22.0161869,17.1960994 21.8870953,17.1412355 21.779076,17.1645858 C21.6638428,17.1896448 21.5674038,17.2961453 21.5886659,17.4117583 C21.6347972,17.6627275 21.6915595,17.912178 21.7572443,18.158591 C21.7870493,18.270597 21.9106355,18.3267898 22.0205532,18.3060971 C22.1373052,18.2842655 22.2210248,18.1828906 22.2206452,18.0279807 Z M21.0709707,18.2715462 C21.0187646,18.0536092 20.96466,17.795426 20.8927104,17.5423686 C20.8621461,17.4349188 20.7264101,17.3844212 20.6202892,17.4123278 C20.505056,17.4427023 20.4162106,17.5503419 20.4386118,17.6665243 C20.4858821,17.9131272 20.5413155,18.1587809 20.6066207,18.4012073 C20.6381342,18.5177694 20.7672258,18.5758606 20.8803708,18.5500423 C20.9906682,18.5249833 21.0698317,18.4258865 21.0709707,18.2715462 Z M22.2502603,19.2194201 C22.133888,19.2412518 22.0503582,19.3426266 22.050548,19.4979162 C22.1019948,19.7162329 22.1549603,19.9704294 22.2240623,20.2202596 C22.2544368,20.3299874 22.3831487,20.385231 22.4913578,20.3616908 C22.6067809,20.3366318 22.7035996,20.2299414 22.6825273,20.1147082 C22.6360911,19.8635679 22.5797276,19.6143651 22.5135691,19.3676856 C22.4837642,19.2560593 22.3596084,19.1987275 22.2502603,19.2194201 L22.2502603,19.2194201 Z M19.9235743,20.7320697 C19.9533793,20.8423671 20.0815217,20.89837 20.189541,20.8759688 C20.304964,20.8520489 20.3873548,20.7487757 20.3848869,20.5932963 C20.3332503,20.3761186 20.2802848,20.1217323 20.2102336,19.8722818 C20.1794794,19.7631235 20.049059,19.7105376 19.94066,19.7357864 C19.8250471,19.7627438 19.7314557,19.869624 19.7532874,19.9854268 C19.8005577,20.2362062 19.8571302,20.4858465 19.9235743,20.7320697 L19.9235743,20.7320697 Z M19.9152214,18.5310582 C19.869338,18.3086999 19.8194651,18.0871836 19.765627,17.8666162 C19.7363915,17.7464472 19.6412814,17.6750671 19.5290857,17.6746874 C19.3830983,17.6743077 19.2614105,17.8030196 19.2891272,17.949007 C19.3335499,18.1838398 19.3876544,18.4171539 19.4474542,18.6487594 C19.4794394,18.7735499 19.6059873,18.8492753 19.731076,18.8184768 C19.8608084,18.7892624 19.9429037,18.6611262 19.9152214,18.5310582 L19.9152214,18.5310582 Z M21.3414935,20.6060156 C21.4569166,20.5807668 21.5535454,20.4740764 21.5324731,20.359033 C21.4859625,20.1080017 21.4297274,19.85887 21.3638947,19.6122002 C21.3342796,19.5007638 21.2103137,19.4434319 21.1005858,19.4639347 C20.9847831,19.4853867 20.9003041,19.5877108 20.9006837,19.7428105 C20.9521305,19.9603678 21.0054757,20.2145643 21.0745777,20.4642047 C21.1045725,20.5735528 21.2340438,20.629366 21.3414935,20.6060156 L21.3414935,20.6060156 Z" id="Shape" fill="#169488" fill-rule="nonzero"></path>
                <path d="M34.9010456,24.8514201 C34.8080237,24.7209996 34.674376,24.6961305 34.5238324,24.6963204 C28.4960149,24.6976492 22.4680074,24.6974594 16.4401898,24.6982188 C16.3553311,24.6982188 16.2951517,24.7092295 16.2953415,24.5784294 C16.3002773,21.6867779 16.2979992,18.7953163 16.2998977,15.9036648 C16.3004672,15.0436871 16.9373823,14.3462128 17.7971702,14.2535706 C18.6150033,14.1652948 19.3899325,14.7386133 19.5699014,15.5611924 C19.5896448,15.650987 19.5735084,15.6889551 19.4759303,15.7088884 C19.1330782,15.7791294 18.7917449,15.8575336 18.4509811,15.9378361 C18.239119,15.9877642 18.1252147,16.1715299 18.1702069,16.3816834 C18.2036188,16.5367831 18.2381698,16.6918828 18.2776566,16.8456537 C18.3334698,17.0628313 18.5128691,17.1706607 18.7338435,17.1216819 C19.1114364,17.0379622 19.4884598,16.9523441 19.865673,16.8671057 C20.6200994,16.6968187 21.3747156,16.5272911 22.1287623,16.3554853 C22.370809,16.3004316 22.4767401,16.1261579 22.4228254,15.8810738 C22.3913118,15.737934 22.3607475,15.5946044 22.3246778,15.4526036 C22.2671561,15.2261238 22.0911739,15.1188639 21.8633652,15.1689818 C21.5533556,15.2371346 21.2420171,15.300921 20.9344753,15.3791353 C20.8184827,15.4085606 20.7786162,15.3924242 20.751469,15.2678888 C20.4801869,14.0244331 19.3933496,13.1006689 18.1269232,13.0281498 C17.3330891,12.9805287 16.5549163,13.2633985 15.9769654,13.8096705 C15.3990145,14.3559425 15.0727729,15.1169515 15.0756159,15.9122076 C15.075426,18.795696 15.0748565,21.6789944 15.0782736,24.5624828 C15.0784635,24.6761973 15.0471398,24.701446 14.9381713,24.7001172 C14.4366125,24.6942321 13.9348639,24.6970797 13.4333051,24.6976492 C13.1686674,24.6980289 13.0217308,24.8426874 13.0202121,25.1025792 C13.0192629,25.2453393 13.0188832,25.3880994 13.0204019,25.5308595 C13.0230597,25.7689195 13.1728439,25.9187037 13.4114735,25.9206022 C13.6113756,25.9223107 13.8112777,25.9230701 14.01099,25.9198428 C14.0835091,25.9187038 14.1148328,25.9234498 14.1023033,26.0168513 C13.9506207,27.1498198 14.1097071,28.2383656 14.6228461,29.2612265 C15.3609462,30.7324909 16.5275165,31.706373 18.1041424,32.1842017 C18.1827364,32.2081216 18.2140601,32.2364078 18.2106429,32.3235447 C18.2026696,32.5272436 18.2058969,32.7313222 18.2087445,32.935211 C18.211782,33.1529581 18.361756,33.3059696 18.5766555,33.3105258 C18.7397286,33.3139429 18.9029915,33.3143226 19.0660645,33.3103359 C19.275079,33.3054001 19.4256225,33.1537175 19.4307482,32.9441335 C19.4341654,32.8013734 19.4400504,32.6580437 19.4288498,32.516043 C19.4197375,32.4000504 19.4616923,32.3787883 19.5693319,32.3789781 C22.4691465,32.3820156 25.3687712,32.3812562 28.2685858,32.3812562 C28.2849121,32.3812562 28.3016181,32.3833444 28.3175647,32.3808765 C28.3900838,32.3700556 28.4179904,32.3939755 28.4147631,32.4729492 C28.4095421,32.6278727 28.4091622,32.7829215 28.413624,32.9378687 C28.4178005,33.1544768 28.5685339,33.3059696 28.7843827,33.3105258 C28.9353059,33.3135632 29.0862291,33.3120445 29.2369625,33.3110953 C29.4845146,33.3093867 29.6339192,33.1618806 29.6360074,32.9167964 C29.6375262,32.7332206 29.6437909,32.5492651 29.6333497,32.3664486 C29.6276544,32.2669722 29.6680905,32.2375469 29.7538984,32.2132473 C31.4636025,31.7285844 32.6956678,30.6781965 33.4350968,29.0643619 C33.8914735,28.0678888 34.0122121,27.0176908 33.8555936,25.9337012 C33.8722996,25.9264872 33.8760964,25.9236396 33.8797034,25.9236396 C34.1162447,25.9225006 34.3527861,25.9213615 34.5891376,25.9211717 C34.7205072,25.9209818 34.8271976,25.872003 34.9031339,25.7637938 C35.0039392,25.6202744 35.0020408,24.9928513 34.9010456,24.8514201 L34.9010456,24.8514201 Z M31.0383597,30.219162 C30.3974579,30.7552718 29.6432214,31.0485754 28.8158962,31.1545065 C28.7557167,31.16229 28.6938287,31.1579236 28.6328899,31.1579236 C25.6066415,31.1581135 22.580393,31.1533674 19.5541446,31.1615306 C18.8412933,31.163429 18.1804583,30.9899147 17.5680326,30.6449744 C16.2680044,29.9127594 15.5126288,28.7976359 15.3036144,27.3197271 C15.242106,26.8853719 15.2627987,26.4496878 15.3389247,26.0166615 C15.3527831,25.9376878 15.38031,25.9179444 15.4554868,25.9194631 C15.6715254,25.9240193 15.8877538,25.9211717 16.1039822,25.9211717 L23.9836945,25.9211717 C26.8182039,25.9211717 29.6529032,25.9213615 32.4874127,25.9200326 C32.5690441,25.9200326 32.6153652,25.9249685 32.6305525,26.0290011 C32.8784843,27.7227586 32.3484494,29.1232125 31.0383597,30.219162 L31.0383597,30.219162 Z" id="Shape" fill="#169488" fill-rule="nonzero"></path>
            </g>
        </g>
    </g>
</svg>