<?xml version="1.0" encoding="UTF-8"?>
<svg width="24px" height="24px" viewBox="0 0 24 24" version="1.1" xmlns="http://www.w3.org/2000/svg" xmlns:xlink="http://www.w3.org/1999/xlink">
    <!-- Generator: Sketch 43.2 (39069) - http://www.bohemiancoding.com/sketch -->
    <title>Oval 13</title>
    <desc>Created with Sketch.</desc>
    <defs></defs>
    <g id="Page-1" stroke="none" stroke-width="1" fill="none" fill-rule="evenodd">
        <g id="更多" transform="translate(-24.000000, -94.000000)">
            <rect id="Rectangle-16" fill="#F2F2F2" x="0" y="64" width="375" height="603"></rect>
            <rect id="Rectangle" fill="#FEFEFE" x="0" y="76" width="375" height="60"></rect>
            <circle id="Oval-13" fill="#FF4A60" cx="36" cy="106" r="12"></circle>
            <g id="会员" transform="translate(29.000000, 98.000000)" fill-rule="nonzero" fill="#FEFEFE">
                <path d="M8.60311111,16 L5.41422222,16 C2.38977778,16 0,16 0,14.4311111 L0,14.1173333 C0,11.1773333 2.42888889,8.78533333 5.41422222,8.78533333 L8.60311111,8.78533333 C11.5884444,8.78533333 14.0177778,11.1777778 14.0177778,14.1173333 L14.0177778,14.4311111 C14.0173333,16 11.508,16 8.60311111,16 L8.60311111,16 L8.60311111,16 Z M5.38533333,9.67022222 C2.87422222,9.67022222 0.831111111,11.6755556 0.831111111,14.1417778 L0.831111111,14.4613333 C0.831111111,15.1004444 3.46311111,15.1004444 5.38533333,15.1004444 L8.63244444,15.1004444 C10.2235556,15.1004444 13.1866667,15.1004444 13.1866667,14.4613333 L13.1866667,14.1417778 C13.1866667,11.6755556 11.1435556,9.67022222 8.63244444,9.67022222 L5.38533333,9.67022222 L5.38533333,9.67022222 L5.38533333,9.67022222 Z M6.84933333,8.47022222 C4.47911111,8.47022222 2.55244444,6.57022222 2.55244444,4.23511111 C2.55244444,1.9 4.47911111,0 6.84933333,0 C9.22,0 11.1471111,1.89955556 11.1471111,4.23466667 C11.1471111,6.56977778 9.21911111,8.47022222 6.84933333,8.47022222 L6.84933333,8.47022222 L6.84933333,8.47022222 Z M3.43733333,4.22222222 C3.43733333,6.06844444 4.968,7.57111111 6.84933333,7.57111111 C8.73111111,7.57111111 10.2617778,6.06933333 10.2617778,4.22222222 C10.2617778,2.37511111 8.73111111,0.873777778 6.84933333,0.873777778 C4.96755556,0.873777778 3.43733333,2.37555556 3.43733333,4.22222222 L3.43733333,4.22222222 L3.43733333,4.22222222 Z" id="Shape"></path>
            </g>
        </g>
    </g>
</svg>