<?xml version="1.0" encoding="UTF-8"?>
<svg width="50px" height="49px" viewBox="0 0 50 49" version="1.1" xmlns="http://www.w3.org/2000/svg" xmlns:xlink="http://www.w3.org/1999/xlink">
    <!-- Generator: Sketch 43.1 (39012) - http://www.bohemiancoding.com/sketch -->
    <title>icon-yaoshi48*48#444444</title>
    <desc>Created with Sketch.</desc>
    <defs></defs>
    <g id="Page-1" stroke="none" stroke-width="1" fill="none" fill-rule="evenodd">
        <g id="入住-控制-退房弹窗" transform="translate(-194.000000, -309.000000)">
            <g id="icon-yaoshi48*48#444444" transform="translate(194.000000, 309.000000)">
                <rect id="Rectangle-Copy-2" x="0" y="0" width="50" height="49"></rect>
                <g id="icon-yaoshi" transform="translate(10.204082, 11.000000)" fill="#444444" fill-rule="nonzero">
                    <path d="M30.793701,21.7489217 L21.0633173,12.9723609 L21.7180136,12.38309 C22.8170149,11.3939988 22.8170149,9.79019092 21.7180136,8.80101534 L12.7634067,0.741881667 C11.6644991,-0.247293889 9.88262439,-0.247293889 8.78362304,0.741881667 L0.82446185,7.90597467 C-0.274820617,8.89450354 -0.274820617,10.4983114 0.82446185,11.4880493 L9.77872515,19.547183 C10.8777265,20.5363585 12.6596012,20.5363585 13.7585088,19.547183 L14.4331353,18.9399735 L18.5305318,22.6451995 C18.6577037,22.7603657 18.8337639,22.8309107 19.0284109,22.8309107 L21.1410387,22.8309107 L21.1410387,24.7324187 C21.1410387,25.0827535 21.4563913,25.3662547 21.845248,25.3662547 L23.9578759,25.3662547 L23.9578759,27.2677628 C23.9578759,27.6180975 24.2732285,27.9015988 24.6620852,27.9015988 L30.2957907,27.9015988 C30.6846474,27.9015988 31,27.6180694 31,27.2677628 L30.9999999,22.1970465 C31.0000312,22.0224978 30.9212789,21.8634131 30.793701,21.7489217 Z M29.5916126,26.6339268 L25.3663257,26.6339268 L25.3663257,24.7324187 C25.3663257,24.3826744 25.0509731,24.0985827 24.6621164,24.0985827 L22.5494885,24.0985827 L22.5494885,22.1970747 C22.5494885,21.8473303 22.234136,21.5632386 21.8452792,21.5632386 L19.3210218,21.5632386 L14.9272969,17.5899475 C14.7996877,17.4748375 14.6236275,17.403674 14.4290742,17.403674 C14.2178708,17.403674 14.0339386,17.4915951 13.9049861,17.6246436 L12.7633754,18.6515237 C12.2138904,19.1460974 11.3229687,19.1460974 10.7734836,18.6515237 L1.81922031,10.5923619 C1.26973527,10.0977882 1.26973527,9.29558909 1.81922031,8.80101536 L9.77872515,1.63692236 C10.3282102,1.14234863 11.2191319,1.14234863 11.768617,1.63692236 L20.7229428,9.6966746 C21.2723653,10.1912483 21.2723653,10.9934475 20.7229428,11.4880212 L19.6033241,12.4951353 C19.4561595,12.6115105 19.3585393,12.7767527 19.3585393,12.9667657 C19.3585393,13.1419612 19.4372603,13.3004272 19.564807,13.4148905 L29.5916126,22.4595165 L29.5916126,26.6339268 Z M9.87365891,6.35108999 C8.31804457,6.35108999 7.05682175,7.48630399 7.05682175,8.88708074 C7.05682175,10.2865922 8.3180758,11.4224248 9.87365891,11.4224248 C11.4292732,11.4224248 12.6904961,10.2865923 12.6904961,8.88708074 C12.6905273,7.48630399 11.4292732,6.35108999 9.87365891,6.35108999 Z M9.87365891,10.1541342 C9.09585174,10.1541342 8.46524034,9.58654126 8.46524034,8.88708072 C8.46524034,8.18638305 9.09585174,7.61876201 9.87365891,7.61876201 C10.6514661,7.61876201 11.2820775,8.18635494 11.2820775,8.88708072 C11.2820775,9.58651315 10.6514661,10.1541342 9.87365891,10.1541342 Z"></path>
                </g>
            </g>
        </g>
    </g>
</svg>