<?xml version="1.0" encoding="utf-8"?>
<!-- Generator: Adobe Illustrator 18.0.0, SVG Export Plug-In . SVG Version: 6.00 Build 0)  -->
<!DOCTYPE svg PUBLIC "-//W3C//DTD SVG 1.1//EN" "http://www.w3.org/Graphics/SVG/1.1/DTD/svg11.dtd">
<svg version="1.1" id="图层_1" xmlns="http://www.w3.org/2000/svg" xmlns:xlink="http://www.w3.org/1999/xlink" x="0px" y="0px"
	 viewBox="0 0 44 44" enable-background="new 0 0 44 44" xml:space="preserve">
<g>
	<path fill-rule="evenodd" clip-rule="evenodd" fill="#ffffff" d="M2.9,7.8h38.2c0.6,0,1-0.6,1-1.3c0-0.7-0.5-1.3-1-1.3H2.9
		c-0.6,0-1,0.6-1,1.3S2.3,7.8,2.9,7.8L2.9,7.8z M41.1,20.7H2.9c-0.6,0-1,0.6-1,1.3c0,0.7,0.5,1.3,1,1.3h38.2c0.6,0,1-0.6,1-1.3
		C42.1,21.3,41.6,20.7,41.1,20.7L41.1,20.7z M41.1,36.2H2.9c-0.6,0-1,0.6-1,1.3c0,0.7,0.5,1.3,1,1.3h38.2c0.6,0,1-0.6,1-1.3
		C42.1,36.7,41.6,36.2,41.1,36.2L41.1,36.2z"/>
</g>
</svg>
