<?xml version="1.0" encoding="UTF-8"?>
<svg width="56px" height="56px" viewBox="0 0 56 56" version="1.1" xmlns="http://www.w3.org/2000/svg" xmlns:xlink="http://www.w3.org/1999/xlink">
    <!-- Generator: Sketch 43.1 (39012) - http://www.bohemiancoding.com/sketch -->
    <title>Group 25</title>
    <desc>Created with Sketch.</desc>
    <defs>
        <circle id="path-1" cx="28" cy="28" r="28"></circle>
    </defs>
    <g id="Page-1" stroke="none" stroke-width="1" fill="none" fill-rule="evenodd">
        <g id="首页-copy" transform="translate(-16.000000, -310.000000)">
            <g id="Group-25" transform="translate(16.000000, 310.000000)">
                <g id="Oval-Copy-5">
                    <use fill="#444444" fill-rule="evenodd" xlink:href="#path-1"></use>
                    <circle stroke="#BDBDBD" stroke-width="5" cx="28" cy="28" r="25.5"></circle>
                </g>
                <path d="M29.7213763,33.0577924 C31.3094717,30.6168306 33.5008885,27.1720841 34.0994279,25.8463011 C35.1635209,23.4877637 34.9727652,22.8038826 34.9727652,22.1541041 C34.9727652,18.7550833 31.6040182,16 27.9865686,16 C24.369178,16 20.9997816,18.7555849 20.9997816,22.1541041 C20.9997816,22.8038826 20.808406,23.4877932 21.8731189,25.8463011 C22.4710678,27.1715531 24.6642559,30.6184237 26.2530007,33.0582939 C21.5643143,33.3219696 18,34.6215266 18,36.1889484 C18,37.9470616 22.4770308,40.1668284 27.9997048,40.1668284 C33.5229692,40.1668284 38,37.9465011 38,36.1889484 C38.0005609,34.6194026 34.4231103,33.3167185 29.7213763,33.0577924 Z M25.0005136,22.2586245 C25.0005136,20.7762822 26.3435963,19.5739589 28.0002657,19.5739589 C29.656935,19.5739589 31.0006671,20.7763412 31.0006671,22.2586245 C31.0006671,23.7414682 29.656935,24.94329 28.0002657,24.94329 C26.3430059,24.9438211 25.0005136,23.7420583 25.0005136,22.2586245 Z M28.0002952,37.7815341 C23.8582823,37.7815341 20.5002214,36.7121402 20.5002214,35.3936733 C20.5002214,34.2663993 22.9599124,33.3240936 26.2631259,33.0740177 C27.2396047,34.5742078 27.9865686,35.6920416 27.9865686,35.6920416 C27.9865686,35.6920416 28.7335325,34.5731753 29.7112216,33.0719527 C33.0269809,33.317751 35.4997786,34.2633018 35.4997786,35.3936733 C35.4997786,36.7121402 32.1428394,37.7815341 28.0002952,37.7815341 L28.0002952,37.7815341 Z" id="附近-copy" fill="#FFFFFF"></path>
            </g>
        </g>
    </g>
</svg>