<?xml version="1.0" encoding="UTF-8"?>
<svg width="79px" height="30px" viewBox="0 0 79 30" version="1.1" xmlns="http://www.w3.org/2000/svg" xmlns:xlink="http://www.w3.org/1999/xlink">
    <!-- Generator: Sketch 43.2 (39069) - http://www.bohemiancoding.com/sketch -->
    <title>Page 1 Copy</title>
    <desc>Created with Sketch.</desc>
    <defs>
        <polygon id="path-1" points="6.5022556e-16 28.4754437 6.5022556e-16 0.304495986 24.3438148 0.304495986 24.3438148 28.4754437 0 28.4754437"></polygon>
        <polygon id="path-3" points="25.5540678 28.5997895 25.5540678 0.439664585 0.405247881 0.439664585 0.405247881 28.5997895"></polygon>
        <polygon id="path-5" points="21.931786 23.470116 0.464773305 23.470116 0.464773305 0.385669938 21.931786 0.385669938 21.931786 23.470116"></polygon>
    </defs>
    <g id="Page-1" stroke="none" stroke-width="1" fill="none" fill-rule="evenodd">
        <g id="首页" transform="translate(-16.000000, -34.000000)">
            <g id="Page-1-Copy" transform="translate(16.000000, 34.000000)">
                <g id="Group-3" transform="translate(0.000000, 0.311026)">
                    <mask id="mask-2" fill="white">
                        <use xlink:href="#path-1"></use>
                    </mask>
                    <g id="Clip-2"></g>
                    <path d="M10.4677585,0.304169492 L-0.000652542373,0.304169492 L-0.000652542373,4.43921855 L9.43184746,4.43921855 L9.43184746,4.52084211 L10.3307246,4.52084211 C16.4026314,4.61389295 19.4826314,7.96862087 19.5756186,14.5882908 C19.6653432,21.389165 16.5380339,24.7455254 10.195322,24.6557395 L4.62261017,24.6557395 L4.62261017,12.4970955 L-0.000652542373,17.1365781 L-0.000652542373,28.4642944 L10.195322,28.4642944 C19.8904703,28.7352846 24.605089,24.0664175 24.3326525,14.4527957 C24.2412966,5.11179661 19.6196653,0.395587868 10.4677585,0.304169492" id="Fill-1" fill="#FEFEFE" mask="url(#mask-2)"></path>
                </g>
                <g id="Group-6" transform="translate(52.711864, 0.311026)">
                    <mask id="mask-4" fill="white">
                        <use xlink:href="#path-3"></use>
                    </mask>
                    <g id="Clip-5"></g>
                    <polygon id="Fill-4" fill="#FEFEFE" mask="url(#mask-4)" points="12.7758199 12.2750794 25.0093581 0.439664585 18.4855657 0.439664585 0.405247881 18.5878448 0.405247881 28.5997895 5.16228178 28.5997895 5.16228178 19.756694 9.64851059 15.2673988 19.3012436 28.5997895 25.5542309 28.5997895"></polygon>
                </g>
                <path d="M33.1108157,16.1483202 L33.1108157,16.1483202 C33.0912394,16.1254657 33.1010275,16.136893 33.1108157,16.1483202" id="Fill-7" fill="#FEFEFE"></path>
                <g id="Group-11" transform="translate(27.733051, 5.716913)">
                    <mask id="mask-6" fill="white">
                        <use xlink:href="#path-5"></use>
                    </mask>
                    <g id="Clip-10"></g>
                    <path d="M18.1943496,18.2334755 C17.8370826,17.9494255 17.5891165,17.7355718 17.4471886,17.5919144 C18.054053,16.4655094 18.5189894,15.1970794 18.8501547,13.7915219 L15.2986928,13.7915219 C15.1649216,14.3351347 14.9936292,14.8575254 14.7766589,15.3472667 C13.6330784,14.3547244 12.5841165,13.3964639 11.6150911,12.4724853 L8.66233686,13.923752 C10.4356208,15.6770259 11.9071038,17.0809509 13.0669979,18.1273649 C11.6411928,19.552512 9.89890466,20.2642694 7.83360805,20.2642694 C5.48445551,20.1222444 4.2038411,18.9811472 3.99013347,16.8442426 C4.06028178,15.2770705 5.19896822,13.8878376 7.40782415,12.6765442 L10.3980996,11.2873113 C13.3165953,9.93399286 14.7407691,7.97339518 14.6706208,5.40878323 C14.4552818,2.27443889 12.4976547,0.59952364 8.79447669,0.385669938 C5.44856568,0.59952364 3.59860805,2.38054951 3.2413411,5.72874755 C3.2413411,6.77026405 3.62470975,7.88687422 4.38329025,9.07857806 L7.228375,7.6795504 C6.80585381,6.98248528 6.61498517,6.36704371 6.66066314,5.83485816 C6.66066314,4.12566102 7.37030297,3.27024621 8.79447669,3.27024621 C10.3605784,3.20004996 11.1077394,3.98363604 11.0375911,5.62100446 C11.2512987,6.9759554 10.3263199,8.11705263 8.26102331,9.04266369 C8.23655297,9.01654416 8.24960381,9.02960393 8.26102331,9.04266369 L5.37841737,10.4318965 C5.39636229,10.4531186 5.38657415,10.4433238 5.37841737,10.4318965 C2.10265466,11.9990687 0.464773305,14.2437163 0.464773305,17.164207 C0.678480932,21.0119411 3.06352331,23.0427351 7.62153178,23.2565888 C10.6819555,23.2565888 13.3165953,22.2575165 15.5238199,20.2642694 C16.4487987,21.1196842 17.8028242,22.1873202 19.5826335,23.4704425 L21.931786,20.9058305 C21.1487352,20.4079269 19.9023792,19.5149652 18.1943496,18.2334755" id="Fill-9" fill="#FEFEFE" mask="url(#mask-6)"></path>
                </g>
            </g>
        </g>
    </g>
</svg>