<?xml version="1.0" encoding="UTF-8"?>
<svg width="59px" height="22px" viewBox="0 0 59 22" version="1.1" xmlns="http://www.w3.org/2000/svg" xmlns:xlink="http://www.w3.org/1999/xlink">
    <!-- Generator: Sketch 42 (36781) - http://www.bohemiancoding.com/sketch -->
    <title>logo白色</title>
    <desc>Created with Sketch.</desc>
    <defs>
        <polygon id="path-1" points="9.22595778e-06 0.0345717913 16.8067059 0.0345717913 16.8067059 20.7519488 9.22595778e-06 20.7519488 9.22595778e-06 0.0345717913"></polygon>
    </defs>
    <g id="Page-1" stroke="none" stroke-width="1" fill="none" fill-rule="evenodd">
        <g id="首页" transform="translate(-10.000000, -34.000000)">
            <g id="logo白色" transform="translate(10.000000, 34.000000)">
                <g id="Page-1">
                    <polygon id="Fill-1" fill="#FFFFFF" points="53.4858111 0.116961969 40.8864741 12.3060957 40.8864741 20.7618315 44.9270746 20.7618315 44.9270746 13.5969833 47.3359722 11.2974704 53.9685132 20.7618315 58.9253897 20.7618315 50.1751684 8.54172536 58.9672755 0.116961969"></polygon>
                    <g id="Group-7" transform="translate(0.000000, 0.009865)">
                        <g id="Group-4">
                            <mask id="mask-2" fill="white">
                                <use xlink:href="#path-1"></use>
                            </mask>
                            <g id="Clip-3"></g>
                            <path d="M13.4717989,2.70631804 C12.3780616,1.74217388 11.1405839,1.04904946 9.80383487,0.649340893 C8.56063706,0.24141153 6.85609523,0.0345584603 4.73735403,0.0345584603 L9.22595778e-06,0.0345584603 L9.22595778e-06,3.61513845 L3.90180516,3.611939 L4.92551744,3.611939 C7.48069257,3.611939 9.43018358,4.19250514 10.7186347,5.33626264 C12.1516566,6.61941822 12.8781547,8.32085694 12.8781547,10.3932536 C12.8781547,12.4473424 12.1433532,14.1347835 10.6956159,15.4079408 C9.98683174,16.0257894 9.18315856,16.4831324 8.31342752,16.7650836 C7.42409132,17.0366366 6.2843165,17.174435 4.92551744,17.174435 L3.90180516,17.174435 L3.90180516,12.2014739 L9.22595778e-06,12.2014739 L9.22595778e-06,20.7519488 L4.68375121,20.7519488 C6.81951431,20.7519488 8.50103737,20.5583823 9.67397952,20.1786259 C10.946193,19.7942035 12.1769357,19.1027233 13.3325331,18.1232929 C15.6379154,16.1611882 16.8067059,13.5605274 16.8067059,10.3932536 C16.8067059,7.23708905 15.6845065,4.65060359 13.4717989,2.70631804" id="Fill-2" fill="#FFFFFF" mask="url(#mask-2)"></path>
                        </g>
                        <path d="M28.3700831,18.0348193 C28.0071339,18.3151263 27.5463896,18.4827417 27.0450049,18.4827417 C25.8741386,18.4827417 24.924926,17.5684112 24.924926,16.4404732 C24.924926,15.8304899 25.202535,15.2829847 25.6426593,14.9087384 C25.8436468,14.7378791 26.4168556,14.2628947 26.9040323,13.8601644 C27.7596937,14.8009348 29.6813224,16.9119026 29.6813224,16.9119026 C29.6813224,16.9119026 28.5744381,17.8770244 28.3700831,18.0348193 L28.3700831,18.0348193 Z M27.3125577,7.02325941 C28.2816062,7.02325941 29.0671504,7.77997282 29.0671504,8.71341118 C29.0671504,9.64689399 27.3936539,10.9801742 27.2120409,10.9801742 C27.030474,10.9801742 25.5580112,9.64689399 25.5580112,8.71341118 C25.5580112,7.77997282 26.3435554,7.02325941 27.3125577,7.02325941 L27.3125577,7.02325941 Z M35.7609518,20.2413706 C35.7609518,20.2413706 34.3613278,18.7418524 32.8001574,17.0624544 C34.1143951,15.8184475 34.2134357,15.7329512 34.2134357,15.7329512 L32.6233419,14.2012165 L32.1208962,14.6852215 L31.3144553,15.4620648 C29.8467438,13.8784279 28.5866163,12.5091095 28.6056679,12.4962228 C28.6873177,12.4409435 28.7725655,12.3793542 28.860535,12.3120325 C29.1410041,12.0974474 29.4414013,11.8303381 29.706417,11.5599849 C30.0574185,11.2018692 30.3479439,10.8397097 30.5699666,10.4835047 C30.9404811,9.88902984 31.1283677,9.29353295 31.1283677,8.71341118 C31.1283677,8.21807473 31.027159,7.73651368 30.8276476,7.28205904 C30.6353325,6.84413487 30.3604912,6.45122513 30.0107352,6.11430569 C29.6609791,5.77734182 29.2530995,5.51258766 28.7984905,5.32737529 C28.3267211,5.13514191 27.8267665,5.03769212 27.3125577,5.03769212 C26.7983489,5.03769212 26.2984404,5.13514191 25.8266711,5.32737529 C25.3720159,5.51258766 24.9641824,5.77734182 24.6144263,6.11430569 C24.2646242,6.45122513 23.9897829,6.84413487 23.7975139,7.28205904 C23.5979565,7.73651368 23.4967938,8.21807473 23.4967938,8.71341118 C23.4967938,9.59632497 23.9137149,10.5240754 24.7360245,11.4708893 C24.7769877,11.5180811 25.026227,11.7935445 25.4128869,12.2195152 C24.8982168,12.5782086 24.3906046,12.9466337 24.0838415,13.207433 C23.6134099,13.6074082 23.2418345,14.0880361 22.9795866,14.6359412 C22.7072825,15.2046872 22.5692622,15.8118265 22.5692622,16.4404732 C22.5692622,17.0215281 22.687908,17.5864081 22.9219705,18.1193824 C23.1474991,18.6330713 23.4699002,19.0939248 23.8801785,19.4891453 C24.2904568,19.8843657 24.7688689,20.1949342 25.3021292,20.4122299 C25.8554561,20.6376575 26.4418118,20.7519488 27.0450049,20.7519488 C27.5615202,20.7519488 28.0689478,20.6673412 28.5531261,20.5004368 C29.0208822,20.3391758 29.4550557,20.1053052 29.8435147,19.8053572 C29.9918681,19.6907548 30.5201464,19.2053277 31.1949791,18.5742815 C32.0914654,19.5586888 32.7133411,20.2413706 32.7133411,20.2413706 L35.7609518,20.2413706 Z" id="Fill-5" fill="#FFFFFF"></path>
                    </g>
                </g>
            </g>
        </g>
    </g>
</svg>