<?xml version="1.0" encoding="utf-8"?>
<!-- Generator: Adobe Illustrator 18.0.0, SVG Export Plug-In . SVG Version: 6.00 Build 0)  -->
<!DOCTYPE svg PUBLIC "-//W3C//DTD SVG 1.1//EN" "http://www.w3.org/Graphics/SVG/1.1/DTD/svg11.dtd">
<svg version="1.1" id="图层_1" xmlns="http://www.w3.org/2000/svg" xmlns:xlink="http://www.w3.org/1999/xlink" x="0px" y="0px"
	 viewBox="0 0 44 44" enable-background="new 0 0 44 44" xml:space="preserve">
<path fill-rule="evenodd" clip-rule="evenodd" fill="#ffffff" d="M42.5,8.3L29.5,1c0,0-0.1,0-0.1,0c0,0-0.1,0-0.1,0
	c-0.1-0.1-0.3-0.1-0.4-0.1c0,0,0,0,0,0c0,0,0,0,0,0c-0.1,0-0.3,0-0.4,0.1c0,0-0.1,0-0.1,0c0,0,0,0-0.1,0L15.8,7.9L2.6,1
	c-0.4-0.2-0.8-0.2-1.2,0c-0.4,0.2-0.6,0.6-0.6,1V36c0,0.5,0.3,0.9,0.7,1.1l13.6,5.8c0.2,0.1,0.4,0.1,0.5,0.1c0,0,0.1,0,0.1,0
	c0.2,0,0.4-0.1,0.6-0.2l12.2-4.3L41.5,43c0.1,0,0.3,0.1,0.4,0.1c0.2,0,0.5-0.1,0.7-0.2c0.3-0.2,0.5-0.6,0.5-1V9.4
	C43.1,8.9,42.9,8.5,42.5,8.3z M17.1,9.9l10.6-5.8v32.2L17.1,40V9.9z M3.3,4.1L14.6,10V40L3.3,35.2V4.1z M40.7,40.1l-10.6-3.7V4.2
	l10.6,5.9V40.1z"/>
</svg>
