<?xml version="1.0" encoding="UTF-8"?>
<svg width="24px" height="24px" viewBox="0 0 24 24" version="1.1" xmlns="http://www.w3.org/2000/svg" xmlns:xlink="http://www.w3.org/1999/xlink">
    <!-- Generator: Sketch 43.1 (39012) - http://www.bohemiancoding.com/sketch -->
    <title>Group 7</title>
    <desc>Created with Sketch.</desc>
    <defs></defs>
    <g id="Page-1" stroke="none" stroke-width="1" fill="none" fill-rule="evenodd">
        <g id="入住-前置" transform="translate(-24.000000, -807.000000)">
            <g id="Group-7" transform="translate(24.000000, 807.000000)">
                <g id="导航" transform="translate(3.000000, 3.000000)" fill-rule="nonzero" fill="#444444">
                    <path d="M10.8975104,17.96166 C10.8902249,17.96166 10.8829395,17.9614954 10.8756128,17.9611252 C10.692632,17.9517059 10.5362822,17.8262104 10.4876917,17.6496899 L8.30410494,9.71649029 L0.323208402,7.49319207 C0.147019093,7.44410033 0.0220133765,7.28781709 0.0129373944,7.10520902 C0.00386141229,6.92264206 0.112793792,6.75475943 0.283282311,6.68849485 L17.4016972,0.0347447007 C17.5587467,-0.0263166125 17.7369529,0.01113459 17.8561755,0.130213412 C17.9752952,0.249271674 18.0128134,0.427457993 17.9517306,0.584378801 L11.2933756,17.690987 C11.2296173,17.854777 11.0718887,17.96166 10.8975104,17.96166 Z M1.78063425,7.01763775 L8.7640782,8.96304427 C8.90785329,9.00310739 9.02003738,9.11562558 9.05965478,9.25942508 L10.9666813,16.1877763 L16.8096591,1.17602986 L1.78063425,7.01763775 Z" id="Shape"></path>
                </g>
                <rect id="Rectangle-9" x="0" y="0" width="24" height="24"></rect>
            </g>
        </g>
    </g>
</svg>