<?xml version="1.0" encoding="UTF-8"?>
<svg width="50px" height="49px" viewBox="0 0 50 49" version="1.1" xmlns="http://www.w3.org/2000/svg" xmlns:xlink="http://www.w3.org/1999/xlink">
    <!-- Generator: Sketch 43.1 (39012) - http://www.bohemiancoding.com/sketch -->
    <title>icon-shouji48*48#444444</title>
    <desc>Created with Sketch.</desc>
    <defs></defs>
    <g id="Page-1" stroke="none" stroke-width="1" fill="none" fill-rule="evenodd">
        <g id="入住-控制-退房弹窗" transform="translate(-132.000000, -309.000000)">
            <g id="icon-shouji48*48#444444" transform="translate(132.000000, 309.000000)">
                <rect id="Rectangle-Copy" x="0" y="0" width="50" height="49"></rect>
                <g id="icon-shouji" transform="translate(15.306122, 10.000000)" fill="#444444" fill-rule="nonzero">
                    <path d="M16.2611766,0 L3.1256408,0 C2.70315291,0 2.29927044,0.076720885 1.93358734,0.216231031 C1.58064914,0.349549321 1.25821393,0.542528656 0.983333787,0.780463411 L0.919679936,0.838576517 C0.630395588,1.10289115 0.396256722,1.41906253 0.236680783,1.7678056 C0.0839538855,2.10261703 0,2.46996792 0,2.85515262 L0,27.1456536 C0,27.5300643 0.0839538855,27.8974152 0.236680783,28.2322266 C0.396256722,28.5809375 0.630395588,28.8971734 0.919679936,29.1614235 L0.985028409,29.2211168 C1.25997918,29.4582776 1.58149643,29.6504829 1.93358734,29.7838012 C2.29927044,29.9232791 2.70315291,30 3.1256408,30 L16.2611766,30 C16.6836999,30 17.0866997,29.9232791 17.4532654,29.7838012 C17.8044737,29.6512569 18.1252143,29.4590516 18.4000944,29.222697 L18.4671022,29.1614557 C18.7564218,28.8972056 18.990596,28.5809697 19.1492187,28.2322589 C19.3019456,27.8974152 19.3867821,27.5300966 19.3867821,27.1456859 L19.3867821,2.85515262 C19.3867821,2.46996792 19.3019809,2.10261703 19.1492187,1.7678056 C18.9906313,1.41906253 18.7564571,1.10285888 18.4671022,0.838576517 L18.4017537,0.7788832 C18.1268736,0.541754685 17.8052857,0.349549321 17.4532301,0.216231031 C17.0866997,0.076720885 16.6836998,0 16.2611766,0 L16.2611766,0 Z M9.69346166,24.518374 C10.6877751,24.518374 11.4938101,25.2546237 11.4938101,26.1629553 C11.4938101,27.0712546 10.6877751,27.8075366 9.69346166,27.8075366 C8.69904229,27.8075366 7.89307789,27.0712546 7.89307789,26.1629553 C7.89307793,25.2546237 8.69904233,24.518374 9.69346166,24.518374 L9.69346166,24.518374 Z M17.9088335,22.2979505 L1.4771366,22.2979505 L1.10806428,22.2979505 L1.10806428,21.9600109 L1.10806428,2.85515262 C1.10806428,2.60789782 1.16324509,2.36999534 1.26170909,2.15221633 C1.36430372,1.92437559 1.51448867,1.72130224 1.69775388,1.55389652 L1.80550296,1.45466567 L1.81821254,1.45466567 C1.97778848,1.33066742 2.15935908,1.22837286 2.35618117,1.15316768 C2.59455654,1.06248287 2.85503252,1.01210959 3.12567612,1.01210959 L16.261212,1.01210959 C16.5318556,1.01210959 16.7914842,1.06248287 17.0298596,1.15316768 C17.2275996,1.22837286 17.4091349,1.33066739 17.5686403,1.45466567 L17.5805025,1.45466567 L17.6890989,1.55389652 C17.8723641,1.72130221 18.0217018,1.92434332 18.1252496,2.15221633 C18.2236077,2.36999534 18.2788238,2.60789785 18.2788238,2.85515262 L18.2788238,21.9600432 L18.2788238,22.2979828 L17.9088335,22.2979828 L17.9088335,22.2979505 Z M1.4771366,23.3101246 L17.9088335,23.3101246 L18.2787885,23.3101246 L18.2787885,23.647258 L18.2787885,27.1456536 C18.2787885,27.3928761 18.2236076,27.6300691 18.1252143,27.8477837 C18.0216664,28.0756567 17.8723641,28.2786655 17.6890636,28.4468775 L17.5804672,28.5453021 L17.5686049,28.5453021 C17.4090996,28.6693003 17.2275643,28.7716271 17.0298243,28.8468001 C16.7914136,28.9374849 16.5318203,28.9878582 16.2611766,28.9878582 L3.1256408,28.9878581 C2.85499719,28.9878581 2.59452125,28.9374526 2.35614584,28.8468001 C2.15932375,28.7716271 1.97775315,28.6693003 1.81817722,28.5453021 L1.80546764,28.5453021 L1.69771855,28.4468774 C1.51445337,28.2786655 1.36426839,28.0756566 1.26167376,27.8477836 C1.16320976,27.6300369 1.10802895,27.3928761 1.10802895,27.1456536 L1.10802895,23.647258 L1.10802895,23.3101246 L1.4771366,23.3101246 Z"></path>
                </g>
            </g>
        </g>
    </g>
</svg>