<?xml version="1.0" encoding="UTF-8"?>
<svg width="100px" height="100px" viewBox="0 0 100 100" version="1.1" xmlns="http://www.w3.org/2000/svg" xmlns:xlink="http://www.w3.org/1999/xlink">
    <!-- Generator: Sketch 43.1 (39012) - http://www.bohemiancoding.com/sketch -->
    <title>qietu-guanying100*100#444444</title>
    <desc>Created with Sketch.</desc>
    <defs></defs>
    <g id="Page-1" stroke="none" stroke-width="1" fill="none" fill-rule="evenodd">
        <g id="入住-客控-光照-场景模式" transform="translate(-24.000000, -402.000000)">
            <g id="qietu-guanying100*100#444444" transform="translate(24.000000, 402.000000)">
                <rect id="Rectangle-44" fill="#F2F2F2" x="0" y="0" width="100" height="100" rx="50"></rect>
                <text id="观影" font-family="MicrosoftYaHei, Microsoft YaHei" font-size="12" font-weight="normal" line-spacing="12" fill="#444444">
                    <tspan x="38" y="81">观影</tspan>
                </text>
                <path d="M50.015876,36.8756589 C51.6709282,36.8756589 53.015876,35.5307112 53.015876,33.8756589 C53.015876,32.2206066 51.6709282,30.8756589 50.015876,30.8756589 C48.3608237,30.8756589 47.015876,32.2206066 47.015876,33.8756589 C47.015876,35.5307112 48.3608237,36.8756589 50.015876,36.8756589 L50.015876,36.8756589 Z M50.015876,32.0856434 C51.004155,32.0856434 51.8098605,32.8913488 51.8098605,33.8796279 C51.8098605,34.867907 51.004155,35.6736124 50.015876,35.6736124 C49.0275969,35.6736124 48.2218915,34.867907 48.2218915,33.8796279 C48.2218915,32.8873798 49.0275969,32.0856434 50.015876,32.0856434 L50.015876,32.0856434 Z" id="Shape" fill="#444444" fill-rule="nonzero"></path>
                <path d="M53.015876,48.183876 C53.015876,46.5288237 51.6709282,45.183876 50.015876,45.183876 C48.3608237,45.183876 47.015876,46.5288237 47.015876,48.183876 C47.015876,49.8389282 48.3608237,51.183876 50.015876,51.183876 C51.6709282,51.183876 53.015876,49.8389282 53.015876,48.183876 L53.015876,48.183876 Z M48.2218915,48.183876 C48.2218915,47.1955969 49.0275969,46.3898915 50.015876,46.3898915 C51.004155,46.3898915 51.8098605,47.1955969 51.8098605,48.183876 C51.8098605,49.172155 51.004155,49.9778605 50.015876,49.9778605 C49.0275969,49.9778605 48.2218915,49.172155 48.2218915,48.183876 L48.2218915,48.183876 Z" id="Shape" fill="#444444" fill-rule="nonzero"></path>
                <path d="M60.1560892,40.9603101 C60.1560892,39.3052597 58.811143,37.9603134 57.1560926,37.9603134 C55.5010421,37.9603134 54.1560959,39.3052597 54.1560959,40.9603101 C54.1526116,42.6153605 55.5010421,43.9603067 57.1560926,43.9603067 C58.811143,43.9603067 60.1560892,42.6153605 60.1560892,40.9603101 Z M57.156093,39.1663256 C58.1443721,39.1663256 58.9500775,39.972031 58.9500775,40.9603101 C58.9500775,41.9485891 58.1443721,42.7542946 57.156093,42.7542946 C56.167814,42.7542946 55.3621085,41.9485891 55.3621085,40.9603101 C55.3621085,39.972031 56.163845,39.1663256 57.156093,39.1663256 L57.156093,39.1663256 Z" id="Shape" fill="#444444" fill-rule="nonzero"></path>
                <path d="M39.8131628,41.0684806 C39.8131628,42.7235329 41.1581105,44.0684806 42.8131628,44.0684806 C44.4682151,44.0684806 45.8131628,42.7235329 45.8131628,41.0684806 C45.8131628,39.4134284 44.4647307,38.0684806 42.8131628,38.0684806 C41.1581105,38.0684806 39.8131628,39.4134284 39.8131628,41.0684806 Z M42.8131628,42.6399092 C41.945567,42.6399092 41.2382499,41.9325921 41.2382499,41.0649963 C41.2382499,40.1974005 41.945567,39.4900834 42.8131628,39.4900834 C43.6807586,39.4900834 44.3880757,40.1974005 44.3880757,41.0649963 C44.3845914,41.9360764 43.6807586,42.6399092 42.8131628,42.6399092 L42.8131628,42.6399092 Z" id="Shape" fill="#444444" fill-rule="nonzero"></path>
                <path d="M56.6124204,54.4954852 C58.0134747,53.7810666 59.4819225,52.7323411 60.6051473,51.6091163 C61.9823876,50.231876 63.0619535,48.6323721 63.816062,46.8463256 C64.5979535,45.0007442 64.9948527,43.036093 64.9948527,41.015876 C64.9948527,38.9956589 64.5979535,37.0310078 63.816062,35.1854264 C63.0619535,33.4033488 61.9823876,31.799876 60.6051473,30.4226357 C59.227907,29.0453953 57.6284031,27.9658295 55.8423566,27.2117209 C53.9967752,26.4298295 52.032124,26.0329302 50.011907,26.0329302 C47.9916899,26.0329302 46.0270388,26.4298295 44.1814574,27.2117209 C42.3993798,27.9658295 40.795907,29.0453953 39.4186667,30.4226357 C38.0414264,31.799876 36.9618605,33.3993798 36.2077519,35.1854264 C35.4337984,37.0310078 35.0368992,38.9956589 35.0368992,41.015876 C35.0368992,43.036093 35.4337984,45.0007442 36.2156899,46.8463256 C36.9697984,48.6284031 38.0493643,50.231876 39.4266047,51.6091163 C40.803845,52.9863566 42.4033488,54.0659225 44.1893953,54.820031 C46.0349767,55.6019225 47.9996279,55.9988217 50.019845,55.9988217 L50.2500465,55.9988217 L63.9033798,55.9988217 C64.351876,55.9988217 64.7170233,55.6896121 64.7170233,55.241116 C64.7130543,54.7886509 64.351876,54.4954852 63.9033798,54.4954852 L56.6124204,54.4954852 Z M37.4364329,46.3276986 C36.7263081,44.6436883 36.3651589,42.8582315 36.3651589,41.011907 C36.3651589,39.1655824 36.7263081,37.3801257 37.4364329,35.6961154 C38.1222106,34.0689151 39.1082697,32.6121447 40.3621473,31.3542093 C41.6160248,30.1003317 43.076853,29.1142727 44.7040534,28.428495 C46.3880637,27.7183701 48.1735204,27.3572209 50.019845,27.3572209 C51.8621117,27.3572209 53.6516262,27.7183701 55.3356366,28.428495 C56.9628369,29.1142727 58.4236651,30.1003317 59.6775427,31.3542093 C60.9314202,32.6080868 61.9174793,34.0689151 62.603257,35.6961154 C63.3133818,37.3801257 63.674531,39.1655824 63.674531,41.011907 C63.674531,42.8582315 63.3133818,44.6436883 62.603257,46.3276986 C61.9174793,47.9548989 60.9314202,49.4157271 59.6775427,50.6696047 C58.4236651,51.9234822 56.9628369,52.9095413 55.3356366,53.595319 C53.6516262,54.3054438 51.8661695,54.666593 50.019845,54.666593 C48.1775783,54.666593 46.3880637,54.3054438 44.7040534,53.595319 C43.076853,52.9095413 41.6160248,51.9234822 40.3621473,50.6696047 C39.1082697,49.4157271 38.1222106,47.9548989 37.4364329,46.3276986 Z" id="Shape" fill="#444444" fill-rule="nonzero"></path>
            </g>
        </g>
    </g>
</svg>