<?xml version="1.0" encoding="UTF-8"?>
<svg width="26px" height="26px" viewBox="0 0 26 26" version="1.1" xmlns="http://www.w3.org/2000/svg" xmlns:xlink="http://www.w3.org/1999/xlink">
    <!-- Generator: Sketch 43.1 (39012) - http://www.bohemiancoding.com/sketch -->
    <title>Group 12</title>
    <desc>Created with Sketch.</desc>
    <defs></defs>
    <g id="Page-1" stroke="none" stroke-width="1" fill="none" fill-rule="evenodd">
        <g id="入住-控制" transform="translate(-314.000000, -310.000000)">
            <g id="Group-12" transform="translate(303.000000, 299.000000)">
                <g id="icon-yingshi" transform="translate(11.000000, 11.000000)" fill="#169488">
                    <g id="Group">
                        <path d="M13.0137592,9.42557106 C14.4481378,9.42557106 15.6137592,8.25994969 15.6137592,6.82557106 C15.6137592,5.39119243 14.4481378,4.22557106 13.0137592,4.22557106 C11.5793805,4.22557106 10.4137592,5.39119243 10.4137592,6.82557106 C10.4137592,8.25994969 11.5793805,9.42557106 13.0137592,9.42557106 L13.0137592,9.42557106 Z M13.0137592,5.27422429 C13.8702677,5.27422429 14.5685457,5.97250233 14.5685457,6.82901085 C14.5685457,7.68551938 13.8702677,8.38379742 13.0137592,8.38379742 C12.1572506,8.38379742 11.4589726,7.68551938 11.4589726,6.82901085 C11.4589726,5.96906253 12.1572506,5.27422429 13.0137592,5.27422429 L13.0137592,5.27422429 Z" id="Shape" fill-rule="nonzero"></path>
                        <path d="M15.6137592,19.2260258 C15.6137592,17.7916472 14.4481378,16.6260258 13.0137592,16.6260258 C11.5793805,16.6260258 10.4137592,17.7916472 10.4137592,19.2260258 C10.4137592,20.6604045 11.5793805,21.8260258 13.0137592,21.8260258 C14.4481378,21.8260258 15.6137592,20.6604045 15.6137592,19.2260258 L15.6137592,19.2260258 Z M11.4589726,19.2260258 C11.4589726,18.3695173 12.1572506,17.6712393 13.0137592,17.6712393 C13.8702677,17.6712393 14.5685457,18.3695173 14.5685457,19.2260258 C14.5685457,20.0825344 13.8702677,20.7808124 13.0137592,20.7808124 C12.1572506,20.7808124 11.4589726,20.0825344 11.4589726,19.2260258 L11.4589726,19.2260258 Z" id="Shape" fill-rule="nonzero"></path>
                        <path d="M21.801944,12.9656021 C21.801944,11.531225 20.6363239,10.365605 19.2019469,10.365605 C17.7675699,10.365605 16.6019498,11.531225 16.6019498,12.9656021 C16.5989301,14.3999791 17.7675699,15.5655991 19.2019469,15.5655991 C20.6363239,15.5655991 21.801944,14.3999791 21.801944,12.9656021 Z M19.2019473,11.4108155 C20.0584558,11.4108155 20.7567339,12.1090935 20.7567339,12.9656021 C20.7567339,13.8221106 20.0584558,14.5203886 19.2019473,14.5203886 C18.3454388,14.5203886 17.6471607,13.8221106 17.6471607,12.9656021 C17.6471607,12.1090935 18.341999,11.4108155 19.2019473,11.4108155 L19.2019473,11.4108155 Z" id="Shape" fill-rule="nonzero"></path>
                        <path d="M4.17140775,13.0593499 C4.17140775,14.4937285 5.33702912,15.6593499 6.77140775,15.6593499 C8.20578638,15.6593499 9.37140775,14.4937285 9.37140775,13.0593499 C9.37140775,11.6249712 8.20276664,10.4593499 6.77140775,10.4593499 C5.33702912,10.4593499 4.17140775,11.6249712 4.17140775,13.0593499 Z M6.77140775,14.4212546 C6.01949138,14.4212546 5.40648325,13.8082465 5.40648325,13.0563301 C5.40648325,12.3044138 6.01949138,11.6914056 6.77140775,11.6914056 C7.52332413,11.6914056 8.13633226,12.3044138 8.13633226,13.0563301 C8.13331251,13.8112662 7.52332413,14.4212546 6.77140775,14.4212546 L6.77140775,14.4212546 Z" id="Shape" fill-rule="nonzero"></path>
                        <path d="M18.7307643,24.6960872 C19.9450114,24.0769244 21.2176661,23.1680289 22.1911276,22.1945674 C23.3847359,21.0009592 24.3203597,19.6147225 24.9739204,18.0668155 C25.6515597,16.4673116 25.995539,14.764614 25.995539,13.0137592 C25.995539,11.2629044 25.6515597,9.56020672 24.9739204,7.96070284 C24.3203597,6.41623566 23.3847359,5.02655917 22.1911276,3.8329509 C20.9975194,2.63934264 19.6112827,1.70371886 18.0633757,1.05015814 C16.4638718,0.372518863 14.7611742,0.0285395349 13.0103194,0.0285395349 C11.2594646,0.0285395349 9.55676693,0.372518863 7.95726305,1.05015814 C6.41279587,1.70371886 5.02311938,2.63934264 3.82951111,3.8329509 C2.63590284,5.02655917 1.70027907,6.41279587 1.04671835,7.96070284 C0.375958656,9.56020672 0.0319793282,11.2629044 0.0319793282,13.0137592 C0.0319793282,14.764614 0.375958656,16.4673116 1.05359793,18.0668155 C1.70715866,19.6112827 2.64278243,21.0009592 3.8363907,22.1945674 C5.02999897,23.3881757 6.41623566,24.3237995 7.96414264,24.9773602 C9.56364651,25.6549995 11.2663442,25.9989788 13.017199,25.9989788 L13.216707,25.9989788 L25.0495959,25.9989788 C25.4382925,25.9989788 25.7547535,25.7309971 25.7547535,25.3423005 C25.7513137,24.9501641 25.4382925,24.6960872 25.0495959,24.6960872 L18.7307643,24.6960872 Z M2.11157522,17.6173388 C1.4961337,16.1578632 1.18313773,14.6104673 1.18313773,13.0103194 C1.18313773,11.4101714 1.4961337,9.8627756 2.11157522,8.4033 C2.70591589,6.99305971 3.5605004,5.73052539 4.64719429,4.6403147 C5.73388817,3.55362081 6.9999393,2.6990363 8.41017958,2.10469563 C9.86965519,1.48925411 11.417051,1.17625814 13.017199,1.17625814 C14.6138301,1.17625814 16.1647427,1.48925411 17.6242183,2.10469563 C19.0344586,2.6990363 20.3005098,3.55362081 21.3872036,4.6403147 C22.4738975,5.72700858 23.328482,6.99305971 23.9228227,8.4033 C24.5382642,9.8627756 24.8512602,11.4101714 24.8512602,13.0103194 C24.8512602,14.6104673 24.5382642,16.1578632 23.9228227,17.6173388 C23.328482,19.027579 22.4738975,20.2936302 21.3872036,21.3803241 C20.3005098,22.4670179 19.0344586,23.3216025 17.6242183,23.9159431 C16.1647427,24.5313846 14.6173469,24.8443806 13.017199,24.8443806 C11.4205678,24.8443806 9.86965519,24.5313846 8.41017958,23.9159431 C6.9999393,23.3216025 5.73388817,22.4670179 4.64719429,21.3803241 C3.5605004,20.2936302 2.70591589,19.027579 2.11157522,17.6173388 Z" id="Shape" fill-rule="nonzero"></path>
                    </g>
                </g>
                <rect id="Rectangle-2" x="0" y="0" width="48" height="48"></rect>
            </g>
        </g>
    </g>
</svg>