<?xml version="1.0" encoding="UTF-8"?>
<svg width="48px" height="48px" viewBox="0 0 48 48" version="1.1" xmlns="http://www.w3.org/2000/svg" xmlns:xlink="http://www.w3.org/1999/xlink">
    <!-- Generator: Sketch 43.2 (39069) - http://www.bohemiancoding.com/sketch -->
    <title>icon-lock copy</title>
    <desc>Created with Sketch.</desc>
    <defs></defs>
    <g id="Page-1" stroke="none" stroke-width="1" fill="none" fill-rule="evenodd">
        <g id="入住-控制" transform="translate(-69.000000, -667.000000)">
            <g id="icon-lock-copy" transform="translate(69.000000, 667.000000)">
                <g id="icon-lock" transform="translate(0.000000, 0.000000)">
                    <rect id="Rectangle-65" x="0" y="0" width="48" height="48"></rect>
                    <path d="M37.6919218,21.6989741 C39.601772,21.6989741 41.1555932,23.2477887 41.1555932,25.1515657 L41.1555932,42.5486366 C41.1555932,44.4517117 39.6018307,46 37.6919218,46 L9.46361277,46 C7.55376253,46 6,44.4517117 6,42.5486366 L6,25.1515657 C6,23.2477887 7.55376253,21.6989741 9.46361277,21.6989741 L13.5372677,21.6989741 L13.5372677,12.013633 C13.5372677,6.49209483 18.0413957,2 23.5777673,2 C29.1141389,2 33.6183255,6.49209483 33.6183255,12.013633 L33.6183255,16.0227358 C33.6183255,16.6687917 33.0930521,17.1924913 32.4450547,17.1924913 C31.7970572,17.1924913 31.2717839,16.6687917 31.2717839,16.0227358 L31.2717839,12.013633 C31.2717839,7.78210116 27.8202558,4.33951089 23.5777673,4.33951089 C19.3352787,4.33951089 15.8838093,7.78210116 15.8838093,12.013633 L15.8838093,21.6989741 L37.6919218,21.6989741 Z M38.8033303,42.5415657 L38.8033304,25.1475286 C38.8033304,24.5338649 38.3022551,24.0346419 37.6863954,24.0346419 L9.46300885,24.0346419 C8.84714909,24.0346419 8.34613248,24.5338649 8.34613248,25.1475286 L8.34613243,42.5415657 C8.34613243,43.1545861 8.84714903,43.6532243 9.46300879,43.6532243 L37.6863953,43.6532243 C38.3022551,43.6532243 38.8033303,43.1545276 38.8033303,42.5415657 Z M23.5747021,28.992312 C24.6280569,28.992312 25.481052,29.8428098 25.481052,30.8923653 L25.481052,36.7953255 C25.481052,37.8449979 24.6280569,38.6960805 23.5747021,38.6960805 C22.5213473,38.6960805 21.6683522,37.8449979 21.6683522,36.7953255 L21.6683522,30.8923653 C21.6683522,29.8428683 22.5213473,28.992312 23.5747021,28.992312 Z" id="Combined-Shape" fill="#444444"></path>
                </g>
            </g>
        </g>
    </g>
</svg>