<?xml version="1.0" encoding="UTF-8"?>
<svg width="13px" height="15px" viewBox="0 0 13 15" version="1.1" xmlns="http://www.w3.org/2000/svg" xmlns:xlink="http://www.w3.org/1999/xlink">
    <!-- Generator: Sketch 43.1 (39012) - http://www.bohemiancoding.com/sketch -->
    <title>Group 4</title>
    <desc>Created with Sketch.</desc>
    <defs></defs>
    <g id="Page-1" stroke="none" stroke-width="1" fill="none" fill-rule="evenodd">
        <g id="入住-客服" transform="translate(-279.000000, -418.000000)">
            <g id="Group-4" transform="translate(273.000000, 413.000000)">
                <g id="Group-4-Copy" transform="translate(12.500000, 7.500000) scale(1, -1) translate(-12.500000, -7.500000) translate(6.000000, 4.000000)" fill="#FFFFFF">
                    <g id="icon-xiaosanjiao-copy" transform="translate(6.500000, 3.500000) scale(-1, -1) rotate(-90.000000) translate(-6.500000, -3.500000) translate(3.500000, -2.500000)">
                        <polygon id="Disclosure-Indicator-Copy" transform="translate(2.750000, 6.000000) rotate(-360.000000) translate(-2.750000, -6.000000) " points="-4.4408921e-16 0 5.5 6 -4.4408921e-16 12"></polygon>
                    </g>
                </g>
                <g id="Group-4-Copy-2" transform="translate(12.500000, 17.500000) scale(-1, 1) translate(-12.500000, -17.500000) translate(6.000000, 14.000000)" fill="#FFFFFF">
                    <g id="icon-xiaosanjiao-copy" transform="translate(6.500000, 3.500000) scale(-1, -1) rotate(-90.000000) translate(-6.500000, -3.500000) translate(3.500000, -2.500000)">
                        <polygon id="Disclosure-Indicator-Copy" transform="translate(2.750000, 6.000000) rotate(-360.000000) translate(-2.750000, -6.000000) " points="-4.4408921e-16 0 5.5 6 -4.4408921e-16 12"></polygon>
                    </g>
                </g>
                <rect id="Rectangle" x="0" y="0" width="24" height="24"></rect>
            </g>
        </g>
    </g>
</svg>