<?xml version="1.0" encoding="UTF-8"?>
<svg width="13px" height="17px" viewBox="0 0 13 17" version="1.1" xmlns="http://www.w3.org/2000/svg" xmlns:xlink="http://www.w3.org/1999/xlink">
    <!-- Generator: Sketch 43.2 (39069) - http://www.bohemiancoding.com/sketch -->
    <title>Group 2</title>
    <desc>Created with Sketch.</desc>
    <defs></defs>
    <g id="Page-1" stroke="none" stroke-width="1" fill="none" fill-rule="evenodd">
        <g id="酒店详情" transform="translate(-21.000000, -402.000000)">
            <g id="Group-2" transform="translate(15.000000, 398.000000)">
                <rect id="Rectangle" x="0" y="0" width="24" height="24"></rect>
                <g id="定位-2" transform="translate(6.000000, 4.000000)" fill-rule="nonzero" fill="#000000">
                    <path d="M9.61338084,6.26695884 C9.61338084,7.98580434 8.21998148,9.37918697 6.50116944,9.37918697 C4.78230722,9.37918697 3.38892459,7.98578761 3.38892459,6.26695884 C3.38892459,4.54813008 4.78232395,3.15473072 6.50116944,3.15473072 C8.21996474,3.15473073 9.61338084,4.54811336 9.61338084,6.26695884 Z M6.50113599,3.95741083 C5.22558931,3.95741083 4.19158796,4.99142892 4.19158796,6.26695886 C4.19158796,7.54248881 5.22558931,8.57650689 6.50113599,8.57650689 C7.77666593,8.57650689 8.81066729,7.54248881 8.81066729,6.26695886 C8.81066729,4.99142892 7.77666592,3.95741083 6.50113599,3.95741083 Z" id="Shape"></path>
                    <path d="M12.9871506,6.4865668 C12.9871506,10.068683 6.48241141,16.7446541 6.48241141,16.7446541 C6.48241141,16.7446541 0.0151381157,10.068683 0.0151381157,6.4865668 C0.0151381157,2.90443389 2.9190198,0.000552197484 6.50115272,0.000552197484 C10.0832689,0.000552197484 12.9871506,2.90443389 12.9871506,6.4865668 Z M6.50113599,0.839660712 C3.36258638,0.839660712 0.81828675,3.38396032 0.81828675,6.52250995 C0.81828675,9.66104283 6.49507853,15.5103383 6.49507853,15.5103383 C6.49507853,15.5103383 12.1839685,9.66104283 12.1839685,6.52250995 C12.1839852,3.38396032 9.6396856,0.839660712 6.50113599,0.839660712 Z" id="Shape"></path>
                </g>
            </g>
        </g>
    </g>
</svg>