<?xml version="1.0" standalone="no"?><!DOCTYPE svg PUBLIC "-//W3C//DTD SVG 1.1//EN" "http://www.w3.org/Graphics/SVG/1.1/DTD/svg11.dtd"><svg width="64" height="64" viewBox="0 0 64 64" version="1.1" xmlns="http://www.w3.org/2000/svg" xmlns:xlink="http://www.w3.org/1999/xlink"><defs><style type="text/css"><![CDATA[
@font-face { font-family: ifont; src: url("http://at.alicdn.com/t/font_1442373896_4754455.eot?#iefix") format("embedded-opentype"), url("http://at.alicdn.com/t/font_1442373896_4754455.woff") format("woff"), url("http://at.alicdn.com/t/font_1442373896_4754455.ttf") format("truetype"), url("http://at.alicdn.com/t/font_1442373896_4754455.svg#ifont") format("svg"); }

]]></style></defs><g class="transform-group"><g transform="scale(0.0625, 0.0625)"><path d="M928.194492 827.117934 660.641877 649.384997l-237.826594 0 0 236.96804c0 32.736589-26.618241 59.261709-59.45716 59.261709l-89.184205 0c-32.831756 0-59.456137-26.52512-59.456137-59.261709L214.717781 649.384997c0-1.955538 0.390903-3.764744 0.575098-5.64865C112.478236 624.130823 36.348348 552.596604 36.348348 441.995623c0-130.868583 106.48115-207.364815 237.82557-207.364815l386.467959 0L928.194492 56.897871c32.846082 0 59.458183 26.52512 59.458183 59.237149l0 651.747811C987.651652 800.592814 961.039551 827.117934 928.194492 827.117934zM274.173918 856.747765c0 16.356526 13.31219 29.606295 29.729092 29.606295l29.728068 0c16.422018 0 29.727045-13.248745 29.727045-29.606295l0-207.362768c-14.863523 0-43.033096 0-59.456137 0l-29.729092 0L274.172895 856.747765zM274.173918 293.892517c-61.050448-1.955538-178.369434 17.234523-178.369434 148.103106 0 130.893142 119.274524 148.128689 178.369434 148.128689l237.824547 0L511.998465 293.892517 274.173918 293.892517zM660.641877 528.539698c0-1.710968 0-3.51915 0-4.888334 0-25.719778 0 4.76656 0-52.024887 0-8.115841 0-17.455557 0-29.629831 0-130.868583 0 1.612731 0-148.103106l-89.185228 0 0 296.231795 89.185228 0C660.641877 557.876863 660.641877 539.614941 660.641877 528.539698zM928.194492 693.805696 928.194492 190.21011c0-24.545022 0-37.966707 0-74.075089L720.099037 264.261663c0 27.087938 0 34.715663 0 59.261709l0 236.969063c0 24.545022 0 11.538801 0 59.260685l208.094432 148.128689C928.194492 734.534306 928.194492 718.350718 928.194492 693.805696z" fill="#272636"></path></g></g></svg>