<?xml version="1.0" encoding="UTF-8"?>
<svg width="100px" height="100px" viewBox="0 0 100 100" version="1.1" xmlns="http://www.w3.org/2000/svg" xmlns:xlink="http://www.w3.org/1999/xlink">
    <!-- Generator: Sketch 43.1 (39012) - http://www.bohemiancoding.com/sketch -->
    <title>qietu-yuedu100*100#169488 copy</title>
    <desc>Created with Sketch.</desc>
    <defs></defs>
    <g id="Page-1" stroke="none" stroke-width="1" fill="none" fill-rule="evenodd">
        <g id="入住-客控-光照-场景模式" transform="translate(-138.000000, -535.000000)">
            <g id="qietu-yuedu100*100#169488-copy" transform="translate(138.000000, 535.000000)">
                <rect id="Rectangle-44-Copy" fill="#F2F2F2" x="0" y="0" width="100" height="100" rx="50"></rect>
                <text id="阅读" font-family="MicrosoftYaHei, Microsoft YaHei" font-size="12" font-weight="normal" line-spacing="12" fill="#444444">
                    <tspan x="38" y="81">阅读</tspan>
                </text>
                <path d="M60.780625,29.4407739 L49.36875,29.4407739 L42.5525,26.2634265 C42.1775,26.0892654 41.781875,26 41.375625,26 C39.8425,26 38.59375,27.2478423 38.59375,28.7815835 L38.59375,29.4913367 C36.56375,29.7953384 35,31.5431916 35,33.6543485 L35,51.6004312 C35,53.9250759 36.893125,55.8146301 39.219375,55.8146301 L50,55.8146301 L60.780625,55.8146301 C63.108125,55.8146301 65,53.9250759 65,51.6004312 L65,33.6543485 C65,31.330328 63.108125,29.4401497 60.780625,29.4407739 Z M39.845625,28.7815835 C39.845625,27.8358701 40.640625,27.2503393 41.375625,27.2503393 C41.5975,27.2503393 41.815,27.2996537 42.023125,27.3964099 L49.374375,30.8228264 L49.374375,53.4906096 L40.72875,49.461808 C40.1925,49.2096177 39.845625,48.6677832 39.845625,48.0747616 L39.845625,28.7815835 Z M36.251875,51.6004312 L36.251875,33.6537243 C36.251875,32.2335936 37.2575,31.0469261 38.59375,30.7591546 L38.59375,48.0753859 C38.59375,49.1509398 39.223125,50.1397253 40.19875,50.5941671 L48.71875,54.5636666 L39.219375,54.5636666 C37.5825,54.5636666 36.251875,53.2340497 36.251875,51.6004312 Z M63.748125,51.6004312 C63.748125,53.2346739 62.416875,54.5642908 60.780625,54.5642908 L50.614375,54.5642908 C50.61875,54.5330792 50.62625,54.5024917 50.62625,54.4712801 L50.62625,30.6904889 L60.780625,30.6904889 C62.416875,30.6904889 63.748125,32.0201058 63.748125,33.6543485 L63.748125,51.6004312 Z" id="Shape" fill="#444444" fill-rule="nonzero"></path>
            </g>
        </g>
    </g>
</svg>