<?xml version="1.0" encoding="utf-8"?>
<!-- Generator: Adobe Illustrator 18.0.0, SVG Export Plug-In . SVG Version: 6.00 Build 0)  -->
<!DOCTYPE svg PUBLIC "-//W3C//DTD SVG 1.1//EN" "http://www.w3.org/Graphics/SVG/1.1/DTD/svg11.dtd">
<svg version="1.1" id="图层_1" xmlns="http://www.w3.org/2000/svg" xmlns:xlink="http://www.w3.org/1999/xlink" x="0px" y="0px"
	 viewBox="0 0 19 19" enable-background="new 0 0 19 19" xml:space="preserve">
<g>
	<g>
		<g>
			<path fill="#999999" d="M8.6,1.5c3.9,0,7.1,3.2,7.1,7.1s-3.2,7.1-7.1,7.1s-7.1-3.2-7.1-7.1S4.7,1.5,8.6,1.5 M8.6,0
				C3.8,0,0,3.8,0,8.6s3.8,8.6,8.6,8.6s8.6-3.8,8.6-8.6S13.3,0,8.6,0L8.6,0z"/>
		</g>
	</g>
	<path fill="#999999" d="M17.8,18.8l-3.7-3.7c-0.3-0.3-0.3-0.7,0-1l0,0c0.3-0.3,0.7-0.3,1,0l3.7,3.7c0.3,0.3,0.3,0.7,0,1l0,0
		C18.5,19.1,18.1,19.1,17.8,18.8z"/>
</g>
</svg>
