<?xml version="1.0" encoding="UTF-8"?>
<svg width="16px" height="16px" viewBox="0 0 16 16" version="1.1" xmlns="http://www.w3.org/2000/svg" xmlns:xlink="http://www.w3.org/1999/xlink">
    <!-- Generator: Sketch 43.1 (39012) - http://www.bohemiancoding.com/sketch -->
    <title>Shape</title>
    <desc>Created with Sketch.</desc>
    <defs></defs>
    <g id="Page-1" stroke="none" stroke-width="1" fill="none" fill-rule="evenodd">
        <g id="首页-copy" transform="translate(-97.000000, -237.000000)" stroke-width="0.4" stroke="#444444" fill="#444444" fill-rule="nonzero">
            <g id="Group-20" transform="translate(98.000000, 238.000000)">
                <g id="搜索">
                    <g id="icon-sousuo">
                        <path d="M13.5721561,13.8766662 C13.4194885,14.0249853 13.1888933,14.0362458 13.0144631,13.9281097 C12.9714875,13.8986906 12.9512637,13.8928564 12.9351433,13.8766662 C12.9194076,13.8615044 12.9123916,13.8415016 12.8996967,13.8252758 L11.168964,12.1773605 C8.43168122,14.1639572 4.53601858,13.9594066 2.04647726,11.5494337 C-0.682159086,8.90742404 -0.682159086,4.62345929 2.04647726,1.98146736 C4.77571813,-0.660489119 9.20069821,-0.660489119 11.9304154,1.98146736 C14.6595829,4.62345931 14.6595829,8.90742404 11.9304154,11.5494337 C11.8985592,11.5801651 11.8636805,11.6056474 11.8318244,11.6365029 L13.474133,13.1982888 C13.5074363,13.215951 13.5433958,13.2326023 13.5721561,13.2609929 C13.7481067,13.4313187 13.7481067,13.7063581 13.5721561,13.8766662 Z M2.56374101,2.46254691 C0.113071869,4.83489031 0.113071869,8.68084903 2.56374101,11.0531038 C5.01433687,13.4249151 8.98728591,13.4249151 11.4384313,11.0531038 C13.8885692,8.68031704 13.8885692,4.83437603 11.4384313,2.46254691 C8.98728591,0.0902921925 5.01433687,0.0902921925 2.56374101,2.46254691 Z" id="Shape"></path>
                    </g>
                </g>
            </g>
        </g>
    </g>
</svg>