<?xml version="1.0" encoding="UTF-8"?>
<svg width="40px" height="40px" viewBox="0 0 40 40" version="1.1" xmlns="http://www.w3.org/2000/svg" xmlns:xlink="http://www.w3.org/1999/xlink">
    <!-- Generator: Sketch 43 (38999) - http://www.bohemiancoding.com/sketch -->
    <title>icon-kefu</title>
    <desc>Created with Sketch.</desc>
    <defs></defs>
    <g id="Page-1" stroke="none" stroke-width="1" fill="none" fill-rule="evenodd">
        <g id="入住-客服" transform="translate(-12.000000, -272.000000)">
            <g id="icon-kefu" transform="translate(12.000000, 272.000000)">
                <g>
                    <rect id="Rectangle-10-Copy-3" fill="#FCC02F" x="0" y="0" width="40" height="40" rx="20"></rect>
                    <path d="M30.920849,19.6850664 C30.66033,19.6850664 30.4489524,19.4737883 30.4489524,19.212868 C30.4489524,13.5620678 25.8509523,8.96558455 20.1996277,8.96558455 C14.5486488,8.96558455 9.95102095,13.5620678 9.95102095,19.212868 C9.95102095,19.4738148 9.73972318,19.6850664 9.47912436,19.6850664 C9.21852554,19.6850664 9.00722777,19.4737883 9.00722777,19.212868 C9.00722777,13.0416365 14.0281691,8.02116105 20.1996011,8.02116105 C26.3714053,8.02116105 31.392719,13.0416365 31.392719,19.212868 C31.3927456,19.4737883 31.1814478,19.6850664 30.920849,19.6850664 Z" id="Shape" fill="#FFFFFF" fill-rule="nonzero"></path>
                    <path d="M12.4033356,26.4072005 L11.0390742,26.4072005 C9.91871204,26.4072005 9.0072544,25.4953755 9.0072544,24.375197 L9.0072544,19.5028237 C9.0072544,18.3826453 9.91871204,17.4708202 11.0390742,17.4708202 L12.4033356,17.4708202 C13.5233521,17.4708202 14.4345172,18.3826453 14.4345172,19.5028237 L14.4345172,24.375197 C14.4345172,25.4953755 13.5233521,26.4072005 12.4033356,26.4072005 Z M11.0390742,18.4152437 C10.4391651,18.4152437 9.95102097,18.9030501 9.95102097,19.5028237 L9.95102097,24.375197 C9.95102097,24.9749707 10.4391651,25.462777 11.0390742,25.462777 L12.4033356,25.462777 C13.0028724,25.462777 13.490724,24.9749707 13.490724,24.375197 L13.490724,19.5028237 C13.490724,18.90305 13.0028724,18.4152437 12.4033356,18.4152437 L11.0390742,18.4152437 Z" id="Shape" fill="#FFFFFF" fill-rule="nonzero"></path>
                    <path d="M29.3616438,26.4072005 L27.9966644,26.4072005 C26.87593,26.4072005 25.9641001,25.4953755 25.9641001,24.375197 L25.9641,19.5028237 C25.9641,18.3826453 26.87593,17.4708202 27.9966644,17.4708202 L29.3616438,17.4708202 C30.4816336,17.4708202 31.3927456,18.3826453 31.3927456,19.5028237 L31.3927456,24.375197 C31.3927456,25.4953755 30.4816337,26.4072005 29.3616438,26.4072005 Z M27.9966378,18.4152437 C27.396383,18.4152437 26.9078666,18.9030501 26.9078666,19.5028237 L26.9078666,24.375197 C26.9078666,24.9749707 27.396383,25.462777 27.9966378,25.462777 L29.3616172,25.462777 C29.961154,25.462777 30.4489524,24.9749707 30.4489524,24.375197 L30.4489524,19.5028237 C30.4489524,18.90305 29.961154,18.4152437 29.3616172,18.4152437 L27.9966378,18.4152437 Z" id="Shape" fill="#FFFFFF" fill-rule="nonzero"></path>
                    <path d="M22.8895127,29.8388355 C22.7360253,29.8388355 22.5853567,29.7636145 22.4945991,29.625377 C22.3516953,29.4077174 22.4123244,29.1149166 22.6303764,28.9716537 L27.8619508,25.5400986 C28.0785403,25.3989629 28.3717406,25.4578315 28.5153624,25.6762355 C28.6581865,25.8938951 28.5975574,26.1866959 28.3795054,26.3299588 L23.1480108,29.7615139 C23.068209,29.8132832 22.9785418,29.8388355 22.8895127,29.8388355 Z" id="Shape" fill="#FFFFFF" fill-rule="nonzero"></path>
                    <path d="M21.7192113,31.3121723 L19.3799647,31.3121723 C18.4748092,31.3121723 17.7388569,30.575464 17.7388569,29.6707648 L17.7388569,29.5204824 C17.7388569,28.6157833 18.4748359,27.879075 19.3799647,27.879075 L21.7192113,27.879075 C22.6247124,27.879075 23.3610636,28.6157833 23.3610636,29.5204824 L23.3610636,29.6707648 C23.361037,30.575464 22.6247124,31.3121723 21.7192113,31.3121723 Z M19.3799381,28.8234985 C18.9952623,28.8234985 18.6825969,29.136188 18.6825969,29.5204824 L18.6825969,29.6707648 C18.6825969,30.0550592 18.9952623,30.3677488 19.3799381,30.3677488 L21.7191847,30.3677488 C22.1042328,30.3677488 22.4172438,30.0550592 22.4172438,29.6707648 L22.4172438,29.5204824 C22.4172438,29.136188 22.1042328,28.8234985 21.7191847,28.8234985 L19.3799381,28.8234985 Z" id="Shape" fill="#FFFFFF" fill-rule="nonzero"></path>
                </g>
            </g>
        </g>
    </g>
</svg>