<?xml version="1.0" encoding="UTF-8"?>
<svg width="40px" height="40px" viewBox="0 0 40 40" version="1.1" xmlns="http://www.w3.org/2000/svg" xmlns:xlink="http://www.w3.org/1999/xlink">
    <!-- Generator: Sketch 43 (38999) - http://www.bohemiancoding.com/sketch -->
    <title>icon-touxiang-yonghu</title>
    <desc>Created with Sketch.</desc>
    <defs></defs>
    <g id="Page-1" stroke="none" stroke-width="1" fill="none" fill-rule="evenodd">
        <g id="入住-客服" transform="translate(-323.000000, -404.000000)">
            <g id="icon-touxiang-yonghu" transform="translate(323.000000, 404.000000)">
                <g id="icon-touxiang">
                    <rect id="Rectangle-10" fill="#169488" x="0" y="0" width="40" height="40" rx="20"></rect>
                    <path d="M13.1423344,19.2921492 C13.0847255,19.2921492 13.0392795,19.3261492 13.0036472,19.3844492 C13.0520788,19.3249492 13.1037653,19.2921492 13.1568957,19.2921492 L13.1423344,19.2921492 Z M29.0504666,25.708097 C29.0565666,25.673968 29.0723666,25.6404926 29.0978666,25.608097 C29.0700666,25.6229592 29.0553666,25.6546443 29.0504666,25.708097 Z M30.1116793,13.9204452 C30.1129793,13.9155452 30.1129793,13.9095452 30.1129793,13.9046452 L30.1129793,13.8487452 C30.1129793,13.8729452 30.1129793,13.8972452 30.1116793,13.9203452 L30.1116793,13.9204452 Z M29.0498547,13.9129699 C29.0498547,13.9178699 29.0498547,13.9226699 29.0511547,13.9275699 C29.0498547,13.9020699 29.0498547,13.8752699 29.0498547,13.8487699 L29.0498547,13.9130699 L29.0498547,13.9129699 Z M29.6903071,29.9529904 C29.5409009,28.829312 29.2141894,27.7443989 28.7193745,26.7281165 C28.6225602,26.5294931 28.5200927,26.3341578 28.4113847,26.1427287 C28.4110665,26.1421601 28.4108218,26.1415173 28.4101855,26.140924 C27.9391336,25.3350084 27.3611358,24.586697 26.6875473,23.9188091 L26.6872291,23.9184877 C26.5407841,23.7732656 26.3899339,23.6316531 26.2345808,23.494194 C25.1270166,22.5136361 23.8484123,21.7866359 22.4848386,21.3443687 C22.7316464,21.206341 22.9704517,21.0515265 23.1997616,20.8802218 C23.4608371,20.6857766 23.7094315,20.4697483 23.9431954,20.2336203 C25.172487,18.9917666 25.8496975,17.3403046 25.8496975,15.5838446 C25.8496975,13.8273847 25.172536,12.1759474 23.9431954,10.9340689 C22.7361494,9.71468829 21.1382489,9.03330169 19.4351889,9.00870244 C19.4081465,9.00838105 19.381153,9.00813382 19.3541106,9.00813382 C19.3270682,9.00813382 19.3000747,9.00845522 19.2730323,9.00870244 C17.5699723,9.03330169 15.9720962,9.71471301 14.7650258,10.9340689 C13.5357341,12.1759227 12.8585237,13.8273847 12.8585237,15.5838446 C12.8585237,17.3403046 13.5356852,18.9917418 14.7650258,20.2336203 C14.9987897,20.469773 15.2473841,20.6858013 15.5084596,20.8802218 C15.7377695,21.0515512 15.9765503,21.2063905 16.2233826,21.3443687 C14.8598089,21.7866359 13.5811801,22.5136361 12.4736404,23.494194 C12.3182873,23.6316036 12.1674371,23.7732162 12.0209921,23.9184877 C11.3467917,24.5869689 10.768231,25.3358737 10.296861,26.142704 C10.188153,26.3341331 10.0856855,26.5294684 9.98887119,26.7280918 C9.4940318,27.7443495 9.1673448,28.829312 9.01793854,29.9529657 C8.97014322,30.3130046 9.22020598,30.6439695 9.57630925,30.692278 C9.60570104,30.6961842 9.63511731,30.6982609 9.66394623,30.6982609 C9.69035235,30.6982609 9.7161956,30.6967528 9.74203884,30.6934647 C9.99956579,30.6367752 10.207462,30.4246283 10.247842,30.1458781 C10.5478048,28.0659938 11.5291384,26.175981 12.9396264,24.7366658 C14.6135638,23.0278962 16.8919297,21.9540343 19.3541351,21.9498562 L19.3680845,21.9498562 C21.8249303,21.9582619 24.0979367,23.0312338 25.7686192,24.7366658 C27.1791073,26.175981 28.1604409,28.0659196 28.4604036,30.1458781 C28.5008082,30.4240103 28.7077988,30.6358604 28.964714,30.693168 C28.9652768,30.693168 28.965595,30.6934894 28.9662068,30.6934894 C28.9920501,30.6967775 29.0178933,30.6982856 29.0442994,30.6982856 C29.0731283,30.6982856 29.1025201,30.6961842 29.1319364,30.6923027 C29.4880397,30.644019 29.7381269,30.3130294 29.6903071,29.9529904 Z M19.3401366,20.8445468 C19.3270927,20.8445468 19.3139752,20.8445468 19.3009313,20.8442254 C16.8713971,20.8262024 14.7053123,19.1210671 14.1133894,16.8338322 C14.1068307,16.8089362 14.1003454,16.7837189 14.0943496,16.7585511 C14.0016712,16.3804892 13.9523586,15.9874452 13.9523586,15.5838693 C13.9523586,15.1803182 14.0016712,14.7827499 14.0943496,14.398087 C14.100272,14.3723011 14.1068307,14.3467624 14.1133894,14.3212731 C14.7085916,11.9767306 16.8948909,10.1131713 19.3401366,10.1131713 L19.3680601,10.1131713 C21.8133547,10.1131713 23.9996051,11.9767554 24.5948073,14.3212731 C24.601366,14.3467624 24.6078513,14.3722764 24.6138471,14.398087 C24.7065255,14.7827499 24.7558381,15.1802935 24.7558381,15.5838693 C24.7558381,15.9874205 24.7065255,16.3804892 24.6138471,16.7585511 C24.6079247,16.7837684 24.601366,16.8089362 24.5948073,16.8338322 C24.00286,19.1210671 21.8367752,20.8262271 19.4072654,20.8442254 C19.3849952,20.8445468 19.3627005,20.8445468 19.3401366,20.8445468 Z" id="Shape" fill="#FFFFFF" fill-rule="nonzero"></path>
                </g>
            </g>
        </g>
    </g>
</svg>