<?xml version="1.0" encoding="UTF-8"?>
<svg width="24px" height="24px" viewBox="0 0 24 24" version="1.1" xmlns="http://www.w3.org/2000/svg" xmlns:xlink="http://www.w3.org/1999/xlink">
    <!-- Generator: Sketch 42 (36781) - http://www.bohemiancoding.com/sketch -->
    <title>icon-send</title>
    <desc>Created with Sketch.</desc>
    <defs></defs>
    <g id="Page-1" stroke="none" stroke-width="1" fill="none" fill-rule="evenodd">
        <g id="入住-订单-旅程开始" transform="translate(-310.000000, -235.000000)" fill-rule="nonzero" fill="#444444">
            <g id="icon-send" transform="translate(310.000000, 235.000000)">
                <path d="M23.8392392,0.128708424 C23.7012398,0.00450354469 23.5052407,-0.032757912 23.3297415,0.0298413343 L1.46234077,7.97100449 C0.710844186,8.26959301 0.178846597,8.9209234 0.0398472339,9.71285371 C-0.0991521295,10.504784 0.179346594,11.2957207 0.796843806,11.8407317 L6.41081831,16.4641341 C6.40581835,16.4884783 6.3943184,16.511332 6.39281839,16.5366698 L6.04881995,23.4747543 C6.03882,23.679444 6.15731947,23.8722099 6.3468186,23.9556756 C6.4128183,23.9839943 6.48181799,23.9984021 6.55031767,23.9984021 C6.68131709,23.9984021 6.8098165,23.9467329 6.90481606,23.8518403 L9.93080231,20.8455855 C10.1268014,20.6503354 10.1268014,20.3353518 9.93080231,20.1410954 C9.73430321,19.9458453 9.41730465,19.9458453 9.22130554,20.1410954 L7.11531512,22.2332024 L7.36331399,17.249109 L14.6682808,23.2650965 C15.0937789,23.640692 15.6377764,23.847369 16.2022738,23.847369 C17.2117693,23.847369 18.0987652,23.2074654 18.4192638,22.2247564 L23.9892385,0.62205021 C24.0352383,0.442698362 23.9772386,0.252913303 23.8392392,0.128708424 Z M7.06081533,15.7049939 L1.45034083,11.0840756 C1.10734239,10.7815125 0.9498431,10.3333813 1.02834275,9.88475328 C1.10784238,9.43612525 1.40984102,9.06649155 1.82133915,8.90254109 L21.5222497,1.74834006 L7.06081533,15.7049939 Z M17.4557682,21.9470343 C17.2532691,22.5715364 16.6782717,22.8502522 16.2017739,22.8502522 C15.9762749,22.8502522 15.6432764,22.7926211 15.3207779,22.5084404 L7.83831182,16.3448974 L22.564245,2.13287836 L17.4557682,21.9470343 Z"></path>
            </g>
        </g>
    </g>
</svg>