<?xml version="1.0" encoding="UTF-8"?>
<svg width="28px" height="36px" viewBox="0 0 28 36" version="1.1" xmlns="http://www.w3.org/2000/svg" xmlns:xlink="http://www.w3.org/1999/xlink">
    <!-- Generator: Sketch 43 (38999) - http://www.bohemiancoding.com/sketch -->
    <title>icon-dianji</title>
    <desc>Created with Sketch.</desc>
    <defs></defs>
    <g id="Page-1" stroke="none" stroke-width="1" fill="none" fill-rule="evenodd">
        <g id="入住-客服" transform="translate(-199.000000, -502.000000)" fill-rule="nonzero" fill="#169488">
            <g id="icon-dianji" transform="translate(199.000000, 502.000000)">
                <path d="M24.0674591,14.9262399 C23.6778947,14.9262399 23.3129862,14.9910997 22.9559432,15.113814 C22.9184906,15.0937874 22.8801006,15.0808896 22.8397138,15.0689396 C22.1718832,13.9889876 21.0366894,13.3257616 19.7566571,13.3257616 C19.3247496,13.3257616 18.8987107,13.3986155 18.4973277,13.540285 C17.8365067,12.4154998 16.6747824,11.7233465 15.3652036,11.7233465 C15.1304624,11.7233465 14.8996336,11.7442384 14.6736951,11.7861047 L14.6736951,9.74487664 C14.6736951,7.61789694 13.0602977,5.95161105 11.0001992,5.95161105 C8.91919407,5.95161105 7.22587865,7.65292285 7.22587865,9.74487664 L7.22587865,19.767687 L6.6459538,19.1822185 C5.97351809,18.5072073 5.0356129,18.1342431 4.00499307,18.1342431 C2.96740437,18.1342431 1.96050321,18.5269866 1.31150087,19.184114 C-0.102651816,20.6142016 -0.574049639,23.0970446 1.08670357,24.7774233 L9.5593121,33.2872376 C9.75346264,33.4818169 9.97638527,33.6592128 10.2211111,33.8138626 C11.8107491,35.1152196 13.7042466,35.9786702 17.7072768,35.9786702 C27.0113012,35.9786702 27.7904708,30.4633657 27.7904708,24.8133145 L27.7904708,18.721607 C27.7893297,16.592567 26.1886881,14.9262399 24.0674591,14.9262399 L24.0674591,14.9262399 Z M26.312131,24.8122843 C26.312131,30.2909146 25.6780445,34.4819098 17.7084179,34.4819098 C14.0969898,34.4819098 12.5101638,33.7700184 11.1176106,32.6221161 L11.0327614,32.5614594 C10.8700319,32.4616561 10.7249896,32.3490375 10.6018319,32.2242628 L2.13122039,23.716344 C1.02365762,22.5955559 1.59665439,21.0090879 2.35695502,20.2401248 C2.72976968,19.8633283 3.36108492,19.6288195 4.00495233,19.6288195 C4.64205461,19.6288195 5.21012015,19.84734 5.60270036,20.2412374 L8.70531875,23.3673211 L8.70531871,9.74277507 C8.70531871,8.47549619 9.73483817,7.4453634 11.0001992,7.4453634 C12.231001,7.4453634 13.1944588,8.45456307 13.1944588,9.74277507 L13.1944588,14.0815384 L13.2132462,14.0716488 L13.2132462,18.5291293 C13.2132462,18.9418583 13.5446959,19.2769533 13.9528847,19.2769533 C14.3612366,19.2769533 14.6924825,18.9418583 14.6924825,18.5291293 L14.6924826,13.3306239 C14.9095774,13.2629621 15.1324593,13.215945 15.3660594,13.215945 C16.3207144,13.215945 17.1165929,13.8143112 17.4420111,14.7746395 L17.5356631,15.0519211 L17.5356631,19.9470196 C17.5356631,20.3597485 17.8671127,20.6948847 18.2754646,20.6948847 C18.6836534,20.6948847 19.0151031,20.3597485 19.0151031,19.9470196 L19.0151032,14.9541782 C19.2547348,14.8733714 19.5041473,14.8185661 19.7565756,14.8185661 C20.7113936,14.8185661 21.5061311,15.4167264 21.8326903,16.3770546 L21.8828989,16.5256057 L21.8828989,21.4188087 C21.8828989,21.8317024 22.2143485,22.1666326 22.6225374,22.1666326 C23.0308892,22.1666326 23.3621352,21.8317024 23.3621352,21.4188087 L23.3621352,16.5664418 C23.5999329,16.4778056 23.84743,16.4200334 24.1472956,16.4200334 C25.3799313,16.4200334 26.3101341,17.408094 26.3110307,18.7195055 L26.3110307,24.8122843 L26.312131,24.8122843 Z M4.93099816,16.7840557 C5.06324387,16.8846832 5.21900442,16.9316179 5.37191223,16.9316179 C5.59764687,16.9316179 5.8205695,16.8279823 5.96557107,16.6303537 C6.21013389,16.2982668 6.14207525,15.8296201 5.81380438,15.5833261 C3.83439815,14.0936944 2.69822629,11.8090569 2.69822629,9.31710713 C2.69822629,5.01427627 6.16086269,1.51217907 10.4172993,1.51217907 C14.6738989,1.51217907 18.1374726,5.01427627 18.1374726,9.31710713 C18.1374726,9.83957017 18.086123,10.3641348 17.9845241,10.8727111 C17.9036688,11.2776107 18.1630252,11.672497 18.5635523,11.7542516 C18.9637942,11.8330393 19.3543367,11.5728174 19.435192,11.1688655 C19.5565565,10.5636589 19.6176463,9.94040364 19.6176463,9.31805489 C19.6176463,4.18960136 15.4904396,0.0174377315 10.4181959,0.0174377315 C5.34615589,0.0174377315 1.21988653,4.19054907 1.21988653,9.31805489 C1.21988657,12.2438728 2.60750863,15.0349851 4.93099816,16.7840557 L4.93099816,16.7840557 Z" id="Shape"></path>
            </g>
        </g>
    </g>
</svg>