<?xml version="1.0" encoding="UTF-8"?>
<svg width="48px" height="48px" viewBox="0 0 48 48" version="1.1" xmlns="http://www.w3.org/2000/svg" xmlns:xlink="http://www.w3.org/1999/xlink">
    <!-- Generator: Sketch 43.1 (39012) - http://www.bohemiancoding.com/sketch -->
    <title>icon-dakai48*48#444444</title>
    <desc>Created with Sketch.</desc>
    <defs></defs>
    <g id="Page-1" stroke="none" stroke-width="1" fill="none" fill-rule="evenodd">
        <g id="入住-光照" transform="translate(-36.000000, -217.000000)">
            <g id="icon-dakai48*48#444444" transform="translate(36.000000, 217.000000)">
                <ellipse id="Oval-7-Copy-12" fill="#F2F2F2" cx="24" cy="24" rx="24" ry="24"></ellipse>
                <path d="M16.2931034,31.8628188 L16.2908514,31.9031778 C16.2494457,32.6452145 15.6421473,33.2241379 14.8965517,33.2241379 C14.1512166,33.2241379 13.5433708,32.6482581 13.5022354,31.9034614 L13.5,31.8629864 L13.5,14.5 L16.2931034,14.5 L16.2931034,31.8628188 Z" id="Combined-Shape" stroke="#444444"></path>
                <path d="M34.5,31.8628188 L34.497748,31.9031778 C34.4563422,32.6452145 33.8490438,33.2241379 33.1034483,33.2241379 C32.3581131,33.2241379 31.7502673,32.6482581 31.709132,31.9034614 L31.7068966,31.8629864 L31.7068966,14.5 L34.5,14.5 L34.5,31.8628188 Z" id="Combined-Shape-Copy-2" stroke="#444444"></path>
                <rect id="Rectangle-3" stroke="#444444" x="16.5344828" y="14.5" width="14.9310345" height="2.03448276"></rect>
                <rect id="Rectangle-3" stroke="#444444" x="16.5344828" y="28.9137931" width="14.9310345" height="2.03448276"></rect>
                <path d="M19.4482759,18.1724138 L18.2487912,19.3718984" id="Line" stroke="#444444" stroke-linecap="round"></path>
                <path d="M21.3754044,18.5211473 L18.6896552,21.2068966" id="Line-Copy-6" stroke="#444444" stroke-linecap="round"></path>
            </g>
        </g>
    </g>
</svg>