<?xml version="1.0" encoding="UTF-8"?>
<svg width="22px" height="22px" viewBox="0 0 22 22" version="1.1" xmlns="http://www.w3.org/2000/svg" xmlns:xlink="http://www.w3.org/1999/xlink">
    <!-- Generator: Sketch 43.1 (39012) - http://www.bohemiancoding.com/sketch -->
    <title>Group 2</title>
    <desc>Created with Sketch.</desc>
    <defs></defs>
    <g id="Page-1" stroke="none" stroke-width="1" fill="none" fill-rule="evenodd">
        <g id="入住-客控-遥控器" transform="translate(-49.000000, -172.000000)">
            <g id="icon-kaiguan48*48#169488-copy" transform="translate(36.000000, 159.000000)">
                <g id="Group-2" transform="translate(12.000000, 12.000000)">
                    <rect id="Path" x="0" y="0" width="24" height="24"></rect>
                    <path d="M19.2150684,3.56012111 L19.1949998,3.58047992 L18.8343005,3.2443139 C18.7461906,3.16214198 18.599616,3.06429911 18.4017203,3.06429911 C18.0583662,3.06429911 17.7748831,3.35425598 17.7697264,3.71218719 C17.7656636,3.94698328 17.8641092,4.08210598 17.8949153,4.11858218 C20.3246908,6.0087152 21.7176625,8.83515284 21.7176625,11.8789075 C21.7176625,17.296183 17.3583087,21.7034202 12.0000112,21.7034202 C6.64171364,21.7034202 2.28242681,17.296183 2.28242681,11.8789075 C2.28242681,8.83432689 3.67419297,6.0088938 6.10245059,4.12068058 C6.20886559,4.00303697 6.2671293,3.85097092 6.2671293,3.68921653 C6.2671293,3.33693311 5.98360154,3.05028009 5.63513539,3.05028009 C5.38257,3.05028009 5.21097107,3.19752434 5.18248658,3.22357558 L5.17000788,3.23808572 L5.13777309,3.26438251 C2.50815967,5.40618799 1,8.54602194 1,11.8789075 C1,18.0110632 5.93464661,22.999933 12.0000335,22.999933 C18.065465,22.999933 23,18.0110632 23,11.8789075 C23,8.70067752 21.626271,5.69418043 19.2150684,3.56012111 L19.2150684,3.56012111 Z M12.0000335,12.6737719 C12.353567,12.6737719 12.6412246,12.3830337 12.6412246,12.025549 L12.6412246,1.64822291 C12.6412246,1.29078281 12.353567,1 12.0000335,1 C11.6465,1 11.3588424,1.29078284 11.3588424,1.64822291 L11.3588424,12.0231827 C11.3588424,12.3819845 11.6464776,12.6737719 12.0000335,12.6737719 Z" id="Shape" fill="#FFFFFF" fill-rule="nonzero"></path>
                </g>
            </g>
        </g>
    </g>
</svg>