<?xml version="1.0" encoding="UTF-8"?>
<svg width="12px" height="30px" viewBox="0 0 12 30" version="1.1" xmlns="http://www.w3.org/2000/svg" xmlns:xlink="http://www.w3.org/1999/xlink">
    <!-- Generator: Sketch 43.1 (39012) - http://www.bohemiancoding.com/sketch -->
    <title>icon-wendu48*48#169488</title>
    <desc>Created with Sketch.</desc>
    <defs></defs>
    <g id="Page-1" stroke="none" stroke-width="1" fill="none" fill-rule="evenodd">
        <g id="入住-控制" transform="translate(-321.000000, -440.000000)">
            <g id="icon-wendu48*48#169488" transform="translate(303.000000, 431.000000)">
                <g id="icon-wendu" transform="translate(18.000000, 9.000000)" fill="#169488">
                    <g id="温度">
                        <path d="M9.39995859,19.2421875 L9.39995859,3.46921875 C9.39995859,1.55578125 7.84516746,0 5.93431729,0 C4.02346712,0 2.46958896,1.55578125 2.46958896,3.46921875 L2.46958896,19.2421875 C0.91753675,20.3601563 0,22.1353125 0,24.0585938 C0,27.3342188 2.663139,30 5.93431729,30 C9.20549557,30 11.8686346,27.33375 11.8686346,24.0585938 C11.8686346,22.1353125 10.9520108,20.3601563 9.39995859,19.2421875 Z M5.93431729,28.6954688 C3.38073491,28.6954688 1.30281089,26.6160938 1.30281089,24.0585938 C1.30281089,22.4615625 2.11261695,20.9971875 3.46929318,20.139375 L3.77285634,19.9471875 L3.77285634,3.46921875 C3.77285634,2.27578125 4.74288897,1.3040625 5.93477378,1.3040625 C7.12757155,1.3040625 8.09760418,2.27578125 8.09760418,3.46921875 L8.09760418,19.9467188 L8.40071085,20.1389063 C9.75601762,20.9967187 10.5653672,22.4629688 10.5653672,24.058125 C10.5653672,26.6160938 8.48881264,28.6954688 5.93431729,28.6954688 Z" id="Shape" fill-rule="nonzero"></path>
                        <path d="M6.58617922,21.8685938 C7.53293107,22.1521875 8.22633322,23.0198438 8.22678971,24.0585938 C8.22678971,25.3265625 7.20152227,26.355 5.93477378,26.355 C4.66756879,26.355 3.64138839,25.3265625 3.64138839,24.0585938 C3.64138839,23.0198438 4.33570351,22.1517188 5.28291185,21.8685938 L5.28291185,8.821875 C5.28291185,8.821875 5.34651054,8.25970502 5.93477378,8.25970502 C6.52303701,8.25970502 6.58617922,8.821875 6.58617922,8.821875 L6.58617922,21.8685938 Z M6,25 C6.55228475,25 7,24.5522847 7,24 C7,23.4477153 6.55228475,23 6,23 C5.44771525,23 5,23.4477153 5,24 C5,24.5522847 5.44771525,25 6,25 Z" id="Combined-Shape" fill-rule="nonzero"></path>
                    </g>
                </g>
                <rect id="Rectangle-27" x="0" y="0" width="48" height="48"></rect>
            </g>
        </g>
    </g>
</svg>