<?xml version="1.0" encoding="UTF-8"?>
<svg width="48px" height="48px" viewBox="0 0 48 48" version="1.1" xmlns="http://www.w3.org/2000/svg" xmlns:xlink="http://www.w3.org/1999/xlink">
    <!-- Generator: Sketch 43.2 (39069) - http://www.bohemiancoding.com/sketch -->
    <title>icon-wendu48*48#169488</title>
    <desc>Created with Sketch.</desc>
    <defs></defs>
    <g id="Page-1" stroke="none" stroke-width="1" fill="none" fill-rule="evenodd">
        <g id="入住-控制" transform="translate(-303.000000, -327.000000)">
            <g id="icon-wendu48*48#169488" transform="translate(303.000000, 327.000000)">
                <rect id="Rectangle-3" x="0" y="0" width="48" height="48"></rect>
                <g id="温度" transform="translate(18.000000, 9.000000)" fill-rule="nonzero" fill="#444444">
                    <path d="M9.23210218,19.2421875 L9.23210218,3.46921875 C9.23210218,1.55578125 7.70507518,0 5.82834734,0 C3.95161949,0 2.42548916,1.55578125 2.42548916,3.46921875 L2.42548916,19.2421875 C0.901152165,20.3601563 0,22.1353125 0,24.0585938 C0,27.3342188 2.61558295,30 5.82834734,30 C9.04111172,30 11.6566947,27.33375 11.6566947,24.0585938 C11.6566947,22.1353125 10.7564392,20.3601563 9.23210218,19.2421875 Z M5.82834734,28.6954687 C3.32036464,28.6954687 1.27954641,26.6160937 1.27954641,24.0585938 C1.27954641,22.4615625 2.07489165,20.9971875 3.40734152,20.139375 L3.7054839,19.9471875 L3.7054839,3.46921875 C3.7054839,2.27578125 4.65819453,1.3040625 5.82879567,1.3040625 C7.00029349,1.3040625 7.95300411,2.27578125 7.95300411,3.46921875 L7.95300411,19.9467187 L8.25069816,20.1389062 C9.58180302,20.9967187 10.3766999,22.4629687 10.3766999,24.058125 C10.3766999,26.6160937 8.3372267,28.6954687 5.82834734,28.6954687 Z" id="Shape"></path>
                    <path d="M6.46856888,21.8685938 C7.39841444,22.1521875 8.07943441,23.0198438 8.07988275,24.0585938 C8.07988275,25.3265625 7.07292366,26.355 5.82879567,26.355 C4.58421935,26.355 3.57636359,25.3265625 3.57636359,24.0585938 C3.57636359,23.0198438 4.25828023,22.1517188 5.18857413,21.8685938 L5.18857413,8.821875 C5.18857413,8.821875 5.25103714,8.25970502 5.82879567,8.25970502 C6.40655421,8.25970502 6.46856888,8.821875 6.46856888,8.821875 L6.46856888,21.8685938 Z M5.89285714,25 C6.43527966,25 6.875,24.5522847 6.875,24 C6.875,23.4477153 6.43527966,23 5.89285714,23 C5.35043462,23 4.91071429,23.4477153 4.91071429,24 C4.91071429,24.5522847 5.35043462,25 5.89285714,25 Z" id="Combined-Shape"></path>
                </g>
            </g>
        </g>
    </g>
</svg>