<?xml version="1.0" encoding="utf-8"?>
<!-- Generator: Adobe Illustrator 18.0.0, SVG Export Plug-In . SVG Version: 6.00 Build 0)  -->
<!DOCTYPE svg PUBLIC "-//W3C//DTD SVG 1.1//EN" "http://www.w3.org/Graphics/SVG/1.1/DTD/svg11.dtd">
<svg version="1.1" id="图层_1" xmlns="http://www.w3.org/2000/svg" xmlns:xlink="http://www.w3.org/1999/xlink" x="0px" y="0px"
	 viewBox="0 0 38.3 42" enable-background="new 0 0 38.3 42" xml:space="preserve">
<g>
	<rect x="0" y="8.6" fill="#B89E70" width="21.7" height="33.4"/>
	<g>
		<rect x="12.9" y="13.7" fill="#FFFFFF" width="5.9" height="5.9"/>
		<rect x="2.9" y="13.7" fill="#FFFFFF" width="5.9" height="5.9"/>
		<rect x="12.9" y="22.7" fill="#FFFFFF" width="5.9" height="5.9"/>
		<rect x="2.9" y="22.7" fill="#FFFFFF" width="5.9" height="5.9"/>
	</g>
	<rect x="24.6" y="18.4" fill="#B89E70" width="11.7" height="23.6"/>
	<g>
		<rect x="27.5" y="22.8" fill="#FFFFFF" width="5.9" height="5.9"/>
		<rect x="27.5" y="31.7" fill="#FFFFFF" width="5.9" height="5.9"/>
	</g>
	<g>
		<path fill-rule="evenodd" clip-rule="evenodd" fill="#E93B39" d="M32.3,12.4c-1.8,0-3.3-0.6-4.5-1.9c-1.2-1.2-1.9-2.8-1.9-4.5
			c0-1.3,0.4-2.4,1.1-3.5c0.7-1.1,1.7-1.9,2.8-2.4C29.9,0,30,0,30,0.1c0.1,0.1,0.1,0.1,0.1,0.2c-0.3,0.7-0.4,1.4-0.4,2.1
			c0,1.6,0.6,3,1.7,4.2c1.2,1.2,2.6,1.7,4.2,1.7c0.9,0,1.7-0.1,2.3-0.4c0.1-0.1,0.1,0,0.2,0c0.1,0.1,0.1,0.1,0.1,0.2
			c-0.5,1.2-1.3,2.2-2.3,3C34.9,12,33.7,12.4,32.3,12.4L32.3,12.4z"/>
	</g>
</g>
</svg>
