<?xml version="1.0" encoding="utf-8"?>
<!-- Generator: Adobe Illustrator 18.0.0, SVG Export Plug-In . SVG Version: 6.00 Build 0)  -->
<!DOCTYPE svg PUBLIC "-//W3C//DTD SVG 1.1//EN" "http://www.w3.org/Graphics/SVG/1.1/DTD/svg11.dtd">
<svg version="1.1" id="图层_1" xmlns="http://www.w3.org/2000/svg" xmlns:xlink="http://www.w3.org/1999/xlink" x="0px" y="0px"
	 viewBox="0 0 42 42" enable-background="new 0 0 42 42" xml:space="preserve">
<g>
	<path fill-rule="evenodd" clip-rule="evenodd" fill="#B89E70" d="M32.6,0h-19c0,0,0,24.1,0,32.6c-1.4,0-2.7,0-2.7,0l0-21.8H0v27.2
		c0,0,32.6,0,32.6,0C32.7,38.1,32.6,0,32.6,0L32.6,0z"/>
	<path fill-rule="evenodd" clip-rule="evenodd" fill="#B89E70" d="M16.4,32.6c0,0,0-2.2,0-5.5h5.4c0,3.2,0,5.5,0,5.5H16.4L16.4,32.6
		z"/>
	<path fill-rule="evenodd" clip-rule="evenodd" fill="#B89E70" d="M24.5,32.6c0,0,0-2.2,0-5.5h5.4c0,3.2,0,5.5,0,5.5
		C29.9,32.6,24.5,32.7,24.5,32.6L24.5,32.6z"/>
	<path fill-rule="evenodd" clip-rule="evenodd" fill="#FFFFFF" d="M2.7,16.3h5.4c0,1.3,0,3.3,0,5.5H2.7C2.7,19.5,2.7,17.5,2.7,16.3
		L2.7,16.3z"/>
	<path fill-rule="evenodd" clip-rule="evenodd" fill="#FFFFFF" d="M2.7,32.6c0,0,0-2.4,0-5.5h5.4c0,3,0,5.5,0,5.5H2.7L2.7,32.6z"/>
	<path fill-rule="evenodd" clip-rule="evenodd" fill="#FFFFFF" d="M24.5,21.8c0-1.8,0-3.7,0-5.5h5.4c0,1.8,0,3.7,0,5.5H24.5
		L24.5,21.8z"/>
	<path fill-rule="evenodd" clip-rule="evenodd" fill="#FFFFFF" d="M16.4,16.3h5.4c0,1.8,0,3.7,0,5.5h-5.4
		C16.4,20,16.4,18.1,16.4,16.3L16.4,16.3z"/>
	<path fill-rule="evenodd" clip-rule="evenodd" fill="#FFFFFF" d="M24.5,10.9c0-2.6,0-4.6,0-5.5h5.4c0,0.8,0,2.9,0,5.5H24.5
		L24.5,10.9z"/>
	<path fill-rule="evenodd" clip-rule="evenodd" fill="#FFFFFF" d="M21.8,5.4c0,0.8,0,2.9,0,5.5h-5.4c0-2.6,0-4.6,0-5.5H21.8
		L21.8,5.4z"/>
	<g>
		<path fill-rule="evenodd" clip-rule="evenodd" fill="#E93B39" d="M34,42c-4.4,0-7.9-3.6-7.9-7.9c0-4.4,3.6-7.9,7.9-7.9
			c4.4,0,7.9,3.6,7.9,7.9S38.4,42,34,42L34,42z M34,28.3h-0.7v5.8l4.8,4.6l0.5-0.5L34,33.7V28.3L34,28.3z"/>
	</g>
</g>
</svg>
