<?xml version="1.0" encoding="UTF-8"?>
<svg width="22px" height="21px" viewBox="0 0 22 21" version="1.1" xmlns="http://www.w3.org/2000/svg" xmlns:xlink="http://www.w3.org/1999/xlink">
    <!-- Generator: Sketch 43.1 (39012) - http://www.bohemiancoding.com/sketch -->
    <title>icon-yinliangda24*24#444444</title>
    <desc>Created with Sketch.</desc>
    <defs></defs>
    <g id="Page-1" stroke="none" stroke-width="1" fill="none" fill-rule="evenodd">
        <g id="入住-客控-遥控器" transform="translate(-305.000000, -586.000000)">
            <g id="icon-yinliangda24*24#444444" transform="translate(304.000000, 584.000000)">
                <rect id="Rectangle-8" x="0" y="0" width="24" height="24"></rect>
                <path d="M10.7628888,2.67406583 L5.84772745,7.36055964 L2.79730439,7.36055964 C1.60294143,7.36055964 1.0155637,8.00388895 1.0155637,9.14233295 L1.0155637,15.0815556 C1.0155637,16.2016318 1.62192908,16.8633289 2.79730439,16.8633289 L5.84772745,16.8633289 L10.7628888,21.5499532 C12.0790729,22.7852277 13.4878138,22.2412084 13.4878138,20.1892688 L13.4878138,4.03523962 C13.4878138,1.96127818 12.0541149,1.46427131 10.7628888,2.67406583 L10.7628888,2.67406583 Z M12.2999432,19.8702956 C12.2999432,21.2191046 11.7013425,20.9969947 11.0883543,20.3917712 C9.96534184,19.2840598 8.0736228,17.29153 6.55323976,15.6760781 L3.39117447,15.6760781 C2.48789037,15.6760781 2.20343435,15.3731564 2.20343435,14.4882075 L2.20343433,9.73682288 C2.20343433,8.87037222 2.50622553,8.54908276 3.39117445,8.54908276 L6.37151932,8.54908276 C7.91800225,7.05000374 9.91832941,5.10729206 11.0932153,3.95752724 C11.6995481,3.36300469 12.2999431,3.00478389 12.2999431,4.40941399 L12.2999432,19.8702956 L12.2999432,19.8702956 Z" id="Shape" fill="#444444" fill-rule="nonzero"></path>
                <path d="M15.9989155,7.75120952 C15.9989155,7.90196894 16.060968,8.05171698 16.1675207,8.15810659 C16.2740408,8.26465934 16.4237889,8.3267118 16.5744178,8.3267118 C16.7250793,8.3267118 16.8747947,8.26465934 16.9813475,8.15810659 C17.0879002,8.05171698 17.1499527,7.90196894 17.1499527,7.75120952 C17.1499527,7.60058061 17.0879002,7.45083257 16.9813475,7.34427983 C16.8747947,7.2377597 16.7250793,7.17567462 16.5744178,7.17567462 C16.4237889,7.17567462 16.2740408,7.2377597 16.1675207,7.34427983 C16.060968,7.45083257 15.9989155,7.60058061 15.9989155,7.75120952 L15.9989155,7.75120952 Z" id="Shape" fill="#444444" fill-rule="nonzero"></path>
                <path d="M15.998263,16.4728747 C15.998263,16.6251675 16.060968,16.7764489 16.1686626,16.8839804 C16.2762267,16.991675 16.4274755,17.05438 16.5797683,17.05438 C16.7319305,17.05438 16.883212,16.991675 16.9909066,16.8839804 C17.0986012,16.7764489 17.1611756,16.6251675 17.1611756,16.4728747 C17.1611756,16.3207125 17.0986012,16.169431 16.9909066,16.0617364 C16.883212,15.9541723 16.7319305,15.8915 16.5797683,15.8915 C16.4274755,15.8915 16.2762267,15.9541723 16.1686626,16.0617364 C16.060968,16.169431 15.998263,16.3207124 15.998263,16.4728747 L15.998263,16.4728747 Z" id="Shape" fill="#444444" fill-rule="nonzero"></path>
                <path d="M16.2127387,16.0156049 L17.0430411,16.8244727 C18.1536887,15.569558 18.8330685,13.9244502 18.8330685,12.1159245 C18.8330685,10.3080513 18.1536887,8.6640527 17.0436609,7.40737626 C17.0436609,7.4062344 17.0441829,7.40496203 17.0441829,7.40496203 L16.1580921,8.15213625 C17.0988622,9.20569037 17.6748864,10.5919853 17.6748864,12.116577 C17.6748865,13.6103055 17.1202641,14.9697176 16.2127387,16.0156049 L16.2127387,16.0156049 Z" id="Shape" fill="#444444" fill-rule="nonzero"></path>
                <path d="M18.9221343,4.66248489 C18.9221343,4.81324431 18.9842194,4.96299235 19.0907395,5.0695451 C19.1972923,5.17606522 19.3470403,5.2380198 19.4976692,5.2380198 C19.6482981,5.2380198 19.7980461,5.17606522 19.9045989,5.0695451 C20.011119,4.96299235 20.0732041,4.81324431 20.0732041,4.66248489 C20.0732041,4.51185599 20.011119,4.36210795 19.9045989,4.2555552 C19.7980461,4.14903508 19.6482981,4.0870805 19.4976692,4.0870805 C19.3470403,4.0870805 19.1972923,4.14903508 19.0907395,4.2555552 C18.9842194,4.36210795 18.9221343,4.51185599 18.9221343,4.66248489 L18.9221343,4.66248489 Z" id="Shape" fill="#444444" fill-rule="nonzero"></path>
                <path d="M18.423855,19.5615994 C18.423855,19.7137616 18.48656,19.865043 18.5941241,19.972705 C18.7017861,20.0802692 18.8530675,20.1429741 19.0053603,20.1429741 C19.1575225,20.1429741 19.308804,20.0802692 19.4164986,19.972705 C19.5240301,19.865043 19.586735,19.7137616 19.586735,19.5615994 C19.586735,19.4093066 19.52403,19.2580252 19.4164986,19.150461 C19.308804,19.0427664 19.1575225,18.9800941 19.0053603,18.9800941 C18.8530675,18.9800941 18.7017861,19.0427664 18.5941241,19.150461 C18.48656,19.2580251 18.423855,19.4093066 18.423855,19.5615994 L18.423855,19.5615994 Z" id="Shape" fill="#444444" fill-rule="nonzero"></path>
                <path d="M18.662049,19.0930087 L19.4881101,19.8864449 C21.6339441,17.8825617 22.9904199,15.0448526 22.9904199,11.8762624 C22.9904199,8.96247216 21.8466581,6.32188242 19.9953286,4.3561376 C19.9941867,4.3512765 19.9912505,4.34772038 19.9899781,4.34364228 L19.1069214,5.08190991 C20.797182,6.84874104 21.8413076,9.23811948 21.8413076,11.8762624 C21.8413076,14.735406 20.6094587,17.295184 18.662049,19.0930087 L18.662049,19.0930087 Z" id="Shape" fill="#444444" fill-rule="nonzero"></path>
            </g>
        </g>
    </g>
</svg>