<?xml version="1.0" encoding="UTF-8"?>
<svg width="20px" height="22px" viewBox="0 0 20 22" version="1.1" xmlns="http://www.w3.org/2000/svg" xmlns:xlink="http://www.w3.org/1999/xlink">
    <!-- Generator: Sketch 43.1 (39012) - http://www.bohemiancoding.com/sketch -->
    <title>icon-yinliangxiao24*24#444444</title>
    <desc>Created with Sketch.</desc>
    <defs></defs>
    <g id="Page-1" stroke="none" stroke-width="1" fill="none" fill-rule="evenodd">
        <g id="入住-客控-遥控器" transform="translate(-51.000000, -584.000000)">
            <g id="icon-yinliangxiao24*24#444444" transform="translate(49.000000, 584.000000)">
                <g id="音量1-01">
                    <rect id="Rectangle-7" x="0" y="0" width="23" height="23"></rect>
                    <path d="M12.6266296,0.733701681 L7.27661486,5.83481827 L3.95631523,5.83481827 C2.65628477,5.83481827 2.01694065,6.53506411 2.01694065,7.77422835 L2.01694065,14.238905 C2.01694065,15.4580764 2.6769523,16.1783151 3.95631523,16.1783151 L7.27661486,16.1783151 L12.6266296,21.2795737 C14.059259,22.6241353 15.5926337,22.0319856 15.5926337,19.798507 L15.5926338,2.21530103 C15.5926338,-0.0421476059 14.0320929,-0.583125601 12.6266296,0.733701681 L12.6266296,0.733701681 Z M14.29967,19.4513137 C14.29967,20.9194544 13.6481101,20.6776939 12.9808896,20.0189252 C11.7585222,18.8132125 9.69943929,16.6443999 8.04454515,14.8860261 L4.6027261,14.8860261 C3.61952679,14.8860261 3.30990442,14.5563043 3.30990442,13.5930623 L3.30990439,8.42131391 C3.30990439,7.47820676 3.63948409,7.12849223 4.60272607,7.12849223 L7.84674757,7.12849223 C9.53005071,5.49678691 11.7073505,3.38219993 12.9861808,2.1307133 C13.6461569,1.48359224 14.29967,1.09367898 14.29967,2.6225793 L14.29967,19.4513137 L14.29967,19.4513137 Z" id="Shape" fill="#444444" fill-rule="nonzero"></path>
                    <path d="M18.3258973,6.26002966 C18.3258973,6.42412705 18.3934397,6.58712357 18.5094193,6.70292567 C18.6253635,6.81890534 18.78836,6.8864477 18.9523153,6.8864477 C19.1163062,6.8864477 19.2792672,6.81890534 19.3952469,6.70292567 C19.5112265,6.58712357 19.5787689,6.42412705 19.5787689,6.26002966 C19.5787689,6.09607434 19.5112265,5.93307782 19.3952469,5.81709815 C19.2792672,5.70115399 19.1163062,5.63357613 18.9523153,5.63357613 C18.78836,5.63357613 18.6253635,5.70115399 18.5094193,5.81709815 C18.3934397,5.93307782 18.3258973,6.09607434 18.3258973,6.26002966 L18.3258973,6.26002966 Z" id="Shape" fill="#444444" fill-rule="nonzero"></path>
                    <path d="M18.3251871,15.7533167 C18.3251871,15.9190831 18.3934397,16.0837487 18.5106622,16.2007937 C18.6277427,16.3180162 18.7923728,16.3862688 18.9581392,16.3862688 C19.1237635,16.3862688 19.2884291,16.3180162 19.4056516,16.2007937 C19.5228742,16.0837487 19.5909847,15.9190831 19.5909847,15.7533167 C19.5909847,15.5876924 19.5228742,15.4230268 19.4056516,15.3058043 C19.2884291,15.1887237 19.1237635,15.1205067 18.9581392,15.1205067 C18.7923728,15.1205067 18.6277427,15.1887238 18.5106622,15.3058043 C18.3934397,15.4230268 18.3251871,15.5876924 18.3251871,15.7533167 L18.3251871,15.7533167 Z" id="Shape" fill="#444444" fill-rule="nonzero"></path>
                    <path d="M18.5586379,15.2555914 L19.4623986,16.1360212 C20.6713073,14.7700819 21.410793,12.9794283 21.410793,11.010899 C21.410793,9.04307995 20.6713073,7.25363377 19.4630733,5.88577684 C19.4630733,5.88453396 19.4636415,5.88314902 19.4636415,5.88314902 L18.4991566,6.69642712 C19.5231583,7.84319113 20.1501445,9.35213415 20.1501445,11.0116092 C20.1501445,12.6374907 19.5464537,14.1171725 18.5586379,15.2555914 L18.5586379,15.2555914 Z" id="Shape" fill="#444444" fill-rule="nonzero"></path>
                </g>
            </g>
        </g>
    </g>
</svg>