<?xml version="1.0" encoding="UTF-8"?>
<svg width="49px" height="49px" viewBox="0 0 49 49" version="1.1" xmlns="http://www.w3.org/2000/svg" xmlns:xlink="http://www.w3.org/1999/xlink">
    <!-- Generator: Sketch 43.1 (39012) - http://www.bohemiancoding.com/sketch -->
    <title>icon-qiianbao48*48#444444</title>
    <desc>Created with Sketch.</desc>
    <defs></defs>
    <g id="Page-1" stroke="none" stroke-width="1" fill="none" fill-rule="evenodd">
        <g id="入住-控制-退房弹窗" transform="translate(-71.000000, -309.000000)">
            <g id="icon-qiianbao48*48#444444" transform="translate(71.000000, 309.000000)">
                <rect id="Rectangle" x="0" y="0" width="49" height="49"></rect>
                <g id="icon-qiianbao" transform="translate(10.000000, 11.000000)" fill="#444444" fill-rule="nonzero">
                    <path d="M25.2274047,26.4851823 L4.77271612,26.4851823 C2.14134999,26.4851823 0,24.5046475 0,22.0707949 L0,4.41407702 C0,1.98025545 2.14135002,0 4.77271612,0 L25.2274047,0 C27.8585694,0 30,1.98025545 30,4.41407702 L30,9.4588314 L21.1362683,9.45883136 C18.8804769,9.45883136 17.0455414,11.1559572 17.0455414,13.242436 C17.0455414,15.3289457 18.8804769,17.0260716 21.1362683,17.0260716 L30,17.0260716 L30,22.0707949 C30,24.5046413 27.8587372,26.4851823 25.2274047,26.4851823 Z M4.77271612,1.2609573 C2.89307012,1.2609573 1.36361591,2.67621402 1.36361591,4.41407081 L1.36361591,22.0707887 C1.36361591,23.8099183 2.8930634,25.2239146 4.77271612,25.2239146 L25.2274047,25.2239146 C27.1069164,25.2239146 28.63627,23.8099183 28.63627,22.0707887 L28.63627,18.2873517 L21.1362683,18.2873517 C18.1288239,18.2873517 15.6818046,16.0248981 15.6818046,13.2424297 C15.6818046,10.4614019 18.1288239,8.19756984 21.1362683,8.19756984 L28.6362632,8.19756984 L28.6362632,4.41407081 C28.6362632,2.67621402 27.1069097,1.2609573 25.227398,1.2609573 L4.77271612,1.2609573 Z M22.4986288,15.76481 C20.9960344,15.76481 19.7727732,14.6354645 19.7727732,13.2460185 C19.7727732,11.8569016 20.9960344,10.7275561 22.4986288,10.7275561 C24.0009546,10.7275561 25.2233767,11.8569016 25.2233767,13.2460185 C25.2233767,14.6354645 24.0009546,15.76481 22.4986288,15.76481 Z M22.4986288,11.9886562 C21.7476472,11.9886562 21.1362682,12.5526926 21.1362682,13.2460185 C21.1362682,13.9394997 21.7476471,14.5035485 22.4986288,14.5035485 C23.249107,14.5035485 23.85964,13.9394935 23.85964,13.2460185 C23.85964,12.5526926 23.249107,11.9886562 22.4986288,11.9886562 Z M28.6569804,7.8960927 L29.9994965,7.8960927 L29.9994965,17.9566055 L28.6569804,17.9566055 L28.6569804,7.8960927 Z"></path>
                </g>
            </g>
        </g>
    </g>
</svg>