<?xml version="1.0" encoding="UTF-8"?>
<svg width="50px" height="49px" viewBox="0 0 50 49" version="1.1" xmlns="http://www.w3.org/2000/svg" xmlns:xlink="http://www.w3.org/1999/xlink">
    <!-- Generator: Sketch 43.1 (39012) - http://www.bohemiancoding.com/sketch -->
    <title>icon-shoubiao48*48#444444</title>
    <desc>Created with Sketch.</desc>
    <defs></defs>
    <g id="Page-1" stroke="none" stroke-width="1" fill="none" fill-rule="evenodd">
        <g id="入住-控制-退房弹窗" transform="translate(-254.000000, -309.000000)">
            <g id="icon-shoubiao48*48#444444" transform="translate(254.000000, 309.000000)">
                <rect id="Rectangle-Copy-3" x="0" y="0" width="50" height="49"></rect>
                <g id="icon-shoubiao" transform="translate(11.224490, 11.000000)" fill="#444444" fill-rule="nonzero">
                    <path d="M21.1607656,24.1881818 L21.1607656,27.9545455 C21.1607656,29.0843182 20.1458045,30 18.8935407,30 L7.55741627,30 C6.30515239,30 5.29019139,29.0843182 5.29019139,27.9545455 L5.29019139,24.1881818 C2.08357967,22.0111364 0,18.5590909 0,14.6590909 C0,10.7590909 2.08357967,7.30704545 5.29019139,5.13 L5.29019139,2.04545455 C5.29019139,0.915681818 6.30515239,0 7.55741627,0 L18.8935407,0 C20.1458045,0 21.1607656,0.915681818 21.1607656,2.04545455 L21.1607656,5.13 C24.3673773,7.30704545 26.4509569,10.7590909 26.4509569,14.6590909 C26.4509569,18.5590909 24.3673773,22.0111364 21.1607656,24.1881818 Z M6.80167464,26.5909091 C6.80167464,27.7206818 7.81663565,28.6363636 9.06889952,28.6363636 L17.3820574,28.6363636 C18.6343213,28.6363636 19.6492823,27.7206818 19.6492823,26.5909091 L19.6492823,25.0854545 C17.7463249,26.0413636 15.5584529,26.5909091 13.2254785,26.5909091 C10.8925041,26.5909091 8.70463206,26.0413636 6.80167464,25.0854545 L6.80167464,26.5909091 Z M19.6492823,3.40909091 C19.6492823,2.27931818 18.6343213,1.36363636 17.3820574,1.36363636 L9.06889952,1.36363636 C7.81663565,1.36363636 6.80167464,2.27931818 6.80167464,3.40909091 L6.80167464,4.23272727 C8.70463206,3.27681818 10.8925041,2.72727273 13.2254785,2.72727273 C15.5584529,2.72727273 17.7463249,3.27681818 19.6492823,4.23272727 L19.6492823,3.40909091 Z M13.2254785,4.09090909 C6.75633014,4.09090909 1.51148325,8.82272727 1.51148325,14.6590909 C1.51148325,20.4954545 6.75633014,25.2272727 13.2254785,25.2272727 C19.6946268,25.2272727 24.9394737,20.4954545 24.9394737,14.6590909 C24.9394737,8.82272727 19.6946268,4.09090909 13.2254785,4.09090909 Z M13.650961,16.5388636 C13.6214871,16.5681818 13.5821885,16.5831818 13.5481801,16.6077273 C13.5360883,16.7863636 13.4484222,16.9609091 13.2844263,17.0856818 C12.9655033,17.3277273 12.4886304,17.2915909 12.2195864,17.0031818 L9.29713349,13.8756818 C9.02808947,13.5872727 9.06889952,13.1570455 9.38782249,12.9143182 C9.70674545,12.6722727 10.1836184,12.7084091 10.4526624,12.9968182 L12.7251775,15.4288636 L18.0901873,10.0520455 C18.369056,9.7725 18.8466847,9.75 19.1572945,10.0015909 C19.4671486,10.2538636 19.4928438,10.6847727 19.2132194,10.9643182 L13.650961,16.5388636 Z"></path>
                </g>
            </g>
        </g>
    </g>
</svg>