<?xml version="1.0" encoding="utf-8"?>
<!-- Generator: Adobe Illustrator 18.0.0, SVG Export Plug-In . SVG Version: 6.00 Build 0)  -->
<!DOCTYPE svg PUBLIC "-//W3C//DTD SVG 1.1//EN" "http://www.w3.org/Graphics/SVG/1.1/DTD/svg11.dtd">
<svg version="1.1" id="图层_1" xmlns="http://www.w3.org/2000/svg" xmlns:xlink="http://www.w3.org/1999/xlink" x="0px" y="0px"
	 viewBox="0 0 50 50" enable-background="new 0 0 50 50" xml:space="preserve">
<g>
	<path fill-rule="evenodd" clip-rule="evenodd" fill="#84D64D" d="M33.8,17.4c0.6,0,1.1,0,1.7,0.1c-1.5-7.1-9.1-12.4-17.8-12.4
		C8,5.1,0,11.7,0,20.1C0,25,2.6,29,7.1,32.1l-1.8,5.3l6.2-3.1c2.2,0.4,4,0.9,6.2,0.9c0.6,0,1.1,0,1.6-0.1c-0.3-1.2-0.5-2.4-0.5-3.7
		C18.8,23.7,25.4,17.4,33.8,17.4L33.8,17.4z M24.3,12.6c1.3,0,2.2,0.9,2.2,2.2c0,1.3-0.9,2.2-2.2,2.2c-1.3,0-2.7-0.9-2.7-2.2
		C21.6,13.5,23,12.6,24.3,12.6L24.3,12.6z M11.9,17c-1.3,0-2.7-0.9-2.7-2.2c0-1.3,1.3-2.2,2.7-2.2c1.3,0,2.2,0.9,2.2,2.2
		C14.1,16.2,13.2,17,11.9,17L11.9,17z"/>
	<path fill-rule="evenodd" clip-rule="evenodd" fill="#84D64D" d="M49.9,31.2c0-7.1-7.1-12.8-15-12.8c-8.4,0-15,5.8-15,12.8
		c0,7.1,6.6,12.8,15,12.8c1.8,0,3.5-0.4,5.3-0.9l4.8,2.7l-1.3-4.4C47.2,38.7,49.9,35.2,49.9,31.2L49.9,31.2z M30,29
		c-0.9,0-1.8-0.9-1.8-1.8c0-0.9,0.9-1.8,1.8-1.8c1.3,0,2.2,0.9,2.2,1.8C32.2,28.1,31.4,29,30,29L30,29z M39.7,29
		c-0.9,0-1.8-0.9-1.8-1.8c0-0.9,0.9-1.8,1.8-1.8c1.3,0,2.2,0.9,2.2,1.8C41.9,28.1,41,29,39.7,29L39.7,29z"/>
</g>
</svg>
