<?xml version="1.0" encoding="utf-8"?>
<!-- Generator: Adobe Illustrator 18.0.0, SVG Export Plug-In . SVG Version: 6.00 Build 0)  -->
<!DOCTYPE svg PUBLIC "-//W3C//DTD SVG 1.1//EN" "http://www.w3.org/Graphics/SVG/1.1/DTD/svg11.dtd">
<svg version="1.1" id="图层_1" xmlns="http://www.w3.org/2000/svg" xmlns:xlink="http://www.w3.org/1999/xlink" x="0px" y="0px"
	 viewBox="0 0 44 44" enable-background="new 0 0 44 44" xml:space="preserve">
<g>
	<path fill-rule="evenodd" clip-rule="evenodd" fill="#BAA071" d="M10.2,11.4c0-0.9,0.8-1.7,1.7-1.7h10.3c0.9,0,1.7,0.8,1.7,1.7
		c0,0.9-0.8,1.7-1.7,1.7H11.9C11,13.1,10.2,12.3,10.2,11.4L10.2,11.4z M32.4,17.9H11.9c-0.9,0-1.7,0.8-1.7,1.7
		c0,0.9,0.8,1.7,1.7,1.7h20.5c0.9,0,1.7-0.8,1.7-1.7C34.2,18.6,33.4,17.9,32.4,17.9L32.4,17.9z M32.4,24H11.9
		c-0.9,0-1.7,0.8-1.7,1.7c0,0.9,0.8,1.7,1.7,1.7h20.5c0.9,0,1.7-0.8,1.7-1.7C34.2,24.8,33.4,24,32.4,24L32.4,24z M38.6,17.8
		c0.9,0,1.7-0.8,1.7-1.7V5.9c0-3.2-2.6-5.8-5.8-5.8H9.6C6.4,0,3.8,2.7,3.8,5.9v32.2c0,3.2,2.6,5.8,5.8,5.8h24.9
		c3.2,0,5.8-2.6,5.8-5.8V24.3c0-0.9-0.8-1.7-1.7-1.7c-0.9,0-1.7,0.8-1.7,1.7v13.7c0,1.3-1.1,2.4-2.4,2.4H9.6c-1.3,0-2.4-1.1-2.4-2.4
		V5.9c0-1.3,1.1-2.4,2.4-2.4h24.9c1.3,0,2.4,1.1,2.4,2.4v10.3C36.9,17.1,37.7,17.8,38.6,17.8L38.6,17.8z"/>
</g>
</svg>
