<?xml version="1.0" encoding="utf-8"?>
<!-- Generator: Adobe Illustrator 18.0.0, SVG Export Plug-In . SVG Version: 6.00 Build 0)  -->
<!DOCTYPE svg PUBLIC "-//W3C//DTD SVG 1.1//EN" "http://www.w3.org/Graphics/SVG/1.1/DTD/svg11.dtd">
<svg version="1.1" id="图层_1" xmlns="http://www.w3.org/2000/svg" xmlns:xlink="http://www.w3.org/1999/xlink" x="0px" y="0px"
	 viewBox="0 0 44 44" enable-background="new 0 0 44 44" xml:space="preserve">
<g>
	<linearGradient id="SVGID_1_" gradientUnits="userSpaceOnUse" x1="9.923214e-02" y1="21.8617" x2="43.9048" y2="21.8617">
		<stop  offset="0" style="stop-color:#000000"/>
		<stop  offset="0.1219" style="stop-color:#717071"/>
		<stop  offset="0.1246" style="stop-color:#6C6B6C"/>
		<stop  offset="0.1445" style="stop-color:#4D4C4D"/>
		<stop  offset="0.1663" style="stop-color:#323232"/>
		<stop  offset="0.1901" style="stop-color:#1E1E1E"/>
		<stop  offset="0.2171" style="stop-color:#101010"/>
		<stop  offset="0.2499" style="stop-color:#080708"/>
		<stop  offset="0.3049" style="stop-color:#050505"/>
		<stop  offset="0.4257" style="stop-color:#3E3A39"/>
		<stop  offset="0.4729" style="stop-color:#373333"/>
		<stop  offset="0.5417" style="stop-color:#242121"/>
		<stop  offset="0.6233" style="stop-color:#040404"/>
		<stop  offset="0.6321" style="stop-color:#000000"/>
		<stop  offset="1" style="stop-color:#000000"/>
	</linearGradient>
	<path fill-rule="evenodd" clip-rule="evenodd" fill="url(#SVGID_1_)" d="M27.8,28H31v3.5h-3.2V28L27.8,28L27.8,28L27.8,28z
		 M31.8,28H35v3.5h-3.2V28L31.8,28L31.8,28L31.8,28z M35.9,28h3.2v3.5h-3.2V28L35.9,28L35.9,28L35.9,28z M0.1,33.5
		c0,2,1.8,3.7,3.9,3.7H40c2.2,0,3.9-1.7,3.9-3.7V17.9H0.1V33.5L0.1,33.5L0.1,33.5L0.1,33.5z M40,6.5H4c-2.2,0-3.9,1.7-3.9,3.7v4.1
		h43.8v-4.1C43.9,8.2,42.1,6.5,40,6.5L40,6.5L40,6.5L40,6.5z"/>
</g>
</svg>
