<?xml version="1.0" encoding="utf-8"?>
<!-- Generator: Adobe Illustrator 19.0.0, SVG Export Plug-In . SVG Version: 6.00 Build 0)  -->
<svg version="1.1" id="图层_1" xmlns="http://www.w3.org/2000/svg" xmlns:xlink="http://www.w3.org/1999/xlink" x="0px" y="0px"
	 viewBox="-352 646 44 44" style="enable-background:new -352 646 44 44;" xml:space="preserve">
<style type="text/css">
	.st0{fill-rule:evenodd;clip-rule:evenodd;fill:url(#XMLID_9_);}
</style>
<g id="XMLID_2_">
	<linearGradient id="XMLID_9_" gradientUnits="userSpaceOnUse" x1="-351.9028" y1="668" x2="-308.0972" y2="668">
		<stop  offset="0" style="stop-color:#53F4E7"/>
		<stop  offset="0.1219" style="stop-color:#E1F9F7"/>
		<stop  offset="0.1225" style="stop-color:#E0F9F7"/>
		<stop  offset="0.1397" style="stop-color:#BAF8F3"/>
		<stop  offset="0.158" style="stop-color:#9BF7EF"/>
		<stop  offset="0.1779" style="stop-color:#80F6EC"/>
		<stop  offset="0.1997" style="stop-color:#6CF5EA"/>
		<stop  offset="0.2245" style="stop-color:#5EF4E8"/>
		<stop  offset="0.2545" style="stop-color:#56F4E7"/>
		<stop  offset="0.3049" style="stop-color:#53F4E7"/>
		<stop  offset="0.4257" style="stop-color:#E1F9F7"/>
		<stop  offset="0.4527" style="stop-color:#DAF9F6"/>
		<stop  offset="0.492" style="stop-color:#C7F8F4"/>
		<stop  offset="0.5389" style="stop-color:#A7F7F0"/>
		<stop  offset="0.5911" style="stop-color:#7BF5EB"/>
		<stop  offset="0.6321" style="stop-color:#53F4E7"/>
		<stop  offset="1" style="stop-color:#53F4E7"/>
	</linearGradient>
	<path id="XMLID_3_" class="st0" d="M-324.2,674.1h3.2v3.5h-3.2V674.1L-324.2,674.1L-324.2,674.1L-324.2,674.1z M-320.2,674.1h3.2
		v3.5h-3.2V674.1L-320.2,674.1L-320.2,674.1L-320.2,674.1z M-316.1,674.1h3.2v3.5h-3.2V674.1L-316.1,674.1L-316.1,674.1
		L-316.1,674.1z M-351.9,679.6c0,2,1.8,3.7,3.9,3.7h35.9c2.2,0,3.9-1.7,3.9-3.7V664h-43.8V679.6L-351.9,679.6L-351.9,679.6
		L-351.9,679.6z M-312,652.7H-348c-2.2,0-3.9,1.7-3.9,3.7v4.1h43.8v-4.1C-308.1,654.3-309.9,652.7-312,652.7L-312,652.7L-312,652.7
		L-312,652.7z"/>
</g>
</svg>
