<?xml version="1.0" encoding="utf-8"?>
<!-- Generator: Adobe Illustrator 18.0.0, SVG Export Plug-In . SVG Version: 6.00 Build 0)  -->
<!DOCTYPE svg PUBLIC "-//W3C//DTD SVG 1.1//EN" "http://www.w3.org/Graphics/SVG/1.1/DTD/svg11.dtd">
<svg version="1.1" id="图层_1" xmlns="http://www.w3.org/2000/svg" xmlns:xlink="http://www.w3.org/1999/xlink" x="0px" y="0px"
	 viewBox="0 0 44 44" enable-background="new 0 0 44 44" xml:space="preserve">
<g>
	<path fill-rule="evenodd" clip-rule="evenodd" fill="#D8D8D8" d="M27.8,28H31v3.5h-3.2V28L27.8,28L27.8,28L27.8,28z M31.8,28H35
		v3.5h-3.2V28L31.8,28L31.8,28L31.8,28z M35.9,28h3.2v3.5h-3.2V28L35.9,28L35.9,28L35.9,28z M0.1,33.5c0,2,1.8,3.7,3.9,3.7H40
		c2.2,0,3.9-1.7,3.9-3.7V17.9H0.1V33.5L0.1,33.5L0.1,33.5L0.1,33.5z M40,6.5H4c-2.2,0-3.9,1.7-3.9,3.7v4.1h43.8v-4.1
		C43.9,8.2,42.1,6.5,40,6.5L40,6.5L40,6.5L40,6.5z"/>
</g>
</svg>
