<?xml version="1.0" standalone="no"?><!DOCTYPE svg PUBLIC "-//W3C//DTD SVG 1.1//EN" "http://www.w3.org/Graphics/SVG/1.1/DTD/svg11.dtd"><svg width="64" height="64" viewBox="0 0 64 64" version="1.1" xmlns="http://www.w3.org/2000/svg" xmlns:xlink="http://www.w3.org/1999/xlink"><defs><style type="text/css"><![CDATA[
@font-face { font-family: ifont; src: url("http://at.alicdn.com/t/font_1442373896_4754455.eot?#iefix") format("embedded-opentype"), url("http://at.alicdn.com/t/font_1442373896_4754455.woff") format("woff"), url("http://at.alicdn.com/t/font_1442373896_4754455.ttf") format("truetype"), url("http://at.alicdn.com/t/font_1442373896_4754455.svg#ifont") format("svg"); }

]]></style></defs><g class="transform-group"><g transform="scale(0.0625, 0.0625)"><path d="M562.87 523.701l0-49.933-29.677 0 0-49.05-49.933 0 0 49.05-60.384 0 0-49.05-49.933 0 0 49.05-28.71 0 0 49.933 84.353 0 0 43.075-84.353 0 0 49.933 84.353 0 0 82.922 49.933 0 0-82.922 84.353 0 0-49.933-84.353 0 0-43.075zM794.039 769.184l-667.194 0 0-431.714 667.194 0c0 0 0 431.714 0 431.714zM176.777 719.252l567.329 0 0-331.849-567.329 0 0 331.849zM887.76 636.581l-91.259 0 0-49.933 41.328 0 0-292.986-608.29 0 0-49.933 658.223 0z" fill="#56abe4"></path></g></g></svg>