<?xml version="1.0" encoding="utf-8"?>
<!-- Generator: Adobe Illustrator 18.0.0, SVG Export Plug-In . SVG Version: 6.00 Build 0)  -->
<!DOCTYPE svg PUBLIC "-//W3C//DTD SVG 1.1//EN" "http://www.w3.org/Graphics/SVG/1.1/DTD/svg11.dtd">
<svg version="1.1" id="图层_1" xmlns="http://www.w3.org/2000/svg" xmlns:xlink="http://www.w3.org/1999/xlink" x="0px" y="0px"
	 viewBox="0 0 68 68" enable-background="new 0 0 68 68" xml:space="preserve">
<g>
	<path fill-rule="evenodd" clip-rule="evenodd" fill="#BAA071" d="M1.9,35.8l30.3,0.1l0.1,30.3c0,1,0.8,1.8,1.8,1.8
		c1,0,1.8-0.8,1.8-1.8l-0.1-30.4l30.4,0.1c1,0,1.8-0.8,1.8-1.8c0-1-0.8-1.8-1.8-1.8l-30.3-0.1L35.9,1.8c0-1-0.8-1.8-1.8-1.8
		c-1,0-1.8,0.8-1.8,1.8l0.1,30.4L1.9,32.2c-1,0-1.8,0.8-1.8,1.8C0.1,35,0.9,35.8,1.9,35.8L1.9,35.8z"/>
</g>
</svg>
