<?xml version="1.0" encoding="utf-8"?>
<!-- Generator: Adobe Illustrator 18.0.0, SVG Export Plug-In . SVG Version: 6.00 Build 0)  -->
<!DOCTYPE svg PUBLIC "-//W3C//DTD SVG 1.1//EN" "http://www.w3.org/Graphics/SVG/1.1/DTD/svg11.dtd">
<svg version="1.1" id="图层_1" xmlns="http://www.w3.org/2000/svg" xmlns:xlink="http://www.w3.org/1999/xlink" x="0px" y="0px"
	 viewBox="0 0 44 44" enable-background="new 0 0 44 44" xml:space="preserve">
<path fill-rule="evenodd" clip-rule="evenodd" fill="#333333" d="M43.1,19.8l-5.4,5.4l-0.1-0.1c-0.2,0.5-0.4,0.9-0.7,1.2L23.4,39.8
	c-1.2,1.2-3.3,1.2-4.5,0l-18-18c-1.2-1.2-1.2-3.3,0-4.5L14.4,3.9c1.2-1.2,3.3-1.2,4.5,0l4.3,4.3l4.1-4.1c1.2-1.2,3.3-1.2,4.5,0
	l11.2,11.2C44.3,16.6,44.3,18.6,43.1,19.8L43.1,19.8z M17.6,6.7C17,6,15.9,6,15.3,6.7L3.6,18.4c-0.6,0.6-0.6,1.7,0,2.3L20,37.1
	c0.6,0.6,1.7,0.6,2.3,0l0.5-0.5L14,27.7c-0.3-0.3-0.3-0.8,0-1.2l1.2-1.2c0.3-0.3,0.8-0.3,1.2,0l8.8,8.8l1.8-1.8l-8-8
	c-0.3-0.3-0.3-0.8,0-1.2l1.2-1.2c0.3-0.3,0.8-0.3,1.2,0l8,8l1.8-1.8l-7.2-7.2c-0.3-0.3-0.3-0.8,0-1.2l1.2-1.2c0.3-0.3,0.8-0.3,1.2,0
	l7.2,7.2l0.5-0.5c0.6-0.6,0.6-1.7,0-2.3L17.6,6.7L17.6,6.7z M40.4,16.2l-9.4-9.4c-0.6-0.6-1.7-0.6-2.3,0L25.6,10l11.7,11.7l3.1-3.1
	C41.1,17.9,41.1,16.9,40.4,16.2L40.4,16.2z"/>
</svg>
