<?xml version="1.0" encoding="UTF-8"?>
<svg width="375px" height="150px" viewBox="0 0 375 150" version="1.1" xmlns="http://www.w3.org/2000/svg" xmlns:xlink="http://www.w3.org/1999/xlink">
    <!-- Generator: Sketch 43.2 (39069) - http://www.bohemiancoding.com/sketch -->
    <title>Group 30</title>
    <desc>Created with Sketch.</desc>
    <defs>
        <rect id="path-1" x="0" y="0" width="375" height="150"></rect>
        <rect id="path-3" x="0" y="0" width="375" height="150"></rect>
        <filter x="-52.9%" y="-127.7%" width="205.9%" height="355.3%" filterUnits="objectBoundingBox" id="filter-5">
            <feGaussianBlur stdDeviation="2.70516066 1.29696021" in="SourceGraphic"></feGaussianBlur>
        </filter>
        <ellipse id="path-6" cx="156.568575" cy="8.41498271" rx="14.1679938" ry="11.334395"></ellipse>
        <filter x="-1.8%" y="-2.2%" width="103.5%" height="108.8%" filterUnits="objectBoundingBox" id="filter-7">
            <feOffset dx="0" dy="1" in="SourceAlpha" result="shadowOffsetOuter1"></feOffset>
            <feColorMatrix values="0 0 0 0 0.870907738   0 0 0 0 0.701640266   0 0 0 0 0.286934959  0 0 0 1 0" type="matrix" in="shadowOffsetOuter1"></feColorMatrix>
        </filter>
        <ellipse id="path-8" cx="156.912972" cy="7.1373415" rx="12.0462325" ry="9.63698598"></ellipse>
        <filter x="-2.1%" y="-2.6%" width="104.2%" height="105.2%" filterUnits="objectBoundingBox" id="filter-9">
            <feGaussianBlur stdDeviation="0.5" in="SourceAlpha" result="shadowBlurInner1"></feGaussianBlur>
            <feOffset dx="0" dy="0" in="shadowBlurInner1" result="shadowOffsetInner1"></feOffset>
            <feComposite in="shadowOffsetInner1" in2="SourceAlpha" operator="arithmetic" k2="-1" k3="1" result="shadowInnerInner1"></feComposite>
            <feColorMatrix values="0 0 0 0 0.936277636   0 0 0 0 0.744879219   0 0 0 0 0.10885188  0 0 0 1 0" type="matrix" in="shadowInnerInner1"></feColorMatrix>
        </filter>
        <text id="text-10" font-family="MicrosoftYaHei-Bold, Microsoft YaHei" font-size="8" font-weight="bold" line-spacing="8" fill="#FD6A4D">
            <tspan x="151.029203" y="9.05880179">时币</tspan>
        </text>
        <filter x="-0.6%" y="-26.2%" width="101.2%" height="127.5%" filterUnits="objectBoundingBox" id="filter-11">
            <feGaussianBlur stdDeviation="0.1" in="SourceAlpha" result="shadowBlurInner1"></feGaussianBlur>
            <feOffset dx="0" dy="0" in="shadowBlurInner1" result="shadowOffsetInner1"></feOffset>
            <feComposite in="shadowOffsetInner1" in2="SourceAlpha" operator="arithmetic" k2="-1" k3="1" result="shadowInnerInner1"></feComposite>
            <feColorMatrix values="0 0 0 0 0.894185799   0 0 0 0 0.112690556   0 0 0 0 0.112690556  0 0 0 1 0" type="matrix" in="shadowInnerInner1"></feColorMatrix>
        </filter>
        <filter x="-0.6%" y="-26.2%" width="101.2%" height="127.5%" filterUnits="objectBoundingBox" id="filter-12">
            <feGaussianBlur stdDeviation="0.1" in="SourceAlpha" result="shadowBlurInner1"></feGaussianBlur>
            <feOffset dx="0" dy="0" in="shadowBlurInner1" result="shadowOffsetInner1"></feOffset>
            <feComposite in="shadowOffsetInner1" in2="SourceAlpha" operator="arithmetic" k2="-1" k3="1" result="shadowInnerInner1"></feComposite>
            <feColorMatrix values="0 0 0 0 0.894185799   0 0 0 0 0.112690556   0 0 0 0 0.112690556  0 0 0 1 0" type="matrix" in="shadowInnerInner1"></feColorMatrix>
        </filter>
        <ellipse id="path-13" cx="14.5499075" cy="11.6717317" rx="14.1679938" ry="11.334395"></ellipse>
        <filter x="-1.8%" y="-2.2%" width="103.5%" height="108.8%" filterUnits="objectBoundingBox" id="filter-14">
            <feOffset dx="0" dy="1" in="SourceAlpha" result="shadowOffsetOuter1"></feOffset>
            <feColorMatrix values="0 0 0 0 0.768760629   0 0 0 0 0.615653498   0 0 0 0 0.240541027  0 0 0 1 0" type="matrix" in="shadowOffsetOuter1"></feColorMatrix>
        </filter>
        <ellipse id="path-15" cx="14.3815893" cy="11.5370771" rx="12.0462325" ry="9.63698598"></ellipse>
        <filter x="-2.1%" y="-2.6%" width="104.2%" height="105.2%" filterUnits="objectBoundingBox" id="filter-16">
            <feGaussianBlur stdDeviation="0.5" in="SourceAlpha" result="shadowBlurInner1"></feGaussianBlur>
            <feOffset dx="0" dy="0" in="shadowBlurInner1" result="shadowOffsetInner1"></feOffset>
            <feComposite in="shadowOffsetInner1" in2="SourceAlpha" operator="arithmetic" k2="-1" k3="1" result="shadowInnerInner1"></feComposite>
            <feColorMatrix values="0 0 0 0 0.672911352   0 0 0 0 0.537178719   0 0 0 0 0.0861318034  0 0 0 1 0" type="matrix" in="shadowInnerInner1"></feColorMatrix>
        </filter>
        <text id="text-17" font-family="MicrosoftYaHei-Bold, Microsoft YaHei" font-size="8" font-weight="bold" line-spacing="8" fill="#FD6A4D">
            <tspan x="6" y="16">时币</tspan>
        </text>
        <filter x="-0.6%" y="-26.2%" width="101.2%" height="127.5%" filterUnits="objectBoundingBox" id="filter-18">
            <feGaussianBlur stdDeviation="0.1" in="SourceAlpha" result="shadowBlurInner1"></feGaussianBlur>
            <feOffset dx="0" dy="0" in="shadowBlurInner1" result="shadowOffsetInner1"></feOffset>
            <feComposite in="shadowOffsetInner1" in2="SourceAlpha" operator="arithmetic" k2="-1" k3="1" result="shadowInnerInner1"></feComposite>
            <feColorMatrix values="0 0 0 0 0.383822279   0 0 0 0 0.0447141445   0 0 0 0 0.0447141445  0 0 0 1 0" type="matrix" in="shadowInnerInner1"></feColorMatrix>
        </filter>
        <filter x="-0.6%" y="-26.2%" width="101.2%" height="127.5%" filterUnits="objectBoundingBox" id="filter-19">
            <feGaussianBlur stdDeviation="0.1" in="SourceAlpha" result="shadowBlurInner1"></feGaussianBlur>
            <feOffset dx="0" dy="0" in="shadowBlurInner1" result="shadowOffsetInner1"></feOffset>
            <feComposite in="shadowOffsetInner1" in2="SourceAlpha" operator="arithmetic" k2="-1" k3="1" result="shadowInnerInner1"></feComposite>
            <feColorMatrix values="0 0 0 0 0.383822279   0 0 0 0 0.0447141445   0 0 0 0 0.0447141445  0 0 0 1 0" type="matrix" in="shadowInnerInner1"></feColorMatrix>
        </filter>
        <text id="text-20" font-family="MicrosoftYaHei-Bold, Microsoft YaHei" font-size="8" font-weight="bold" line-spacing="8" fill="#FD6A4D">
            <tspan x="124.259687" y="152.826094">时币</tspan>
        </text>
        <filter x="-0.6%" y="-26.2%" width="101.2%" height="127.5%" filterUnits="objectBoundingBox" id="filter-21">
            <feGaussianBlur stdDeviation="0.1" in="SourceAlpha" result="shadowBlurInner1"></feGaussianBlur>
            <feOffset dx="0" dy="0" in="shadowBlurInner1" result="shadowOffsetInner1"></feOffset>
            <feComposite in="shadowOffsetInner1" in2="SourceAlpha" operator="arithmetic" k2="-1" k3="1" result="shadowInnerInner1"></feComposite>
            <feColorMatrix values="0 0 0 0 0.759486607   0 0 0 0 0.0720559322   0 0 0 0 0.0720559322  0 0 0 1 0" type="matrix" in="shadowInnerInner1"></feColorMatrix>
        </filter>
        <filter x="-0.6%" y="-26.2%" width="101.2%" height="127.5%" filterUnits="objectBoundingBox" id="filter-22">
            <feGaussianBlur stdDeviation="0.1" in="SourceAlpha" result="shadowBlurInner1"></feGaussianBlur>
            <feOffset dx="0" dy="0" in="shadowBlurInner1" result="shadowOffsetInner1"></feOffset>
            <feComposite in="shadowOffsetInner1" in2="SourceAlpha" operator="arithmetic" k2="-1" k3="1" result="shadowInnerInner1"></feComposite>
            <feColorMatrix values="0 0 0 0 0.759486607   0 0 0 0 0.0720559322   0 0 0 0 0.0720559322  0 0 0 1 0" type="matrix" in="shadowInnerInner1"></feColorMatrix>
        </filter>
        <path d="M109.623054,44.8911482 L109.623054,48.8217913 L119.39497,48.8217913 L119.665777,50.153309 L122.61977,50.0921563 L122.709267,48.8217913 L132.2612,48.8217913 L132.181947,50.0921563 L136.272874,50.7349734 L136.97233,48.8217913 L147.725293,48.8217913 L146.895247,42.1501553 L139.282835,42.9286072 L140.96819,39.7661869 L133.961337,38.2980896 L133.257881,43.2590598 L122.899276,43.997728 L123.039028,41.2167299 L118.239425,41.2167299 L118.817198,44.3536195 L109.623054,44.8911482 Z M117.208701,51.4362852 L122.1952,53.2404073 L118.338647,58.8275932 L126.566788,63.1708602 L119.817963,77.237665 L116.900731,77.237665 L121.055681,66.2191661 L120.178878,65.8920819 L113.248639,73.7512632 L111.633554,72.6544405 L116.900731,64.3369751 L114.666814,63.2897164 L111.062679,68.3699001 L108.933617,67.0253854 L111.633554,62.1660083 L107.850614,60.201218 L111.062679,54.5206302 L114.666814,56.6017873 L117.208701,51.4362852 Z M126.726308,57.2255188 L132.308544,58.2973492 L132.983646,53.1471347 L142.167037,52.6789829 L139.499858,59.4485144 L148.818929,60.6434293 L148.167107,63.8939927 L140.622138,63.8939927 L146.564911,73.3406157 L144.679469,76.1380763 L136.776116,65.4233585 L131.869089,77.7381945 L128.708685,76.1380763 L131.320432,63.8939927 L127.669499,63.8939927 L126.726308,57.2255188 Z M146.27094,52.715099 L148.83419,57.8723833 L146.122781,59.0657615 L142.89441,55.8904302 L146.27094,52.715099 Z M176.713622,48.400086 L195.66322,45.4192554 L196.66322,53.362886 L190.40214,61.8753627 L194.844925,65.0496806 L191.097919,71.4919569 L186.688421,66.3018797 L181.063195,74.4528858 L178.367016,71.4919569 L183.96938,62.873184 L181.650833,60.4360706 L179.446405,52.0109749 L176.713622,52.0109749 L176.713622,48.400086 Z M179.447662,52.0137024 L181.652603,60.4398651 L183.59546,56.9328493 L186.807585,59.4804467 L191.216204,51.7735924 L179.447662,52.0137024 Z M175.757231,64.3943511 L176.773913,67.5787076 L172.681309,69.0236115 L172.681309,76.2866249 L168.807925,76.2866249 L168.807925,70.3196821 L156.071992,75.655137 L153.83419,70.8903075 L158.123248,69.4603362 L154.629402,47.2542363 L152.83419,47.2542363 L151.83419,44.0312253 L176.773913,40.6872156 L176.123702,47.9026316 L173.348336,47.8215363 L172.681309,65.3043958 L175.757231,64.3943511 Z M168.807925,66.436511 L168.807925,63.2874246 L161.60889,62.7617437 L162.172788,68.3312813 L168.807925,66.436511 Z M161.545493,59.252254 L168.807925,60.0015744 L168.807925,55.3571974 L161.210151,56.2027794 L161.545493,59.252254 Z M160.786181,52.9102434 L168.807925,52.0575599 L168.807925,47.6161664 L160.041805,47.4979454 L160.786181,52.9102434 Z M216.886646,42.4624386 L213.574097,70.5599931 L210.034656,70.5599931 L210.034656,68.7385631 L203.160091,67.8700606 L203.160091,69.9479383 L199.905646,70.5599931 L198.62617,44.5423497 L216.886646,42.4624386 Z M203.160091,63.8903196 L210.484807,64.5080223 L211.035173,58.0921774 L203.160091,59.0272016 L203.160091,63.8903196 Z M202.972514,55.7239153 L211.296472,54.6526541 L211.871443,48.3892311 L202.735464,49.0738793 L202.972514,55.7239153 Z M222.879223,77.0618479 L222.210362,73.2896062 C224.165917,73.4276309 229.50604,73.5767259 229.863317,69.3177714 C229.863317,69.3177714 228.368876,52.7597144 228.368876,52.7597144 L216.704325,52.7597144 L216.704325,48.2000025 L227.879646,47.1752566 L227.554127,43.4214417 L234.437261,42.727597 L234.437261,45.818851 L238.460701,45.4733887 L237.078639,52.7597144 L234.437261,52.7597144 L234.437261,70.373208 C234.000239,77.2201245 222.879223,77.0618479 222.879223,77.0618479 Z M272.363589,46.2672247 L258.427388,49.314591 L258.665924,44.120291 L266.58487,42.6125549 L260.655837,37 L244.037961,44.120291 L245.075935,46.7094111 L251.586342,45.3779997 L252.024379,50.4346602 L245.611618,51.6171978 L245.365716,49.4170917 L239.388098,49.8779036 L244.037961,66.8618413 L247.297864,65.7181473 L245.929949,54.6383492 L252.310423,53.9862484 L253.262518,78.1428032 L258.293976,80.0834263 L258.293976,53.5419988 L266.208069,52.8230572 L260.623822,65.1817596 L264.050322,65.7181473 L272.363589,52.8230572 L272.363589,46.2672247 Z" id="path-23"></path>
        <filter x="-4.3%" y="-11.6%" width="108.5%" height="132.5%" filterUnits="objectBoundingBox" id="filter-24">
            <feOffset dx="0" dy="2" in="SourceAlpha" result="shadowOffsetOuter1"></feOffset>
            <feGaussianBlur stdDeviation="2" in="shadowOffsetOuter1" result="shadowBlurOuter1"></feGaussianBlur>
            <feColorMatrix values="0 0 0 0 0   0 0 0 0 0   0 0 0 0 0  0 0 0 0.5 0" type="matrix" in="shadowBlurOuter1"></feColorMatrix>
        </filter>
        <filter x="-2.7%" y="-5.8%" width="105.5%" height="120.9%" filterUnits="objectBoundingBox" id="filter-25">
            <feOffset dx="0" dy="1" in="SourceAlpha" result="shadowOffsetInner1"></feOffset>
            <feComposite in="shadowOffsetInner1" in2="SourceAlpha" operator="arithmetic" k2="-1" k3="1" result="shadowInnerInner1"></feComposite>
            <feColorMatrix values="0 0 0 0 1   0 0 0 0 1   0 0 0 0 1  0 0 0 0.5 0" type="matrix" in="shadowInnerInner1"></feColorMatrix>
        </filter>
        <filter x="-2.5%" y="-26.1%" width="105.0%" height="165.2%" filterUnits="objectBoundingBox" id="filter-26">
            <feOffset dx="0" dy="2" in="SourceAlpha" result="shadowOffsetOuter1"></feOffset>
            <feGaussianBlur stdDeviation="2" in="shadowOffsetOuter1" result="shadowBlurOuter1"></feGaussianBlur>
            <feColorMatrix values="0 0 0 0 0   0 0 0 0 0   0 0 0 0 0  0 0 0 0.5 0" type="matrix" in="shadowBlurOuter1" result="shadowMatrixOuter1"></feColorMatrix>
            <feMerge>
                <feMergeNode in="shadowMatrixOuter1"></feMergeNode>
                <feMergeNode in="SourceGraphic"></feMergeNode>
            </feMerge>
        </filter>
        <polygon id="path-27" points="2.46921099e-16 10.8134596 2.46921099e-16 0.115631387 9.24448664 0.115631387 9.24448664 10.8134596 0 10.8134596"></polygon>
        <polygon id="path-29" points="9.70407638 10.8606795 9.70407638 0.166961235 0.153891601 0.166961235 0.153891601 10.8606795"></polygon>
        <polygon id="path-31" points="8.32852634 8.91270227 0.176496192 8.91270227 0.176496192 0.146456938 8.32852634 0.146456938 8.32852634 8.91270227"></polygon>
        <path d="M220.185101,61.4178654 C220.185101,61.4178654 221.774164,56.6590625 221.774164,56.6590625 C221.774164,56.6590625 222.791868,59.5249766 227.393364,59.885702 C227.393364,59.885702 227.070407,64.902351 227.070407,64.902351 C227.070407,64.902351 221.315867,65.3935508 220.185101,61.4178654 Z" id="path-33"></path>
        <filter x="-97.1%" y="-60.5%" width="294.2%" height="269.4%" filterUnits="objectBoundingBox" id="filter-34">
            <feOffset dx="0" dy="2" in="SourceAlpha" result="shadowOffsetOuter1"></feOffset>
            <feGaussianBlur stdDeviation="2" in="shadowOffsetOuter1" result="shadowBlurOuter1"></feGaussianBlur>
            <feColorMatrix values="0 0 0 0 0   0 0 0 0 0   0 0 0 0 0  0 0 0 0.5 0" type="matrix" in="shadowBlurOuter1"></feColorMatrix>
        </filter>
        <filter x="-86.9%" y="-121.9%" width="273.9%" height="343.7%" filterUnits="objectBoundingBox" id="filter-35">
            <feGaussianBlur stdDeviation="2.90574939 3.76318364" in="SourceGraphic"></feGaussianBlur>
        </filter>
    </defs>
    <g id="Page-1" stroke="none" stroke-width="1" fill="none" fill-rule="evenodd">
        <g id="首页" transform="translate(0.000000, -1010.000000)">
            <g id="Group-30" transform="translate(0.000000, 1010.000000)">
                <mask id="mask-2" fill="white">
                    <use xlink:href="#path-1"></use>
                </mask>
                <use id="Mask" fill="#FFFFFF" xlink:href="#path-1"></use>
                <mask id="mask-4" fill="white">
                    <use xlink:href="#path-3"></use>
                </mask>
                <use id="Mask" fill="#FDD942" xlink:href="#path-3"></use>
                <path d="M20.6431314,60.3333333 L38.7686334,60.3333333 L36.4907996,60.3333333 C35.0115433,60.3333333 33.8235294,61.5272407 33.8235294,63 C33.8235294,64.4697626 35.017707,65.6666667 36.4907996,65.6666667 L38.7686334,65.6666667 L20.6431314,65.6666667 L22.9209651,65.6666667 C24.4002214,65.6666667 25.5882353,64.4727593 25.5882353,63 C25.5882353,61.5302374 24.3940577,60.3333333 22.9209651,60.3333333 L20.6431314,60.3333333 Z M5.82352941,57.6666667 C5.82352941,56.1939073 7.01984026,55 8.48734291,55 L41.0420689,55 C42.5132524,55 43.7058824,56.1969041 43.7058824,57.6666667 C43.7058824,59.139426 42.5095715,60.3333333 41.0420689,60.3333333 L8.48734291,60.3333333 C7.01615934,60.3333333 5.82352941,59.1364292 5.82352941,57.6666667 Z M-9,68.3333333 C-9,66.860574 -7.80445288,65.6666667 -6.33667709,65.6666667 L44.3366771,65.6666667 C45.8075897,65.6666667 47,66.8635708 47,68.3333333 C47,69.8060927 45.8044529,71 44.3366771,71 L-6.33667709,71 C-7.80758972,71 -9,69.8030959 -9,68.3333333 Z" id="Combined-Shape" fill="#FFE576" mask="url(#mask-4)" transform="translate(19.000000, 63.000000) scale(-1, 1) translate(-19.000000, -63.000000) "></path>
                <path d="M376.206078,40 L391.593922,40 L389.396507,40 C388.286008,40 387.4,40.8954305 387.4,42 C387.4,43.1122704 388.293867,44 389.396507,44 L391.593922,44 L376.206078,44 L378.403493,44 C379.513992,44 380.4,43.1045695 380.4,42 C380.4,40.8877296 379.506133,40 378.403493,40 L376.206078,40 Z M363.6,38 C363.6,36.8954305 364.49482,36 365.602088,36 L393.797912,36 C394.903635,36 395.8,36.8877296 395.8,38 C395.8,39.1045695 394.90518,40 393.797912,40 L365.602088,40 C364.496365,40 363.6,39.1122704 363.6,38 Z M351,46 C351,44.8954305 351.887481,44 352.999785,44 L396.600215,44 C397.704666,44 398.6,44.8877296 398.6,46 C398.6,47.1045695 397.712519,48 396.600215,48 L352.999785,48 C351.895334,48 351,47.1122704 351,46 Z" id="Combined-Shape-Copy" fill="#FFE576" mask="url(#mask-4)" transform="translate(374.800000, 42.000000) scale(-1, 1) translate(-374.800000, -42.000000) "></path>
                <path d="M81.5,68.7515926 C76.8055796,68.7515926 73,67.1733303 73,65.226445 C73,63.2795598 76.8055796,61.7012975 81.5,61.7012975 C86.1944204,61.7012975 90,63.2795598 90,65.226445 C90,67.1733303 86.1944204,68.7515926 81.5,68.7515926 Z" id="Combined-Shape-Copy-2" fill="#4990E2" filter="url(#filter-5)" mask="url(#mask-4)" transform="translate(81.500000, 65.226445) rotate(307.000000) translate(-81.500000, -65.226445) "></path>
                <g id="Oval-2" mask="url(#mask-4)">
                    <use fill="black" fill-opacity="1" filter="url(#filter-7)" xlink:href="#path-6"></use>
                    <use fill="#FDD942" fill-rule="evenodd" xlink:href="#path-6"></use>
                </g>
                <g id="Oval" mask="url(#mask-4)">
                    <use fill="#F3CE31" fill-rule="evenodd" xlink:href="#path-8"></use>
                    <use fill="black" fill-opacity="1" filter="url(#filter-9)" xlink:href="#path-8"></use>
                </g>
                <g id="时币" mask="url(#mask-4)" fill-opacity="1" fill="#FD6A4D">
                    <use filter="url(#filter-11)" xlink:href="#text-10"></use>
                    <use filter="url(#filter-12)" xlink:href="#text-10"></use>
                </g>
                <g id="Group-30-Copy-9" opacity="0.397644928" mask="url(#mask-4)">
                    <g transform="translate(375.436399, 92.402709) rotate(28.000000) translate(-375.436399, -92.402709) translate(360.936399, 80.402709)">
                        <g id="Oval-2">
                            <use fill="black" fill-opacity="1" filter="url(#filter-14)" xlink:href="#path-13"></use>
                            <use fill="#FDD942" fill-rule="evenodd" xlink:href="#path-13"></use>
                        </g>
                        <g id="Oval">
                            <use fill="#F2CE38" fill-rule="evenodd" xlink:href="#path-15"></use>
                            <use fill="black" fill-opacity="1" filter="url(#filter-16)" xlink:href="#path-15"></use>
                        </g>
                        <g id="时币" fill-opacity="1">
                            <use fill="#FD6A4D" filter="url(#filter-18)" xlink:href="#text-17"></use>
                            <use fill="#FD6A4D" filter="url(#filter-19)" xlink:href="#text-17"></use>
                        </g>
                    </g>
                </g>
                <g id="Group-36" mask="url(#mask-4)" fill="#F3CE36">
                    <g transform="translate(136.000000, 147.000000) rotate(36.000000) translate(-136.000000, -147.000000) translate(119.000000, 132.500000)">
                        <path d="M10.5238662,8.38554217 C5.64542253,11.078776 -1.76210511,17.3822748 0.37932109,22.8911685 C2.52074729,28.4000623 9.5635897,28.9211683 16.6013499,28.9211683 C23.6391102,28.9211683 30.6014541,28.5863088 32.905595,22.8911685 C35.2097359,17.1960282 27.4481002,11.3234151 22.0541046,8.38554217 C17.6328936,9.39637228 15.0051697,9.20940996 10.5238662,8.38554217 Z" id="Path-6"></path>
                        <path d="M10.8042595,7.47223869 C9.71385899,6.61985016 7.3409297,2.33838113 8.59869278,2.06045436 C9.85645587,1.78252759 12.2947724,4.12489241 13.5890483,4.0316796 C14.8833243,3.93846679 12.5497631,3.0954457e-14 14.912138,0 C17.2745129,-3.0954457e-14 18.1172819,3.95496463 19.1693171,4.0316796 C20.2213522,4.10839456 21.397668,1.78252759 23.4528088,2.06045436 C25.5079496,2.33838113 22.7778798,6.75103037 21.8820681,7.47223869 C20.9862564,8.19344702 11.89466,8.32462723 10.8042595,7.47223869 Z" id="Path-7"></path>
                    </g>
                </g>
                <g id="时币-copy" mask="url(#mask-4)" transform="translate(132.593801, 148.826094) rotate(42.000000) translate(-132.593801, -148.826094) " fill-opacity="1" fill="#FD6A4D">
                    <use filter="url(#filter-21)" xlink:href="#text-20"></use>
                    <use filter="url(#filter-22)" xlink:href="#text-20"></use>
                </g>
                <g id="获取时币" mask="url(#mask-4)">
                    <use fill="black" fill-opacity="1" filter="url(#filter-24)" xlink:href="#path-23"></use>
                    <use fill="#000000" fill-rule="evenodd" xlink:href="#path-23"></use>
                    <use fill="black" fill-opacity="1" filter="url(#filter-25)" xlink:href="#path-23"></use>
                </g>
                <g id="Page-1" filter="url(#filter-26)" mask="url(#mask-4)">
                    <g transform="translate(46.000000, 86.000000)">
                        <path d="M14.7799765,3.69971429 C14.8074161,5.63171429 14.8348556,7.56524762 14.8622951,9.46964762 C15.7403596,9.44204762 16.7007427,9.41444762 17.6885653,9.41444762 C19.2815817,9.41444762 20.5986786,9.46964762 21.5865012,9.58004762 C21.6413802,9.74564762 21.6688197,10.0216476 21.6688197,10.3804476 C21.6688197,10.7668476 21.6413802,11.0428476 21.5865012,11.1532476 C21.312106,11.2636476 20.0224487,11.2912476 17.6885653,11.2912476 C16.4263476,11.2912476 15.493404,11.2912476 14.8622951,11.2636476 L14.8622951,11.3740476 C14.8622951,13.500781 14.7799765,15.543181 14.6702185,17.475181 C16.9476984,17.6147143 19.1977388,17.7803143 21.4218641,18.0011143 L21.4218641,18.7739143 C21.4218641,19.1051143 21.366985,19.4087143 21.257227,19.7123143 C16.7281822,19.7123143 12.1991375,19.4915143 7.67009282,18.9947143 C7.58777426,18.6635143 7.56185917,18.3599143 7.56185917,18.082381 C7.56185917,17.8079143 7.56185917,17.5595143 7.61521378,17.281981 C9.37286728,17.281981 11.1015569,17.3387143 12.8317708,17.3939143 C12.7479279,15.460381 12.7204884,13.500781 12.7204884,11.5120476 C12.7204884,8.97284762 12.8043313,6.35084762 12.9964079,3.69971429 C13.2967182,3.56171429 13.5726378,3.47891429 13.847033,3.47891429 C14.1763072,3.47891429 14.5055814,3.56171429 14.7799765,3.69971429 M6.05116132,4.85891429 C5.94140325,5.32811429 5.77676615,5.74211429 5.55725001,6.12851429 C4.02063706,6.01811429 2.67610073,5.52131429 1.49467708,4.58291429 C1.57699563,4.11371429 1.71419322,3.67211429 1.90626984,3.28571429 C3.17001204,3.45131429 4.54198788,3.97571429 6.05116132,4.85891429 M5.25541532,8.83484762 C5.14565726,11.7880476 4.8987016,14.687581 4.54198788,17.5319143 C5.22797581,17.640781 5.94140325,17.723581 6.70970972,17.7803143 C6.70970972,18.2219143 6.65483069,18.7463143 6.57251214,19.3259143 C5.36517339,19.3259143 4.04807658,19.2431143 2.61969728,19.0223143 C2.75689486,16.205581 3.00385052,13.307581 3.38800375,10.3528476 C2.31786259,10.1596476 1.24772143,9.88364762 0.205019787,9.55244762 C0.205019787,9.02804762 0.287338338,8.50364762 0.45197544,7.95011429 C1.96114887,8.20004762 3.55416527,8.50364762 5.25541532,8.83484762" id="Fill-1" fill="#000000"></path>
                        <path d="M46.078945,11.0711267 C45.5575941,11.3747267 45.0621584,11.5403267 44.5682471,11.5955267 C44.0758602,10.9883267 43.7999406,10.2707267 43.7450616,9.41512667 C44.1566544,9.22039333 44.6505657,9.08392667 45.2267955,8.97352667 C45.6399127,9.44272667 45.9143079,10.1327267 46.078945,11.0711267 M45.5850337,18.0017933 C45.0347189,18.2225933 44.5148925,18.33146 43.9645777,18.33146 C43.5804245,17.50346 43.3060293,16.67546 43.1688317,15.79226 C43.6627431,15.62666 44.1566544,15.51626 44.6795296,15.46106 C45.0911224,16.28906 45.392957,17.14466 45.5850337,18.0017933 M42.0986906,13.2239267 C41.5773398,13.4171267 41.0011099,13.4999267 40.3425615,13.4999267 C39.7373677,13.4999267 39.2449808,13.4723267 38.8318637,13.39106 C38.6672266,13.0031267 38.6138719,12.6167267 38.6138719,12.2027267 C38.9965008,12.0647267 39.5178516,11.9819267 40.1230454,11.9819267 C39.9035292,10.0499267 39.7648072,8.14399333 39.6565736,6.26719333 C40.2038395,6.15679333 40.7541543,6.10159333 41.3303841,6.10159333 C41.8242954,9.44272667 42.0986906,11.8163267 42.0986906,13.2239267 M40.8913518,16.81346 C40.6169567,17.06186 40.1764,17.28266 39.6291341,17.50346 C39.0254647,16.86866 38.4751499,16.04066 38.0086781,15.01946 C38.3928314,14.71586 38.8318637,14.46746 39.325775,14.3003267 C40.0407268,15.24026 40.5620776,16.09586 40.8913518,16.81346 M36.6367023,17.00666 C36.6915813,17.8085933 36.8013394,18.6089933 36.9110975,19.4369933 C38.0086781,19.4369933 39.1885774,19.40786 40.4797591,19.3265933 C40.5879927,19.60106 40.6443962,19.8509933 40.6443962,20.1269933 C40.6443962,20.4857933 40.6169567,20.7617933 40.5879927,20.9825933 C40.1489605,21.1481933 39.2708959,21.2585933 37.9263596,21.2585933 C36.4995047,21.2585933 35.6214402,21.2033933 35.2372869,21.0929933 C34.9628918,19.6853933 34.8531337,18.35906 34.8531337,17.06186 C35.2098474,17.00666 35.5116821,16.95146 35.7311982,16.95146 C36.0604724,16.95146 36.3623071,16.97906 36.6367023,17.00666 M38.7495451,1.43566 C38.584908,1.76686 38.4202709,2.09806 38.2830733,2.37406 C41.0285494,2.42926 43.9096987,2.56726 46.874691,2.78959333 C46.874691,4.05919333 46.7923724,5.19079333 46.6551748,6.12919333 C46.3807796,6.21199333 46.1063845,6.23959333 45.8045498,6.23959333 C45.4188721,6.23959333 45.1460014,6.18439333 44.9539248,6.01879333 L44.9539248,4.50079333 C42.3730858,4.44559333 39.8760897,4.27999333 37.4324483,4.00399333 C36.9110975,4.94239333 36.4720652,5.65999333 36.087912,6.12919333 C35.3744845,6.01879333 34.7982547,5.79799333 34.4141014,5.46679333 C35.292166,3.81079333 36.1702305,2.26366 37.0482951,0.82846 C37.7068435,0.93886 38.2556338,1.15966 38.7495451,1.43566 M37.734283,9.35992667 C37.2952507,10.3535267 36.6641418,11.3747267 35.8958353,12.3959267 C35.2372869,12.2303267 34.6610571,11.9819267 34.2220248,11.5955267 C34.7144117,10.5467267 35.292166,9.60832667 35.9232749,8.72512667 C36.4995047,8.89072667 37.1031741,9.08392667 37.734283,9.35992667 M33.5070729,16.31666 C33.0406012,17.00666 32.5192503,17.66906 31.97046,18.27626 L31.0649559,19.18706 C30.7631213,19.5473933 30.433847,19.8509933 30.1045728,20.1545933 C29.583222,19.8233933 29.1441898,19.4369933 28.8133911,18.93866 C29.7204196,17.66906 30.8180003,16.42706 32.0802181,15.21266 C32.6564479,15.54386 33.1229197,15.93026 33.5070729,16.31666 M27.3865362,7.15039333 C27.002383,6.81919333 26.7554274,6.32239333 26.6456693,5.71519333 C28.5664355,4.72159333 30.7631213,3.89206 33.2326778,3.28486 C33.561952,3.72646 33.755553,4.19719333 33.8089076,4.74919333 C33.0680407,5.19079333 32.2722947,5.57719333 31.4491092,5.90839333 C31.8332624,7.62112667 32.1350971,9.38752667 32.3271737,11.2091267 C31.7783834,11.4023267 31.2021535,11.4851267 30.5984841,11.4851267 C30.1868914,9.85672667 29.8560928,8.22832667 29.6365766,6.57079333 C28.8972341,6.81919333 28.1548427,7.01239333 27.3865362,7.15039333" id="Fill-3" fill="#000000"></path>
                        <path d="M73.5077047,15.0466 C73.3430676,15.571 73.0686724,16.0954 72.7393982,16.5922 C71.0640633,16.2334 69.6646479,15.709 68.5670672,15.0466 C68.7865834,14.3566 69.033539,13.777 69.3079342,13.3354 C70.7363135,13.8322 72.1357289,14.4118 73.5077047,15.0466 M66.2347083,21.1477333 C65.7941516,21.4237333 64.75145,21.5617333 63.0776394,21.5617333 C62.7758047,21.3409333 62.6386072,20.9269333 62.6386072,20.3197333 C62.9404418,20.2645333 63.4343531,20.1541333 64.0929016,20.0161333 C63.6538693,17.5597333 63.2422765,15.0742 62.8581233,12.5886667 C63.3520346,12.4246 63.9008249,12.3126667 64.5593733,12.3126667 C65.2194462,14.5774 65.7941516,17.5321333 66.2347083,21.1477333 M62.8032443,6.81873333 C61.4861474,8.55906667 60.0852077,10.2702667 58.6583528,11.9814667 C56.5180705,14.8258 55.0348121,16.5094 54.2665057,17.0338 C53.6628363,16.813 53.168925,16.399 52.8122113,15.7918 C54.2390661,13.9426 55.6933605,12.1746667 57.1217398,10.4634667 C59.0150665,8.22786667 60.4160063,6.65313333 61.3215103,5.74233333 C61.8428612,6.04593333 62.3367725,6.40473333 62.8032443,6.81873333 M72.9589144,2.67873333 L72.9589144,3.53433333 C72.9589144,3.94833333 72.9040353,4.25193333 72.8491563,4.47273333 C64.2316236,4.47273333 57.396135,4.30713333 52.2908604,3.92073333 C52.2085419,3.78273333 52.1811024,3.47913333 52.1811024,2.98233333 C52.1811024,2.67873333 52.2359814,2.3736 52.3457395,2.04393333 C59.2620222,2.04393333 66.1523897,2.26473333 72.9589144,2.67873333" id="Fill-5" fill="#000000"></path>
                        <path d="M96.3651962,16.8136133 C96.5023938,17.5864133 96.5847124,18.4144133 96.5847124,19.2715467 C96.4200753,19.4080133 96.1731196,19.4647467 95.8438454,19.4647467 C95.5968898,19.4647467 95.3773736,19.4356133 95.185297,19.3528133 C95.0206599,18.5248133 94.9093774,17.7244133 94.9093774,16.8964133 C95.0755389,16.8136133 95.3209702,16.7584133 95.6517688,16.7032133 C95.981043,16.7032133 96.2279987,16.7584133 96.3651962,16.8136133 M91.2599217,8.97368 C91.0952846,9.36008 90.9306475,9.74648 90.7660104,10.0761467 C92.3575023,10.18808 94.0038734,10.32608 95.6792083,10.51928 C95.6792083,10.93328 95.6243293,11.40248 95.5420107,11.89928 C93.5648411,11.89928 91.7263935,11.78888 90.0251434,11.51288 C89.8589819,11.78888 89.7507482,12.03728 89.6669053,12.23048 C89.5586716,12.45128 89.4473891,12.64448 89.3391555,12.81008 C89.227873,13.03088 89.0921998,13.25168 88.9001232,13.50008 C88.3498085,13.33448 87.8558971,13.05848 87.4717439,12.69968 C88.2400504,11.15408 88.9809173,9.74648 89.7233087,8.42014667 C90.3269781,8.50448 90.8483289,8.69768 91.2599217,8.97368 M93.4276435,12.69968 C93.455083,13.22408 93.4825225,13.72088 93.5099621,14.2192133 C94.4977847,14.2192133 95.5145712,14.1916133 96.5023938,14.1916133 C96.5298333,14.4124133 96.5572729,14.6332133 96.5572729,14.9092133 L96.5572729,15.6268133 C95.5420107,15.7372133 94.5541881,15.8200133 93.5648411,15.8752133 C93.5922806,16.7860133 93.6197201,17.6692133 93.6471596,18.5524133 C93.8666758,18.5524133 94.0861919,18.5524133 94.305708,18.5248133 C94.389551,18.7456133 94.4429056,18.9664133 94.4429056,19.1872133 C94.4429056,19.4923467 94.4169905,19.7131467 94.389551,19.8787467 C94.0038734,20.0167467 93.2904459,20.0995467 92.1928652,20.0995467 C90.5190547,20.0995467 89.4473891,20.0428133 88.9809173,19.9615467 C88.7614012,18.9388133 88.6516431,17.9452133 88.6516431,16.9792133 C88.9550022,16.9240133 89.2004335,16.8688133 89.4199496,16.8688133 C89.7507482,16.8688133 90.0251434,16.8964133 90.2446595,16.9240133 C90.2995386,17.4760133 90.3818571,18.0280133 90.4900908,18.6076133 C90.9855265,18.6076133 91.4794378,18.6076133 91.9733491,18.5800133 C91.8910306,17.6968133 91.8361515,16.8412133 91.808712,15.9580133 C90.3544176,16.0408133 88.9275627,16.0684133 87.5540625,16.0684133 C87.4443044,15.5716133 87.4168649,15.0748133 87.4168649,14.54888 C88.7888407,14.4400133 90.2446595,14.35568 91.7263935,14.2744133 C91.6989539,13.7776133 91.6989539,13.27928 91.6989539,12.75488 C91.9733491,12.72728 92.2751838,12.69968 92.604458,12.64448 C92.9337322,12.64448 93.2081274,12.67208 93.4276435,12.69968 M93.0160508,1.84981333 C92.5770185,2.65021333 92.1379862,3.42454667 91.6989539,4.16821333 C94.8011438,4.55614667 98.0390068,4.99774667 101.388152,5.49454667 C101.388152,9.63454667 100.97656,14.9092133 100.15185,21.2863467 C99.9872125,21.3415467 99.6594627,21.3967467 99.1091479,21.3967467 C98.42316,21.3967467 97.6548535,21.2587467 96.776789,21.0103467 C96.776789,20.7343467 96.776789,20.2636133 96.8042285,19.6288133 C97.3530188,19.7131467 97.9018092,19.7683467 98.42316,19.8220133 C98.8621923,15.5992133 99.1365875,11.31968 99.2478699,6.98494667 C96.3377567,6.59854667 93.455083,6.21214667 90.6562523,5.82574667 C90.0251434,6.76414667 89.366595,7.70254667 88.6790827,8.58574667 C88.5693246,8.58574667 88.3223689,8.47688 87.8833367,8.22694667 C87.4991834,8.00614667 87.2796673,7.81294667 87.2247883,7.67494667 C88.2949294,5.71534667 89.6958692,3.45061333 91.4519983,0.883813333 C92.0007886,1.15981333 92.5221394,1.46341333 93.0160508,1.84981333 M81.9274371,3.56101333 C82.5036669,3.45061333 83.1073363,3.39694667 83.7110057,3.34021333 C83.8207637,4.50094667 83.9030823,5.66014667 84.0128404,6.76414667 C85.0021874,6.79174667 85.8253729,6.84694667 86.5113608,6.92974667 C86.5662399,7.09534667 86.6211189,7.37134667 86.6211189,7.75774667 C86.6211189,8.19934667 86.5662399,8.47688 86.5113608,8.58574667 C86.3192842,8.66854667 85.5509777,8.72528 84.1774775,8.72528 C84.2887599,10.16048 84.3695541,11.54048 84.4808366,12.92048 C85.139385,12.86528 85.7704939,12.83768 86.4016027,12.83768 C86.4564818,13.05848 86.4839213,13.30688 86.4839213,13.5844133 C86.4839213,13.88648 86.4564818,14.16248 86.4016027,14.3848133 C85.9625705,14.54888 85.3589011,14.6884133 84.5890702,14.7988133 C84.6729132,16.2064133 84.7552317,17.5864133 84.8085863,18.9388133 C84.3421146,19.1335467 83.7658847,19.2148133 83.0524573,19.2148133 C82.8878202,17.8072133 82.7780621,16.4272133 82.6957435,15.0472133 C81.8999976,15.1576133 81.0493725,15.2404133 80.116429,15.2956133 C79.8420338,14.9092133 79.7048362,14.32808 79.7048362,13.55528 C80.6652193,13.3636133 81.5981629,13.22408 82.5311064,13.11368 C82.3939089,11.62328 82.2841508,10.16048 82.2018322,8.72528 C80.226187,8.72528 79.1270819,8.69768 78.9350053,8.58574667 C78.8542112,8.36494667 78.8267717,8.09048 78.8267717,7.70254667 C78.8267717,7.37134667 78.8542112,7.09534667 78.9624448,6.84694667 C79.9243523,6.79174667 80.967054,6.73654667 82.0920742,6.73654667 C82.0097556,5.68774667 81.9548766,4.61134667 81.9274371,3.56101333" id="Fill-7" fill="#000000"></path>
                        <path d="M118.27496,9.80122 L127.195852,9.80122 L127.195852,7.15008667 L124.781175,7.15008667 C124.753735,7.75728667 124.753735,8.33688667 124.753735,8.91802 C124.532695,9.00082 124.23086,9.02842 123.846707,9.02842 C123.407674,9.02842 123.133279,8.97322 122.996082,8.80762 L122.996082,7.15008667 L121.40459,7.15008667 C121.37715,7.64842 121.349711,8.14368667 121.349711,8.64202 C121.130194,8.72482 120.80092,8.75088667 120.416767,8.75088667 C119.977735,8.75088667 119.70334,8.69722 119.538702,8.55768667 L119.538702,7.15008667 L118.27496,7.15008667 L118.27496,9.80122 Z M123.10584,12.75442 C122.968642,13.1423533 122.831444,13.5011533 122.721686,13.8323533 C124.369582,13.9151533 126.098271,14.0255533 127.936719,14.1911533 C127.936719,14.6879533 127.88184,15.2123533 127.799521,15.7367533 C125.851316,15.7367533 123.929025,15.6815533 122.063138,15.5435533 C121.733864,16.3991533 121.40459,17.2547533 121.075315,18.0827533 C122.008259,18.3035533 122.941203,18.5243533 123.874146,18.7175533 C124.038783,18.0014867 124.258299,17.2547533 124.477815,16.5371533 C125.081485,16.6199533 125.686679,16.7579533 126.317788,16.9250867 C126.098271,17.6411533 125.878755,18.3878867 125.714118,19.1054867 C126.15315,19.2158867 126.619622,19.3262867 127.058654,19.4090867 C127.058654,19.9886867 126.894017,20.4854867 126.619622,20.8994867 C126.125711,20.8442867 125.686679,20.7890867 125.247646,20.7338867 C125.081485,21.2030867 124.944287,21.6998867 124.836054,22.1966867 C124.20342,22.1138867 123.65463,21.9482867 123.188158,21.6722867 C123.270477,21.2306867 123.352795,20.8442867 123.462553,20.4578867 C121.788743,20.1542867 120.223166,19.7678867 118.741432,19.2710867 C119.153025,17.8343533 119.592057,16.5371533 120.031089,15.4055533 C119.043267,15.3503533 118.055444,15.2399533 117.095061,15.1295533 L117.095061,14.3015533 C117.095061,14.0807533 117.095061,13.85842 117.122501,13.63762 C118.27496,13.63762 119.482299,13.6667533 120.746041,13.7219533 C121.020436,13.1423533 121.294832,12.61642 121.569227,12.11962 C122.063138,12.23002 122.584489,12.4523533 123.10584,12.75442 L123.10584,12.75442 Z M127.415368,1.79415333 C127.415368,2.32008667 127.360489,2.87055333 127.250731,3.45015333 C123.682069,3.45015333 120.142372,3.28455333 116.628589,2.89968667 L116.628589,2.04255333 C116.628589,1.82175333 116.628589,1.57335333 116.683468,1.32495333 C119.758219,1.32495333 123.325356,1.49055333 127.415368,1.79415333 L127.415368,1.79415333 Z M121.459469,4.52808667 L121.459469,5.46648667 L122.996082,5.46648667 C122.996082,5.02488667 123.023521,4.63848667 123.023521,4.30728667 C123.270477,4.27968667 123.572311,4.25208667 123.929025,4.25208667 C124.20342,4.25208667 124.505255,4.30728667 124.781175,4.41768667 L124.781175,5.46648667 C126.482425,5.52168667 127.936719,5.57688667 129.171497,5.68728667 C129.227901,6.73608667 129.281255,7.84162 129.281255,9.05602 C129.281255,9.88402 129.227901,10.62922 129.116618,11.29162 C128.403191,11.40202 127.30561,11.45722 125.823876,11.45722 C122.145457,11.45722 119.015827,11.37442 116.381634,11.20882 C116.326755,10.21522 116.299315,9.08362 116.299315,7.81402 C116.299315,7.20682 116.326755,6.48768667 116.381634,5.63208667 C117.342017,5.57688667 118.412158,5.54928667 119.592057,5.49408667 C119.592057,5.10768667 119.619497,4.74888667 119.646936,4.41768667 C119.922856,4.39008667 120.223166,4.36248667 120.581404,4.36248667 C120.855799,4.36248667 121.157634,4.41768667 121.459469,4.52808667 L121.459469,4.52808667 Z M114.816057,4.80408667 C114.816057,10.02202 114.680384,14.3015533 114.431903,17.6135533 C112.593456,17.6135533 111.495875,17.4755533 111.166601,17.1995533 C111.166601,16.7579533 111.166601,16.3163533 111.22148,15.9023533 C111.77027,15.9023533 112.236742,15.9299533 112.675774,15.9851533 C112.703214,12.58882 112.730653,9.35962 112.785532,6.29448667 C111.715391,6.23928667 110.67269,6.15648667 109.683343,6.01848667 C109.629988,5.79768667 109.629988,5.54928667 109.629988,5.27328667 C109.629988,4.94208667 109.657427,4.69368667 109.738222,4.52808667 C111.331238,4.52808667 113.005049,4.63848667 114.816057,4.80408667 L114.816057,4.80408667 Z M109.299189,6.48768667 C109.24431,7.23288667 109.190956,7.97962 109.134552,8.69722 C109.930298,8.75088667 110.782448,8.83522 111.715391,8.94562 C111.715391,9.49762 111.633073,9.99442 111.468436,10.43602 C110.480613,10.43602 109.657427,10.40842 108.998879,10.29802 C108.942476,10.90522 108.887597,11.48482 108.832718,12.0659533 C109.602548,12.11962 110.398294,12.23002 111.248919,12.39562 C111.248919,12.9491533 111.166601,13.44442 111.001964,13.8875533 C110.06902,13.8875533 109.27175,13.8323533 108.66808,13.7219533 C108.558322,14.7707533 108.421125,15.7919533 108.311367,16.7855533 C107.707697,16.7303533 107.131468,16.6475533 106.582677,16.5647533 C106.857072,13.0595533 107.186347,9.63562 107.5705,6.32208667 C108.174169,6.37728667 108.750399,6.43248667 109.299189,6.48768667 L109.299189,6.48768667 Z" id="Fill-9" fill="#000000"></path>
                        <path d="M149.325132,9.49731333 C149.489769,10.4909133 149.572088,11.5121133 149.572088,12.5900467 C149.572088,14.3564467 149.489769,15.5708467 149.380011,16.2056467 C148.33731,16.3436467 145.756471,16.3988467 141.58414,16.3988467 C141.448466,17.53198 141.337184,18.63598 141.227426,19.73998 C142.9302,19.93318 144.713769,20.09878 146.579656,20.26438 C146.634535,19.76758 146.771733,19.27078 146.937894,18.71878 C147.402842,18.77398 147.896753,18.85678 148.447068,18.99478 C148.392189,19.93318 148.254991,20.95438 148.008035,22.00318 C147.073567,22.00318 145.152801,21.86518 142.242688,21.61678 C140.596317,21.3147133 139.498736,21.03718 138.977385,20.76118 C139.361539,17.55958 139.82801,14.7152467 140.40424,12.2849133 C140.898152,12.3968467 141.448466,12.4796467 141.995732,12.5333133 C141.914938,13.2524467 141.831095,13.9700467 141.776216,14.6600467 C143.314354,14.6048467 145.289999,14.5772467 147.706201,14.5220467 C147.623882,13.4180467 147.596443,12.3125133 147.596443,11.2085133 C144.878406,10.9601133 142.107015,10.7117133 139.251781,10.4633133 C139.251781,9.91131333 139.30666,9.33171333 139.416418,8.75211333 C144.439374,8.94531333 147.73364,9.19371333 149.325132,9.49731333 M141.475906,1.02258 C141.036874,1.79538 140.623756,2.54058 140.184724,3.25818 C144.796087,3.47898 149.517209,3.92058 154.348088,4.55538 C154.348088,5.38338 154.23833,6.68211333 154.046254,8.39331333 C153.936495,9.71811333 153.716979,11.2085133 153.387705,12.8384467 C153.111786,12.8384467 152.56452,12.7556467 151.768774,12.5624467 C151.904447,10.2425133 152.041644,8.11731333 152.207806,6.23898 C148.694023,5.93538 144.357055,5.46618 139.196902,4.85898 C138.1542,6.43218 137.056619,7.97931333 135.847756,9.52491333 C135.737998,9.52491333 135.491042,9.41451333 135.05201,9.13851333 C134.640417,8.91771333 134.393462,8.72451333 134.338583,8.55891333 C135.737998,6.07491333 137.576446,3.20298 139.85545,-0.000153333333 C140.40424,0.275846667 140.953031,0.607046667 141.475906,1.02258" id="Fill-11" fill="#000000"></path>
                        <path d="M172.169968,1.87772 C172.279726,3.67172 172.334605,5.30012 172.334605,6.79205333 C174.36513,6.68165333 176.369739,6.57125333 178.372823,6.48845333 C178.59234,8.17205333 178.729537,10.1868533 178.811856,12.5619867 C178.263065,12.7275867 177.686836,12.7827867 177.055727,12.7827867 C176.89109,11.2371867 176.726452,9.77285333 176.561815,8.36525333 C175.13496,8.50325333 173.706581,8.61365333 172.334605,8.72405333 C172.307166,10.6008533 172.252287,12.3135867 172.169968,13.8591867 C172.005331,13.9419867 171.730936,13.9695867 171.291904,13.9695867 C170.93519,13.9695867 170.688234,13.9419867 170.551037,13.8591867 C170.3864,12.3135867 170.276642,10.6299867 170.276642,8.86205333 C168.547952,8.97245333 166.845177,9.05525333 165.143927,9.11045333 C165.253685,12.6447867 165.336004,15.57192 165.336004,17.89032 C165.775036,17.94552 166.186629,17.94552 166.570782,17.94552 C168.767468,17.89032 171.044948,17.80752 173.432186,17.72472 C173.459625,18.11112 173.487065,18.41472 173.487065,18.60792 C173.487065,18.88392 173.432186,19.15992 173.377307,19.43592 C171.840694,19.65672 169.287294,19.73952 165.665278,19.73952 C164.704895,19.73952 163.989943,19.65672 163.524996,19.49112 C163.358834,18.16632 163.194197,14.71632 163.085964,9.19325333 C162.041738,9.22085333 160.999036,9.24845333 159.983774,9.24845333 C159.901455,8.66885333 159.874016,8.14445333 159.874016,7.64765333 C160.944157,7.56485333 162.014298,7.48205333 163.085964,7.39925333 C163.085964,4.85852 163.139318,3.50612 163.249076,3.31292 C163.578351,3.25772 163.852746,3.20252 164.044822,3.20252 C164.40306,3.20252 164.675931,3.25772 164.896972,3.31292 C164.951851,4.69292 165.00673,6.01925333 165.060084,7.26125333 C166.817738,7.15085333 168.547952,7.01285333 170.249202,6.90245333 C170.249202,5.27252 170.304081,3.58892 170.413839,1.87772 C170.688234,1.82252 170.962629,1.76732 171.291904,1.76732 C171.621178,1.76732 171.895573,1.82252 172.169968,1.87772" id="Fill-13" fill="#D0011B"></path>
                        <path d="M198.709532,12.8102333 C198.709532,13.5002333 198.682093,14.2178333 198.682093,14.9906333 C200.438222,14.8250333 202.084593,14.7161667 203.677609,14.7161667 C203.732488,14.9354333 203.787367,15.1838333 203.787367,15.4046333 C203.787367,15.7097667 203.732488,15.9581667 203.677609,16.1789667 C202.826984,16.3997667 201.153174,16.5653667 198.627214,16.7309667 C198.572335,17.4761667 198.544895,18.2213667 198.517456,18.9665667 C199.97175,19.0217667 201.400129,19.0769667 202.799545,19.1337 C202.826984,19.4081667 202.854424,19.6565667 202.854424,19.9341 L202.854424,20.7621 C202.580029,20.8173 202.168436,20.8725 201.619645,20.8725 C198.874169,20.8173 197.281153,20.7053667 196.788766,20.5413 C196.761327,19.8773667 196.761327,18.8561667 196.761327,17.4761667 C196.761327,16.0961667 196.842121,14.5214333 197.035722,12.7550333 C197.364996,12.7274333 197.666831,12.6998333 197.941226,12.6998333 C198.2705,12.6998333 198.517456,12.7550333 198.709532,12.8102333 M198.490016,2.67796667 C198.490016,3.50596667 198.462577,4.38916667 198.462577,5.3015 C200.163827,5.1083 201.784283,4.9979 203.320896,4.9979 C203.375775,5.21716667 203.430654,5.46556667 203.430654,5.7155 C203.430654,5.9915 203.375775,6.2399 203.320896,6.4607 C202.47027,6.6815 200.849815,6.8747 198.435137,7.0403 C198.407698,7.7855 198.380258,8.5583 198.380258,9.3311 C199.861992,9.38783333 201.34525,9.4415 202.772105,9.4967 C202.799545,9.77423333 202.826984,10.0502333 202.826984,10.3247 L202.826984,11.1266333 C202.552589,11.2094333 202.139472,11.2370333 201.592206,11.2370333 C198.791851,11.2094333 197.14548,11.0990333 196.650044,10.8782333 C196.596689,10.1315 196.56925,8.97383333 196.56925,7.3715 C196.56925,5.9915 196.650044,4.38916667 196.814681,2.62276667 C197.14548,2.59516667 197.447314,2.56756667 197.749149,2.56756667 C198.050984,2.56756667 198.297939,2.62276667 198.490016,2.67796667 M194.345125,7.4543 C193.851213,7.7303 193.384742,7.8959 192.91827,7.9511 C192.422834,7.0955 192.149963,6.0191 192.095084,4.7495 C192.506677,4.58236667 192.973149,4.44436667 193.521939,4.33396667 C193.906092,5.05156667 194.180488,6.0743 194.345125,7.4543 M193.082907,10.7663 C193.576818,14.3006333 193.851213,17.6141667 193.851213,20.7053667 C193.055467,20.8173 191.957887,20.9001 190.584386,20.9001 C190.421274,20.4033 190.36487,20.0169 190.36487,19.7409 C190.96854,19.6841667 191.518854,19.6289667 192.040205,19.5477 C191.875568,17.1725667 191.683491,14.8250333 191.491415,12.4790333 C190.282552,12.3962333 189.102652,12.3134333 187.950193,12.2306333 C187.895314,12.0098333 187.895314,11.7338333 187.895314,11.3474333 C187.895314,11.1266333 187.922753,10.8782333 188.005072,10.6022333 C189.870959,10.6022333 191.544769,10.6574333 193.082907,10.7663 M186.71389,11.4026333 C186.660535,12.2030333 186.633096,12.9758333 186.578217,13.6934333 L187.456281,13.6934333 C188.08739,13.6934333 188.581302,13.7210333 188.938015,13.7210333 C188.992894,13.9418333 189.047773,14.2178333 189.047773,14.4938333 C189.047773,14.7698333 189.020334,14.9906333 188.992894,15.2114333 C188.66362,15.3233667 188.142269,15.3770333 187.401402,15.3770333 C187.044689,15.3770333 186.74133,15.3770333 186.468459,15.3509667 C186.441019,15.8462333 186.41358,16.3445667 186.38614,16.7861667 L187.319084,16.7861667 C188.059951,16.7861667 188.636181,16.8137667 189.047773,16.8137667 C189.102652,17.0621667 189.157532,17.3105667 189.157532,17.5865667 C189.157532,17.8625667 189.130092,18.1109667 189.102652,18.3317667 C188.718499,18.4421667 188.08739,18.4973667 187.236765,18.4973667 C186.852612,18.4973667 186.521813,18.4973667 186.274858,18.4697667 C186.221503,19.3529667 186.13766,20.2101 186.082781,21.0657 C185.479112,20.9829 184.875442,20.9261667 184.299213,20.8725 C184.46385,17.5589667 184.683366,14.3282333 184.957761,11.2370333 C185.590394,11.2922333 186.1651,11.3474333 186.71389,11.4026333 M189.102652,2.23636667 C188.361786,3.72676667 187.648358,5.21716667 186.960846,6.7091 C188.553862,6.9299 190.200233,7.0679 191.903008,7.1231 C191.903008,7.6751 191.819165,8.1995 191.656052,8.7239 C189.184971,8.7239 186.74133,8.5583 184.299213,8.1719 C185.232156,5.65876667 186.248943,3.45076667 187.346523,1.57396667 C187.950193,1.73956667 188.553862,1.96036667 189.102652,2.23636667" id="Fill-15" fill="#D0011B"></path>
                        <path d="M230.352846,18.55272 L230.352846,19.27032 C226.319237,19.87752 222.338983,20.2102533 218.413608,20.2102533 C218.30385,19.71192 218.27641,19.24272 218.27641,18.69072 C219.97766,18.44232 221.707874,18.24912 223.491443,18.11112 C223.271927,16.67592 223.07985,15.2667867 222.942652,13.8591867 C221.624031,13.9695867 220.306934,13.9971867 219.044717,13.9971867 C218.934959,13.5279867 218.907519,13.0311867 218.907519,12.5067867 C220.169737,12.2859867 221.431955,12.1203867 222.750576,12.0099867 C222.666733,11.1267867 222.611854,10.2711867 222.558499,9.38645333 C223.162169,9.27605333 223.765838,9.22085333 224.424386,9.16565333 C224.561584,10.0764533 224.698782,10.9596533 224.80854,11.8443867 C226.098197,11.7615867 227.416818,11.7063867 228.761354,11.7063867 C228.788794,11.9271867 228.816234,12.1479867 228.816234,12.4239867 L228.816234,13.1415867 C227.526576,13.3623867 226.262834,13.5555867 225.028056,13.6659867 C225.192693,15.13032 225.32989,16.56552 225.439649,17.97312 C227.031141,17.89032 228.651596,17.83512 230.297967,17.83512 C230.325407,18.05592 230.352846,18.27672 230.352846,18.55272 M223.546322,5.57765333 C223.189608,4.63772 222.970092,3.56132 222.887773,2.37452 C223.354245,2.15372 223.903036,2.01572 224.534144,1.90532 C225.082935,2.78852 225.467088,4.05812 225.741483,5.65892 C227.224742,5.74325333 228.706475,5.82605333 230.13333,5.90732 L230.13333,6.62645333 C230.13333,7.01285333 230.105891,7.28885333 230.051012,7.45445333 C224.7811,7.45445333 220.55389,7.34405333 217.425785,7.12325333 C217.369382,7.01285333 217.341942,6.73685333 217.341942,6.29525333 C217.341942,6.04685333 217.369382,5.77085333 217.480664,5.49332 C219.511188,5.49332 221.541713,5.52092 223.546322,5.57765333 M215.613253,8.06165333 C214.844946,8.61365333 214.0492,9.05525333 213.226015,9.41558667 C213.610168,11.7339867 213.912003,14.1351867 214.131519,16.59312 C213.582728,16.78632 213.033938,16.86912 212.430269,16.86912 C211.991236,14.6319867 211.660438,12.3963867 211.440922,10.1592533 C210.782373,10.3800533 210.123825,10.5732533 209.465276,10.7127867 C209.108563,10.3800533 208.861607,9.88325333 208.724409,9.27605333 C210.535418,8.17205333 212.649785,7.26125333 215.009583,6.59885333 C215.366297,7.04045333 215.558374,7.50965333 215.613253,8.06165333" id="Fill-17" fill="#D0011B"></path>
                        <path d="M253.854102,13.2519867 C254.485211,13.3623867 255.14376,13.4451867 255.857187,13.5555867 C255.829748,12.3411867 255.829748,11.1819867 255.829748,10.0764533 C255.198639,10.0764533 254.594969,10.0764533 254.046179,10.0503867 C253.9913,11.0991867 253.936421,12.1755867 253.854102,13.2519867 M257.009647,3.72692 C257.009647,4.27892 256.956292,4.83092 256.84501,5.41205333 C252.837316,5.41205333 248.858586,5.21732 244.96065,4.80332 L244.96065,3.89252 C244.96065,3.67172 244.96065,3.45092 245.015529,3.17492 C248.446993,3.17492 252.454687,3.36812 257.009647,3.72692 M249.18786,8.22725333 C249.352497,7.62005333 249.517134,7.01285333 249.681771,6.43325333 C250.120804,6.48845333 250.642155,6.57125333 251.273263,6.70925333 C251.163505,7.26125333 251.081187,7.75805333 250.971429,8.25485333 C251.494304,8.28245333 252.01413,8.31005333 252.537006,8.31005333 C252.564445,7.84085333 252.6178,7.37165333 252.674203,6.90245333 C253.222994,6.90245333 253.716905,6.95765333 254.128498,7.01285333 C254.128498,7.45445333 254.101058,7.92365333 254.101058,8.36525333 C255.280957,8.42045333 256.460857,8.50325333 257.668195,8.55845333 C257.724599,10.8783867 257.779478,12.8931867 257.779478,14.5767867 C257.779478,17.83512 257.724599,19.60152 257.668195,19.93272 C255.582792,20.2102533 252.756522,20.34672 249.132981,20.34672 C247.102457,20.34672 245.564319,20.2102533 244.521618,19.9894533 C244.027707,17.72472 243.780751,14.1627867 243.725872,9.30365333 L245.454561,9.30365333 C245.619199,11.4579867 245.756396,13.5555867 245.866154,15.59952 C246.140549,15.59952 246.524703,15.57192 246.963735,15.57192 C248.309796,15.57192 249.379937,15.6255867 250.148243,15.70992 C250.203122,15.95832 250.230562,16.20672 250.230562,16.48272 C250.230562,16.75872 250.203122,17.00712 250.175683,17.22792 C249.489695,17.28312 248.392114,17.28312 246.881416,17.28312 C246.497263,17.28312 246.167989,17.28312 245.948473,17.25552 C245.948473,17.69712 245.977437,18.11112 246.003352,18.49752 C246.771658,18.60792 247.815884,18.63552 249.078102,18.63552 C252.043094,18.63552 254.320574,18.60792 255.912066,18.49752 C255.886151,17.28312 255.857187,16.12392 255.857187,14.9907867 C254.430332,14.9907867 253.250433,14.8527867 252.26261,14.5767867 C252.26261,13.0311867 252.29005,11.5131867 252.398284,10.0227867 C251.767175,10.0227867 251.163505,9.99365333 250.587276,9.96605333 C250.258001,11.4303867 249.873848,12.8655867 249.489695,14.3007867 C248.748828,14.3007867 248.200038,14.1903867 247.843324,13.9143867 C248.117719,12.5619867 248.419554,11.2080533 248.776267,9.85718667 C248.254917,9.82958667 247.759481,9.80198667 247.267094,9.74525333 L247.267094,8.19965333 C247.898203,8.19965333 248.529312,8.22725333 249.18786,8.22725333 M241.997182,18.24912 C240.927041,19.02192 239.800497,19.54632 238.620597,19.7686533 C238.209005,19.27032 237.90717,18.74592 237.715093,18.24912 C238.840113,17.55912 239.992573,17.03472 241.172472,16.64832 C241.55815,17.20032 241.832545,17.72472 241.997182,18.24912 M242.820368,5.65892 C242.655731,6.24005333 242.436215,6.76445333 242.161819,7.26125333 C240.459045,7.15085333 238.977311,6.73685333 237.687654,5.99165333 C237.824851,5.38445333 238.016928,4.83092 238.263884,4.33412 C239.635859,4.49972 241.172472,4.94285333 242.820368,5.65892 M240.980396,11.5131867 C240.927041,11.8167867 240.898077,12.1203867 240.843198,12.3963867 C240.788319,12.8379867 240.73344,13.1415867 240.651122,13.3623867 C239.937694,13.3623867 239.251706,13.3347867 238.593158,13.2519867 C237.87973,13.1967867 237.193742,13.1139867 236.480315,13.0035867 C236.480315,12.3963867 236.535194,11.7891867 236.672392,11.1267867 C238.154125,11.2371867 239.60842,11.3475867 240.980396,11.5131867" id="Fill-19" fill="#D0011B"></path>
                        <path d="M274.750733,8.72466667 C275.025128,8.72466667 275.299523,8.69706667 275.573918,8.69706667 C277.302608,8.69706667 278.703548,8.77986667 279.773689,8.91786667 C279.828568,9.08346667 279.883447,9.35946667 279.883447,9.74586667 C279.883447,10.1874667 279.828568,10.4634667 279.773689,10.5738667 C279.499294,10.6842667 278.098354,10.7394667 275.573918,10.7394667 L274.805612,10.7394667 C274.833051,11.845 274.860491,12.9214 274.88793,13.9426 C276.891015,13.9978 278.59379,14.0806 279.965765,14.191 C280.130402,15.295 280.212721,16.3438 280.212721,17.3926 C280.212721,19.2985333 280.185282,20.5129333 280.130402,21.0649333 C279.197459,21.3409333 277.577003,21.5065333 275.217205,21.5065333 C272.36197,21.5065333 270.386325,21.3961333 269.343623,21.2029333 C269.178986,20.4853333 269.041789,19.3537333 268.95947,17.7529333 C268.875627,16.4818 268.848188,15.3778 268.848188,14.4946 C269.096668,14.4394 269.453382,14.3842 269.892414,14.329 C270.304007,14.329 270.605841,14.3566 270.797918,14.3842 C270.935115,16.0954 271.017434,17.8618 271.017434,19.6849333 C272.36197,19.6849333 273.76291,19.7125333 275.217205,19.7125333 C276.259906,19.7125333 277.247729,19.6573333 278.180672,19.5469333 C278.125793,18.3601333 278.070914,17.1457333 278.01756,15.8746 C276.891015,15.847 275.848313,15.7918 274.860491,15.7366 C274.064745,15.7366 273.240035,15.6814 272.38941,15.5434 C272.307091,15.2122 272.279652,14.9362 272.279652,14.7154 C272.279652,14.4394 272.307091,14.191 272.38941,13.915 L273.047958,13.915 C272.883321,11.4294667 272.773563,8.97306667 272.747648,6.54426667 C273.075398,6.45993333 273.406196,6.40473333 273.706507,6.40473333 L274.668414,6.40473333 C274.695854,7.20513333 274.723293,7.97946667 274.750733,8.72466667 M263.605716,4.14153333 C263.524921,3.81033333 263.497482,3.50673333 263.497482,3.25833333 C263.497482,2.98233333 263.497482,2.73393333 263.550837,2.45793333 C266.653026,2.45793333 269.727777,2.51313333 272.801003,2.56833333 C272.663805,1.794 272.555571,1.0212 272.471728,0.2208 C273.075398,0.0828 273.706507,0 274.366579,0 C274.503777,0.8832 274.613535,1.7388 274.695854,2.62353333 C277.110531,2.70633333 279.526733,2.7876 281.886532,2.89953333 L281.886532,3.67233333 C281.886532,4.00353333 281.831653,4.30713333 281.721894,4.58313333 C276.726378,4.58313333 271.758301,4.50033333 266.817663,4.27953333 C265.967038,8.36586667 264.951776,12.4522 263.797792,16.5922 C263.002046,16.5922 262.398377,16.4557333 262.015748,16.1506 C262.866373,12.1470667 263.881635,8.17266667 265.061534,4.19673333 C264.567623,4.19673333 264.073712,4.16913333 263.605716,4.14153333" id="Fill-21" fill="#D0011B"></path>
                    </g>
                </g>
                <g id="Page-1-Copy" mask="url(#mask-4)">
                    <g transform="translate(12.000000, 10.000000)">
                        <g id="Group-3" transform="translate(0.000000, 0.118111)">
                            <mask id="mask-28" fill="white">
                                <use xlink:href="#path-27"></use>
                            </mask>
                            <g id="Clip-2"></g>
                            <path d="M3.97509815,0.115507402 L-0.000247800901,0.115507402 L-0.000247800901,1.6857792 L3.58171422,1.6857792 L3.58171422,1.71677548 L3.92305997,1.71677548 C6.22884735,1.75211125 7.3984676,3.02605856 7.43377923,5.53985727 C7.46785186,8.12246773 6.28026604,9.39703497 3.87164128,9.36293906 L1.75542158,9.36293906 L1.75542158,4.74573245 L-0.000247800901,6.50756129 L-0.000247800901,10.8092257 L3.87164128,10.8092257 C7.55334317,10.9121334 9.34370468,9.13914588 9.2402478,5.48840344 C9.20555567,1.94118859 7.45050579,0.150223241 3.97509815,0.115507402" id="Fill-1" fill="#444444" mask="url(#mask-28)"></path>
                        </g>
                        <g id="Group-6" transform="translate(20.017164, 0.118111)">
                            <mask id="mask-30" fill="white">
                                <use xlink:href="#path-29"></use>
                            </mask>
                            <g id="Clip-5"></g>
                            <polygon id="Fill-4" fill="#444444" mask="url(#mask-30)" points="4.85157718 4.66142255 9.49722458 0.166961235 7.01983507 0.166961235 0.153891601 7.05867523 0.153891601 10.8606795 1.96036017 10.8606795 1.96036017 7.50254203 3.66399136 5.79774636 7.32958619 10.8606795 9.70413833 10.8606795"></polygon>
                        </g>
                        <g id="Group-11" transform="translate(10.531538, 2.170980)">
                            <mask id="mask-32" fill="white">
                                <use xlink:href="#path-31"></use>
                            </mask>
                            <g id="Clip-10"></g>
                            <path d="M6.90924667,6.92410461 C6.77357568,6.81623754 6.67941134,6.73502727 6.62551464,6.68047381 C6.85596948,6.25272508 7.03252762,5.77104281 7.15828658,5.23728678 L5.80963018,5.23728678 C5.75883099,5.44372204 5.69378325,5.64209826 5.61138946,5.82807597 C5.17711838,5.45116115 4.77877843,5.08726476 4.41079409,4.73638682 L3.28949501,5.28750076 C3.96289396,5.95330096 4.52168499,6.48643706 4.96215109,6.88380944 C4.42070613,7.42500457 3.75907772,7.69529218 2.97478787,7.69529218 C2.08270462,7.64135864 1.59639536,7.20803058 1.51524056,6.39654784 C1.54187916,5.80141917 1.97429173,5.2738624 2.81309778,4.81387753 L3.94864541,4.28632076 C5.05693494,3.77240235 5.59776041,3.02787159 5.57112181,2.05396831 C5.48934751,0.863710972 4.74594481,0.227667205 3.33967469,0.146456938 C2.06907557,0.227667205 1.36656002,0.904006143 1.23088903,2.17547375 C1.23088903,2.57098635 1.37647206,2.99501553 1.6645406,3.44756129 L2.74495253,2.91628496 C2.58450145,2.65157669 2.51201968,2.4178647 2.52936575,2.21576892 C2.52936575,1.56670672 2.79884923,1.24186565 3.33967469,1.24186565 C3.93439686,1.21520884 4.21812889,1.51277318 4.19149029,2.13455866 C4.27264509,2.64909699 3.92138731,3.08242505 3.13709746,3.43392292 C3.12780492,3.42400411 3.13276094,3.42896352 3.13709746,3.43392292 L2.04243698,3.96147969 C2.0492515,3.96953873 2.04553449,3.96581917 2.04243698,3.96147969 C0.798476454,4.55660836 0.176496192,5.4090062 0.176496192,6.51805328 C0.257650987,7.97921815 1.16336328,8.75040572 2.89425257,8.83161598 C4.0564388,8.83161598 5.05693494,8.45222146 5.89512149,7.69529218 C6.24637926,8.02013324 6.76056613,8.42556465 7.43644309,8.91282625 L8.32852634,7.93892298 C8.03116525,7.74984564 7.55786553,7.41074628 6.90924667,6.92410461" id="Fill-9" fill="#444444" mask="url(#mask-32)"></path>
                        </g>
                    </g>
                </g>
                <g id="Path-26" mask="url(#mask-4)" transform="translate(223.789233, 60.790349) scale(-1, 1) rotate(372.000000) translate(-223.789233, -60.790349) ">
                    <use fill="black" fill-opacity="1" filter="url(#filter-34)" xlink:href="#path-33"></use>
                    <use fill="#FF6A7C" fill-rule="evenodd" xlink:href="#path-33"></use>
                </g>
                <path d="M283.885821,31.8731221 C283.885821,31.8731221 285.642779,28.5691633 285.642779,28.5691633 C285.642779,28.5691633 285.346451,30.8879147 292.016985,31.4766542 C292.016985,31.4766542 291.498605,34.2923432 291.498605,34.2923432 C291.498605,34.2923432 284.152593,35.0444346 283.885821,31.8731221 Z" id="Path-26-Copy-4" fill="#80B749" mask="url(#mask-4)" transform="translate(287.951403, 31.469674) scale(-1, 1) rotate(332.000000) translate(-287.951403, -31.469674) "></path>
                <path d="M211.23576,147.886702 C211.23576,147.886702 214.780568,141.220691 214.780568,141.220691 C214.780568,141.220691 214.182703,145.898964 227.641058,147.086795 C227.641058,147.086795 226.595183,152.767681 226.595183,152.767681 C226.595183,152.767681 211.773994,154.285088 211.23576,147.886702 Z" id="Path-26-Copy-2" fill="#7ED321" filter="url(#filter-35)" mask="url(#mask-4)" transform="translate(219.438409, 147.072713) rotate(304.000000) translate(-219.438409, -147.072713) "></path>
                <path d="M339.616545,84.8990266 C339.616545,84.8990266 341.723173,80.9375127 341.723173,80.9375127 C341.723173,80.9375127 341.36787,83.7177428 349.365976,84.4236535 C349.365976,84.4236535 348.744428,87.799722 348.744428,87.799722 C348.744428,87.799722 339.93641,88.7014949 339.616545,84.8990266 Z" id="Path-26-Copy-3" fill="#4990E2" mask="url(#mask-4)" transform="translate(344.491261, 84.415285) rotate(329.000000) translate(-344.491261, -84.415285) "></path>
            </g>
        </g>
    </g>
</svg>