<?xml version="1.0" encoding="UTF-8"?>
<svg width="20px" height="20px" viewBox="0 0 20 20" version="1.1" xmlns="http://www.w3.org/2000/svg" xmlns:xlink="http://www.w3.org/1999/xlink">
    <!-- Generator: Sketch 43.2 (39069) - http://www.bohemiancoding.com/sketch -->
    <title>Group 2</title>
    <desc>Created with Sketch.</desc>
    <defs>
        <rect id="path-1" x="2" y="2" width="20" height="20" rx="3"></rect>
    </defs>
    <g id="Page-1" stroke="none" stroke-width="1" fill="none" fill-rule="evenodd">
        <g id="房间详情" transform="translate(-334.000000, -650.000000)">
            <g id="Group-2" transform="translate(332.000000, 648.000000)">
                <rect id="Rectangle" x="0" y="0" width="24" height="24"></rect>
                <g id="Rectangle-81">
                    <use fill="#FDD942" fill-rule="evenodd" xlink:href="#path-1"></use>
                    <rect stroke="#FDD942" stroke-width="1" x="2.5" y="2.5" width="19" height="19" rx="3"></rect>
                </g>
                <path d="M6.16952055,12.280694 C5.94788021,12.0648539 5.94286102,11.710024 6.1586866,11.4881956 C6.37432415,11.2665408 6.72915407,11.2615216 6.95098244,11.4773472 L10.6905031,13.6858172 L17.7496384,8.16078452 C17.9703241,7.94378731 18.3249515,7.94688273 18.5419487,8.16736589 C18.7589459,8.38805157 18.7560386,8.74286703 18.5353674,8.95967619 L11.0857904,16.298744 C10.8693717,16.5118937 10.5211376,16.5138175 10.3023902,16.3008848 L6.16952055,12.280694 Z" id="Shape" fill="#FFFFFF" fill-rule="nonzero"></path>
            </g>
        </g>
    </g>
</svg>