<?xml version="1.0" encoding="utf-8"?>
<!-- Generator: Adobe Illustrator 18.0.0, SVG Export Plug-In . SVG Version: 6.00 Build 0)  -->
<!DOCTYPE svg PUBLIC "-//W3C//DTD SVG 1.1//EN" "http://www.w3.org/Graphics/SVG/1.1/DTD/svg11.dtd">
<svg version="1.1" id="图层_1" xmlns="http://www.w3.org/2000/svg" xmlns:xlink="http://www.w3.org/1999/xlink" x="0px" y="0px"
	 viewBox="0 0 30 30" enable-background="new 0 0 30 30" xml:space="preserve">
<g>
	<path fill-rule="evenodd" clip-rule="evenodd" fill="#999999" d="M29.1,30c-0.2,0-0.5-0.1-0.7-0.3L19,20.4c-0.4-0.4-0.4-1,0-1.3
		c0.4-0.4,1-0.4,1.3,0l9.4,9.4c0.4,0.4,0.4,1,0,1.3C29.5,29.9,29.3,30,29.1,30L29.1,30z"/>
	<path fill-rule="evenodd" clip-rule="evenodd" fill="#999999" d="M0.9,30c-0.2,0-0.5-0.1-0.7-0.3c-0.4-0.4-0.4-1,0-1.3L13.7,15
		L0.3,1.6c-0.4-0.4-0.4-1,0-1.3s1-0.4,1.3,0L15,13.7L28.4,0.3c0.4-0.4,1-0.4,1.3,0c0.4,0.4,0.4,1,0,1.3L1.6,29.7
		C1.4,29.9,1.2,30,0.9,30L0.9,30z"/>
</g>
</svg>
