<?xml version="1.0" encoding="utf-8"?>
<!-- Generator: Adobe Illustrator 19.2.1, SVG Export Plug-In . SVG Version: 6.00 Build 0)  -->
<svg version="1.1" id="图形" xmlns="http://www.w3.org/2000/svg" xmlns:xlink="http://www.w3.org/1999/xlink" x="0px" y="0px"
	 viewBox="0 0 40 40" style="enable-background:new 0 0 40 40;" xml:space="preserve">
<path d="M20,0C9,0,0,8.7,0,19.3c0,5.2,2.1,10,5.9,13.7c0.2,0.2,0.5,0.3,0.8,0.3c0.3,0,0.6-0.1,0.8-0.3c0.5-0.4,0.5-1.2,0-1.6
	c-3.3-3.2-5.2-7.5-5.2-12c0-9.4,7.9-17,17.6-17c9.7,0,17.6,7.6,17.6,17c0,0.6,0.5,1.1,1.2,1.1c0.7,0,1.2-0.5,1.2-1.1
	C40,8.7,31,0,20,0L20,0z"/>
<path d="M37.6,24.5l-3.3,0.3c-0.4,0-0.7,0.3-0.8,0.6c-0.1,0.3-0.1,0.7,0.1,0.9l0.3,0.4L19.4,37.3l-3.9-4.7c-0.4-0.5-1.1-0.6-1.6-0.2
	c-1.6,1.2-4.1,2.9-4.5,3.2c-0.5,0.3-0.8,0.8-0.6,1.4c0.2,0.6,0.9,0.9,1.5,0.7c0.2-0.1,0.3-0.1,4-2.8l3.9,4.7
	c0.2,0.3,0.6,0.4,0.9,0.4c0.2,0,0.5-0.1,0.7-0.2l15.5-11.1l0.2,0.3c0.2,0.2,0.5,0.4,0.8,0.4c0,0,0.1,0,0.1,0c0.4,0,0.7-0.3,0.8-0.6
	l1.4-3c0.1-0.3,0.1-0.7-0.1-1C38.3,24.6,38,24.5,37.6,24.5L37.6,24.5z"/>
<path d="M28.2,9.1c0.3-0.5,0.4-0.8,0.4-1c-0.1-0.7-0.5-1-1.2-1.1c-0.7,0-1.2,0.3-1.5,0.9L20,16.4l-5.9-8.5c-0.3-0.6-0.9-0.9-1.5-0.9
	c-0.7,0.1-1.1,0.5-1.2,1.1c0.1,0.3,0.2,0.7,0.4,1c0.1,0.1,0.1,0.1,0.1,0.2l5.3,7.7h-3.1c-0.9,0-1.4,0.3-1.4,1.1
	c0.1,0.6,0.6,0.9,1.4,0.9h4.4v2h-4.4c-0.9,0-1.4,0.8-1.4,1.6c0.1,0.6,0.8,1.4,1.4,1.4h4.4v4.5c0,0.8,0.6,1.2,1.5,1.2
	c0.9,0,1.5-0.4,1.5-1.2V24h4.4c1,0,1.3-0.9,1.4-1.4c0-0.7-0.5-1.6-1.4-1.6h-4.4v-2h4.4c0.9,0,1.3-0.4,1.4-0.9c0-0.7-0.5-1.1-1.4-1.1
	h-3.1l5.3-7.7C28.1,9.2,28.1,9.1,28.2,9.1L28.2,9.1z"/>
</svg>
