<svg id="图形" xmlns="http://www.w3.org/2000/svg" viewBox="0 0 31.97 32.12"><defs><style>.cls-1{fill:#dd524d;}</style></defs><title>iconfont-yaoqing</title><path class="cls-1" d="M23.6,19a0.37,0.37,0,0,0,.3.1,0.55,0.55,0,0,0,.5-0.3,0.75,0.75,0,0,0,.1-0.5,0.42,0.42,0,0,0-.3-0.4c-0.8-.5-1.6-0.9-2.4-1.3a1.51,1.51,0,0,0,.4-0.4,9.85,9.85,0,0,0,2-3A10,10,0,0,0,25,9.4,9.43,9.43,0,0,0,15.7,0,9.46,9.46,0,0,0,6.4,9.5a9.85,9.85,0,0,0,3.2,7.2A15.91,15.91,0,0,0,0,31.4a0.65,0.65,0,0,0,.6.6,0.65,0.65,0,0,0,.6-0.6,14.64,14.64,0,0,1,9.5-13.8A9.58,9.58,0,0,0,15.6,19a9.58,9.58,0,0,0,4.9-1.4A9.78,9.78,0,0,1,23.6,19ZM7.7,9.5a8.13,8.13,0,0,1,8-8.2,8.13,8.13,0,0,1,8,8.2,7.84,7.84,0,0,1-.7,3.3,9,9,0,0,1-1.7,2.6,7.87,7.87,0,0,1-5.6,2.3A8.13,8.13,0,0,1,7.7,9.5Z"/><path class="cls-1" d="M31.9,26.9a0.22,0.22,0,0,0-.2-0.2l-4.1-4.1a0.67,0.67,0,0,0-1,0,0.47,0.47,0,0,0,0,.8l2.9,2.7H21.1a1.06,1.06,0,0,0,0,2h8.4l-2.9,2.8a0.71,0.71,0,0,0,1,1l4.1-4.1a0.38,0.38,0,0,1,.2-0.2A0.85,0.85,0,0,0,31.9,26.9Z"/></svg>