<?xml version="1.0" encoding="utf-8"?>
<!DOCTYPE svg PUBLIC "-//W3C//DTD SVG 1.1//EN" "http://www.w3.org/Graphics/SVG/1.1/DTD/svg11.dtd">
<svg style="width:308px;height:308px;" version="1.1" id="图形" xmlns="http://www.w3.org/2000/svg" xmlns:xlink="http://www.w3.org/1999/xlink" x="0px" y="0px" width="1248px" height="1024px" viewBox="0 0 1248 1024" enable-background="new 0 0 1248 1024" xml:space="preserve">
  <path class="svgpath" data-index="path_0" fill="#dd524d" d="M751.048416 0l496.761366 159.227003L1247.809782 1012.65435 751.048416 1012.65435 751.048416 80.940583l-182.066475 94.415017 0 144.912464-72.17501 0L496.806931 154.691858l0-20.689372 18.157665-10.499892L751.048416 0 751.048416 0zM275.622876 348.630872 275.622876 1012.65435l364.235472 0 0-625.736036-364.235472-116.741883L97.766895 352.424161l-18.204654 10.474262 0 20.686524 0 199.909457L9.266788 662.240746 0 672.668019l0 13.54563 0 337.786395 72.184977 0L72.184977 699.752158l70.296876-78.720712 9.313777-10.457175 0-13.515728L151.795631 404.274319 275.622876 348.630872 275.622876 348.630872zM335.398502 370.361121c20.572612 5.405152 40.614106 10.690696 60.111668 15.808218 0 29.111783 0 58.159491 0 87.247068-19.497562-3.864484-39.54048-7.850001-60.111668-11.950853C335.398502 431.09646 335.398502 400.750149 335.398502 370.361121L335.398502 370.361121zM546.19373 664.097521c0.046989 25.804047 0.046989 51.608094 0.046989 77.397902 14.925396 0 29.513325 0 43.796539 0 0-24.822975 0-49.681547 0-74.574294C575.754044 666.002709 561.166114 665.064354 546.19373 664.097521L546.19373 664.097521zM449.007789 657.81809c0 27.91143 0 55.81574 0 83.677333 17.479885 0 34.472794 0 50.981575 0 0-26.750945 0-53.573086 0-80.390955C483.480583 660.043657 466.487674 658.957216 449.007789 657.81809L449.007789 657.81809zM335.398502 650.483544c20.572612 1.325658 40.614106 2.629957 60.111668 3.884419 0 29.069066 0 58.109654 0 87.12746-19.497562 0-39.54048 0-60.111668 0C335.398502 711.197524 335.398502 680.848366 335.398502 650.483544L335.398502 650.483544zM546.19373 545.037517c0 25.828253 0 51.633724 0 77.442043 14.972385 1.496527 29.560314 2.94464 43.843528 4.345765 0-24.865692 0-49.727112 0-74.595652C575.754044 549.888769 561.166114 547.499453 546.19373 545.037517L546.19373 545.037517zM449.007789 529.102571c0 27.91143 0 55.814316 0 83.747104 17.479885 1.734319 34.472794 3.421649 50.981575 5.067686 0-26.822141 0-53.64001 0-80.433672C483.480583 534.752635 466.487674 531.976016 449.007789 529.102571L449.007789 529.102571zM335.398502 510.497799c20.572612 3.378932 40.614106 6.65819 60.111668 9.842047 0 29.064795 0 58.135285 0 87.200079-19.497562-1.93509-39.54048-3.93568-60.111668-5.963324C335.398502 571.207508 335.398502 540.832719 335.398502 510.497799L335.398502 510.497799zM546.19373 425.859329c0 25.85246 0 51.683561 0 77.487608 14.972385 2.967423 29.560314 5.866498 43.843528 8.69153 0-24.862844 0-49.754167 0-74.639794C575.754044 433.653797 561.166114 429.790737 546.19373 425.859329L546.19373 425.859329zM449.007789 400.271716c0 27.927093 0 55.855609 0 83.764191 17.479885 3.475758 34.472794 6.858961 50.981575 10.13822 0-26.816445 0-53.612955 0-80.482085C483.480583 409.347701 466.487674 404.87948 449.007789 400.271716L449.007789 400.271716zM832.545747 136.632443c0 41.44994 0 82.85289 0 124.271504 28.048125 5.551814 55.382872 11.013922 81.982883 16.273836 0-39.641578 0-79.277459 0-118.963178C887.928619 151.213253 860.595296 144.016826 832.545747 136.632443L832.545747 136.632443zM1120.059673 537.267255c0.049837 35.197563 0.049837 70.419332 0.049837 105.535733 20.368993 0 40.263825 0 59.724365 0 0-33.842003 0-67.780832 0-101.701151C1160.374758 539.848799 1140.478503 538.568707 1120.059673 537.267255L1120.059673 537.267255zM987.47255 528.696758c0 38.069584 0 76.134896 0 114.107654 23.85187 0 47.02596 0 69.572108 0 0-36.47196 0-73.047865 0-109.616651C1034.451522 531.714017 1011.32442 530.241697 987.47255 528.696758L987.47255 528.696758zM832.545747 518.678146c0 41.424309 0 82.82726 0 124.126266 28.048125 0 55.382872 0 81.982883 0 0-39.539056 0-79.174938 0-118.815092C887.928619 522.274936 860.595296 520.509291 832.545747 518.678146L832.545747 518.678146zM1120.059673 374.870635c0 35.221769 0 70.417909 0 105.639678 20.41883 2.027644 40.315086 4.009723 59.774202 5.916335 0-33.89184 0-67.836365 0-101.776618C1160.374758 381.487532 1140.428666 378.228208 1120.059673 374.870635L1120.059673 374.870635zM987.47255 353.147506c0 38.069584 0 76.140592 0 114.208752 23.85187 2.36511 46.978972 4.657601 69.572108 6.900254 0-36.568786 0-73.144691 0-109.713477C1034.451522 360.872203 1011.32442 357.054707 987.47255 353.147506L987.47255 353.147506zM832.545747 327.754968c0 41.395831 0 82.821565 0 124.223091 28.048125 2.775195 55.382872 5.501978 81.982883 8.131934 0-39.634458 0-79.276036 0-118.911917C887.928619 336.825257 860.595296 332.364156 832.545747 327.754968L832.545747 327.754968zM1120.059673 212.337319c0 35.244552 0 70.466321 0 105.688091 20.368993 4.051016 40.263825 7.98812 59.774202 11.85118 0-33.920318 0-67.859147 0-101.797976C1160.324922 222.956819 1140.428666 217.694058 1120.059673 212.337319L1120.059673 212.337319zM987.47255 177.430233c0 38.117997 0 76.187581 0 114.255741 23.85187 4.73022 46.978972 9.343679 69.572108 13.807628 0-36.568786 0-73.121908 0-109.739107C1034.451522 189.815378 1011.32442 183.706816 987.47255 177.430233z" />

</svg>
