<?xml version="1.0" encoding="utf-8"?>
<!DOCTYPE svg PUBLIC "-//W3C//DTD SVG 1.1//EN" "http://www.w3.org/Graphics/SVG/1.1/DTD/svg11.dtd">
<svg style="width:308px;height:308px;" version="1.1" id="图形" xmlns="http://www.w3.org/2000/svg" xmlns:xlink="http://www.w3.org/1999/xlink" x="0px" y="0px" width="1024px" height="1024px" viewBox="0 0 1024 1024" enable-background="new 0 0 1024 1024" xml:space="preserve">
  <path class="svgpath" data-index="path_0" fill="#272636" d="M642.116 507.204l69.093-69.093c10.693-10.693 8.527-22.877 8.527-22.877 0-13.13-8.258-19.763-8.258-19.763-9.07-9.07-20.17-9.204-20.17-9.204-14.486 0-23.015 9.204-23.015 9.204l-69.084 68.928-69.084-68.928c0 0-8.527-9.204-23.012-9.204 0 0-11.099 0.134-20.17 9.204 0 0-8.259 6.633-8.259 19.763 0 0-2.164 12.185 8.528 22.877l69.093 69.093-68.324 68.172c-9.477 7.714-9.477 23.011-9.477 23.011 0 11.911 9.34 21.522 9.34 21.522 8.326 8.325 20.036 7.58 20.036 7.58 15.295 0 22.336-8.391 22.336-8.391l68.991-68.993 68.993 68.993c0 0 7.041 8.391 22.336 8.391 0 0 11.709 0.746 20.035-7.58 0 0 9.341-9.612 9.341-21.522 0 0 0-15.297-9.477-23.011l-68.321-68.172L642.116 507.204zM989.365 718.388 989.365 298.061c-4.012-118.326-118.829-121.334-118.829-121.334L331.549 176.727c-15.04 0-23.733 8.524-23.733 8.524L36.484 485.078c-8.899 9.15-8.524 21.059-8.524 21.059 0 16.044 9.278 25.069 9.278 25.069l268.24 297.154c10.361 10.361 22.395 9.193 22.395 9.193l542.665 0c121.837-6.518 118.829-119.164 118.829-119.164L989.365 718.388zM953.467 730.196c0 0-1.767 62.515-62.163 62.515L330.43 792.711 73.301 506.888l259.401-285.824 558.602 0c0 0 62.163 6.36 62.163 65.696l0 443.439L953.467 730.196z" />

</svg>
