<?xml version="1.0" encoding="utf-8"?>
<!DOCTYPE svg PUBLIC "-//W3C//DTD SVG 1.1//EN" "http://www.w3.org/Graphics/SVG/1.1/DTD/svg11.dtd">
<svg style="width:308px;height:308px;" version="1.1" id="图形" xmlns="http://www.w3.org/2000/svg" xmlns:xlink="http://www.w3.org/1999/xlink" x="0px" y="0px" width="1051px" height="1024px" viewBox="0 0 1051 1024" enable-background="new 0 0 1051 1024" xml:space="preserve">
  <path class="svgpath" data-index="path_0" fill="#dd524d" d="M239.659567-4.0e-06l-52.289364 0 0 52.289364 0 309.378737c0 13.072341 13.072341 26.144682 26.144682 26.144682 13.072341 0 26.144682-13.072341 26.144682-26.144682l0-309.378737 758.195777 0 0 758.195777L644.902138 810.485137c-13.072341 0-26.144682 13.072341-26.144682 26.144682 0 13.072341 13.072341 26.144682 26.144682 26.144682l352.953207 0 52.289364 0 0-52.289364L1050.144708 52.28936l0-52.289364 0 0L239.659567-4.0e-06 239.659567-4.0e-06zM239.659567-4.0e-06" />
<path class="svgpath" data-index="path_1" fill="#dd524d" d="M239.659567 771.268114c-8.714894 8.714894-8.714894 26.144682 0 39.217023 8.714894 8.714894 26.144682 8.714894 39.217023 0l566.468109-566.468109 0 143.795751c0 13.072341 13.072341 26.144682 26.144682 26.144682 13.072341 0 26.144682-13.072341 26.144682-26.144682L897.634063 200.442557 897.634063 148.153193 840.987252 148.153193l-174.29788 0C653.617032 148.153193 640.544691 161.225534 640.544691 174.297875 640.544691 191.727663 653.617032 200.442557 666.689373 200.442557l139.438304 0c0 0 0 0-4.357447 0L239.659567 771.268114 239.659567 771.268114zM239.659567 771.268114" />
<path class="svgpath" data-index="path_2" fill="#dd524d" d="M-1.7e-05 161.225534l0 52.289364 0 758.195777 0 52.289364 52.289364 0 758.195777 0 52.289364 0 0-52.289364 0-52.289364-52.289364 0 0 52.289364L52.289346 971.710675 52.289346 213.514898l74.076599 0L126.365945 161.225534l-74.076599 0L-1.7e-05 161.225534zM52.289346 161.225534" />

</svg>
