<svg id="图形" xmlns="http://www.w3.org/2000/svg" viewBox="0 0 32.01 32"><defs><style>.cls-1{fill:#dd524d;}</style></defs><title>iconfont-wode</title><path class="cls-1" d="M16.2,0A9.58,9.58,0,0,0,6.5,9.4a9.25,9.25,0,0,0,5.2,8.3,14.77,14.77,0,0,0-9.8,7.2,16.66,16.66,0,0,0-2,6.4,0.85,0.85,0,0,0,.8.7h0a0.68,0.68,0,0,0,.7-0.7,14,14,0,0,1,1.8-5.8C5.4,21.7,9,19.4,14,18.7a9.15,9.15,0,0,1,1.7.1h0.4a9.58,9.58,0,0,0,9.7-9.4A9.5,9.5,0,0,0,16.2,0Zm0.1,17.2H15.8A7.92,7.92,0,0,1,8.1,9.4a7.92,7.92,0,0,1,8-7.8,7.92,7.92,0,0,1,8,7.8A7.81,7.81,0,0,1,16.3,17.2Zm11.2,4.1a0.72,0.72,0,0,0-.8,1.2s4,2.6,3.8,8.8a0.68,0.68,0,0,0,.7.7h0a0.68,0.68,0,0,0,.7-0.7C32.2,24.3,27.7,21.4,27.5,21.3Z" transform="translate(0.1)"/></svg>