<svg id="图形" xmlns="http://www.w3.org/2000/svg" viewBox="0 0 22 32.13"><defs><style>.cls-1{fill:#dd524d;}</style></defs><title>iconfont-dingdan</title><path class="cls-1" d="M17.77,16.13a0.27,0.27,0,0,0,.24-0.3V15.4c0-.14,0-0.27-0.3-0.27H4.21c-0.14,0-.21,0-0.21.15v0.45a0.32,0.32,0,0,0,.31.4H17.77Z" transform="translate(0 0)"/><path class="cls-1" d="M15,20.94v-0.5a0.38,0.38,0,0,0-.44-0.31H4.2a0.2,0.2,0,0,0-.2.24v0.5c0,0.18,0,.26.28,0.26H14.56C14.78,21.13,15,21.13,15,20.94Z" transform="translate(0 0)"/><path class="cls-1" d="M8.76,25.13H4.14c-0.21,0-.14.41-0.14,0.6v-0.6c0,0.25-.08,1,0.18,1h9.23a1,1,0,0,0,.59-0.4V25.25c0-.23-0.43-0.12-0.68-0.12H8.76Z" transform="translate(0 0)"/><path class="cls-1" d="M5.48,5h1A0.59,0.59,0,0,0,7,4.77V0.22A0.39,0.39,0,0,0,6.59,0h-1C5.38,0,5,0,5,.27V4.74C5,4.94,5.3,5,5.48,5Z" transform="translate(0 0)"/><path class="cls-1" d="M10.45,5h1A0.62,0.62,0,0,0,12,4.77V0.22A0.43,0.43,0,0,0,11.56,0h-1C10.36,0,10,0,10,.27V4.74A0.41,0.41,0,0,0,10.45,5Z" transform="translate(0 0)"/><path class="cls-1" d="M15.41,5h1C16.62,5,17,5,17,4.73V0.25C17,0,16.7,0,16.52,0h-1A0.59,0.59,0,0,0,15,.22V4.77A0.39,0.39,0,0,0,15.41,5Z" transform="translate(0 0)"/><path class="cls-1" d="M10.47,11.13A1.5,1.5,0,1,0,9,9.6a1.5,1.5,0,0,0,1.47,1.53h0Z" transform="translate(0 0)"/><path class="cls-1" d="M15.47,11.13A1.5,1.5,0,1,0,14,9.6a1.5,1.5,0,0,0,1.47,1.53h0Z" transform="translate(0 0)"/><path class="cls-1" d="M5.48,11.13A1.5,1.5,0,1,0,4,9.61a1.5,1.5,0,0,0,1.48,1.52h0Z" transform="translate(0 0)"/><rect class="cls-1" x="8" y="2.13" width="1" height="1"/><rect class="cls-1" x="13" y="2.13" width="1" height="1"/><path class="cls-1" d="M19,2.13H18v1h1a2,2,0,0,1,2,2v24a2,2,0,0,1-2,2H3a2,2,0,0,1-2-2v-24a2,2,0,0,1,2-2H4v-1H3a3,3,0,0,0-3,3v24a3,3,0,0,0,3,3H19a3,3,0,0,0,3-3h0v-24A3,3,0,0,0,19,2.13Z" transform="translate(0 0)"/></svg>