<?xml version="1.0" encoding="utf-8"?>
<!DOCTYPE svg PUBLIC "-//W3C//DTD SVG 1.1//EN" "http://www.w3.org/Graphics/SVG/1.1/DTD/svg11.dtd">
<svg style="width:308px;height:308px;" version="1.1" id="图形" xmlns="http://www.w3.org/2000/svg" xmlns:xlink="http://www.w3.org/1999/xlink" x="0px" y="0px" width="1024px" height="1024px" viewBox="0 0 1024 1024" enable-background="new 0 0 1024 1024" xml:space="preserve">
  <path class="svgpath" data-index="path_0" fill="#dd524d" d="M512 943.706279c-58.700937 0-115.659183-11.501962-169.292708-34.187637-51.791573-21.905916-98.298793-53.261041-138.231271-93.193519-39.932478-39.931454-71.287603-86.440721-93.193519-138.231271-22.684652-53.633524-34.187637-110.591771-34.187637-169.292708 0-58.699913 11.501962-115.65816 34.187637-169.292708 21.905916-51.791573 53.261041-98.299817 93.193519-138.231271 39.932478-39.932478 86.440721-71.287603 138.231271-93.193519C396.340817 85.397972 453.299063 73.896011 512 73.896011c58.699913 0 115.65816 11.501962 169.292708 34.187637 51.791573 21.905916 98.299817 53.260018 138.232295 93.193519 39.932478 39.932478 71.287603 86.440721 93.192495 138.231271 22.685675 53.633524 34.187637 110.591771 34.187637 169.292708 0 58.700937-11.501962 115.659183-34.187637 169.292708-21.904892 51.79055-53.260018 98.299817-93.192495 138.231271-39.932478 39.932478-86.440721 71.287603-138.232295 93.193519C627.65816 932.204317 570.699913 943.706279 512 943.706279zM512 125.06132c-102.500489 0-198.866257 39.916105-271.344988 112.394836S128.260176 406.300656 128.260176 508.801145c0 102.500489 39.916105 198.866257 112.394836 271.344988S409.499511 892.540969 512 892.540969s198.866257-39.916105 271.344988-112.394836S895.739824 611.301633 895.739824 508.801145c0-102.500489-39.916105-198.866257-112.394836-271.344988S614.500489 125.06132 512 125.06132z" />
<path class="svgpath" data-index="path_1" fill="#dd524d" d="M757.593488 534.683628l-491.186975 0c-14.128789 0-25.582655-11.453866-25.582655-25.582655s11.453866-25.582655 25.582655-25.582655l491.186975 0c14.128789 0 25.582655 11.453866 25.582655 25.582655S771.721253 534.683628 757.593488 534.683628z" />
<path class="svgpath" data-index="path_2" fill="#dd524d" d="M512 779.977287c-14.128789 0-25.582655-11.453866-25.582655-25.582655l0-491.186975c0-14.128789 11.453866-25.582655 25.582655-25.582655s25.582655 11.453866 25.582655 25.582655l0 491.186975C537.582655 768.523421 526.127765 779.977287 512 779.977287z" />

</svg>
