<svg id="图形" xmlns="http://www.w3.org/2000/svg" viewBox="0 0 32 25"><defs><style>.cls-1{fill:#dd524d;}</style></defs><title>iconfont-youhuiquan</title><path class="cls-1" d="M31.6,6.9H32V4H0V6.9L0.4,7A1.2,1.2,0,0,1,1.5,8.2,1.38,1.38,0,0,1,.4,9.5H0v2.9l0.4,0.1a1.23,1.23,0,0,1,.8.4,0.31,0.31,0,0,0,.1.2,0.2,0.2,0,0,1,.1.2,0.9,0.9,0,0,1,.1.5,0.9,0.9,0,0,1-.1.5,1.44,1.44,0,0,1-.2.3,0.1,0.1,0,0,1-.1.1,1.14,1.14,0,0,1-.7.3L0,15.1V18H0.4a1.22,1.22,0,0,1,1.1,1.3A1.38,1.38,0,0,1,.4,20.6H0v2.9l0.4,0.1a1.3,1.3,0,0,1,1.1,1.3A1.38,1.38,0,0,1,.4,26.2L0,26.1V29H32V26.1L31.6,26a1.3,1.3,0,0,1-1.1-1.3,1.38,1.38,0,0,1,1.1-1.3l0.4-.1V20.4l-0.4-.1A1.3,1.3,0,0,1,30.5,19a1.38,1.38,0,0,1,1.1-1.3l0.4-.1V14.7l-0.4.3a1.3,1.3,0,0,1-1.1-1.3,1.38,1.38,0,0,1,1.1-1.3l0.4-.1V9.5l-0.4-.1a1.3,1.3,0,0,1-1.1-1.3A1.37,1.37,0,0,1,31.6,6.9Zm-0.5,3.4v1.4a2.22,2.22,0,0,0,0,4.2v1.4a2.22,2.22,0,0,0,0,4.2v1.4a2.22,2.22,0,0,0,0,4.2v1.3H0.9V27.1A2.16,2.16,0,0,0,2.4,25,2.42,2.42,0,0,0,.9,22.7V21.3a2.22,2.22,0,0,0,0-4.2V15.7a1.46,1.46,0,0,0,.9-0.6L2,14.9a0.52,0.52,0,0,0,.2-0.4,2.35,2.35,0,0,0,.2-0.8,2.35,2.35,0,0,0-.2-0.8A1.42,1.42,0,0,1,2,12.5l-0.2-.2a2.36,2.36,0,0,0-.9-0.6V10.3A2.16,2.16,0,0,0,2.4,8.2,2.16,2.16,0,0,0,.9,6.1V4.8H31.1V6.1a2.16,2.16,0,0,0-1.5,2.1A2.16,2.16,0,0,0,31.1,10.3Zm-12.5.5L16.9,14a10.18,10.18,0,0,0-.8,1.7h0c-0.3-.7-1.2-2.3-2.6-4.9H11.9l3,5.2H12.4v1.1h2.9v1.6H12.4v1.2h2.9v2.3h1.4V19.9h2.8V18.7H16.7V17.1h2.8V16H17.1l3-5.2H18.6Z" transform="translate(0 -4)"/></svg>