<?xml version="1.0" encoding="utf-8"?>
<!DOCTYPE svg PUBLIC "-//W3C//DTD SVG 1.1//EN" "http://www.w3.org/Graphics/SVG/1.1/DTD/svg11.dtd">
<svg style="width:308px;height:308px;" version="1.1" id="图形" xmlns="http://www.w3.org/2000/svg" xmlns:xlink="http://www.w3.org/1999/xlink" x="0px" y="0px" width="1024px" height="1024px" viewBox="0 0 1024 1024" enable-background="new 0 0 1024 1024" xml:space="preserve">
  <path class="svgpath" data-index="path_0" fill="#dd524d" d="M725.891973 850.146417c0 10.507308-8.90788 18.957771-19.642362 18.957771-10.735505 0-19.185968-8.451486-19.185968-18.957771L687.063643 746.449683 531.28881 746.449683l0 103.696734c0 10.507308-8.679683 18.957771-19.186991 18.957771s-19.415189-8.451486-19.415189-18.957771L492.68663 746.449683 337.142042 746.449683l0 103.696734c0 10.507308-8.67866 18.957771-19.415189 18.957771-10.507308 0-19.415189-8.451486-19.415189-18.957771L298.311665 746.449683l-76.744895 0c-10.507308 0-19.415189-8.90788-19.415189-19.871583 0-10.508331 8.90788-18.957771 19.415189-18.957771l76.744895 0L298.311665 571.260685l-76.744895 0c-10.507308 0-19.415189-8.679683-19.415189-19.415189 0-10.963703 8.90788-19.186991 19.415189-19.186991l76.744895 0L298.311665 428.733575c0-10.507308 8.90788-19.415189 19.415189-19.415189 10.735505 0 19.415189 8.90788 19.415189 19.415189l0 103.924931 155.545612 0L492.687654 428.733575c0-10.507308 8.90788-19.415189 19.415189-19.415189s19.186991 8.90788 19.186991 19.415189l0 103.924931 155.774833 0L687.064666 428.733575c0-10.507308 8.450463-19.415189 19.185968-19.415189 10.734482 0 19.642362 8.90788 19.642362 19.415189l0 103.924931 76.744895 0c10.507308 0 19.186991 8.223289 19.186991 19.186991 0 10.734482-8.679683 19.415189-19.186991 19.415189l-76.744895 0 0 136.359644 76.744895 0c10.507308 0 19.186991 8.450463 19.186991 18.957771 0 10.963703-8.679683 19.871583-19.186991 19.871583l-76.744895 0L725.892997 850.146417 725.891973 850.146417zM157.8414 312.931129 157.8414 312.931129l708.293665 0 0-50.706869c0-19.415189-7.765871-37.001729-20.557198-49.793056l-0.228197 0c-12.791327-12.791327-30.378891-20.557198-49.564859-20.557198l-17.588587 0 0 37.002752c0 17.815761-14.389732 32.205493-31.976272 32.205493-17.815761 0-32.206516-14.389732-32.206516-32.205493l0-37.002752L310.190203 191.874005l0 37.002752c0 17.815761-14.617929 32.205493-32.43369 32.205493-17.359366 0-32.206516-14.389732-32.206516-32.205493l0-37.002752-17.130146 0c-19.642362 0-37.230949 7.995091-49.793056 20.557198l0 0c-13.019525 12.791327-20.785396 30.377868-20.785396 49.793056L157.8414 312.931129 157.8414 312.931129zM866.135064 376.885719 866.135064 376.885719 157.8414 376.885719l0 454.30395c0 19.415189 7.995091 36.774555 20.785396 49.565882l0 0c12.562107 12.790304 30.150694 20.785396 49.793056 20.785396l567.365982 0c19.185968 0 36.773532-7.995091 49.564859-20.785396l0.228197 0c12.791327-12.791327 20.557198-30.150694 20.557198-49.565882L866.136088 376.885719 866.135064 376.885719zM228.419851 127.235846 228.419851 127.235846l17.130146 0 0-37.002752c0-17.815761 14.84715-32.205493 32.206516-32.205493 17.815761 0 32.43369 14.389732 32.43369 32.205493l0 37.002752L714.015482 127.235846l0-37.002752c0-17.815761 14.390755-32.205493 32.206516-32.205493 17.587564 0 31.976272 14.389732 31.976272 32.205493l0 37.002752 17.588587 0c37.001729 0 70.578452 15.303544 95.474468 39.742143l0 0 0.456395 0.685615c23.983227 24.667819 38.829354 58.015322 38.829354 94.560656l0 81.770352 0 1.370207 0 0.913812 0 484.910015c0 36.774555-15.074324 70.578452-39.286772 95.246271l0 0c-24.667819 24.439622-58.472739 39.514969-95.474468 39.514969L228.419851 965.949886c-37.230949 0-70.805626-15.075347-95.474468-39.514969-24.439622-24.439622-39.514969-58.243519-39.514969-95.246271L93.430414 346.278631l0-0.913812 0-1.370207 0-81.770352c0-37.001729 15.075347-70.806649 39.514969-95.246271l0 0 0 0C157.155784 142.538367 191.188902 127.235846 228.419851 127.235846L228.419851 127.235846zM337.142042 571.260685 337.142042 571.260685l0 136.359644 155.545612 0L492.687654 571.260685 337.142042 571.260685 337.142042 571.260685zM531.28881 571.260685 531.28881 571.260685l0 136.359644 155.774833 0L687.063643 571.260685 531.28881 571.260685 531.28881 571.260685z" />

</svg>
