<svg id="图形" xmlns="http://www.w3.org/2000/svg" viewBox="0 0 32 23"><defs><style>.cls-1{fill:#dd524d;}</style></defs><title>iconfont-gerenxinxi</title><path class="cls-1" d="M21,17H32v1H21V17Z" transform="translate(0 -0.01)"/><path class="cls-1" d="M13.15,14.06A7.42,7.42,0,0,0,17,7.45,7.25,7.25,0,0,0,10,0a7.3,7.3,0,0,0-7.06,7.5A7.34,7.34,0,0,0,6.85,14,10.71,10.71,0,0,0,0,23H1.23c0.48-4,3.92-7.9,8.22-8.18,0.18,0,.36.12,0.55,0.12a5.62,5.62,0,0,0,.55-0.15C14.85,15.08,18.3,19,18.77,23H20A10.71,10.71,0,0,0,13.15,14.06ZM10,13.93A6.24,6.24,0,0,1,4,7.51a6.24,6.24,0,0,1,6-6.42,6.24,6.24,0,0,1,6,6.42A6.24,6.24,0,0,1,10,13.93Z" transform="translate(0 -0.01)"/><path class="cls-1" d="M21,5H32V6H21V5Z" transform="translate(0 -0.01)"/><path class="cls-1" d="M21,11H32v1H21V11Z" transform="translate(0 -0.01)"/></svg>