<?xml version="1.0" encoding="utf-8"?>
<!DOCTYPE svg PUBLIC "-//W3C//DTD SVG 1.1//EN" "http://www.w3.org/Graphics/SVG/1.1/DTD/svg11.dtd">
<svg style="width:308px;height:308px;" version="1.1" id="图形" xmlns="http://www.w3.org/2000/svg" xmlns:xlink="http://www.w3.org/1999/xlink" x="0px" y="0px" width="1078px" height="1024px" viewBox="0 0 1078 1024" enable-background="new 0 0 1078 1024" xml:space="preserve">
  <path class="svgpath" data-index="path_0" fill="#fff" d="M808.574694 1023.999992 273.658278 1023.999992c-73.118071 0-130.842864-57.724793-130.842864-130.842864l0-130.842864c-11.544959 0-23.089917 3.84832-26.938237 7.696639-19.241598 19.241598-42.331515 26.938237-65.421432 26.938237-15.393278 0-26.938237-7.696639-38.483195-15.393278C-3.420728 762.314264 0.427591 685.347873 0.427591 685.347873c3.84832-46.179834 34.634876-50.028154 69.269752-50.028154l938.989967 0c30.786556 0 65.421432 7.696639 65.421432 53.876474 0 76.966391-7.696639 88.511349-11.544959 92.359669-7.696639 11.544959-23.089917 15.393278-38.483195 15.393278-23.089917 0-46.179834-7.696639-65.421432-26.938237-3.84832-3.84832-15.393278-7.696639-26.938237-7.696639l0 130.842864C939.417558 966.275199 877.844446 1023.999992 808.574694 1023.999992zM158.208692 716.134429c3.84832 0 3.84832 0 7.696639 0l23.089917 0 0 177.022699c0 46.179834 38.483195 84.66303 84.66303 84.66303L808.574694 977.820158c46.179834 0 84.66303-38.483195 84.66303-84.66303l0-177.022699 23.089917 0c26.938237 0 57.724793 3.84832 80.81471 23.089917 11.544959 11.544959 23.089917 15.393278 30.786556 15.393278 0 0 3.84832 0 3.84832 0 0-7.696639 3.84832-34.634876 3.84832-61.573113 0-3.84832 0-7.696639 0-7.696639 0 0-3.84832 0-19.241598 0L69.697343 685.347873c-15.393278 0-23.089917 0-23.089917 3.84832 0 0 0 3.84832 0 7.696639 0 15.393278 0 50.028154 3.84832 61.573113 0 0 3.84832 0 3.84832 0 7.696639 0 19.241598-3.84832 30.786556-15.393278C104.332219 719.982749 135.118775 716.134429 158.208692 716.134429z" />
<path class="svgpath" data-index="path_1" fill="#fff" d="M696.973427 269.729363c-7.696639 0-15.393278-3.84832-19.241598-11.544959-7.696639-11.544959-3.84832-23.089917 7.696639-30.786556 69.269752-46.179834 53.876474-80.81471 30.786556-134.691184C704.670066 69.616747 693.125108 38.830191 712.366706 11.891954 716.215025 0.346995 731.608303-3.501324 743.153262 4.195315c11.544959 7.696639 11.544959 19.241598 7.696639 30.786556-3.84832 7.696639 0 23.089917 7.696639 42.331515 23.089917 53.876474 53.876474 123.146225-46.179834 188.567657C704.670066 269.729363 700.821747 269.729363 696.973427 269.729363z" />
<path class="svgpath" data-index="path_2" fill="#fff" d="M519.950729 269.729363c-7.696639 0-15.393278-3.84832-19.241598-11.544959-7.696639-11.544959-3.84832-23.089917 7.696639-30.786556C577.675522 185.066333 562.282244 146.583138 539.192326 92.706664c-11.544959-23.089917-23.089917-57.724793-3.84832-84.66303C539.192326 0.346995 554.585604-3.501324 562.282244 4.195315c11.544959 7.696639 11.544959 19.241598 7.696639 30.786556-3.84832 7.696639 0 23.089917 7.696639 42.331515 23.089917 53.876474 53.876474 123.146225-46.179834 188.567657C527.647368 269.729363 523.799048 269.729363 519.950729 269.729363z" />
<path class="svgpath" data-index="path_3" fill="#fff" d="M331.383071 269.729363C323.686432 269.729363 319.838113 265.881044 312.141474 258.184404 308.293154 250.487765 308.293154 235.094487 319.838113 231.246168c69.269752-46.179834 53.876474-80.81471 30.786556-134.691184C339.07971 69.616747 327.534752 38.830191 346.776349 8.043634 350.624669 0.346995 366.017947-3.501324 373.714586 4.195315c11.544959 7.696639 11.544959 19.241598 7.696639 30.786556-3.84832 7.696639 0 23.089917 7.696639 42.331515 23.089917 53.876474 53.876474 123.146225-46.179834 188.567657C339.07971 269.729363 335.231391 269.729363 331.383071 269.729363z" />
<path class="svgpath" data-index="path_4" fill="#fff" d="M300.596515 731.527708l0 142.387823c0 15.393278 11.544959 23.089917 23.089917 23.089917C339.07971 897.005448 346.776349 885.460489 346.776349 873.91553L346.776349 731.527708c0-15.393278-11.544959-23.089917-23.089917-23.089917C312.141474 708.43779 300.596515 719.982749 300.596515 731.527708L300.596515 731.527708 300.596515 731.527708z" />
<path class="svgpath" data-index="path_5" fill="#fff" d="M939.417558 569.898287 142.815414 569.898287l0-23.089917c7.696639-111.601267 73.118071-150.084462 130.842864-150.084462l200.112616 0L462.225936 362.089032c-3.84832-11.544959 0-26.938237 7.696639-38.483195 11.544959-11.544959 26.938237-19.241598 42.331515-19.241598l42.331515 0c15.393278 0 34.634876 7.696639 42.331515 23.089917 7.696639 11.544959 11.544959 23.089917 7.696639 38.483195l-7.696639 30.786556L808.574694 396.723908c57.724793 0 119.297906 38.483195 130.842864 150.084462L939.417558 569.898287zM192.843568 523.718453l696.545836 0c-11.544959-53.876474-38.483195-84.66303-80.81471-84.66303l-265.534048 0 23.089917-88.511349c0 0-3.84832 0-7.696639 0l-42.331515 0c-3.84832 0-7.696639 3.84832-7.696639 3.84832l23.089917 84.66303L273.658278 439.055423C231.326763 439.055423 200.540207 469.841979 192.843568 523.718453z" />
<path class="svgpath" data-index="path_6" fill="#fff" d="M273.658278 415.965505" />

</svg>
