<?xml version="1.0" encoding="utf-8"?>
<!-- Generator: Adobe Illustrator 19.2.1, SVG Export Plug-In . SVG Version: 6.00 Build 0)  -->
<svg version="1.1" id="图形" xmlns="http://www.w3.org/2000/svg" xmlns:xlink="http://www.w3.org/1999/xlink" x="0px" y="0px"
	 viewBox="0 0 40 40" style="enable-background:new 0 0 40 40;" xml:space="preserve">
<path d="M31,25v5h-7.7C23,30.2,23,30.5,22,30.9v3.3c1,0.5,1,0.8,1.3,0.8h7.6l0,5l9-7.1c0.1-0.1,0.1-0.1,0.1-0.2c0-0.1,0-0.2-0.1-0.2
	L31,25z M25.5,21.7c3.1-2.1,5.1-5.7,5.1-9.8c0-6.6-5.4-12-12-12C12.1,0,6.8,5.4,6.8,11.9c0,4.1,2,7.6,5.1,9.7C4.9,24.4,0,31,0,39
	h3.3c0-8,6-14.2,13.5-15.1c0.1,0,2.1,0.1,3.8,0.1h0.2c1.4,0,2.6,0.5,3.9,1c1.1-0.8,2.3-1.4,3.7-1.8C27.5,22.7,26.6,22.1,25.5,21.7z
	 M18.7,20.9c-5,0-9-4-9-9c0-5,4-9,9-9c5,0,9,4,9,9C27.7,16.9,23.7,20.9,18.7,20.9L18.7,20.9z"/>
</svg>
