<?xml version="1.0" encoding="UTF-8"?>
<svg width="219px" height="85px" viewBox="0 0 219 85" version="1.1" xmlns="http://www.w3.org/2000/svg" xmlns:xlink="http://www.w3.org/1999/xlink">
    <!-- Generator: Sketch 43.2 (39069) - http://www.bohemiancoding.com/sketch -->
    <title>D&amp;K keep your heart</title>
    <desc>Created with Sketch.</desc>
    <defs>
        <polygon id="path-1" points="0.656638393 11.1185746 7.55946986 11.1185746 7.55946986 0.404459361 0.656638393 0.404459361"></polygon>
        <polygon id="path-3" points="3.9927443 9.79749591 3.9927443 0.48305518 0.535617843 0.48305518 0.535617843 9.79749591 3.9927443 9.79749591"></polygon>
    </defs>
    <g id="Page-1" stroke="none" stroke-width="1" fill="none" fill-rule="evenodd">
        <g id="加载页1" transform="translate(-78.000000, -290.000000)">
            <g id="D&amp;K-keep-your-heart" transform="translate(78.000000, 290.000000)">
                <polygon id="Fill-1" fill="#FFFFFF" points="0 69.4259358 0 81.2463649 1.56568876 81.2463649 1.56568876 78.62093 1.81791218 78.3700923 4.06174882 81.2463649 6.09619242 81.2463649 2.93150237 77.2926846 5.88204046 74.4283567 3.77859234 74.4283567 1.56568876 76.6357286 1.56568876 69.4259358"></polygon>
                <g id="Group-36" transform="translate(14.276797, 0.606311)">
                    <path d="M5.45611601,76.3146564 C5.23720512,75.4737528 4.71372256,75.0556899 3.87615045,75.0556899 C3.68579316,75.0556899 3.50495372,75.0843571 3.33601162,75.1440803 C3.16944899,75.2014147 3.01716315,75.2850272 2.88153358,75.394918 C2.74114507,75.5048089 2.62693069,75.6362 2.52937258,75.7890916 C2.43181446,75.9443721 2.35567155,76.118764 2.30570276,76.3146564 L5.45611601,76.3146564 Z M7.0693941,77.60229 L2.20338571,77.60229 C2.24383663,78.1612998 2.42705553,78.6080298 2.745904,78.9400912 C3.06713194,79.2649857 3.47640013,79.429822 3.9784675,79.429822 C4.36869996,79.429822 4.69468683,79.3366537 4.94928971,79.1503171 C5.20151313,78.9615915 5.48466961,78.6175855 5.80351808,78.1135212 L7.12888076,78.8540897 C6.92424666,79.2052625 6.71009471,79.5062677 6.48404542,79.7523276 C6.25561666,80.0055543 6.00815217,80.2110023 5.74879036,80.3686717 C5.48942854,80.5335079 5.20865153,80.6481766 4.90883879,80.7246224 C4.60664658,80.7986792 4.27590077,80.8369021 3.92136031,80.8369021 C2.91008717,80.8369021 2.09630973,80.5096186 1.48240745,79.8550516 C0.868505166,79.1980957 0.561554025,78.326136 0.561554025,77.2391725 C0.561554025,76.1617648 0.858987301,75.2874162 1.45385385,74.6209045 C2.05347934,73.9639486 2.84822105,73.6342761 3.83807899,73.6342761 C4.8374548,73.6342761 5.62743758,73.9543928 6.20802734,74.5922373 C6.78623762,75.2276929 7.07415303,76.1068194 7.07415303,77.2320057 L7.0693941,77.60229 Z" id="Fill-2" fill="#FFFFFF"></path>
                    <path d="M21.6336309,76.3146564 C21.41472,75.4737528 20.8912374,75.0556899 20.0536653,75.0556899 C19.863308,75.0556899 19.6824686,75.0843571 19.5135265,75.1440803 C19.3469638,75.2014147 19.194678,75.2850272 19.0590484,75.394918 C18.9186599,75.5048089 18.8044455,75.6362 18.7068874,75.7890916 C18.6093293,75.9443721 18.5331864,76.118764 18.4832176,76.3146564 L21.6336309,76.3146564 Z M23.246909,77.60229 L18.3809006,77.60229 C18.4213515,78.1612998 18.6045704,78.6080298 18.9234189,78.9400912 C19.2446468,79.2649857 19.653915,79.429822 20.1559824,79.429822 C20.5462148,79.429822 20.8722017,79.3366537 21.1268046,79.1503171 C21.379028,78.9615915 21.6621845,78.6175855 21.9810329,78.1135212 L23.3063956,78.8540897 C23.1017615,79.2052625 22.8876096,79.5062677 22.6615603,79.7523276 C22.4331315,80.0055543 22.185667,80.2110023 21.9263052,80.3686717 C21.6669434,80.5335079 21.3861664,80.6481766 21.0863536,80.7246224 C20.7841614,80.7986792 20.4534156,80.8369021 20.0988752,80.8369021 C19.087602,80.8369021 18.2738246,80.5096186 17.6599223,79.8550516 C17.04602,79.1980957 16.7390689,78.326136 16.7390689,77.2391725 C16.7390689,76.1617648 17.0365022,75.2874162 17.6313687,74.6209045 C18.2309942,73.9639486 19.0257359,73.6342761 20.0155938,73.6342761 C21.0149697,73.6342761 21.8049524,73.9543928 22.3855422,74.5922373 C22.9637525,75.2276929 23.2516679,76.1068194 23.2516679,77.2320057 L23.246909,77.60229 Z" id="Fill-4" fill="#FFFFFF"></path>
                    <g id="Group-8" transform="translate(32.585218, 73.230772)">
                        <mask id="mask-2" fill="white">
                            <use xlink:href="#path-1"></use>
                        </mask>
                        <g id="Clip-7"></g>
                        <path d="M5.95570964,4.04280079 C5.95570964,3.39062271 5.77962914,2.85789117 5.42508867,2.44699509 C5.06816874,2.03132116 4.61844963,1.82348419 4.07355187,1.82348419 C3.49772104,1.82348419 3.0289662,2.02415436 2.6696668,2.42549472 C2.31274687,2.82683507 2.13666637,3.35478875 2.13666637,4.00696683 C2.13666637,4.64720025 2.31274687,5.17515393 2.6696668,5.58843894 C3.02420727,5.99455716 3.48820318,6.19761627 4.064034,6.19761627 C4.60893176,6.19761627 5.05865088,5.99216823 5.41081188,5.58366108 C5.7748702,5.172765 5.95570964,4.65914491 5.95570964,4.04280079 L5.95570964,4.04280079 Z M2.22470662,11.1188135 L0.656638393,11.1188135 L0.656638393,0.593184884 L2.22470662,0.593184884 L2.22470662,1.3337534 C2.84098837,0.712631419 3.5429309,0.404459361 4.32815475,0.404459361 C5.26328497,0.404459361 6.03423202,0.748465379 6.63861644,1.43886635 C7.25251872,2.12448945 7.55946986,2.99167129 7.55946986,4.035634 C7.55946986,5.05809633 7.25251872,5.90855565 6.64337537,6.5894009 C6.03899095,7.26785721 5.27756177,7.60469644 4.35670835,7.60469644 C3.56196663,7.60469644 2.85050624,7.28457973 2.22470662,6.64673524 L2.22470662,11.1188135 Z" id="Fill-6" fill="#FFFFFF" mask="url(#mask-2)"></path>
                    </g>
                    <polygon id="Fill-9" fill="#FFFFFF" points="64.9101725 79.3732043 61.8573174 73.8237183 63.6728501 73.8237183 65.7525036 77.7415646 67.689389 73.8237183 69.4597119 73.8237183 64.0511852 84.3493469 62.2618266 84.3493469"></polygon>
                    <path d="M79.818956,77.2105054 C79.818956,77.8913506 79.9997954,78.4312489 80.3638537,78.8278114 C80.7350505,79.2291518 81.222841,79.429822 81.8319844,79.429822 C82.4458867,79.429822 82.9384362,79.2315407 83.304874,78.8349782 C83.6713118,78.4384157 83.8521512,77.9080731 83.8521512,77.2463393 C83.8521512,76.5822166 83.6713118,76.0542629 83.304874,75.6577004 C82.9336772,75.2563601 82.4411277,75.0556899 81.8319844,75.0556899 C81.2323589,75.0556899 80.7493273,75.2563601 80.3757511,75.6577004 C80.0045543,76.0590408 79.818956,76.5750498 79.818956,77.2105054 M78.2151958,77.1818382 C78.2151958,76.1975987 78.5649773,75.361473 79.2669198,74.671072 C79.9664829,73.9782821 80.8230907,73.6342761 81.8319844,73.6342761 C82.8432575,73.6342761 83.7046243,73.9806711 84.4113258,74.6758499 C85.1085094,75.3710287 85.4559114,76.2262659 85.4559114,77.2391725 C85.4559114,78.2592459 85.1085094,79.116872 84.4065668,79.807273 C83.6998654,80.4928961 82.8313602,80.8369021 81.8034308,80.8369021 C80.7850193,80.8369021 79.9355498,80.4857293 79.2478841,79.7857726 C78.5602184,79.0953717 78.2151958,78.2281898 78.2151958,77.1818382" id="Fill-11" fill="#FFFFFF"></path>
                    <path d="M96.9680069,73.8232405 L96.9680069,77.736309 C96.9680069,78.8638843 97.4105876,79.4300609 98.2981285,79.4300609 C99.1856694,79.4300609 99.6306296,78.8638843 99.6306296,77.736309 L99.6306296,73.8232405 L101.196318,73.8232405 L101.196318,77.769754 C101.196318,78.3168192 101.132073,78.7874385 100.996443,79.184001 C100.867952,79.5399517 100.639523,79.8576794 100.318295,80.1443511 C99.7900538,80.6054148 99.1142854,80.837141 98.2981285,80.837141 C97.4843511,80.837141 96.8157211,80.6054148 96.2851001,80.1443511 C95.9591132,79.8576794 95.728305,79.5399517 95.5926754,79.184001 C95.4618048,78.8662732 95.3975592,78.3956539 95.3975592,77.769754 L95.3975592,73.8232405 L96.9680069,73.8232405 Z" id="Fill-13" fill="#FFFFFF"></path>
                    <path d="M111.45848,73.8232405 L113.024169,73.8232405 L113.024169,74.4324179 C113.312084,74.1290237 113.569067,73.9211867 113.790357,73.808907 C114.018786,73.6918494 114.287666,73.634515 114.599376,73.634515 C115.013403,73.634515 115.446466,73.7706841 115.896185,74.0406332 L115.179965,75.4811584 C114.882532,75.2661547 114.589858,75.1610417 114.306701,75.1610417 C113.452473,75.1610417 113.024169,75.8084419 113.024169,77.1056313 L113.024169,80.6412487 L111.45848,80.6412487 L111.45848,73.8232405 Z" id="Fill-15" fill="#FFFFFF"></path>
                    <path d="M137.762765,68.8189085 L139.333213,68.8189085 L139.333213,74.3898949 C139.892388,73.8858305 140.50391,73.6349928 141.179679,73.6349928 C141.945867,73.6349928 142.559769,73.8834416 143.019006,74.3827281 C143.409239,74.8175135 143.604355,75.5103034 143.604355,76.4610978 L143.604355,80.6393376 L142.038666,80.6393376 L142.038666,76.6092115 C142.038666,76.0621464 141.941108,75.6655839 141.745992,75.4243019 C141.555634,75.1758531 141.243924,75.0540176 140.81562,75.0540176 C140.268343,75.0540176 139.88287,75.2260206 139.6592,75.5652488 C139.440289,75.9116437 139.333213,76.5040986 139.333213,77.3426132 L139.333213,80.6393376 L137.762765,80.6393376 L137.762765,68.8189085 Z" id="Fill-17" fill="#FFFFFF"></path>
                    <path d="M158.448179,76.3146564 C158.229268,75.4737528 157.701026,75.0556899 156.863454,75.0556899 C156.673097,75.0556899 156.497017,75.0843571 156.328074,75.1440803 C156.161512,75.2014147 156.009226,75.2850272 155.873596,75.394918 C155.733208,75.5048089 155.618994,75.6362 155.521435,75.7890916 C155.423877,75.9443721 155.347734,76.118764 155.297766,76.3146564 L158.448179,76.3146564 Z M160.056698,77.60229 L155.19069,77.60229 C155.231141,78.1612998 155.414359,78.6080298 155.733208,78.9400912 C156.054436,79.2649857 156.468463,79.429822 156.97053,79.429822 C157.360763,79.429822 157.681991,79.3366537 157.936594,79.1503171 C158.188817,78.9615915 158.476732,78.6175855 158.795581,78.1135212 L160.120944,78.8540897 C159.91631,79.2052625 159.697399,79.5062677 159.471349,79.7523276 C159.242921,80.0055543 159.000215,80.2110023 158.740853,80.3686717 C158.481491,80.5335079 158.198335,80.6481766 157.896143,80.7246224 C157.59395,80.7986792 157.267964,80.8369021 156.913423,80.8369021 C155.90215,80.8369021 155.088373,80.5096186 154.47447,79.8550516 C153.860568,79.1980957 153.553617,78.326136 153.553617,77.2391725 C153.553617,76.1617648 153.85105,75.2874162 154.445917,74.6209045 C155.045542,73.9639486 155.840284,73.6342761 156.830142,73.6342761 C157.829518,73.6342761 158.6195,73.9543928 159.20009,74.5922373 C159.7783,75.2276929 160.066216,76.1068194 160.066216,77.2320057 L160.056698,77.60229 Z" id="Fill-19" fill="#FFFFFF"></path>
                    <path d="M171.335606,77.2105054 C171.335606,77.8626834 171.506927,78.395415 171.856709,78.8063111 C172.213629,79.221985 172.665727,79.429822 173.208246,79.429822 C173.788835,79.429822 174.25997,79.2291518 174.61689,78.8278114 C174.97381,78.4121375 175.154649,77.8841838 175.154649,77.2463393 C175.154649,76.6061059 174.97381,76.0781522 174.61689,75.6648672 C174.25997,75.258749 173.793594,75.0556899 173.222522,75.0556899 C172.682384,75.0556899 172.232665,75.2611379 171.870986,75.6696451 C171.511686,76.085319 171.335606,76.5989391 171.335606,77.2105054 L171.335606,77.2105054 Z M175.057091,73.8230016 L176.634677,73.8230016 L176.634677,80.6410098 L175.057091,80.6410098 L175.057091,79.9267195 C174.412256,80.5335079 173.715072,80.8369021 172.970299,80.8369021 C172.032789,80.8369021 171.257083,80.495285 170.643181,79.8144398 C170.034038,79.119261 169.731846,78.2520791 169.731846,77.2105054 C169.731846,76.188043 170.034038,75.3375837 170.643181,74.6567385 C171.252324,73.9758932 172.013754,73.6342761 172.929848,73.6342761 C173.719831,73.6342761 174.431291,73.9615596 175.057091,74.6137377 L175.057091,73.8230016 Z" id="Fill-21" fill="#FFFFFF"></path>
                    <path d="M186.894935,73.8232405 L188.460624,73.8232405 L188.460624,74.4324179 C188.748539,74.1290237 189.005522,73.9211867 189.226812,73.808907 C189.455241,73.6918494 189.724121,73.634515 190.035831,73.634515 C190.449858,73.634515 190.882921,73.7706841 191.33264,74.0406332 L190.61642,75.4811584 C190.318987,75.2661547 190.026313,75.1610417 189.743156,75.1610417 C188.888928,75.1610417 188.460624,75.8084419 188.460624,77.1056313 L188.460624,80.6412487 L186.894935,80.6412487 L186.894935,73.8232405 Z" id="Fill-23" fill="#FFFFFF"></path>
                    <g id="Group-27" transform="translate(199.875161, 70.841842)">
                        <mask id="mask-4" fill="white">
                            <use xlink:href="#path-3"></use>
                        </mask>
                        <g id="Clip-26"></g>
                        <polygon id="Fill-25" fill="#FFFFFF" mask="url(#mask-4)" points="2.76993661 4.45106904 2.76993661 9.79749591 1.20424785 9.79749591 1.20424785 4.45106904 0.535617843 4.45106904 0.535617843 2.98187667 1.20424785 2.98187667 1.20424785 0.48305518 2.76993661 0.48305518 2.76993661 2.98187667 3.99298224 2.98187667 3.99298224 4.45106904"></polygon>
                    </g>
                    <path d="M56.6672257,0.130462407 L41.4005705,0.130462407 L41.4005705,6.18162383 L55.1562646,6.18162383 L55.1562646,6.30107036 L56.46973,6.30107036 C65.3237237,6.43485048 69.8185354,11.346492 69.9517855,21.031217 C70.0826562,30.9858911 65.5212194,35.8975326 56.2698548,35.7637525 L48.1415983,35.7637525 L48.1415983,17.9733857 L41.4005705,24.7627267 L41.4005705,41.3371278 L56.2698548,41.3371278 C70.413402,41.7360792 77.2876798,34.9013485 76.8926884,20.8329357 C76.7594383,7.16586327 70.0160311,0.264242525 56.6672257,0.130462407" id="Fill-28" fill="#FFFFFF"></path>
                    <polygon id="Fill-30" fill="#FFFFFF" points="136.918531 17.6482522 154.764527 0.328504761 145.246662 0.328504761 118.875038 26.8862472 118.875038 41.5351701 125.813562 41.5351701 125.813562 28.5967215 132.357094 22.0271622 146.436396 41.5351701 155.556889 41.5351701"></polygon>
                    <path d="M89.6946925,22.860899 L89.6946925,22.860899 C89.6661389,22.8274539 89.6804157,22.8441764 89.6946925,22.860899" id="Fill-32" fill="#FFFFFF"></path>
                    <path d="M108.388493,34.2778376 C107.86739,33.8621637 107.505711,33.5492137 107.298697,33.3389878 C108.186238,31.6930146 108.864386,29.8344265 109.347418,27.7799461 L104.16494,27.7799461 C103.969824,28.57546 103.72236,29.3375289 103.403511,30.0542081 C101.735505,28.6017383 100.205509,27.199436 98.7921057,25.8473012 L94.4852718,27.9710606 C97.0717516,30.5367721 99.2180301,32.5936415 100.91221,34.1201682 C98.8325566,36.2080936 96.2889072,37.2496674 93.2788825,37.2496674 C89.8500717,37.0418304 87.9821907,35.3719678 87.6704806,32.2448576 C87.7727977,29.9514841 89.4336651,27.9185041 92.6554623,26.1459175 L97.0170239,24.1129375 C101.273889,22.132514 103.351163,19.2634082 103.248846,15.5103981 C102.937136,10.9236512 100.079397,8.47260835 94.6803881,8.15965843 C89.7977234,8.47260835 87.0970293,11.0789317 86.5783056,15.9786286 C86.5783056,17.5027663 87.1374802,19.1367949 88.2463115,20.8807143 L92.3961005,18.8334007 C91.7774393,17.8133273 91.4990418,16.9127005 91.5632873,16.136298 C91.5632873,13.6326986 92.6007346,12.3808989 94.6803881,12.3808989 C96.9622962,12.2781749 98.0544712,13.4248617 97.9521541,15.8233481 C98.2638642,17.8037716 96.9123274,19.4736341 93.8999232,20.8281578 C93.8666106,20.787546 93.8832669,20.8090464 93.8999232,20.8281578 L89.6954064,22.8611379 C89.7215805,22.8945829 89.7073037,22.8778604 89.6954064,22.8611379 C84.9174382,25.1545113 82.5284542,28.439291 82.5284542,32.713088 C82.8401642,38.3437976 86.3189438,41.3156274 92.9671724,41.6285773 C97.431051,41.6285773 101.273889,40.1665517 104.493307,37.2496674 C105.842464,38.501467 107.817421,40.0638277 110.413419,41.9415272 L113.83985,38.1885171 C112.697706,37.4598933 110.882173,36.1555371 108.388493,34.2778376" id="Fill-34" fill="#FFFFFF"></path>
                </g>
            </g>
        </g>
    </g>
</svg>