<?xml version="1.0" encoding="utf-8"?>
<!-- Generator: Adobe Illustrator 16.0.0, SVG Export Plug-In . SVG Version: 6.00 Build 0)  -->
<!DOCTYPE svg PUBLIC "-//W3C//DTD SVG 1.1//EN" "http://www.w3.org/Graphics/SVG/1.1/DTD/svg11.dtd">
<svg version="1.1" id="图层_1" xmlns="http://www.w3.org/2000/svg" xmlns:xlink="http://www.w3.org/1999/xlink" x="0px" y="0px"
	 width="119px" height="117px" viewBox="0 0 119 117" enable-background="new 0 0 119 117" xml:space="preserve">
<g>
	<g>
		<polygon stroke="#FFFFFF" stroke-miterlimit="10" points="24.758,84.291 57.813,84.291 57.813,22.541 31.643,22.541 		"/>
		<path stroke="#FFFFFF" stroke-miterlimit="10" d="M57.813,14.635h3.75v4.155h33.335C85.412,10.23,72.848,5.015,59.063,5.015
			c-13.783,0-26.348,5.215-35.834,13.775h34.584V14.635z"/>
		<path stroke="#FFFFFF" stroke-miterlimit="10" d="M19.46,22.541C10.819,32.044,5.553,44.67,5.553,58.526
			c0,14.036,5.411,26.803,14.252,36.347l8.064-72.333H19.46z"/>
		<path stroke="#FFFFFF" stroke-miterlimit="10" d="M61.563,88.041v5.686h-3.75v-5.686H24.34l-1.137,10.198
			c9.489,8.574,22.064,13.798,35.86,13.798c14.356,0,27.383-5.665,36.993-14.867l-1.068-9.129H61.563z"/>
		<path stroke="#FFFFFF" stroke-miterlimit="10" d="M99.42,93.644c8.187-9.399,13.155-21.675,13.155-35.118
			c0-13.856-5.267-26.482-13.907-35.985h-7.567L99.42,93.644z"/>
		<polygon stroke="#FFFFFF" stroke-miterlimit="10" points="61.563,22.541 61.563,84.291 94.55,84.291 87.325,22.541 		"/>
		<path fill="#FFFFFF" stroke="#FFFFFF" stroke-miterlimit="10" d="M23.203,98.238c-1.184-1.07-2.314-2.195-3.398-3.365"/>
		<path fill="#FFFFFF" stroke="#FFFFFF" stroke-miterlimit="10" d="M99.42,93.644c-1.068,1.226-2.189,2.402-3.363,3.525"/>
		<path fill="#FFFFFF" stroke="#FFFFFF" stroke-miterlimit="10" d="M99.42,93.644l-8.319-71.104h7.567
			c-1.193-1.313-2.453-2.562-3.77-3.75H61.563v-4.155h-3.75v4.155H23.229c-1.316,1.188-2.576,2.438-3.77,3.75h8.409l-8.064,72.333
			c1.084,1.17,2.215,2.295,3.398,3.365l1.137-10.198h33.474v5.686h3.75v-5.686h33.425l1.068,9.129
			C97.23,96.046,98.352,94.87,99.42,93.644z M57.813,84.291H24.758l6.885-61.75h26.171V84.291z M61.563,84.291v-61.75h25.762
			l7.225,61.75H61.563z"/>
	</g>
</g>
</svg>
