<?xml version="1.0" encoding="UTF-8"?>
<svg width="39px" height="54px" viewBox="0 0 39 54" version="1.1" xmlns="http://www.w3.org/2000/svg" xmlns:xlink="http://www.w3.org/1999/xlink">
    <!-- Generator: Sketch 43.2 (39069) - http://www.bohemiancoding.com/sketch -->
    <title>Group 10</title>
    <desc>Created with Sketch.</desc>
    <defs>
        <circle id="path-1" cx="28" cy="28" r="28"></circle>
    </defs>
    <g id="Page-1" stroke="none" stroke-width="1" fill="none" fill-rule="evenodd">
        <g id="入住-客服" transform="translate(-299.000000, -469.000000)">
            <g id="Group-10" transform="translate(289.000000, 467.000000)">
                <mask id="mask-2" fill="white">
                    <use xlink:href="#path-1"></use>
                </mask>
                <g id="Mask"></g>
                <g id="Page-1" mask="url(#mask-2)">
                    <g transform="translate(10.888889, 2.333333)">
                        <path d="M3.60859017,48.0695733 C2.96035025,47.4114429 2.0435705,47.661708 1.53925388,48.3267414 C1.52462753,48.3459296 1.51000118,48.3653517 1.49537483,48.3847739 C1.19091268,48.7857362 1.30324307,49.3354066 1.48074848,49.750526 C1.58184582,49.987921 1.6779117,50.4310036 1.57377207,50.6927347 C1.55820964,50.7037328 1.54089204,50.7161349 1.52111721,50.730292 C1.42961475,50.7949936 1.33811229,50.8602801 1.24707788,50.9256836 C0.995855654,51.1057481 0.771194887,51.2978637 0.54512999,51.4886922 C0.334744543,51.6668847 0.350423992,51.9591531 0.446606883,52.1860179 C1.0093119,53.5156168 3.04740629,52.8850986 3.704188,52.0026774 C4.46780059,50.977047 4.54315556,49.017866 3.60859017,48.0695733" id="Fill-1" fill="#FFDEA2"></path>
                        <polygon id="Fill-7" fill="#773322" points="20.4139293 50.642787 20.4139293 44.3369035 5.97374149 43.658883 5.97374149 49.2863949 8.68675428 77.34065 12.5299745 77.34065 12.8691889 50.4809747 14.0040768 52.1900076 17.1645389 77.34065 20.6683108 77.34065 20.4422459 57.0742125"></polygon>
                        <polygon id="Fill-9" fill="#000000" points="16.8630372 45.2083617 9.10124169 44.9652338 9.10124169 46.9998804 16.8630372 47.2427744"></polygon>
                        <polygon id="Fill-11" fill="#000000" points="17.5032853 45.2283572 17.5032853 47.2627698 20.4139293 47.3537966 20.4139293 45.319384"></polygon>
                        <polygon id="Fill-13" fill="#000000" points="8.15932802 44.9358548 5.97368299 44.8674093 5.97368299 46.9018219 8.15932802 46.9703844"></polygon>
                        <polygon id="Fill-19" fill="#FFDEA2" points="18.1819246 20.695515 12.9819639 19.589154 8.08389115 20.2170981 8.08389115 24.6733135 18.1819246 24.6733135"></polygon>
                        <path d="M10.2213043,20.2673851 C10.2213043,21.6713966 15.7424597,21.6713966 15.7424597,20.2673851 L15.7424597,16.6267834 L10.2213043,16.6267834 L10.2213043,20.2673851 Z" id="Fill-21" fill="#FFDEA2"></path>
                        <path d="M10.2213043,18.9110165 C10.2213043,20.3150279 15.7424597,20.3150279 15.7424597,18.9110165 L15.7424597,15.2704148 L10.2213043,15.2704148 L10.2213043,18.9110165 Z" id="Fill-23" fill="#EFB67A"></path>
                        <path d="M11.5776703,47.5278121 L14.4392868,47.6306559 C14.7099328,47.64025 14.9369338,47.4289463 14.9465287,47.1586741 L15.0087785,45.4267089 C15.0189584,45.1563197 14.8075199,44.9295719 14.5368738,44.9196268 L11.6751403,44.816783 C11.4047283,44.8071889 11.1777273,45.0182586 11.1681324,45.2887648 L11.1058827,47.0204959 C11.0962878,47.2908851 11.3076093,47.518101 11.5776703,47.5278121" id="Fill-25" fill="#6DAFC2"></path>
                        <polygon id="Fill-27" fill="#6DAFC2" points="12.9819171 23.1285967 10.1369161 18.8561898 9.50985516 20.0342724 1.00024356 21.3201129 3.51032448e-05 34.7348574 0.940217011 48.6724792 4.10524258 48.6724792 4.46668899 37.9349506 5.14429862 32.8601511 5.97367129 43.9789859 20.4422927 44.4311946 21.5725002 30.3622978 27.9323891 33.3486301 35.9814461 33.7644515 34.6726801 30.0914405 28.3141954 29.0869873 23.6074353 21.8497763 16.3638807 20.2653493 15.7238316 19.0905427"></polygon>
                        <path d="M18.4767333,9.89189255 C18.2010559,10.922437 18.4742761,11.8907369 19.0865937,12.0543042 C19.6989113,12.2181055 20.4189959,11.5157488 20.6945563,10.4853214 C20.9703508,9.45489398 20.6972476,8.48671108 20.084813,8.32290974 C19.4720273,8.1591084 18.7522938,8.86169914 18.4767333,9.89189255" id="Fill-29" fill="#FFDEA2"></path>
                        <path d="M7.35670403,9.89189255 C7.63238151,10.922437 7.35881023,11.8907369 6.74637561,12.0543042 C6.13405801,12.2181055 5.41385644,11.5157488 5.13829597,10.4853214 C4.8627355,9.45489398 5.13583874,8.48671108 5.74815634,8.32290974 C6.361059,8.1591084 7.08114356,8.86169914 7.35670403,9.89189255" id="Fill-31" fill="#FFDEA2"></path>
                        <path d="M9.21722281,17.8512101 C11.6824067,18.4805583 14.185034,18.4878123 16.726977,17.8443071 C18.0934293,17.4986862 19.0502267,16.2667832 19.0502267,14.8576237 L19.0502267,7.16504489 C19.0502267,3.87731805 16.4363221,1.14511175 13.1489032,1.0904723 C13.1043221,1.0900043 13.0604431,1.08918529 13.0157449,1.08906829 C9.65004582,1.05513801 6.91374789,3.80103343 6.91374789,7.16703391 L6.91374789,14.8696748 C6.91374789,16.2713462 7.85884425,17.5046533 9.21722281,17.8512101" id="Fill-33" fill="#FFDEA2"></path>
                        <path d="M10.099145,1.81099928 C10.0929435,1.81989136 9.19582153,1.58705946 9.09425615,1.57594436 C7.94731613,1.45005134 7.04925811,2.20014446 6.50468977,3.1603713 C5.74306637,4.50482927 5.55397689,6.26768266 5.92864553,7.75956184 C6.00704277,8.07090138 6.13399951,8.40283309 6.4141234,8.55856137 C6.50972124,8.6116798 6.62357276,8.64525907 6.68617355,8.7347648 C6.74034956,8.81268744 6.74233874,8.91424427 6.74034956,9.00913204 C6.72724435,9.67603749 6.62860423,10.3415389 6.4475885,10.9836402 C6.31700442,11.447783 6.14265831,11.9347409 6.27207227,12.3992347 C6.42126106,12.9332271 7.00736824,13.3044711 7.55392576,13.2114553 C7.52759833,11.1527065 7.75869469,9.09068171 8.21246264,7.08388133 C8.4262414,6.13558859 8.90563471,5.19829394 9.26216667,4.2872075 L16.687556,5.73509432 C17.5336613,5.89994866 18.1439897,6.64091571 18.1439897,7.50274475 C18.3119002,8.32093243 18.4909267,9.13666309 18.6648048,9.95368075 C18.7993673,10.5891129 18.9090064,11.1269663 18.9348658,11.7853307 C18.9430565,11.9996765 19.1341352,13.8679477 19.0173584,13.9210661 C19.359615,13.7669759 19.6712148,13.5450251 19.9279366,13.2721788 C20.0569995,13.1358727 20.1752974,12.9799105 20.214145,12.796687 C20.2526416,12.6145165 20.2085285,12.4264959 20.1682768,12.2449105 C19.8753987,10.9337978 19.7586219,9.58348973 19.8225098,8.24148878 C19.9705285,8.25061485 20.1393751,8.26629298 20.2742886,8.2566989 C20.1105905,8.05604226 20.2754587,7.63624284 20.2961696,7.39451886 C20.4473476,5.61247732 20.2830644,3.79241046 19.2649533,2.25946394 C18.4342935,1.00813873 17.0495875,0.0862882044 15.5492748,0.00614255014 C15.0618078,-0.0198316619 14.5738727,0.0400728271 14.0928412,0.126068529 C12.8276032,0.351997373 10.8717675,0.68849212 10.099145,1.81099928" id="Fill-35" fill="#773322"></path>
                        <path d="M9.81679794,9.1511595 C9.81679794,9.67122875 10.0783171,10.0929002 10.4009159,10.0929002 C10.7236318,10.0929002 10.9849169,9.67122875 10.9849169,9.1511595 C10.9849169,8.63085626 10.7236318,8.20918481 10.4009159,8.20918481 C10.0783171,8.20918481 9.81679794,8.63085626 9.81679794,9.1511595" id="Fill-37" fill="#773322"></path>
                        <path d="M15.2525354,9.1511595 C15.2525354,9.67122875 15.5139376,10.0929002 15.8364194,10.0929002 C16.1591352,10.0929002 16.4205374,9.67122875 16.4205374,9.1511595 C16.4205374,8.63085626 16.1591352,8.20918481 15.8364194,8.20918481 C15.5139376,8.20918481 15.2525354,8.63085626 15.2525354,9.1511595" id="Fill-39" fill="#773322"></path>
                        <path d="M11.3647808,6.97590115 C11.0795085,6.62571729 10.642122,6.40856351 10.1856628,6.45863992 C9.79765497,6.50076027 9.35008859,6.80344174 9.42134818,7.23482426 C9.44381426,7.37077937 9.62120265,7.40061461 9.71106696,7.31672493 C9.92777099,7.11454728 10.0314426,6.90336055 10.3621151,6.87352531 C10.6669283,6.84603009 10.955243,7.03463563 11.2075183,7.17772779 C11.3410276,7.25319341 11.4544111,7.08588204 11.3647808,6.97590115" id="Fill-41" fill="#773322"></path>
                        <path d="M16.4068822,6.42676886 C15.8472195,5.99456734 14.8261831,6.32895606 14.6582726,7.02218672 C14.6294879,7.14258071 14.7523493,7.24238252 14.8636265,7.18399904 C15.2398163,6.98603343 15.6236118,6.4922894 16.0666147,6.86318243 C16.3761084,7.12175454 16.7269068,6.67410888 16.4068822,6.42676886" id="Fill-43" fill="#773322"></path>
                        <path d="M14.8252938,10.5742421 C14.3396989,10.2605626 13.940224,10.0246886 13.5879044,9.54346371 C13.5553754,9.49888634 13.4795524,9.53796466 13.5109113,9.58652006 C13.7899821,10.0173176 14.0347687,10.3522913 14.4721552,10.6306366 C15.5160087,11.294266 14.059575,11.6786141 13.5760863,11.9516944 C13.4581394,12.0183849 13.5377068,12.1756342 13.658579,12.1599561 C14.145461,12.0965415 15.1543282,11.7640248 15.1664973,11.1446218 C15.1710608,10.923139 15.0026822,10.6890201 14.8252938,10.5742421" id="Fill-45" fill="#E6935C"></path>
                        <path d="M16.0584708,13.2051724 C14.081456,13.7295707 12.014226,13.648372 10.1047265,12.907522 C9.99087493,12.8634126 9.94126234,13.0451151 10.0531247,13.0895755 C11.9888346,13.8563997 14.102518,13.9542125 16.082692,13.3048572 C16.1448248,13.284382 16.1232948,13.1879733 16.0584708,13.2051724" id="Fill-47" fill="#E6935C"></path>
                        <path d="M16.3008353,12.8959272 C16.2098009,12.7141077 15.8203889,12.5299482 15.7015059,12.7816172 C15.6798589,12.8272476 15.6934322,12.8965122 15.7520546,12.9072763 C15.8738628,12.9303255 15.9771834,12.9124243 16.0498471,13.0359773 C16.124734,13.1637424 15.9892355,13.3764501 15.9503879,13.4974291 C15.9336554,13.5497285 15.9867783,13.604602 16.0397842,13.5893918 C16.3352365,13.5059702 16.4281431,13.1507553 16.3008353,12.8959272" id="Fill-49" fill="#E6935C"></path>
                        <path d="M10.2553545,12.3968479 C9.94387168,12.4785146 9.78099263,12.8023732 9.85283727,13.1070437 C9.89414208,13.2830131 10.1622139,13.2157376 10.1238343,13.0404702 C10.0848697,12.8613417 10.1734469,12.6681731 10.3206465,12.5629893 C10.3989267,12.5070628 10.3605472,12.3695867 10.2553545,12.3968479" id="Fill-51" fill="#E6935C"></path>
                        <path d="M10.76042,9.96141452 C10.2866432,9.96550955 9.66660285,9.99323878 9.27882901,10.2946332 C9.2419706,10.3231815 9.27087227,10.3945521 9.31674051,10.389989 C9.53262547,10.3684608 9.73411809,10.2828161 9.9429824,10.2257197 C10.2071928,10.1528281 10.4848595,10.1141008 10.7579627,10.0957316 C10.8430296,10.0898816 10.8480611,9.96071251 10.76042,9.96141452" id="Fill-53" fill="#E6935C"></path>
                        <path d="M16.6381541,9.89920511 C16.5409181,9.90856519 16.539397,10.0363302 16.6355798,10.0494343 C16.7730676,10.0683885 16.9036516,10.1151889 17.0227686,10.1863255 C17.1463321,10.2602701 17.2353773,10.379143 17.3448994,10.4695848 C17.3718119,10.4913469 17.4234137,10.4815189 17.4208394,10.4395155 C17.4007136,10.0810246 16.9575936,9.86866786 16.6381541,9.89920511" id="Fill-55" fill="#E6935C"></path>
                        <polygon id="Fill-57" fill="#337F75" points="12.9819171 23.6938985 10.9096556 21.3201831 9.62873815 23.9575017 11.3051521 22.6389009"></polygon>
                        <polygon id="Fill-59" fill="#337F75" points="12.8918656 23.6938985 14.9643612 21.3201831 16.2450445 23.9575017 14.5688646 22.6389009"></polygon>
                        <path d="M23.4536948,49.8150404 L23.7799209,42.2365375 L31.5441736,41.8572204 L33.6667499,49.8150404 C33.744211,58.8498541 32.1018472,66.8199592 32.0174824,75.4198804 L30.422859,75.4198804 L28.3840625,50.5792906 L29.5643506,74.8510217 L27.6452562,74.8510217 C26.8021933,65.9932304 24.2197646,58.343708 23.4536948,49.8150404" id="Fill-61" fill="#FFDEA2"></path>
                        <path d="M23.4536948,49.8150404 L23.7799209,42.2365375 L31.5441736,41.8572204 L33.6667499,49.1370198 C33.744211,58.1717166 32.1018472,66.8199592 32.0174824,75.4198804 L30.422859,75.4198804 L28.3840625,50.5792906 L29.5643506,74.8510217 L27.6452562,74.8510217 C26.8021933,65.9932304 24.2197646,58.343708 23.4536948,49.8150404" id="Fill-63" fill="#6DAFC2"></path>
                        <polygon id="Fill-65" fill="#773322" points="24.5626648 42.9448964 23.7474504 42.9866657 23.6492784 44.8673391 24.5626648 44.7852044"></polygon>
                        <polygon id="Fill-67" fill="#773322" points="26.4285544 42.8488035 25.0699418 42.9188871 25.0699418 44.7394219 26.4285544 44.6170389"></polygon>
                        <polygon id="Fill-69" fill="#773322" points="28.5489191 42.7398522 28.5489191 44.426187 30.2155041 44.2763087 30.2155041 42.6542075"></polygon>
                        <polygon id="Fill-71" fill="#773322" points="30.7952108 44.223904 32.1973514 44.09766 31.7534124 42.5750096 30.7952108 42.624384"></polygon>
                        <g id="Group-79" stroke-width="1" fill="none" transform="translate(17.902655, 30.032156)">
                            <path d="M0.563453884,20.987292 C0.598908161,20.9334716 0.638340806,20.8833952 0.680347689,20.8363608 L3.62433982,12.7099425 L4.85260236,2.46019078 C5.04637227,1.60058477 5.7228118,1.15832116 6.58459646,0.974980659 L10.8895414,0.0593311843 L14.5278757,0.525813992 C15.6920163,0.67499021 16.7234667,1.35020272 17.3252533,2.35781495 L18.1242031,11.8250642 L19.6672248,20.6747825 L21.345979,22.3702433 C22.26545,23.1954511 21.4785522,24.0977624 20.102622,25.026399 L18.4802671,21.1605704 L15.7672543,12.7067834 L15.0579347,6.54680014 L13.6415188,11.8250642 L5.87726608,12.2043813 L5.83666332,13.5948207 L2.33183835,20.9076144 C2.51601337,21.1767166 2.59277247,21.5293574 2.48091013,21.8322729 C3.10200354,21.9419028 3.30326214,22.8369601 3.02091504,23.3411172 C2.68134966,23.9488202 1.91059941,24.0770532 1.29067611,23.9050618 C0.705505015,23.7425475 0.208443068,23.2912748 0.061360472,22.693634 C-0.0980082596,22.0459167 0.222718387,21.5049043 0.563453884,20.987292" id="Fill-77" fill="#FFDEA2"></path>
                        </g>
                        <path d="M35.2279082,32.3899594 C34.6261215,31.3824642 33.5946712,30.7071347 32.4305306,30.5579585 L28.7921963,30.0914756 L24.4872513,31.0072421 C23.6254667,31.1904656 22.9490271,31.6327292 22.7552572,32.4923352 L21.5340153,42.6821824 L23.7668157,42.6821824 L23.7799209,42.2365258 L31.5441736,41.8572087 L32.9605896,36.5789446 L33.5420163,41.6271848 L36.0076682,41.6271848 L35.2279082,32.3899594 Z" id="Fill-80" fill="#CCD651"></path>
                        <path d="M30.1494749,30.4570919 C30.1494749,31.5916502 27.0693992,31.5916502 27.0693992,30.4570919 L27.0693992,26.1576578 L30.1494749,26.1576578 L30.1494749,30.4570919 Z" id="Fill-82" fill="#FFDEA2"></path>
                        <path d="M30.1494749,28.9086077 C30.1494749,30.043517 27.0693992,30.043517 27.0693992,28.9086077 L27.0693992,25.9654487 L30.1494749,25.9654487 L30.1494749,28.9086077 Z" id="Fill-84" fill="#EFB67A"></path>
                        <path d="M23.7322858,20.6937483 C23.9866674,21.6450831 23.734392,22.5387364 23.1689958,22.6900186 C22.6035995,22.8411839 21.93851,22.1926476 21.6843625,21.2413128 C21.429981,20.289861 21.6822563,19.3962077 22.2475356,19.2450425 C22.8129319,19.0938773 23.4779043,19.7422966 23.7322858,20.6937483" id="Fill-86" fill="#FFDEA2"></path>
                        <path d="M33.9976915,20.6937483 C33.74331,21.6450831 33.9957024,22.5387364 34.5610986,22.6900186 C35.1262609,22.8411839 35.7912333,22.1926476 36.0456148,21.2413128 C36.2999964,20.289861 36.047721,19.3962077 35.4823248,19.2450425 C34.9171625,19.0938773 34.2520731,19.7422966 33.9976915,20.6937483" id="Fill-88" fill="#FFDEA2"></path>
                        <path d="M30.2014745,28.0426953 C30.0897292,28.0714776 29.97892,28.0973348 29.8686958,28.1197989 C26.7688452,28.7561671 23.8388944,26.4301882 23.617978,23.2739704 L23.2023556,18.1763558 C23.2023556,15.141234 25.6155866,12.6188104 28.6506132,12.568617 C28.7618905,12.566745 28.8730507,12.565809 28.98386,12.566043 C32.0356191,12.569553 34.4552857,15.0375712 34.3974824,18.0886051 C34.3586348,20.1349518 34.1995001,21.6043668 34.0523005,23.3730702 C33.8685935,25.5812292 32.3460488,27.4867068 30.2014745,28.0426953" id="Fill-90" fill="#FFDEA2"></path>
                        <path d="M31.4657413,13.2336738 L31.4657413,13.2336738 C33.5000913,12.5665344 36.8739812,14.0622746 37.5698445,21.6360974 L37.5698445,23.6540129 C37.5698445,26.0345143 34.6778052,28.3348701 32.2969861,28.315916 L30.2014394,28.0427187 C32.4537806,27.1140821 33.5186961,25.1160568 33.2755476,21.9398319 L25.403996,16.8766156 L24.1020166,19.5752426 L24.224761,25.503096 C25.1602624,26.9381127 26.2461228,27.5979981 27.0694109,28.0043424 L27.0694109,30.4914317 L24.3127531,31.0949226 L24.441231,35.9253071 L23.2023205,35.7255864 C20.7360835,35.2561786 20.5297934,24.399309 20.9369911,21.463989 C22.2854237,11.7391036 26.2747905,11.9147221 29.1957315,11.9961547 C30.1068947,12.0217779 30.9494896,12.4826447 31.4657413,13.2336738" id="Fill-92" fill="#FAB62F"></path>
                        <path d="M31.9520617,21.9398553 C31.9520617,22.4201442 31.7109024,22.8095234 31.4129928,22.8095234 C31.1153173,22.8095234 30.874041,22.4201442 30.874041,21.9398553 C30.874041,21.4596834 31.1153173,21.0703042 31.4129928,21.0703042 C31.7109024,21.0703042 31.9520617,21.4596834 31.9520617,21.9398553" id="Fill-94" fill="#773322"></path>
                        <path d="M26.4821453,21.9398553 C26.4821453,22.4201442 26.240986,22.8095234 25.9431935,22.8095234 C25.645401,22.8095234 25.4040077,22.4201442 25.4040077,21.9398553 C25.4040077,21.4596834 25.645401,21.0703042 25.9431935,21.0703042 C26.240986,21.0703042 26.4821453,21.4596834 26.4821453,21.9398553" id="Fill-96" fill="#773322"></path>
                        <path d="M31.7938045,21.2101905 C32.0017327,21.4166972 32.275304,21.5490253 32.5472372,21.3364346 C32.6266875,21.2738391 32.7318802,21.3467307 32.6895223,21.4430224 C32.5700543,21.7128266 32.3794437,21.8328696 32.0887888,21.874288 C31.8236423,21.9123133 31.5294771,21.7416089 31.409541,21.509596 C31.2846905,21.267287 31.5896206,21.0074279 31.7938045,21.2101905" id="Fill-98" fill="#773322"></path>
                        <path d="M24.861487,21.4099697 C24.9878587,21.5067295 25.2028076,21.5229926 25.348018,21.4779472 C25.4708794,21.4396879 25.54249,21.2910967 25.6155047,21.1970279 C25.7326325,21.0458627 26.0043317,21.203346 25.943603,21.3806024 C25.8591212,21.6260704 25.6362156,21.7691626 25.3868656,21.81374 C25.0965618,21.8656884 24.8947181,21.7340623 24.7289138,21.5132815 C24.666313,21.4297428 24.7928017,21.3570852 24.861487,21.4099697" id="Fill-100" fill="#773322"></path>
                        <path d="M27.8278867,24.5628295 C28.253104,24.8019795 28.772398,25.2412011 29.2840863,24.9999451 C29.7064954,24.8009265 29.9456655,24.5416523 30.2076527,24.1690043 C30.2697854,24.0805516 30.448812,24.0614804 30.470459,24.2000096 C30.5605573,24.7688682 29.9158277,25.1939327 29.4449762,25.3768052 C28.7374118,25.6522254 28.1938966,25.1915926 27.7428199,24.6765544 C27.690633,24.617469 27.7545209,24.5216452 27.8278867,24.5628295" id="Fill-102" fill="#E6935C"></path>
                        <path d="M28.1585827,20.2365905 C28.140329,20.1862801 28.2222366,20.1508288 28.2449367,20.1996182 C28.61668,20.9967457 28.681387,21.8223044 28.453801,22.6740714 C28.4184637,22.8071015 28.2091314,22.7549191 28.2470429,22.622942 C28.475097,21.8307285 28.4376535,21.0121898 28.1585827,20.2365905" id="Fill-104" fill="#E6935C"></path>
                        <path d="M27.5648464,22.9551545 C27.6992918,22.6988054 28.0978307,22.6831273 28.3329054,22.5821554 C28.3846242,22.5599253 28.447927,22.6062576 28.4158661,22.6631201 C28.3153538,22.8436526 28.1139782,22.8876449 27.9329624,22.9544525 C27.5541984,23.0934496 27.8810096,23.4064272 27.8278867,23.6592662 C27.8222702,23.6845384 27.7924324,23.7040776 27.7671581,23.6958875 C27.4873853,23.6054458 27.4470165,23.1799133 27.5648464,22.9551545" id="Fill-106" fill="#E6935C"></path>
                        <path d="M27.5658761,20.0581172 C27.0601554,19.902623 26.5666037,19.7647958 26.0664995,19.5840294 C25.6756834,19.4429262 25.3094395,19.4862166 24.9999459,19.7617538 C24.979469,19.780591 25.0050944,19.8111282 25.0283795,19.7996621 C25.9060777,19.3658226 26.666414,20.3238264 27.5203589,20.3665318 C27.7028958,20.3755408 27.7339036,20.1095977 27.5658761,20.0581172" id="Fill-108" fill="#C48E54"></path>
                        <path d="M32.5711659,20.1109666 C31.6973291,19.3523324 30.6188404,19.8760287 29.6159407,19.9733734 C29.4288404,19.9915086 29.3433055,20.290446 29.5632858,20.3285883 C29.9566762,20.3969169 30.3063045,20.2741829 30.6773458,20.1397488 C31.3564766,19.8934618 31.8495602,19.7736528 32.5251806,20.1700521 C32.5609859,20.1915802 32.604514,20.1395148 32.5711659,20.1109666" id="Fill-110" fill="#C48E54"></path>
                    </g>
                </g>
            </g>
        </g>
    </g>
</svg>