<?xml version="1.0" encoding="utf-8"?>
<!-- Generator: Adobe Illustrator 18.0.0, SVG Export Plug-In . SVG Version: 6.00 Build 0)  -->
<!DOCTYPE svg PUBLIC "-//W3C//DTD SVG 1.1//EN" "http://www.w3.org/Graphics/SVG/1.1/DTD/svg11.dtd">
<svg version="1.1" id="图层_1" xmlns="http://www.w3.org/2000/svg" xmlns:xlink="http://www.w3.org/1999/xlink" x="0px" y="0px"
	 viewBox="0 396.1 595 50" enable-background="new 0 396.1 595 50" xml:space="preserve">
<g id="background">
	<g>
		<path fill="#444444" d="M19.8,429.7c-3.7,4.7-6.2,7.9-7.4,9.4c-1,1.5-2,3-2.5,4.2c-0.2,0.5-0.5,0.5-0.7,0.5
			c-0.5,0-1.7-1.5-3.5-4.2c0.7-1,1.5-2,1.7-2.7s0.5-1.7,0.5-3.2v-17.3H3c-0.7,0-1.2,0-1.7,0.2l-1.2-2c0.5,0.2,1.2,0.2,2.2,0.2h5.2
			l1.2-2c0.2-0.5,0.5-0.7,0.7-0.7s1.2,0.5,2.5,1.5c1.5,1,2,1.5,2,2c0,0.2-0.7,0.7-2,1.5v17.3l7.2-5.7L19.8,429.7z M4.9,398.3
			c2.5,1.2,4.5,2.5,5.9,3.7c1.7,1.2,2.5,2.5,2.5,3.7c0,1-0.5,2-1,2.7c-0.7,0.7-1.2,1.2-1.7,1.2c-0.5,0-0.7-0.2-1-0.5
			c-0.2-0.2-0.5-0.7-0.5-1.5c-1-3.5-2.5-6.2-4.7-8.7L4.9,398.3z M28.5,404.2h-9.2c-1,0-1.7,0-2.2,0.2l-1-2.2
			c0.7,0.2,1.5,0.2,2.5,0.2h9.9v-1.7c0-1.7,0-3.2,0-4.7c2.5,0.5,4.2,0.7,5.2,1c1,0.2,1.5,0.5,1.5,0.7s-0.5,0.7-1.7,1.2v3.5h6.4
			l1.7-2.5c0.2-0.2,0.5-0.2,0.7-0.2s1,0.5,2,1.2c1.2,0.7,2,1.2,2.7,1.7c0,0.2,0.5,0.7,0.5,1s-0.5,0.5-1.2,0.5H33.2v4.2h4.7l1.5-2.5
			c0.2-0.5,0.5-0.7,0.7-0.7c0.2,0,1.2,0.5,2.7,1.7c1.5,1.2,2.2,2,2.2,2.2c0,0.2-0.5,0.5-1.2,0.5H33.2v4.5h8.2l1.5-2.5
			c0.2-0.5,0.7-0.7,1-0.7c0.2,0,1.5,1.2,3.2,2.5c1.5,1.2,2.5,2,2.5,2.5c0,0.5-0.5,0.5-1.2,0.5H18.3c-1,0-1.7,0-2.2,0.2l-1.2-2.2
			c0.7,0.2,1.5,0.2,2.7,0.2h10.9v-4.5h-6.9c-1,0-1.7,0-2.2,0.2l-1-2c0.7,0,1.5,0.2,2.5,0.2h7.4v-4.5H28.5z M20.5,417.9
			c1.7,0.5,3.2,1.2,4.7,2h11.4l1.2-1.5c0.2-0.2,0.5-0.5,0.7-0.5s1,0.2,2,1l2.2,1.2c0.5,0.2,0.7,0.5,0.7,1c0,0.2-0.5,0.7-1.7,1.5
			v17.1c0,1.5-0.2,2.5-0.5,3c-0.2,0.7-1.2,1.2-2.5,2c-1.2,0.5-2.2,0.7-2.7,0.7c-0.5,0-0.7-0.2-0.7-1c0-1-0.5-1.7-1.2-2.2
			c-0.7-0.7-2.2-1.2-4.2-2l0.2-1c3,0.7,4.7,1,5.4,1s1.2,0,1.5-0.2c0.2-0.2,0.5-0.7,0.5-1.5v-4.9H24.7v8.7c0,0.5-0.2,1-0.5,1.5
			c-0.2,0.2-1,0.7-1.7,1c-0.7,0.2-1.2,0.5-1.7,0.5c-0.2,0-0.2-0.2-0.2-0.5v-3c0-1.2,0-2.5,0-4v-14.1
			C20.8,421.3,20.5,419.3,20.5,417.9L20.5,417.9z M37.4,426v-4.5H24.7v4.5H37.4z M37.4,432v-4.2H24.7v4.2H37.4z M74.7,426.3
			c-5.9,7.4-10.1,13.4-12.6,17.3c-0.2,0.2-0.5,0.5-0.5,0.5c-0.2,0-0.5,0-0.5-0.2c-0.2-0.2-0.5-0.7-1-1.5c-0.5-0.7-1-1.7-1.2-3.2
			c0.7-0.7,1-1.5,1.2-2c0.2-0.7,0.2-1.5,0.2-2.5v-17.6h-6.4c-0.7,0-1.2,0-1.7,0.2l-1.2-2.2c0.5,0.2,1.2,0.2,2.2,0.2h6.9l1.5-2.2
			c0.2-0.2,0.5-0.5,0.7-0.5c0.2,0,1.2,0.5,2.7,1.5c1.5,1,2.5,1.7,2.5,2c0,0.5-0.7,1-2.5,1.7v16.3l9.2-8.4L74.7,426.3z M58.9,398.6
			c2.5,1.2,4.7,2.5,6.2,3.7c1.5,1.2,2.5,2.2,2.5,3.5c0,1.2-0.5,2.2-1.2,3.2c-1,1-1.7,1.5-2.2,1.5c-0.5,0-0.7-0.2-1-0.5
			c-0.2-0.2-0.2-0.7-0.5-1.5c-0.2-2.2-0.7-4-1.2-4.9c-0.7-1.2-1.5-2.5-3-4L58.9,398.6z M83.9,440.4h7.7l2.2-3.2
			c0.5-0.5,0.7-0.7,1-0.7s1,0.5,2,1.2l2.7,2.5c0.7,0.7,1.2,1.2,1.2,1.5s-0.2,0.5-1,0.5H69.5c-1,0-1.7,0-2.2,0.2l-1-2.5
			c0.7,0.2,1.5,0.2,2.7,0.2h10.1V403c0-2.5,0-4.5,0-6.2c1.7,0.5,3.5,1,4.7,1.5c1.2,0.5,2,0.7,2.2,1c0.2,0.2,0.2,0.2,0.2,0.5
			c0,0.5-0.7,1-2.2,1.7v13.4h5.4l2-3.2c0.5-0.7,0.7-1,1-1c0.2,0,0.7,0.2,1.2,0.7c0.5,0.5,1.2,1.2,2.2,2c1,0.7,1.5,1.5,1.7,1.7
			c0.2,0.2,0.5,0.5,0.5,0.7c0,0.5-0.2,0.7-0.7,0.7H84.1v23.8H83.9z"/>
		<path fill="#444444" d="M239.7,411.4l-0.5-0.2c2-3.7,3.5-8.7,4.9-15.1c2.7,1,4.2,1.7,4.9,2c0.5,0.2,0.7,0.5,0.7,0.7
			s-0.2,0.5-0.7,0.5c-0.5,0.2-0.7,0.2-1,0.5c-0.2,0.2-0.5,0.7-0.7,1.2c-0.2,0.5-0.7,1.2-1,1.7h9.2l1.7-2.5c0.2-0.2,0.5-0.5,0.7-0.5
			s1,0.5,2.2,1.7c1.2,1.2,1.7,2,1.7,2.2c0,0.5-0.2,0.5-1,0.5h-8.2c0,2.7-0.2,5.2-0.7,6.9h4.9l1.7-2.5c0.2-0.5,0.5-0.5,0.7-0.5
			s0.7,0.5,2,1.7c1,1.2,1.5,2,1.5,2.2c0,0.2-0.2,0.5-0.7,0.5h-10.4c0,0.5-0.2,1-0.5,1.7c3.7,1,6.4,2,7.7,2.7c1.5,0.7,2,1.5,2,2.2
			s-0.2,1.5-0.7,2.5c-0.5,1-1,1.2-1.2,1.2s-0.5,0-0.5-0.2c-0.2-0.2-0.5-0.5-1-1c-1.2-1.5-3.5-3.7-6.9-5.9c-1,2.5-2.7,4.5-4.9,6.4
			c-2.2,2-5.7,3.7-9.9,5.4l-0.5-1c7.4-4,11.4-8.7,12.4-13.9h-8.9c-0.7,0-1.5,0-2,0.2l-0.7-2.2c0.7,0.2,1.5,0.2,2.2,0.2h1.5V411.4z
			 M245.4,404.5c-2,3.5-3.5,5.7-4.9,6.9h7.2c0.2-2,0.5-4.5,0.5-6.9C248.2,404.5,245.4,404.5,245.4,404.5z M246.7,422.1
			c2.2,0.7,4,1.5,5.2,2h17.8l1.2-1.7c0.2-0.2,0.5-0.5,0.7-0.5c0.2,0,1,0.2,2.2,1c1.2,0.7,2,1.2,2.2,1.5c0.5,0.2,0.5,0.5,0.5,0.7
			c0,0.2-0.5,0.7-1.5,1.2v11.9c0,1,0,2,0,3.2v1.7c0,0.2-0.2,0.5-0.5,0.7c-0.2,0.2-1,0.5-2,1c-1,0.5-1.7,0.7-2,0.7
			c-0.2,0-0.5-0.2-0.5-0.5v-4.7h-19.1v3c0,0.5,0,0.7-0.2,1s-1,0.5-2.2,1c-1.2,0.5-2,0.7-2,0.7c-0.2,0-0.2-0.2-0.2-0.5
			c0.2-1.7,0.2-3.5,0.2-5.2v-13.6C246.9,425,246.9,423.5,246.7,422.1L246.7,422.1z M270.4,431.2v-5.4h-19.1v5.4H270.4z M270.4,438.6
			v-5.9h-19.1v5.9H270.4z M263.2,399.5c1.5,0.5,3.5,1.2,5.2,2.2h6.4l1.7-2.2c0.2-0.2,0.5-0.5,0.7-0.5c0.2,0,1.2,0.5,2.7,1.7
			c1.5,1.2,2.2,1.7,2.2,2.2c0,0.2-0.5,0.7-1.7,1.5v11.4c0,1,0,2,0,3.2v1.7c0,0.2,0,0.5,0,0.5s-0.2,0.2-0.7,0.5
			c-0.5,0.2-1.2,0.5-2,0.7c-0.7,0.2-1.2,0.2-1.5,0.2s-0.2-0.2-0.2-0.5v-3.7H268v2c0,0.5,0,0.7-0.2,1c-0.2,0.2-1,0.5-2,0.7
			c-1,0.2-1.7,0.5-2,0.5c-0.2,0-0.2-0.2-0.2-0.5c0.2-1.2,0.2-3,0.2-5.2v-13.4C263.5,402.5,263.5,401,263.2,399.5L263.2,399.5z
			 M275.9,416.9v-13.4h-8.2v13.6h8.2V416.9z M307.3,410.9c-6.9,0.7-11.1,1.5-13.1,1.7c-1.7,0.2-3,0.5-3.5,0.7c-0.5,0.2-1,0.5-1,0.5
			s-0.2,0-0.2-0.2c0,0-0.2-0.7-0.7-1.7c-0.5-1-0.7-2-1-2.5c2,0,3.5-0.2,4.5-0.7c1-0.5,1.7-1.2,2.5-2.2c0.7-1,1.5-2.2,2.2-3.7
			c0.7-1.5,1.7-3.7,3-6.4c4,1.7,5.7,3,5.7,3.5c0,0.2-0.2,0.5-1,0.5c-0.5,0-1,0.2-1.2,0.2c-0.2,0.2-0.7,0.5-1.2,1.2
			c-2,2.2-4.2,4.7-6.7,7.4l10.6-0.2c-1-1.7-2.5-3.5-3.7-4.9l0.5-1c3.5,1.7,5.7,3,6.9,4c1.2,1,1.7,2,1.7,2.7s-0.2,1.7-0.7,2.7
			c-0.5,1-1,1.2-1.7,1.2c-0.2,0-0.5,0-0.7-0.2c-0.2-0.2-0.5-0.5-0.7-1C307.8,411.9,307.5,411.4,307.3,410.9z M295.9,432.9v10.1
			c0,0.2-0.2,0.7-0.5,1c-0.5,0.2-1,0.7-1.7,1c-0.7,0.5-1.2,0.5-1.5,0.5s-0.5,0-0.5-0.2v-3c0-1,0-2.5,0-4v-18.3c0-1.7,0-3.5-0.2-4.9
			c1.5,0.5,3.2,1,4.7,1.7h7.7l1.5-2c0.2-0.2,0.5-0.5,0.7-0.5c0.2,0,1.2,0.5,2.5,1.5c1.5,1,2.2,1.7,2.2,2.2c0,0.2-0.5,0.7-1.5,1.2
			v22.3c0,0.7-0.2,1.2-0.5,1.7s-1,1-2,1.5c-1,0.5-1.7,1-2,1c-0.2,0-0.5-0.2-0.7-0.7c-0.5-1-1-1.7-1.7-2.5c-0.7-0.5-1.7-1.2-3.2-1.7
			l0.2-1c2.5,0.5,4,0.7,4.5,0.7c0.5,0,1,0,1-0.2c0.2-0.2,0.2-0.5,0.2-0.7v-6.4h-9.2V432.9z M295.9,418.6v5.2h9.2v-5.2H295.9z
			 M295.9,425.3v5.7h9.2v-5.7H295.9z M317.9,408.5c4-2.7,7.2-5.4,9.9-8.4c1.2,1.2,2.5,2.2,3.2,3c0.7,1,1.2,1.5,1.2,1.7
			s-0.2,0.2-0.7,0.2h-1.2c-0.7,0-2,0.5-3.5,1.2c-3.2,2-6.2,3.2-8.9,4.2v3.5c0,0.7,0.2,1.2,0.5,1.2c0.5,0.2,2,0.2,4.7,0.2
			s4.2,0,4.7-0.2c0.2-0.2,0.7-0.7,1-1.7c0.2-1,0.7-3.2,1.5-6.7h1.2c0,2,0,3.7,0.2,4.7c0,1,0.2,1.7,0.5,2c0.2,0.2,0.7,0.7,1.2,1
			c0.5,0.2,1,0.7,1,1c0,0.2-0.2,0.7-1,1.7c-0.7,1-1.2,1.5-1.7,2c-0.5,0.2-1.7,0.5-3,0.7c-1.5,0.2-3.5,0.2-6.2,0.2
			c-2.7,0-4.7,0-5.7-0.2c-1.2-0.2-2-0.7-2.2-1.2c-0.2-0.7-0.5-2-0.5-3.7V403c0-2.5,0-4.2-0.2-5.9c2.7,0.5,4.5,1,5.2,1.2
			c0.7,0.2,1,0.5,1,1c0,0.2-0.5,1-1.7,1.7v7.4H317.9z M318.2,430.7c3.5-2.5,6.7-5.2,9.9-8.4c3,2.5,4.2,4,4.2,4.5
			c0,0.2-0.2,0.2-0.5,0.2h-1c-0.7,0-2,0.5-3.7,1.5c-2.7,1.5-5.7,2.7-8.9,4v4.9c0,0.5,0,1,0.2,1s1,0.2,2.5,0.2s2.7,0.2,3.7,0.2
			c1,0,2,0,3-0.2c1,0,1.7-0.2,2-0.2c0.2-0.2,0.5-0.5,0.7-1c0.2-0.5,0.5-1.5,0.7-2.7s0.5-3.2,1-5.7h1.2c0,3.2,0,5.4,0.5,6.4
			c0.2,1.2,0.7,2,1.5,2.5c0.7,0.5,1,0.7,1,1c0,0.2-0.5,1-1.2,2.2c-0.7,1.2-2,1.7-3.5,2c-1.5,0.2-4,0.2-7.4,0.2c-3.5,0-5.9,0-7.2-0.2
			c-1.5-0.2-2.2-0.7-2.5-1.2c-0.2-0.7-0.5-2-0.5-4v-12.1c0-2.5,0-4.2-0.2-5.9c4,0.7,5.9,1.2,5.9,1.7c0,0.2-0.5,0.7-1.2,1.5v7.7
			H318.2z M352.1,402.8h6.4l2-2.2c0.2-0.2,0.5-0.5,0.7-0.5s1,0.5,2.2,1.7c1.2,1.2,2,2,2,2.2s-0.2,0.5-0.7,0.5h-11.1
			c3,1.5,4.5,3,4.5,4.7c0,1-0.2,1.7-1,2.5c-0.5,0.7-1.2,1-2,1c-0.2,0-0.5-0.2-0.7-0.5c-0.2-0.5-0.2-1.2-0.5-2.5c-0.2-2-1-3.7-2-5.2
			h-1.2c-2.7,3.5-6.2,6.9-10.6,9.9l-0.2-1c4.9-5.2,8.4-10.6,10.6-16.8c2.5,0.7,4,1.2,4.7,1.7c0.7,0.2,1,0.5,1,1
			c0,0.2-0.2,0.5-0.7,0.5c-0.5,0-1,0.2-1.2,0.5s-0.5,0.7-1,1.2C352.6,401.8,352.3,402.3,352.1,402.8z M347.6,410.7
			c0.2,0.7,0.2,1.7,0.5,3H379l1.2-2c0.2-0.5,0.5-0.7,0.7-0.7s1.2,0.5,3.2,1.7c1.7,1.2,2.7,2,2.7,2.2s-0.2,0.5-1,0.5
			c-1.7,0.2-4.2,2-7.4,5.4l-1-0.5c0.7-1.7,1.5-3.5,2-5.4h-31.2c0,2.5-0.2,4.2-1.2,5.4c-1,1.2-2.2,1.7-3.7,1.7
			c-0.7,0-1.5-0.2-1.7-0.5c-0.5-0.2-0.5-0.7-0.5-1.2c0-0.5,0.5-1.2,1.7-2.2c1.2-1,2.2-2.2,2.7-3.5c0.7-1.2,1-2.7,1.2-4.5
			L347.6,410.7L347.6,410.7z M370.9,427.7h-17.3v4.7h18.8l1-1.5c0.2-0.2,0.5-0.5,1-0.5c0.2,0,1.2,0.5,2.7,1.2
			c1.5,0.7,2.2,1.5,2.2,1.7c0,0.5-0.7,1-2,1.7v3c0,1.5,0,2.7,0,3.5v2c0,0.2-0.2,0.5-0.5,0.7c-0.2,0.2-1,0.5-1.7,0.7
			c-1,0.2-1.7,0.5-2.2,0.5c-0.2,0-0.2-0.2-0.2-0.7v-3h-19.1v2c0,0.2,0,0.5-0.2,0.7c0,0-0.7,0.2-2,0.7c-1.2,0.5-2,0.5-2.2,0.5
			c-0.2,0-0.2,0-0.2-0.2l0.2-2.7c0-1,0-2.7,0-4.5v-14.8c0-2.5,0-4.5-0.2-6.4c2.7,0.7,4.5,1.5,5.9,2.2h15.6l0.7-1.5
			c0.2-0.2,0.5-0.5,0.7-0.5c0.2,0,1,0.5,2.5,1.2s2.2,1.5,2.2,1.7s-0.5,0.7-1.7,1.5v2.5c0,1.2,0,2.2,0,2.7v1.7c0,0.2-0.2,0.5-0.5,0.5
			c-0.2,0.2-1,0.5-1.7,0.7c-1,0.2-1.5,0.5-1.7,0.5c-0.2,0-0.2-0.2-0.2-0.7v-2H370.9z M353.6,426.3h17.3v-5.7h-17.3V426.3z
			 M353.6,440.1h19.1v-5.9h-19.1V440.1z M372.1,400.5c-0.7,1-1.2,1.7-1.7,2.5h8.4l2-2.7c0.2-0.5,0.5-0.5,0.7-0.5s1.2,0.7,2.7,2
			c1.5,1.2,2.2,2.2,2.2,2.5c0,0.2-0.2,0.5-1,0.5h-13.9c2.2,0.7,3.5,1.5,4.2,2.2c0.7,0.5,1,1.2,1,2.2c0,0.7-0.2,1.7-0.7,2.2
			c-0.5,0.7-1,1-1.7,1c-0.2,0-0.5,0-0.7-0.2c-0.2-0.2-0.5-0.7-0.7-1.7s-0.7-1.7-1-2.5c-0.5-0.7-1.2-2-2.2-3.2h-1.2
			c-1.5,1.5-3,3-4.7,4.2c1,0.7,1.5,1.2,1.5,2s-0.2,1.5-0.7,2c-0.5,0.7-1,1-1.5,1s-1,0-1.2-0.2c-0.2-0.2-0.5-0.5-0.5-1
			c-1-2.5-2-4.2-3-5.2l0.2-0.7c1.5,0.5,3,1,4.5,1.7c2.2-2.7,4.2-6.7,5.9-11.4c1.2,0.5,2.5,0.7,3.5,1.2c1,0.5,1.5,0.7,1.7,0.7
			c0.2,0.2,0.2,0.2,0.2,0.5c0,0.5-0.5,0.5-1.2,0.5C372.9,399.5,372.4,399.8,372.1,400.5L372.1,400.5z M411.2,413.6h-7.7
			c-1,0-1.7,0-2.2,0.2l-0.7-2.2c0.7,0.2,1.5,0.2,2.7,0.2h20l2-2.5c0.2-0.2,0.5-0.5,1-0.5s1.2,0.7,2.7,2c1.5,1.2,2,2,2,2.2
			s-0.2,0.2-0.7,0.2h-12.1c-2.5,1.7-4,3-4.9,3.5c2.5,1.7,4.5,3.5,5.4,5.7c4.7-3,8.2-5.4,10.1-7.9c1,0.7,2,1.5,3,2.5
			c1,1,1.5,1.5,1.7,1.7c0.2,0.2,0.2,0.5,0.2,0.5c0,0.5-0.2,0.5-0.7,0.5c-0.2,0-0.5,0-0.7-0.2c-0.2,0-0.7-0.2-1.2-0.2
			c-0.5,0-1.2,0.2-3,1c-1.5,0.7-3,1.2-4.5,1.7c1.2,3.5,3,6.4,5.7,8.7c2.5,2.2,5.9,4.2,10.6,5.7l-0.2,1c-2.7-0.2-4.9,0.7-6.2,2.2
			c-0.2,0.2-0.2,0.2-0.5,0.2c-0.5,0-2.2-1.2-4.7-4c-2.7-2.7-4.5-7.2-5.9-13.4l-3,1c0.7,2,1.2,4.2,1.2,6.4c0,2.5-0.2,4.7-0.7,7.2
			c-0.5,2.5-1.5,4.2-3.5,5.2c-1.7,1-3,1.5-3.5,1.5c-0.2,0-0.5-0.2-0.7-1c-0.5-2-2.5-3.5-6.2-4.7v-1c2.5,0.5,4.2,0.7,5.4,0.7
			c1.2,0,2,0,2.5-0.2c0.5-0.2,0.7-0.5,1-1s0.5-1.5,0.7-3.2s0.2-3.5,0.2-4.9c-3.7,3-7.4,5.4-10.9,7.2c-3.5,1.7-7.9,3.5-13.1,4.9
			l-0.5-1c5.4-2.2,9.6-4.7,13.1-7.2c3.5-2.5,6.9-5.7,10.6-9.6c-0.2-0.5-0.5-1-0.7-1.7c-3.5,2.7-6.7,4.9-9.6,6.4
			c-3,1.7-6.9,3.2-11.4,4.7l-0.7-1.2c3.5-1.5,7.2-3.5,10.6-6.2c3.5-2.5,6.4-5.2,8.4-7.7l-0.5-0.5c-5.2,3.5-11.4,5.9-18.3,7.7l-0.5-1
			c4-1.5,7.7-3.2,10.9-5.2C407,417.6,409.5,415.6,411.2,413.6z M414.4,404.7c-1-4-2.5-6.4-4.9-7.4l0.5-1c6.2,1.2,9.2,3,9.2,5.2
			c0,0.5-0.2,1.2-0.7,2c-0.5,0.7-1,1.2-1.5,1.5h13.4l1.7-1.7c0.5-0.5,0.7-0.7,1-0.7s0.7,0.2,1.2,0.7c0.7,0.5,1.5,1.2,2.2,2
			c0.7,0.7,1.5,1.2,1.7,1.7c0.2,0.5,0.5,0.7,0.5,1c0,0.7-0.5,1-1.5,1h-1.2c-1,0-2,0.2-3.2,0.7c-1.2,0.5-2.5,1-3.7,2l-0.7-0.7
			c1-1.5,2-3,2.5-4h-29.7c0,2.5-0.5,4.5-1.7,5.7c-1,1.2-2.2,2-3.5,2c-1,0-1.7-0.2-2.2-0.7c-0.5-0.5-1-1-1-1.7s0.5-1.2,1.2-1.5
			c3.2-1.5,5.2-4.2,5.7-8.2h1.2c0,0.7,0,1.7,0,3h13.6V404.7z M456.5,425.3v1.7c0,0.5-0.2,0.7-0.5,1c-0.2,0.2-1,0.5-2.2,0.7
			c-1.2,0.2-2,0.5-2.2,0.5s-0.2-0.2-0.2-0.5c0.2-1,0.2-2.7,0.2-5.2v-13.1c0-2,0-3.5-0.2-4.5c2.5,0.7,4.5,1.7,5.9,2.5h8.4
			c0-3,0-5.2,0-6.2h-17.6c-1,0-1.5,0-2,0.2l-1.2-2.2c0.7,0.2,1.7,0.2,2.7,0.2h34.1l2.7-3.5c0.2-0.2,0.2-0.5,0.5-0.5s0.7,0.2,1.2,0.7
			c0.7,0.5,1.5,1,2.5,2c1,0.7,1.7,1.2,2,1.7c0.2,0.2,0.5,0.5,0.5,0.7c0,0.2-0.2,0.5-0.7,0.5h-20.3c0,3,0,4.9,0,6.2h7.7l1.5-2.2
			c0.2-0.2,0.5-0.5,0.7-0.5c0.2,0,1,0.5,2.2,1.2c1.2,0.7,2.2,1.5,2.5,1.7c0.5,0.2,0.7,0.5,0.7,0.7c0,0.2-0.7,0.7-2.2,1.2v10.6
			c0,1.5,0,2.7,0,3.2v1.7c0,0.2,0,0.2,0,0.2s-0.2,0.2-0.7,0.5c-0.5,0.2-1,0.5-1.7,0.5c-0.7,0.2-1.2,0.2-1.7,0.2
			c-0.2,0-0.5,0-0.5-0.2v-2.2h-8.7c-0.5,4-1.2,6.9-2.7,9.4c3.5,1.7,6.9,3,10.6,3.5c3.7,0.7,8.7,1,14.4,1v1c-1.7,0.2-3.2,0.5-4.2,1.2
			c-1,0.5-1.7,1.5-2.2,2.5c0,0.2-0.2,0.5-0.5,0.5s-2-0.2-4.9-1c-3-0.7-5.7-1.5-8.2-2.5s-4.7-2.2-6.9-3.5c-3.5,3.7-10.4,6.2-20.5,7.4
			l-0.2-0.7c9.2-2.5,14.8-5.4,17.6-8.9c-1.5-1.2-3.2-3.5-5.2-7.2l0.7-0.5c2,2,4,4,5.9,5.2c1-2,1.7-4.5,2-7.2h-8.9V425.3z
			 M456.5,410.2v5.7h9.4v-5.9h-9.4V410.2z M456.5,417.6v5.9h9.2c0-1,0.2-3,0.2-5.9C465.9,417.6,456.5,417.6,456.5,417.6z
			 M478.3,423.5v-5.9h-8.2c0,2,0,4-0.2,5.9H478.3z M478.3,415.9v-5.7h-8.2c0,1.2,0,3.2,0,5.9h8.2V415.9z M500,409.4
			c0.5,2.2,0.5,4.5,0.5,6.2c0,2-0.5,3.5-1.2,4.9c-0.7,1.5-1.7,2.2-3,2.2c-0.5,0-1-0.2-1.5-0.5c-0.5-0.2-0.7-0.7-0.7-1.7
			c0-0.7,0.2-1.5,0.7-2.2c1.2-1.2,2-2.7,2.5-4.2c0.5-1.5,0.7-3,1-4.9L500,409.4z M505.7,407.2c2.5,0.7,4.2,1.5,5.2,2
			c1,0.5,1.2,1.2,1.2,2c0,0.7-0.2,1.5-0.7,2c-0.5,0.7-1,1-1.2,1c-0.5,0-0.7-0.2-1.2-1c-1-2-2-3.7-3.2-4.7v33.9
			c0,0.2-0.2,0.5-0.5,0.7s-0.7,0.5-1.7,0.7c-1,0.2-1.5,0.5-1.7,0.5c-0.2,0-0.2-0.2-0.2-0.7v-2.2c0-1.5,0-3,0-4.7V402
			c0-1.7,0-3.2,0-4.7c2.7,0.7,4.2,1.2,4.9,1.5c0.5,0.2,1,0.5,1,0.7s-0.5,0.7-1.7,1.2V407.2z M520.8,402.5h6.7v-3c0-0.5,0-1.7,0-3
			c1.7,0.2,3.2,0.5,4.2,0.7c1,0.2,1.2,0.5,1.2,0.7c0,0.2-0.5,0.7-1.2,1.2v3.2h3.5l2.2-3.2c0.2-0.5,0.5-0.5,1-0.5c0.2,0,1.2,0.7,3,2
			c1.5,1.2,2.5,2.2,2.5,2.7c0,0.5-0.5,0.7-1.5,0.7h-10.4v2.5c0,0.2,0,0.5-0.2,0.5s-0.7,0.2-1.7,0.7c-1,0.2-1.5,0.5-1.7,0.5
			c-0.2,0-0.5-0.2-0.5-0.5v-3.7h-6.7v3.5c0,0.2,0,0.5-0.2,0.7c0,0.2-0.5,0.2-1.2,0.5c-0.7,0.2-1.5,0.2-2.2,0.2
			c-0.2,0-0.5-0.2-0.5-0.7l0.2-4.5h-5.9c-1,0-1.7,0-2.2,0.2l-1.2-2c0.7,0.2,1.5,0.2,2.7,0.2h6.9v-1.7c0-1.2,0-2.5-0.2-3.7
			c2.5,0.2,4,0.5,4.5,0.7c0.7,0.2,1,0.5,1,0.7s-0.5,0.7-1.5,1.2v2.7H520.8z M522.5,411.9l-10.1,0.5v-1.2c9.2-0.7,16.1-2.2,21-4
			c1.7,2,2.7,3.2,2.7,3.5s0,0.2-0.2,0.2s-0.2,0-0.7-0.2c-0.2,0-0.5-0.2-0.7-0.2c-0.7,0-3.2,0.2-7.7,0.7v3.7h7.7l2-2.5
			c0.2-0.5,0.5-0.5,1-0.5c0.2,0,0.7,0.2,1.2,0.7l2.2,1.7c1,0.7,1.5,1.5,1.5,1.7c0,0.2-0.5,0.5-1.2,0.5h-14.4v3h5.7l1.2-2
			c0.2-0.2,0.5-0.2,0.7-0.2s1.2,0.5,2.7,1.2s2.2,1.2,2.2,1.7c0,0.2-0.5,0.7-1.7,1.5v6.4c0,0.5,0,1,0,1.5v1c0,0.2-0.2,0.5-0.5,0.5
			c-0.2,0.2-1,0.5-2,0.7c-1,0.2-1.5,0.5-1.7,0.5c-0.2,0-0.5-0.5-0.5-1.2h-6.7v3.5h6.7l1.7-2.2c0.2-0.2,0.5-0.5,0.7-0.5
			s1.2,0.5,2.5,1.5c1.2,1,2,1.7,2,2.2c0,0.2-0.2,0.5-1,0.5h-12.6v4.5h8.2l2-3c0.2-0.5,0.7-0.7,1-0.7c0.5,0,1,0.2,1.7,1
			c0.7,0.7,1.5,1.2,2.5,2c0.7,0.7,1.2,1.2,1.2,1.7s-0.2,0.5-1,0.5h-31.9c-1,0-1.5,0-2.2,0.2l-1-2.2c0.7,0.2,1.7,0.2,2.7,0.2H522
			v-4.5h-8.7c-1,0-1.7,0-2.2,0.2l-1-2c0.7,0.2,1.7,0.2,2.5,0.2h9.2V431h-6.4c0,0.5,0,0.7-0.2,1c0,0.2-0.7,0.5-1.7,0.7
			c-1,0.2-1.7,0.5-2.2,0.5c-0.2,0-0.2,0-0.2-0.2v-3v-8.9c0-1.2,0-2.2-0.2-3.5c1.5,0.5,3,1,4.2,1.7h6.4v-2.5h-11.4
			c-0.7,0-1.5,0-2.2,0.2l-1-2c0.7,0.2,1.7,0.2,2.7,0.2h11.9v-3.5H522.5z M522.5,424.5v-3.5h-6.4v3.5H522.5z M522.5,429.7v-3.5h-6.4
			v3.5H522.5z M526.7,421.1v3.5h6.7v-3.5H526.7z M526.7,426v3.5h6.7V426H526.7z M554.7,417.6c-2,3-4.7,5.7-7.4,8.2l-0.5-0.5
			c3.2-4.5,5.9-9.2,7.9-13.6s3.7-9.4,4.9-15.1c3.5,1.5,5.4,2.5,5.9,2.7c0.5,0.2,1,0.7,1,1s-0.7,0.7-1.5,0.7c-0.5,0-0.7,0-1,0.2
			c-0.2,0.2-1,1.7-2.2,4.5s-2.5,5.2-3.7,6.9c0.5,0.2,1.2,0.2,1.7,0.7c0.5,0.2,0.7,0.5,0.7,0.7s-0.5,0.5-1.2,1v27.2
			c0,0.5-0.2,0.7-0.5,1c-0.2,0.2-1,0.5-2,1c-1,0.2-1.5,0.5-1.7,0.5c-0.2,0-0.5-0.2-0.5-0.5v-3.2c0-2.5,0-4.5,0-5.9L554.7,417.6
			L554.7,417.6z M559.9,438.1c3.7-5.7,6.4-11.9,8.4-18.6c3.7,1.5,5.7,2.7,5.7,3.2c0,0.2-0.2,0.5-1,0.5s-1.2,0.5-1.7,1.5
			c-3.2,5.7-6.9,10.4-10.9,13.9L559.9,438.1L559.9,438.1z M571.8,409.7c-1.2,2.2-2.5,4.2-3.7,5.9c-1.2,1.5-3,3.7-5.7,6.2l-0.7-0.7
			c3-4.5,4.9-8.2,6.4-11.6c1.5-3.5,2.7-7.4,3.7-12.4c4.5,1.7,6.9,2.7,6.9,3.5c0,0.2-0.5,0.5-1.2,0.7c-1,0.2-1.7,0.5-2,1.2
			c-0.2,0.5-1.2,2.5-2.7,5.4h14.1l1.2-2c0.2-0.2,0.5-0.5,0.7-0.5s1.5,0.7,3.2,2c2,1.2,3,2.2,3,3c0,0.2,0,0.5-0.2,0.5
			c0,0-0.2,0-0.7,0h-1c-1,0-2,0.5-3,1.2s-2.5,2.5-4.5,4.9l-0.7-0.5c1-2.7,2-5.2,2.5-7.2h-15.6V409.7z M576,416.6c0-1.7,0-3.2,0-4.7
			c2.2,0.5,4,1,4.9,1.5c1,0.5,1.5,0.7,1.5,1c0,0.2-0.5,0.7-1.7,1.2v24c0,1.5-0.7,2.7-2.2,3.7c-1.5,1-2.7,1.2-3.5,1.2
			c-0.5,0-0.7-0.2-0.7-0.7c-0.2-1.2-0.7-2-2-2.7c-1-0.7-2.5-1.5-4.5-2.2l0.2-1c3.2,0.5,5.2,1,6.2,1s1.5,0,1.7-0.2
			c0.2-0.2,0.2-0.7,0.2-1.2v-20.8H576z M583.4,420.1c2.7,3.2,5.2,5.7,6.7,7.9c1.7,2.2,2.5,4,2.5,5.2c0,1.2-0.2,2.5-1,3.5
			s-1.5,1.5-2.5,1.5c-0.5,0-0.7-0.2-1-0.5c-0.2-0.2-0.5-1.5-0.7-3.5c-0.2-2-1-4-1.7-6.2c-0.7-2.2-1.7-4.7-3-7.2L583.4,420.1z"/>
		<g>
			<path fill="#444444" d="M108.4,400.5h13.1c3.5,0,6.4,0.5,9.4,1.2c2.7,0.7,5.2,1.7,7.2,3.2c2,1.5,3.7,3.5,4.7,5.7
				c1,2.2,1.7,4.7,1.7,7.4c0,2.5-0.5,4.9-1.5,7.2c-1,2.2-2.5,4.2-4.2,5.9s-4.2,3-6.7,4c-2.7,1-5.7,1.5-9.2,1.5h-14.6V400.5z
				 M117.3,432.9h4.7c1.7,0,3.5-0.2,4.9-1c1.5-0.7,3-1.5,4-2.7c1.2-1.2,2-2.7,2.7-4.7c0.7-2,1-4,1-6.2c0-2-0.2-4-1-5.7
				c-0.7-1.7-1.5-3.2-2.5-4.5c-1.2-1.2-2.5-2.2-4-3c-1.5-0.7-3.5-1-5.2-1h-4.7C117.3,404.2,117.3,432.9,117.3,432.9z"/>
			<path fill="#444444" d="M180.1,437.2c-1.2,0-2.7-0.2-4.2-0.7s-2.7-1.2-4.2-2.2c-1.5,1-3.2,1.7-4.9,2.2c-1.7,0.5-3.7,0.7-6.2,0.7
				c-1.7,0-3.5-0.2-4.9-0.7s-2.7-1-3.7-1.7c-1-0.7-1.7-1.5-2.2-2.5s-0.7-2-0.7-3.2c0-1.2,0.2-2.5,0.7-3.5c0.5-1,1.2-2,2-3
				c0.7-1,2-1.7,3-2.5c1.2-0.7,2.2-1.5,3.5-2.2c-0.5-1.2-1-2.7-1.2-4c-0.2-1.2-0.5-2.5-0.5-3.7c0-1.2,0.2-2.5,0.7-3.5
				c0.5-1.2,1.2-2.2,2.2-3c1-0.7,2.7-2,4-2.7c1.2-0.5,2.7-0.7,4.5-0.7c1,0,2.2,0.2,3.2,0.5c1.2,0.2,2.2,0.7,3,1.2
				c1,0.7,1.7,1.5,2.2,2.5s0.7,2,0.7,3.5c0,1.2-0.2,2.2-0.7,3.2c-0.5,1-1.2,2-2.2,2.7c-1,0.7-2,1.7-3.2,2.5
				c-1.2,0.7-2.5,1.5-3.7,2.2c0.7,1.5,1.5,3.2,2.5,4.7c1,1.5,2,3,3.2,4.2c0.7-0.7,1.5-1.7,2.2-2.5c0.7-1,1.5-1.7,2-2.7
				c0.5-1,1.2-1.7,1.7-2.5c0.5-0.7,1-1.5,1.2-2.2l4.2,2.7c-1.2,2-2.5,3.7-3.7,5.7c-1.2,1.7-2.5,3.5-4,4.9c1,0.7,1.7,1.2,2.7,1.7
				c1,0.5,1.7,0.5,2.7,0.5c0.7,0,1.5,0,2-0.2s1-0.5,1.5-1c0.5-0.5,0.7-1,1.2-1.5c0.2-0.5,0.7-1.2,1-2l3.2,1.5
				c-0.7,2.7-2,4.7-3.7,5.9C184.8,436.7,182.6,437.2,180.1,437.2z M162.3,432.9c1,0,2-0.2,3-0.5c1-0.2,2-0.7,3-1.2
				c-1.5-1.2-2.7-2.7-4-4.2s-2.2-3.2-3.2-4.7c-1.2,0.7-2.2,1.7-2.7,2.7c-0.7,1-1,2-1,3.2c0,0.7,0,1.2,0.2,1.7c0.2,0.5,0.5,1,1,1.5
				c0.5,0.5,1,0.7,1.7,1C161.1,432.7,161.3,432.9,162.3,432.9z M164.5,409.2c0,0.7,0,1.5,0.2,2.2c0.2,0.7,0.2,1.7,0.5,2.5
				c0.7-0.5,1.5-1,2.2-1.5s1.2-1,1.7-1.7c0.5-0.5,0.7-1.2,1.2-1.7c0-0.5,0.2-1.2,0.2-2c0-1.2-0.2-2.2-0.7-2.7
				c-0.5-0.5-1.2-0.7-2-0.7c-0.5,0-1,0.2-1.5,0.5c-0.5,0.2-0.7,0.7-1.2,1.2c-0.2,0.5-0.5,1-0.7,1.7
				C164.5,407.7,164.5,408.5,164.5,409.2z"/>
			<path fill="#444444" d="M195,400.5h8.9v13.6l16.1-13.6h6.9l-18.3,15.3l23,20.8h-10.6l-17.1-15.6v15.6H195V400.5z"/>
		</g>
	</g>
</g>
</svg>
