<?xml version="1.0" encoding="UTF-8"?>
<svg width="60px" height="60px" viewBox="0 0 60 60" version="1.1" xmlns="http://www.w3.org/2000/svg" xmlns:xlink="http://www.w3.org/1999/xlink">
    <!-- Generator: Sketch 43.1 (39012) - http://www.bohemiancoding.com/sketch -->
    <title>qietu-suzhou</title>
    <desc>Created with Sketch.</desc>
    <defs></defs>
    <g id="Page-1" stroke="none" stroke-width="1" fill="none" fill-rule="evenodd">
        <rect id="qietu-suzhou" fill="#B3DFDB" x="0" y="0" width="60" height="60" rx="30"></rect>
        <g id="icon-suoyouchengshi" transform="translate(30.000000, 29.956522) rotate(-270.000000) translate(-30.000000, -29.956522) translate(23.000000, 26.000000)" fill-rule="nonzero" fill="#10796B">
            <path d="M7.51209115,7.59739215 C7.26485237,7.84852853 6.8641748,7.84852853 6.61695579,7.59739215 L6.61695579,7.59739215 C6.369717,7.34625577 6.369717,6.93926173 6.61695579,6.68814544 L12.8831011,0.323217549 C13.1303399,0.0720811686 13.5310175,0.0720811686 13.7782365,0.323217549 L13.7782365,0.323217549 C14.0254753,0.57435393 14.0254753,0.981347971 13.7782365,1.23246426 L7.51209115,7.59739215 L7.51209115,7.59739215 Z" id="Shape" transform="translate(10.197596, 3.960305) scale(1, -1) translate(-10.197596, -3.960305) "></path>
            <path d="M7.34867099,6.68814544 C7.59590977,6.93928182 7.59590977,7.34627587 7.34867099,7.59739215 L7.34867099,7.59739215 C7.1014322,7.84852853 6.70075463,7.84852853 6.45353562,7.59739215 L0.187390265,1.23246426 C-0.059848524,0.981327879 -0.059848524,0.574333837 0.187390265,0.323217549 L0.187390265,0.323217549 C0.434629054,0.0720811686 0.835306621,0.0720811686 1.08252563,0.323217549 L7.34867099,6.68814544 L7.34867099,6.68814544 Z" id="Shape" transform="translate(3.768031, 3.960305) scale(1, -1) translate(-3.768031, -3.960305) "></path>
        </g>
    </g>
</svg>