<?xml version="1.0" encoding="UTF-8"?>
<svg width="25px" height="52px" viewBox="0 0 25 52" version="1.1" xmlns="http://www.w3.org/2000/svg" xmlns:xlink="http://www.w3.org/1999/xlink">
    <!-- Generator: Sketch 43.2 (39069) - http://www.bohemiancoding.com/sketch -->
    <title>Group 5</title>
    <desc>Created with Sketch.</desc>
    <defs>
        <circle id="path-1" cx="28" cy="28" r="28"></circle>
        <polygon id="path-3" points="3.60615394 0.000163151386 3.60615394 5.4034406 0.145027116 5.4034406 0.145027116 0.000163151386 3.60615394 0.000163151386"></polygon>
        <polygon id="path-5" points="0.0965969329 0.142411504 7.63457379 0.142411504 7.63457379 8.46981512 0.0965969329 8.46981512 0.0965969329 0.142411504"></polygon>
    </defs>
    <g id="Page-1" stroke="none" stroke-width="1" fill="none" fill-rule="evenodd">
        <g id="入住-客服" transform="translate(-219.000000, -471.000000)">
            <g id="Group-5" transform="translate(203.000000, 467.000000)">
                <mask id="mask-2" fill="white">
                    <use xlink:href="#path-1"></use>
                </mask>
                <g id="Mask"></g>
                <g id="Page-1" mask="url(#mask-2)">
                    <g transform="translate(16.065972, 4.520833)">
                        <path d="M4.68146823,39.2306008 C4.68146823,44.8552602 7.90083976,48.6484045 11.8716742,48.6484045 C15.8427061,48.6484045 19.0618803,44.8552602 19.0618803,39.2306008 C19.0618803,33.6057431 15.8427061,29.0461949 11.8716742,29.0461949 C7.90083976,29.0461949 4.68146823,33.6057431 4.68146823,39.2306008" id="Fill-1" fill="#EB8A7E"></path>
                        <path d="M12.0548433,32.1901371 C12.0548433,33.4337584 13.0596883,34.4417463 14.2989707,34.4417463 C15.5380557,34.4417463 16.542506,33.4337584 16.542506,32.1901371 C16.542506,30.9467141 15.5380557,29.9383295 14.2989707,29.9383295 C13.0596883,29.9383295 12.0548433,30.9467141 12.0548433,32.1901371" id="Fill-3" fill="#773322"></path>
                        <path d="M7.95122014,32.1901371 C7.95122014,33.4337584 8.95567037,34.4417463 10.1949528,34.4417463 C11.4342352,34.4417463 12.4386854,33.4337584 12.4386854,32.1901371 C12.4386854,30.9467141 11.4342352,29.9383295 10.1949528,29.9383295 C8.95567037,29.9383295 7.95122014,30.9467141 7.95122014,32.1901371" id="Fill-5" fill="#773322"></path>
                        <g id="Group-9" stroke-width="1" fill="none" transform="translate(0.000000, 21.477162)">
                            <path d="M3.30839068,2.27779069 C3.69971186,3.75089687 3.31174543,5.13534297 2.44030098,5.36958808 C1.5686592,5.60363484 0.545264525,4.59921721 0.152956655,3.12591268 C-0.239548553,1.65240981 0.149404572,0.268162052 1.02104635,0.0341152907 C1.89189878,-0.20032816 2.91608281,0.804287813 3.30839068,2.27779069" id="Fill-7" fill="#FFDEA2"></path>
                        </g>
                        <g id="Group-12" stroke-width="1" fill="none" transform="translate(21.115162, 21.477162)">
                            <mask id="mask-4" fill="white">
                                <use xlink:href="#path-3"></use>
                            </mask>
                            <g id="Clip-11"></g>
                            <path d="M0.297822454,2.27779069 C-0.0942880787,3.75089687 0.29427037,5.13534297 1.16610949,5.36958808 C2.03696192,5.60363484 3.06114595,4.59921721 3.45325648,3.12591268 C3.84576169,1.65240981 3.4570059,0.268162052 2.58536412,0.0341152907 C1.71451169,-0.20032816 0.690327662,0.804287813 0.297822454,2.27779069" id="Fill-10" fill="#FFDEA2" mask="url(#mask-4)"></path>
                        </g>
                        <path d="M1.87652616,21.1234145 C1.87652616,27.2780509 6.65585428,32.2678089 12.5513259,32.2678089 C18.4479816,32.2678089 23.2271124,27.2780509 23.2271124,21.1234145 C23.2271124,14.9683813 18.4479816,9.97921839 12.5513259,9.97921839 C6.65585428,9.97921839 1.87652616,14.9683813 1.87652616,21.1234145" id="Fill-13" fill="#FFDEA2"></path>
                        <path d="M7.56656898,22.5275958 C7.56656898,23.3775029 7.99124028,24.0665525 8.51596192,24.0665525 C9.04048623,24.0665525 9.46496019,23.3775029 9.46496019,22.5275958 C9.46496019,21.6774904 9.04048623,20.9888376 8.51596192,20.9888376 C7.99124028,20.9888376 7.56656898,21.6774904 7.56656898,22.5275958" id="Fill-15" fill="#773322"></path>
                        <path d="M17.1636667,22.5275958 C17.1636667,23.3775029 17.5887326,24.0665525 18.1128623,24.0665525 C18.6373866,24.0665525 19.0618605,23.3775029 19.0618605,22.5275958 C19.0618605,21.6774904 18.6373866,20.9888376 18.1128623,20.9888376 C17.5887326,20.9888376 17.1636667,21.6774904 17.1636667,22.5275958" id="Fill-17" fill="#773322"></path>
                        <path d="M11.3165626,27.2030369 C12.5811042,26.8464131 13.9977935,27.5951644 15.2199075,27.1090215 C14.8881823,27.6598248 14.3285319,28.0674232 13.7051413,28.2139999 C13.0809613,28.3603783 12.4003427,28.2435533 11.8606233,27.8978385 C11.6056627,27.7347991 11.3692518,27.5013474 11.3165626,27.2030369" id="Fill-19" fill="#773322"></path>
                        <path d="M14.5965366,24.2435553 C14.3593363,24.1257385 14.0191257,24.1410111 13.7631784,24.1291104 C13.4663821,24.1154246 13.0801917,24.1199865 12.8696321,24.3548267 C12.8096413,24.4216689 12.8489116,24.5259982 12.9402791,24.5317502 C13.1366303,24.5440475 13.3187733,24.4750236 13.5151245,24.458561 C13.7162119,24.4420984 13.9208514,24.4647097 14.1207547,24.4831557 C14.2083728,24.4902961 14.2955962,24.5019985 14.3814382,24.5174694 C14.6740904,24.570229 14.6204145,24.8264904 14.5768028,25.0170997 C14.5316124,25.2211964 14.4591894,25.4248964 14.3832142,25.6192742 C14.3336824,25.7478016 14.530823,25.8237676 14.5983126,25.7115045 C14.8473531,25.2945839 15.1875638,24.5363121 14.5965366,24.2435553" id="Fill-21" fill="#E6935C"></path>
                        <path d="M15.9029336,27.227354 C15.8918827,27.1837182 15.8816211,27.1394873 15.8707675,27.0958515 C15.8425482,26.9814066 15.7273028,26.9145644 15.6146229,26.9399525 C14.4355285,27.2051394 9.36946834,27.5776308 9.6177195,25.5596716 C9.63311186,25.4299542 9.41722413,25.3986157 9.39255689,25.5263497 C9.19798166,26.5039908 9.97667726,27.0131417 10.8321373,27.2073212 C11.2542432,27.3029233 15.5329249,27.5613665 15.4869452,27.3302949 C15.5412131,27.6028205 15.9696339,27.4974995 15.9029336,27.227354" id="Fill-23" fill="#E6935C"></path>
                        <path d="M14.9017987,27.5587682 C14.1965128,27.9947299 13.4468259,28.1900994 12.626492,28.0096057 C11.9141019,27.8531117 11.4981135,27.2176153 10.8747229,26.9133545 C10.7628322,26.8588097 10.6298264,26.9698827 10.6957373,27.0888896 C11.5946117,28.7103576 13.7019839,28.7664891 15.0417113,27.7460056 C15.1482738,27.6650809 15.013492,27.4897442 14.9017987,27.5587682" id="Fill-25" fill="#E6935C"></path>
                        <path d="M7.98784606,17.9573568 C7.96061343,18.012695 7.94699711,18.0916362 7.98607002,18.1469743 C8.15084722,18.3766575 8.32371528,18.135272 8.4610625,18.0001993 C8.82968981,17.6368317 9.25850521,17.9162994 9.54839468,18.1981473 C9.64153819,18.2891875 9.79408044,18.2027092 9.76605845,18.0761653 C9.58273148,17.2335969 8.33417419,17.2694973 7.98784606,17.9573568" id="Fill-27" fill="#E6935C"></path>
                        <path d="M16.9297225,18.3110451 C16.9409708,18.3878045 17.0323383,18.4350105 17.1021959,18.4165645 C17.1969181,18.391573 17.248818,18.3358382 17.3273585,18.2808967 C17.4254355,18.2116744 17.5420622,18.1787492 17.6580969,18.1559395 C17.8970732,18.1095269 18.0537595,18.2648308 18.2720153,18.3031113 C18.4000877,18.3259209 18.5186878,18.2309138 18.4886924,18.0928659 C18.341281,17.4065932 16.8239494,17.6051363 16.9297225,18.3110451" id="Fill-29" fill="#E6935C"></path>
                        <path d="M13.6011836,9.41167483 C15.3383497,8.29003547 16.9825696,8.13453322 18.8513601,9.10186038 C20.6465436,10.0315021 22.4705384,11.7273494 23.1266871,13.6879868 C23.5255071,14.8788485 23.6891003,16.0887513 23.6825881,17.3444716 C23.6792334,17.9577535 23.6407525,18.570837 23.5872739,19.1815404 C23.5418862,19.6940631 23.321657,20.3966001 23.4019736,20.8998006 C23.0797207,18.8814448 21.558245,17.2827864 19.9880268,15.9842236 C21.8651055,18.6031672 23.2841628,21.7461375 23.0128231,24.962297 C22.8040395,27.4469613 21.6016593,29.7531152 20.0878798,31.7286286 C20.2208856,31.5544819 22.4665916,27.7123465 21.347488,23.6635359 C19.4303497,16.7315865 12.9418775,13.7258707 12.9495737,13.7129783 C12.1795609,14.9907149 10.7707652,15.6988055 9.51352506,16.4953579 C6.06228142,18.6844885 3.43038501,22.0906623 2.6568202,26.1725965 C2.28839022,25.0930062 2.08118536,23.9650198 1.87654589,22.8423887 C1.69657367,21.859789 1.51660145,20.876991 1.33682656,19.8937962 C1.08245793,18.5004246 1.14738212,16.8182631 1.60165411,15.4724942 C2.13505862,13.8960504 3.14720503,12.5191414 4.32314196,11.3463292 C5.54861071,10.1249224 7.0020048,9.08083584 8.66674786,8.62345294 C10.3314909,8.16686341 12.2273167,8.36262964 13.6011836,9.41167483" id="Fill-31" fill="#5C331D"></path>
                        <g id="Group-35" stroke-width="1" fill="none" transform="translate(6.117477, 0.055933)">
                            <mask id="mask-6" fill="white">
                                <use xlink:href="#path-5"></use>
                            </mask>
                            <g id="Clip-34"></g>
                            <path d="M4.66161603,6.60854833 C3.26821267,6.06984409 1.74160619,5.88498682 0.261176794,6.07619112 C2.79578559,6.52762369 5.26625955,7.33587839 7.57906047,8.46981512 C7.90328675,5.44148804 6.79207668,2.28998889 4.64385561,0.142312332 C3.56165422,0.492589096 2.50747483,0.988450879 1.66050029,1.74989623 C0.81372309,2.51213497 0.187767072,3.56375864 0.0965969329,4.70305067 C1.76133999,4.86370989 3.37319647,5.53649516 4.66161603,6.60854833" id="Fill-33" fill="#5C331D" mask="url(#mask-6)"></path>
                        </g>
                        <path d="M10.6786873,46.3687692 C9.98346568,44.2750424 5.96073131,46.870978 6.43927587,49.0285718 C7.23139045,52.5993717 7.78748883,56.2606168 9.05045179,59.7013025 C9.39500388,60.639473 9.75573767,59.4107275 10.7945247,59.5057346 C11.4956665,59.5701967 10.8772093,46.9683653 10.6786873,46.3687692" id="Fill-36" fill="#FFDEA2"></path>
                        <path d="M12.4362384,46.9418268 L12.8778808,59.377842 C13.1890828,60.7244042 15.0707002,60.4062593 15.176276,59.1201922 C15.3100712,57.5009059 16.5505376,49.3911856 16.923901,47.4686303 C17.3016059,45.5264389 12.8498588,44.975834 12.4362384,46.9418268" id="Fill-38" fill="#FFDEA2"></path>
                        <path d="M14.8087144,9.57901826 C14.9103434,9.50225886 14.9989481,9.41260705 15.0688058,9.3094678 C15.4757167,8.71304524 14.8268694,7.62750463 14.3023451,7.26830235 C13.8417583,6.95392598 13.1950818,6.91267028 12.7262068,7.2139559 C12.5760326,7.31094646 12.4463816,7.4370937 12.3269921,7.57057969 C12.0568365,7.87107193 11.8198336,8.24376165 11.8445008,8.64759149 C11.9218573,9.88843601 13.9021438,10.2625141 14.8087144,9.57901826" id="Fill-40" fill="#58C9CF"></path>
                        <path d="M21.8095943,49.0011011 C21.8218293,48.8069216 21.8293281,48.6115521 21.8293281,48.4143974 C21.8293281,42.933538 17.078022,38.490418 11.2164925,38.490418 C5.35614699,38.490418 0.604840856,42.933538 0.604840856,48.4143974 C0.604840856,48.6115521 0.612734375,48.8069216 0.624377315,49.0011011 L21.8095943,49.0011011 Z" id="Fill-42" fill="#EB8A7E"></path>
                        <path d="M18.4394369,33.1570675 C18.1075144,32.7181307 17.661728,32.3678539 17.1275341,32.2976399 C17.3580248,32.3279866 16.8465248,36.2304189 16.7806139,36.5997367 C16.5282187,38.0276203 16.2193848,39.47514 15.6368431,40.8074215 C15.2461139,41.7009644 14.8950497,41.9070446 14.0336695,42.135141 C13.2020873,42.355502 12.5719872,43.0925509 12.7091371,43.994821 C12.8166863,44.7041017 13.4211325,45.3007226 14.1248396,45.4207212 C15.6642731,45.6829329 15.8825289,44.2348181 16.6920092,43.3634898 C17.507015,42.4866078 18.2124982,41.4484716 18.5842829,40.3002541 C19.2443784,38.2614687 19.8002795,35.5965092 18.7182754,33.5932276 C18.6373668,33.4428823 18.5432366,33.2955122 18.4394369,33.1570675" id="Fill-44" fill="#FFDEA2"></path>
                        <path d="M12.2188509,42.3109339 C12.1071576,42.3379088 11.9962537,42.365082 11.8827844,42.3793628 C10.3040807,42.5753274 9.3166015,40.3487097 8.94915822,39.1481291 C8.54303669,37.8188228 8.44772245,36.4139472 8.43469815,35.0229558 C8.42719931,34.179594 8.43805289,33.2931915 8.03745683,32.5525724 C7.92063275,32.3353849 7.75072477,32.1235527 7.51293252,32.0610742 C7.23823808,31.989075 6.95269005,32.1370402 6.73680231,32.3228892 C5.97428843,32.9807986 5.75859803,34.0703061 5.69643657,35.0784923 C5.57171898,37.0871292 5.91567905,38.8603309 6.90236887,40.6188552 C7.52812755,41.7347425 8.28728669,42.8101676 9.2593735,43.649364 C9.72686713,44.0525988 10.1012172,44.3183808 10.4643191,44.7827057 C10.8258422,45.2454439 11.1800639,45.6266625 11.7906275,45.733967 C12.4696675,45.8531721 13.2106715,45.5467296 13.5891657,44.9679597 C13.9826576,44.3677686 13.9049065,43.4141272 13.5542369,42.8028288 C13.3863023,42.5088819 13.0922688,42.2726534 12.7560049,42.24191 C12.5744539,42.2254473 12.3968498,42.2674964 12.2188509,42.3109339" id="Fill-46" fill="#FFDEA2"></path>
                    </g>
                </g>
            </g>
        </g>
    </g>
</svg>