<?xml version="1.0" encoding="UTF-8"?>
<svg width="35px" height="52px" viewBox="0 0 35 52" version="1.1" xmlns="http://www.w3.org/2000/svg" xmlns:xlink="http://www.w3.org/1999/xlink">
    <!-- Generator: Sketch 43.2 (39069) - http://www.bohemiancoding.com/sketch -->
    <title>Group 11</title>
    <desc>Created with Sketch.</desc>
    <defs>
        <circle id="path-1" cx="28" cy="28" r="28"></circle>
        <polygon id="path-3" points="0.11034749 0.117762571 17.8501902 0.117762571 17.8501902 15.1404378 0.11034749 15.1404378 0.11034749 0.117762571"></polygon>
    </defs>
    <g id="Page-1" stroke="none" stroke-width="1" fill="none" fill-rule="evenodd">
        <g id="入住-客服" transform="translate(-126.000000, -471.000000)">
            <g id="Group-3-Copy-3" transform="translate(116.000000, 467.000000)">
                <g id="Group-11">
                    <mask id="mask-2" fill="white">
                        <use xlink:href="#path-1"></use>
                    </mask>
                    <g id="Mask"></g>
                    <g id="Page-1" mask="url(#mask-2)">
                        <g transform="translate(0.000000, 4.666667)">
                            <polygon id="Fill-7" fill="#6D4A4A" points="18.3505473 49.3307411 37.1814519 48.4449478 37.1814519 55.7957776 34.5751017 97.7245619 28.6321862 97.7245619 27.8794833 62.6400031 27.0207659 65.1833207 23.209063 97.7245619 17.0878505 97.7245619"></polygon>
                            <polygon id="Fill-9" fill="#B09795" points="22.9813086 50.4688231 33.1032832 50.1517328 33.1032832 52.8091128 22.9813086 53.1268466"></polygon>
                            <polygon id="Fill-11" fill="#B09795" points="22.146332 50.495384 22.146332 53.1526031 18.3505313 53.2714918 18.3505313 50.6141118"></polygon>
                            <polygon id="Fill-13" fill="#B09795" points="34.3320876 50.1128165 37.181468 50.0238511 37.181468 52.6812311 34.3320876 52.77084"></polygon>
                            <polygon id="Fill-15" fill="#FFDEA2" points="21.2617696 23.7338879 28.0426814 22.289205 34.4303758 23.1095211 34.4303758 28.9304027 21.2617696 28.9304027"></polygon>
                            <path d="M31.6426766,23.1749018 C31.6426766,25.0090699 24.4426862,25.0090699 24.4426862,23.1749018 L24.4426862,18.4191923 L31.6426766,18.4191923 L31.6426766,23.1749018 Z" id="Fill-17" fill="#FFDEA2"></path>
                            <path d="M31.6426766,21.4033634 C31.6426766,23.2375316 24.4426862,23.2375316 24.4426862,21.4033634 L24.4426862,16.6478148 L31.6426766,16.6478148 L31.6426766,21.4033634 Z" id="Fill-19" fill="#EFB67A"></path>
                            <path d="M29.873889,53.4987961 L26.1420182,53.6329682 C25.7894397,53.6455167 25.4935629,53.3694503 25.4803914,53.016967 L25.3994349,50.7545421 C25.3869059,50.4014152 25.662383,50.1044348 26.0149615,50.0920472 L29.7469929,49.9578751 C30.0994107,49.9451657 30.3952876,50.2207494 30.4078165,50.5738763 L30.4890943,52.8363012 C30.5021052,53.189428 30.2264675,53.4864085 29.873889,53.4987961" id="Fill-21" fill="#D1FECF"></path>
                            <polygon id="Fill-23" fill="#B09795" points="29.6156795 52.7228501 29.5450031 50.7503271 26.2733316 50.8687332 26.344008 52.840291"></polygon>
                            <polygon id="Fill-25" fill="#D1FECF" points="28.0426653 26.9126408 31.753012 21.3317889 32.5701267 22.2489534 42.9293489 23.7464042 44.9723767 42.0728022 43.7464636 60.27822 39.6188054 60.27822 39.1476835 46.2527299 37.1815965 38.7390918 37.1815965 48.8634554 18.3137475 49.4537161 18.556617 47.2866918 17.1503187 50.982699 5.47394674 52.5893859 4.63289843 49.1519093 13.8397752 42.6249349 14.1868924 25.2419245 23.6316593 22.5514037 24.4667644 21.6385829"></polygon>
                            <polygon id="Fill-27" fill="#A7AE61" points="42.9293007 23.7464525 33.4946534 22.3823694 32.4160362 27.9950751 31.4635121 27.2457062 28.0426171 31.7843915 24.8793696 27.1351831 23.7872597 27.9950751 22.1671655 22.9684473 14.1870048 25.2419728 13.8397271 42.6249832 7.4261715 47.1718733 8.35508333 52.0373015 17.1502705 50.9827473 18.5567295 47.2865791 18.3136993 49.4537644 37.1815483 48.8635036 37.1815483 38.7389792 39.1476353 46.2526173 39.5480809 58.1661032 43.8887319 58.1661032 44.9724891 42.0728504"></polygon>
                            <path d="M20.8773064,12.7315014 C21.2369525,14.0767618 20.8808402,15.3414224 20.0818764,15.5555508 C19.2827521,15.7698401 18.3442025,14.8518712 17.9845564,13.5058064 C17.6250709,12.1597416 17.9813438,10.8952419 18.7799864,10.681757 C19.5791107,10.4676286 20.5176603,11.3854366 20.8773064,12.7315014" id="Fill-29" fill="#FFDEA2"></path>
                            <path d="M35.3788522,12.7315014 C35.0193667,14.0767618 35.375479,15.3414224 36.1744428,15.5555508 C36.9734065,15.7698401 37.9121167,14.8518712 38.2716022,13.5058064 C38.6309271,12.1597416 38.2748147,10.8952419 37.475851,10.681757 C36.6767266,10.4676286 35.7376952,11.3854366 35.3788522,12.7315014" id="Fill-31" fill="#FFDEA2"></path>
                            <path d="M32.9520198,23.1276037 C29.7378531,23.9493677 26.4746949,23.9591812 23.1590114,23.1185946 C21.3771647,22.6666888 20.129085,21.0579105 20.129085,19.2166637 L20.129085,9.16887797 C20.129085,4.87488782 23.5382541,1.30549141 27.8254159,1.23454429 C27.8830814,1.23390078 27.9405862,1.23309639 27.9982517,1.23245288 C32.3883761,1.18788972 35.9564063,4.77482181 35.9564063,9.17161289 L35.9564063,19.2327515 C35.9564063,21.0641847 34.7234256,22.6744109 32.9520198,23.1276037" id="Fill-33" fill="#FFDEA2"></path>
                            <path d="M35.1239355,5.63072404 L35.1239355,8.23935804 L34.8136022,8.23935804 L34.8288618,15.2954597 C34.8331988,17.0927868 34.3485841,18.8580992 33.427543,20.4009176 L32.8936155,16.0367847 L32.0210841,19.0741581 C31.5981505,20.055352 30.1661517,20.7632144 29.0999029,20.7632144 L27.5344222,20.7632144 C26.298229,20.7632144 25.2228244,19.9141013 24.9354609,18.7099307 L24.4426541,16.6479596 L23.4769585,20.6594482 L21.1584536,18.0424486 L21.1584536,8.23935804 L20.1860116,8.23935804 C20.1503522,8.5451868 20.1289886,8.85455486 20.1289886,9.16891014 L20.1289886,19.2166959 C20.1289886,21.0579426 21.377229,22.6667209 23.1590756,23.1186267 C26.4745986,23.9592134 29.7379174,23.9493999 32.9520841,23.1276359 C34.7234899,22.6742822 35.9564705,21.0642169 35.9564705,19.2327837 L35.9564705,9.17164507 C35.9564705,7.90022758 35.6543292,6.69863107 35.1239355,5.63072404" id="Fill-35" fill="#ADB19C"></path>
                            <g id="Group-39" stroke-width="1" fill="none" transform="translate(18.446860, 0.043115)">
                                <mask id="mask-4" fill="white">
                                    <use xlink:href="#path-3"></use>
                                </mask>
                                <g id="Clip-38"></g>
                                <path d="M13.355497,2.13282174 L13.355497,2.13282174 C16.2296141,1.18862976 17.8501902,2.06460954 17.8501902,7.094294 L17.5094982,15.1404378 L15.9345405,9.17315732 L14.4468037,5.36710963 L4.76350423,7.25822851 C3.66063225,7.47364393 2.86439915,8.44164583 2.86439915,9.567308 L1.68217693,15.1404378 L0.503488527,9.12650275 C-1.61455254,-1.24336039 5.28136896,-0.014897287 10.2928025,0.371048626 C11.5270682,0.466288301 12.6530707,1.11060401 13.355497,2.13282174" id="Fill-37" fill="#C2C6BB" mask="url(#mask-4)"></path>
                            </g>
                            <path d="M32.1703557,11.7635639 C32.1703557,12.4429509 31.8286999,12.9936358 31.4081757,12.9936358 C30.9879728,12.9936358 30.6467989,12.4429509 30.6467989,11.7635639 C30.6467989,11.0835333 30.9879728,10.5330093 31.4081757,10.5330093 C31.8286999,10.5330093 32.1703557,11.0835333 32.1703557,11.7635639" id="Fill-40" fill="#773322"></path>
                            <path d="M25.0813914,11.7635639 C25.0813914,12.4429509 24.7403781,12.9936358 24.3196934,12.9936358 C23.8991692,12.9936358 23.5583165,12.4429509 23.5583165,11.7635639 C23.5583165,11.0835333 23.8991692,10.5330093 24.3196934,10.5330093 C24.7403781,10.5330093 25.0813914,11.0835333 25.0813914,11.7635639" id="Fill-42" fill="#773322"></path>
                            <path d="M30.1515345,8.92212355 C30.523549,8.46442613 31.0942604,8.18095939 31.6890659,8.24627579 C32.1952048,8.30193952 32.7789271,8.69689459 32.6859234,9.26012787 C32.6570104,9.43789787 32.4249029,9.47683031 32.308287,9.36711163 C32.0259029,9.10278936 31.8904935,8.82752739 31.4595285,8.78859495 C31.0616529,8.75239744 30.6861046,8.9987014 30.3563353,9.18564144 C30.182857,9.28425955 30.0349186,9.06610921 30.1515345,8.92212355" id="Fill-44" fill="#D4A486"></path>
                            <path d="M23.5762908,8.20462452 C24.3060239,7.63994334 25.6379514,8.07720928 25.8567268,8.9826297 C25.8941531,9.13964647 25.7338464,9.27044014 25.5894418,9.19386229 C25.09792,8.93533162 24.597885,8.29005065 24.0197848,8.77477555 C23.6164478,9.11245811 23.1589792,8.52782808 23.5762908,8.20462452" id="Fill-46" fill="#D4A486"></path>
                            <path d="M30.9394632,12.8218504 C31.5573992,12.8273203 32.3660006,12.8635178 32.8719789,13.2570249 C32.9200066,13.2945095 32.8824197,13.3878186 32.8221842,13.3815444 C32.5412458,13.3537125 32.2778158,13.2409372 32.0063545,13.1666116 C31.660683,13.0721763 31.2991093,13.0213389 30.942997,12.9970464 C30.832003,12.9894851 30.825096,12.8212069 30.9394632,12.8218504" id="Fill-48" fill="#E6935C"></path>
                            <path d="M23.2749527,12.7404623 C23.4015275,12.7528499 23.4040976,12.9196802 23.2783258,12.9364115 C23.0987437,12.9615084 22.9287993,13.0228029 22.7733114,13.1159512 C22.6120408,13.2119952 22.496228,13.3674032 22.3531085,13.4858093 C22.3184128,13.5142847 22.2512703,13.5009318 22.2546435,13.4462334 C22.2809865,12.9780789 22.8578017,12.7007255 23.2749527,12.7404623" id="Fill-50" fill="#E6935C"></path>
                            <polygon id="Fill-52" fill="#84CFAE" points="28.0426653 27.6510378 30.7450711 24.5502786 32.4160844 27.9951555 30.2292946 26.2731192"></polygon>
                            <polygon id="Fill-54" fill="#84CFAE" points="28.1601487 27.6510378 25.4575822 24.5502786 23.7872115 27.9951555 25.9740013 26.2731192"></polygon>
                            <path d="M34.4563333,13.0846926 C34.1514614,12.4304025 33.0588696,12.0027892 32.38118,12.2051735 C32.2544444,12.242658 32.2774143,12.4184975 32.4063986,12.429759 C32.7548007,12.4609693 33.0783056,12.4517992 33.4183551,12.5610353 C33.7919758,12.6813719 34.0558877,12.9545424 34.3742524,13.1652924 C34.427099,13.200042 34.4793031,13.1347256 34.4563333,13.0846926" id="Fill-56" fill="#E6935C"></path>
                            <path d="M34.1336638,11.9974569 C33.9259717,11.8269028 33.6938643,11.7443034 33.4277036,11.7308343 C33.187886,11.7196372 32.8354681,11.7962323 32.711142,12.0240705 C32.6867266,12.0682101 32.7255986,12.1327967 32.7789271,12.1159198 C32.9617217,12.0591225 33.1080539,11.9404974 33.3009681,11.8991165 C33.5698594,11.841021 33.8490309,11.9265415 34.0653969,12.0857361 C34.1167978,12.1228977 34.1826553,12.0373773 34.1336638,11.9974569" id="Fill-58" fill="#E6935C"></path>
                            <path d="M23.663817,12.1577467 C23.4416685,11.9486055 23.045881,12.059933 22.771689,12.1154359 C22.3693158,12.1966792 22.0159342,12.423356 21.7019064,12.6805997 C21.6423134,12.73015 21.721503,12.8356859 21.7846298,12.7904792 C22.0713508,12.5860035 22.378311,12.4706541 22.7169149,12.3823322 C23.0107035,12.3065587 23.3950864,12.4151513 23.6491999,12.2607085 C23.6838955,12.2399553 23.695782,12.1878309 23.663817,12.1577467" id="Fill-60" fill="#E6935C"></path>
                            <path d="M22.7808448,11.4111771 C22.4012808,11.3109502 21.9998714,11.4827677 21.6699414,11.6571593 C21.5873786,11.7002745 21.6452047,11.8074192 21.7256793,11.7976056 C22.0067784,11.7649474 22.2628194,11.6370495 22.5484161,11.6288448 C22.9045284,11.6175833 23.0786492,11.8767575 23.3470586,12.0410138 C23.4117917,12.0799462 23.4922663,12.0173647 23.4749185,11.9457741 C23.4015115,11.6425194 23.0590525,11.4848591 22.7808448,11.4111771" id="Fill-62" fill="#E6935C"></path>
                            <path d="M32.2814139,15.4909423 C32.0599079,15.2377206 31.7142364,15.0911609 31.416432,14.9548974 C31.0240178,14.7748751 30.6263028,14.5676644 30.2057786,14.4624503 C30.1216095,14.441858 30.0801675,14.5501288 30.1481132,14.5982312 C30.6139344,14.9215957 31.1727593,15.0974351 31.6731156,15.3607921 C31.9848946,15.5256919 32.2264791,15.7544602 32.3447013,16.094395 C32.4381868,16.3641872 32.3535359,16.6938258 32.3639767,16.9732706 C32.3659042,17.0183164 32.4348136,17.0490441 32.4561772,16.9996546 C32.6847508,16.4809845 32.6609779,15.9246689 32.2814139,15.4909423" id="Fill-64" fill="#E6935C"></path>
                            <path d="M22.9905607,17.6323067 C22.9007697,17.2616441 22.9634146,16.8723198 23.1381779,16.5386592 C23.1667697,16.4850868 23.0888651,16.4385932 23.0570607,16.4905567 C22.7348409,17.0156619 22.5620052,17.9791593 23.144603,18.4011418 C23.1902214,18.4338 23.2515813,18.3818365 23.2382492,18.3318035 C23.1738373,18.0925781 23.0487081,17.8755539 22.9905607,17.6323067" id="Fill-66" fill="#E6935C"></path>
                            <path d="M28.5195217,15.0048499 C27.9504167,15.5569827 27.2825254,15.8246834 26.4931993,15.6383868 C25.8804034,15.4937577 26.6181679,13.374514 26.704907,13.0073908 C26.9312319,12.0570855 27.6304457,10.5002707 26.7598418,9.69298576 C26.7029795,9.64086134 26.5985713,9.70907354 26.6467597,9.77873364 C27.3122415,10.7415875 26.6515785,12.1925446 26.4045326,13.2263455 C26.2906473,13.7012569 26.1767621,14.1763291 26.06368,14.6517231 C26.0227198,14.8212883 25.8026594,15.3554027 25.9240942,15.5450777 C26.5405845,16.5003702 28.1850942,15.9025482 28.6639263,15.1174644 C28.7187005,15.027212 28.594535,14.9326158 28.5195217,15.0048499" id="Fill-68" fill="#E6935C"></path>
                            <path d="M31.3206335,15.0736574 C31.2677868,15.007054 31.1844209,15.080736 31.192131,15.1458915 C31.2750151,15.849732 30.3701975,16.4481976 29.8857434,16.8064725 C29.3706093,17.1880747 28.8257591,17.4953514 28.1994704,17.6510811 C26.7369523,18.0161129 25.6583351,17.0413541 24.9526963,15.9086133 C24.8786467,15.7890811 24.6809136,15.8579368 24.7181793,16.001279 C25.1460924,17.62888 27.0196576,18.3185632 28.5258665,17.9430744 C29.2915803,17.7519515 32.1277893,16.09861 31.3206335,15.0736574" id="Fill-70" fill="#E6935C"></path>
                            <path d="M24.7827357,14.961799 C24.6240353,15.0388595 24.4969785,15.1587135 24.4059024,15.3102604 C24.3260703,15.4442716 24.2606947,15.6535737 24.3649423,15.7871023 C24.3917671,15.8218519 24.4552152,15.8107513 24.4740087,15.7739103 C24.5286222,15.6661222 24.51015,15.533398 24.5442031,15.4164398 C24.589179,15.2613536 24.7009761,15.1405343 24.8404012,15.0655652 C24.9085075,15.0293677 24.850842,14.9284973 24.7827357,14.961799" id="Fill-72" fill="#E6935C"></path>
                            <path d="M28.2057992,18.7878438 C27.8149912,18.88244 27.4269139,18.846886 27.0590757,18.6834341 C26.8855975,18.6063736 26.7376591,18.4908634 26.6266651,18.3357771 C26.5405685,18.2156014 26.5577557,18.0737072 26.5182412,17.939535 C26.5063547,17.9020505 26.4641095,17.8909499 26.4350359,17.915886 C26.1301639,18.176669 26.5272364,18.5972036 26.7516337,18.760012 C27.1763342,19.0687365 27.7597351,19.082572 28.2392098,18.9220159 C28.3225757,18.8941841 28.2941446,18.7662862 28.2057992,18.7878438" id="Fill-74" fill="#E6935C"></path>
                        </g>
                    </g>
                </g>
            </g>
        </g>
    </g>
</svg>