<?xml version="1.0" encoding="utf-8"?>
<!-- Generator: Adobe Illustrator 16.0.0, SVG Export Plug-In . SVG Version: 6.00 Build 0)  -->
<!DOCTYPE svg PUBLIC "-//W3C//DTD SVG 1.1//EN" "http://www.w3.org/Graphics/SVG/1.1/DTD/svg11.dtd">
<svg version="1.1" id="图层_1" xmlns="http://www.w3.org/2000/svg" xmlns:xlink="http://www.w3.org/1999/xlink" x="0px" y="0px"
	 width="55px" height="55px" viewBox="0 0 55 55" enable-background="new 0 0 55 55" xml:space="preserve">
<g>
	<defs>
		<path id="SVGID_277_" d="M16.994,44.567c-0.676-0.543,2.215-12.921,2.215-12.921s-9.787-8.149-9.387-9.149
			c0.402-1.001,12.973-1.886,12.973-1.886s4.672-11.754,5.803-11.754s5.801,11.754,5.801,11.754s12.625,0.89,12.973,1.886
			c0.348,0.995-9.387,9.149-9.387,9.149s0.121,0.792,0.26,1.381c0.01,0.039-4.543,0.143-8.273,0c-1.961-0.075-4.32-0.438-4.32-0.438
			l10.805-7.703c0,0-3.908-0.704-7.857-0.844c-4.326-0.154-8.756,0.261-9.389,0.422c-0.396,0.101,2.797,0.093,6.441,0.422
			c2.551,0.23,5.908,0.844,5.908,0.844l-10.803,8.042c0,0,4.627,0.281,8.777,0.253c4.67-0.031,8.885-0.612,8.912-0.5
			c0.813,3.519,2.313,10.474,1.754,11.042c-0.76,0.772-11.602-6.1-11.602-6.1s-10.086,6.131-11.479,6.131
			C17.063,44.598,17.021,44.588,16.994,44.567 M0.084,27.5c0,15.143,12.275,27.417,27.416,27.417
			c15.143,0,27.416-12.274,27.416-27.417c0-15.142-12.273-27.417-27.416-27.417C12.359,0.083,0.084,12.358,0.084,27.5"/>
	</defs>
	<clipPath id="SVGID_2_">
		<use xlink:href="#SVGID_277_"  overflow="visible"/>
	</clipPath>
	
		<rect x="-5.4" y="-5.4" clip-path="url(#SVGID_2_)" fill-rule="evenodd" clip-rule="evenodd" fill="#F5BE3F" width="65.801" height="65.8"/>
</g>
</svg>
