<?xml version="1.0" encoding="utf-8"?>
<!-- Generator: Adobe Illustrator 16.0.0, SVG Export Plug-In . SVG Version: 6.00 Build 0)  -->
<!DOCTYPE svg PUBLIC "-//W3C//DTD SVG 1.1//EN" "http://www.w3.org/Graphics/SVG/1.1/DTD/svg11.dtd">
<svg version="1.1" id="图层_1" xmlns="http://www.w3.org/2000/svg" xmlns:xlink="http://www.w3.org/1999/xlink" x="0px" y="0px"
	 width="55px" height="55px" viewBox="0 0 55 55" enable-background="new 0 0 55 55" xml:space="preserve">
<g>
	<defs>
		<path id="SVGID_275_" d="M11.896,39.348c-0.072-0.036,1.868-1.591,3.305-3.513c1.468-1.962,2.431-4.292,2.431-4.292
			s1.226,2.565,2.543,4.292c1.315,1.725,3.284,3.468,3.222,3.498c-1.74,0.85-3.697,1.327-5.765,1.327
			C15.575,40.66,13.631,40.188,11.896,39.348 M31.636,39.348c-0.073-0.036,1.867-1.591,3.305-3.513
			c1.467-1.962,2.43-4.292,2.43-4.292s1.227,2.565,2.543,4.292c1.316,1.725,3.283,3.468,3.223,3.498
			c-1.74,0.85-3.697,1.327-5.766,1.327C35.315,40.66,33.37,40.188,31.636,39.348 M22.27,31.553
			c-2.045-2.728-2.446-4.053-2.446-6.307c0-2.252-0.002-10.725,0-10.725c3.039,0.509,5.724,2.061,7.676,4.273
			c-2.045,2.319-3.288,5.367-3.288,8.705c0,3.189,1.354,6.129,3.243,8.406C26.983,35.805,24.563,34.611,22.27,31.553 M42.009,31.553
			c-2.044-2.728-2.445-4.053-2.445-6.307c0-2.252-0.004-10.726,0-10.725C45.788,15.565,50.53,20.979,50.53,27.5
			c0,3.199-1.143,6.134-3.041,8.414c-0.004,0.006-0.014,0.008-0.028,0.008C47.149,35.922,44.413,34.757,42.009,31.553 M7.524,35.928
			C5.618,33.645,4.47,30.707,4.47,27.5c0-6.529,4.755-11.947,10.988-12.982c0.012-0.002,0,8.081,0,10.531
			c0,2.451-0.616,3.854-2.758,6.745C10.573,34.666,7.571,35.928,7.524,35.928L7.524,35.928 M27.534,35.906
			c1.9-2.281,3.256-5.207,3.256-8.406c0-3.338-1.242-6.386-3.291-8.705c1.959-2.219,4.652-3.771,7.701-4.277
			c0.011-0.002,0,8.081,0,10.531c0,2.451-0.619,3.854-2.758,6.745c-2.143,2.89-4.945,4.161-4.959,4.146
			c-0.01-0.012-0.019-0.022-0.029-0.034c0.022,0.006,0.041,0.008,0.055,0.008S27.53,35.912,27.534,35.906 M0.083,27.5
			c0,15.141,12.275,27.417,27.416,27.417c15.144,0,27.418-12.276,27.418-27.417c0-15.143-12.274-27.417-27.418-27.417
			C12.358,0.083,0.083,12.357,0.083,27.5"/>
	</defs>
	<clipPath id="SVGID_2_">
		<use xlink:href="#SVGID_275_"  overflow="visible"/>
	</clipPath>
	
		<rect x="-5.399" y="-5.4" clip-path="url(#SVGID_2_)" fill-rule="evenodd" clip-rule="evenodd" fill="#71A7DC" width="65.801" height="65.8"/>
</g>
</svg>
