<?xml version="1.0" encoding="utf-8"?>
<!-- Generator: Adobe Illustrator 16.0.0, SVG Export Plug-In . SVG Version: 6.00 Build 0)  -->
<!DOCTYPE svg PUBLIC "-//W3C//DTD SVG 1.1//EN" "http://www.w3.org/Graphics/SVG/1.1/DTD/svg11.dtd">
<svg version="1.1" id="图层_1" xmlns="http://www.w3.org/2000/svg" xmlns:xlink="http://www.w3.org/1999/xlink" x="0px" y="0px"
	 width="55px" height="55px" viewBox="0 0 55 55" enable-background="new 0 0 55 55" xml:space="preserve">
<g>
	<defs>
		<path id="SVGID_281_" d="M20.291,31.407c-1.098,0.511-1.676,1.594-1.293,2.417c0.385,0.824,1.586,1.076,2.684,0.565
			c1.098-0.512,1.678-1.596,1.293-2.42c-0.25-0.533-0.844-0.827-1.531-0.827C21.074,31.143,20.676,31.228,20.291,31.407
			 M23.113,30.79c0,0.605,0.492,1.098,1.098,1.098s1.096-0.492,1.096-1.098c0-0.604-0.49-1.097-1.096-1.097
			S23.113,30.186,23.113,30.79 M16.588,33.208c-0.578-2.973,1.848-5.945,5.414-6.638c3.566-0.694,6.928,1.154,7.506,4.128
			c0.576,2.973-1.846,5.944-5.414,6.637c-0.508,0.1-1.01,0.146-1.5,0.146C19.629,37.481,17.084,35.759,16.588,33.208 M23.217,24.279
			c-5.996,0.843-10.414,4.687-9.865,8.586c0.547,3.897,5.854,6.376,11.852,5.532c5.996-0.844,10.416-4.686,9.867-8.585
			c-0.477-3.384-4.537-5.697-9.525-5.698C24.787,24.114,24.008,24.168,23.217,24.279 M35.168,16.389c0,0,2.287-0.625,4.27,1.159
			c1.982,1.784,1.172,4.734,1.172,4.734c-0.086,0.6-0.674,1.079-1.283,1.079h-0.107c-0.611,0-0.967-0.47-0.799-1.05
			c0,0,0.754-1.724-0.303-2.979c-1.057-1.255-2.947-0.962-2.947-0.962c-0.555,0.004-1.006-0.376-1.08-0.9
			c-0.006,0.051-0.01,0.102-0.01,0.153v-0.306c0,0.052,0.004,0.103,0.01,0.153C34.164,16.933,34.619,16.462,35.168,16.389
			 M7.76,30.79c0-6.057,11.398-15.62,15.76-15.62c1.828,0,5.416,1.364,2.904,5.681c-0.068,0.121,0.824-0.258,2.127-0.636
			c1.947-0.567,4.813-1.133,6.725-0.025c3.191,1.851,0,4.822,0,5.153c0,0.33,6.408,0.33,6.408,5.447
			c0,6.057-7.537,10.967-16.926,10.967C15.371,41.757,7.76,36.847,7.76,30.79 M34.625,11.038c0,0,4.879-0.492,8.512,2.943
			c3.633,3.434,2.496,9.142,2.496,9.142c-0.076,0.836-0.805,1.523-1.635,1.615c0.061,0.007,0.121,0.011,0.186,0.011h-0.375
			c0.064,0,0.127-0.004,0.189-0.011c-0.807-0.092-1.344-0.781-1.227-1.617c0,0,0.893-3.459-1.285-6.587
			c-2.18-3.13-6.865-2.589-6.865-2.589c-0.834-0.001-1.541-0.61-1.629-1.43c-0.006,0.057-0.008,0.114-0.008,0.172v-0.343
			c0,0.058,0.002,0.115,0.008,0.171C33.08,11.697,33.777,11.044,34.625,11.038 M0.084,27.5c0,15.143,12.275,27.417,27.416,27.417
			c15.143,0,27.416-12.274,27.416-27.417c0-15.142-12.273-27.417-27.416-27.417C12.359,0.083,0.084,12.358,0.084,27.5"/>
	</defs>
	<clipPath id="SVGID_2_">
		<use xlink:href="#SVGID_281_"  overflow="visible"/>
	</clipPath>
	
		<rect x="-5.398" y="-5.4" clip-path="url(#SVGID_2_)" fill-rule="evenodd" clip-rule="evenodd" fill="#F56467" width="65.799" height="65.8"/>
</g>
</svg>
