<?xml version="1.0" encoding="utf-8"?>
<!-- Generator: Adobe Illustrator 16.0.0, SVG Export Plug-In . SVG Version: 6.00 Build 0)  -->
<!DOCTYPE svg PUBLIC "-//W3C//DTD SVG 1.1//EN" "http://www.w3.org/Graphics/SVG/1.1/DTD/svg11.dtd">
<svg version="1.1" id="图层_1" xmlns="http://www.w3.org/2000/svg" xmlns:xlink="http://www.w3.org/1999/xlink" x="0px" y="0px"
	 width="55px" height="55px" viewBox="0 0 55 55" enable-background="new 0 0 55 55" xml:space="preserve">
<g>
	<defs>
		<path id="SVGID_279_" d="M11.754,43.323c-0.172-0.932-0.783-3.97,0.775-9.434c1.563-5.464,5.027-8.692,4.99-8.787
			c-0.152-0.379-0.236-0.794-0.236-1.233c0-1.818,1.428-3.157,3.246-3.157c1.816,0,3.186,1.339,3.186,3.157
			c0,1.816-1.369,3.245-3.186,3.245c-0.752,0-1.359-0.136-1.904-0.552c-0.145-0.11-3.057,3.211-4.504,7.854
			c-1.264,4.051-0.654,7.697-0.809,8.907c-0.07,0.566-0.379,0.807-0.705,0.807C12.238,44.13,11.846,43.819,11.754,43.323
			 M41.496,23.566c-2.439-2.067-3.422-4.86-3.445-4.86c-0.844,0-1.777-0.786-1.777-1.624c0-0.839,0.438-1.926,1.777-1.926
			s1.834,1.087,1.834,1.926c0,0.838-0.43,1.135-0.744,1.336c-0.068,0.043,0.512,2.383,2.811,4.392
			c1.16,1.015,3.172,2.154,4.133,2.445c0.959,0.291,0.195,0.859,0.115,0.873c-0.002,0-0.004,0-0.008,0
			C46.01,26.127,43.893,25.596,41.496,23.566 M10.619,24.644c0-4.947,3.25-10.185,9.91-10.185c6.658,0,9.771,5.96,9.52,10.185
			c-0.207,3.481-2.969,9.135-9.666,9.135c-1.307,0-3.277-0.262-2.801-1.334c0.477-1.072,2.525-0.447,2.801-0.447
			c4.582,0,7.707-4.122,7.873-7.354c0.166-3.233-1.877-8.402-7.873-8.402c-6.096,0-7.93,5.302-7.93,8.402
			c0,1.843,1.512,3.659,0.551,4.19c-0.117,0.066-0.246,0.099-0.377,0.099C11.711,28.932,10.619,27.338,10.619,24.644 M34.02,20.703
			c-1.854-1.943-2.15-6.397,1.301-8.349c3.451-1.951,6.691,0.252,7.551,1.87c0.756,1.427,0.969,2.498,0.627,3.988
			c-0.342,1.491-1.016,2.186-1.016,2.186c-0.178,0.243-0.506,0.274-0.734,0.091c0.006,0.006,0.014,0.013,0.021,0.019l-0.037-0.032
			c0.006,0.004,0.01,0.008,0.016,0.013c-0.211-0.202-0.223-0.522-0.031-0.73c0,0,0.201-0.073,0.623-1.066
			c0.422-0.995,0.41-3.161-0.623-4.336c-1.766-2.005-3.855-2.211-5.809-1.131c-1.393,0.77-2.641,2.582-2.176,4.752
			c0.467,2.171,2.295,3.04,2.758,3.216c0.994,0.377,1.73,0.38,1.73,0.38c0.266,0.025,0.5,0.225,0.578,0.475
			c0.006-0.038,0.006-0.078,0.002-0.119l0.023,0.238c-0.004-0.04-0.012-0.081-0.025-0.119c-0.027,0.252-0.232,0.427-0.498,0.423
			c0,0-0.057,0.004-0.16,0.004C37.57,22.477,35.588,22.35,34.02,20.703 M0.084,27.5c0,15.143,12.275,27.417,27.416,27.417
			c15.143,0,27.416-12.274,27.416-27.417c0-15.142-12.273-27.417-27.416-27.417C12.359,0.083,0.084,12.358,0.084,27.5"/>
	</defs>
	<clipPath id="SVGID_2_">
		<use xlink:href="#SVGID_279_"  overflow="visible"/>
	</clipPath>
	
		<rect x="-5.398" y="-5.4" clip-path="url(#SVGID_2_)" fill-rule="evenodd" clip-rule="evenodd" fill="#38A6D7" width="65.799" height="65.8"/>
</g>
</svg>
