<?xml version="1.0" encoding="utf-8"?>
<!-- Generator: Adobe Illustrator 18.0.0, SVG Export Plug-In . SVG Version: 6.00 Build 0)  -->
<!DOCTYPE svg PUBLIC "-//W3C//DTD SVG 1.1//EN" "http://www.w3.org/Graphics/SVG/1.1/DTD/svg11.dtd">
<svg version="1.1" id="图层_1" xmlns="http://www.w3.org/2000/svg" xmlns:xlink="http://www.w3.org/1999/xlink" x="0px" y="0px"
	 viewBox="0 0 44 44" enable-background="new 0 0 44 44" xml:space="preserve">
<g>
	<path fill-rule="evenodd" clip-rule="evenodd" fill="#333333" d="M25.4,44h-6.8c-0.2,0-15.3-1.4-15.3-14.5
		c0-10.8,9.7-16.6,13.1-18.4l-3.9-6c-0.2-0.3-0.2-0.8,0-1.1c0.2-0.4,0.6-0.6,1-0.6h5l2.6-2.8c0.2-0.2,0.5-0.4,0.8-0.4h0.1
		c0.3,0,0.6,0.1,0.8,0.4l2.6,2.8h5c0.4,0,0.8,0.2,1,0.6c0.2,0.4,0.2,0.8,0,1.1l-3.9,6c3.5,1.7,13.1,7.6,13.1,18.4
		C40.7,42.6,25.6,44,25.4,44C25.4,44,25.4,44,25.4,44L25.4,44z M15.6,5.6l3.4,5.3c0.2,0.3,0.2,0.6,0.1,0.9c-0.1,0.3-0.3,0.6-0.6,0.7
		c-0.1,0.1-13,5.5-13,16.9c0,11.1,12.6,12.3,13.2,12.3l6.6,0c1-0.1,13.1-1.5,13.1-12.3c0-11.4-12.8-16.8-13-16.9
		c-0.3-0.1-0.5-0.4-0.6-0.7c-0.1-0.3,0-0.7,0.1-0.9l3.4-5.3H25c-0.3,0-0.6-0.1-0.8-0.4L22,2.9l-2.2,2.3c-0.2,0.2-0.5,0.4-0.8,0.4
		H15.6L15.6,5.6z"/>
	<path fill-rule="evenodd" clip-rule="evenodd" fill="#333333" d="M25.9,12.6h-7.9c-0.6,0-1.1-0.5-1.1-1.1c0-0.6,0.5-1.1,1.1-1.1
		h7.9c0.6,0,1.1,0.5,1.1,1.1C27,12.2,26.5,12.6,25.9,12.6L25.9,12.6z"/>
	<path fill-rule="evenodd" clip-rule="evenodd" fill="#333333" d="M21.8,38.6c-0.3,0-0.6-0.1-0.8-0.3c-0.1-0.2-0.2-0.5-0.2-0.9v-4.3
		h-5c-0.6,0-0.9-0.3-0.9-0.9c0-0.6,0.3-0.9,0.9-0.9h5.1v-2.4h-5c-0.6,0-0.9-0.3-0.9-0.9c0-0.6,0.3-0.9,0.9-0.9h4.1l-4.8-7.8
		c-0.2-0.1-0.3-0.4-0.2-0.7c0-0.3,0.2-0.5,0.4-0.6c0.2-0.1,0.4-0.2,0.6-0.2c0.3,0,0.6,0.1,0.8,0.5l5.2,8.7l5.1-8.6
		c0.2-0.3,0.4-0.6,0.8-0.6c0.2,0,0.4,0.1,0.6,0.2c0.3,0.2,0.4,0.5,0.4,0.6c0,0.2-0.1,0.4-0.3,0.7L23.8,27h4c0.6,0,0.9,0.3,0.9,0.9
		c0,0.6-0.3,0.9-0.9,0.9h-5.1v2.4h5.1c0.6,0,0.9,0.4,0.9,0.9c0,0.6-0.3,0.9-0.9,0.9h-5.1v4.3c0,0.4-0.1,0.7-0.2,0.9
		C22.4,38.5,22.1,38.6,21.8,38.6L21.8,38.6z"/>
</g>
</svg>
